<svg id="svg" xmlns="http://www.w3.org/2000/svg" width="91" height="100" viewBox="0 0 91 100"><defs><style>.cls-1{fill:#e9eef5;}.cls-2{fill:#0455a8;}</style></defs><title>svg-sources</title><circle class="cls-1" cx="45.5" cy="45.5" r="45.5"/><path class="cls-2" d="M29,53a0.5,0.5,0,0,1-.1-1l38.5-7.52a0.5,0.5,0,1,1,.19,1L29.08,53H29Z"/><path class="cls-2" d="M29,59.63a0.5,0.5,0,0,1-.1-1l38.5-7.52a0.49,0.49,0,0,1,.59.39,0.5,0.5,0,0,1-.4.59l-38.5,7.52H29Z"/><path class="cls-2" d="M29,64a0.5,0.5,0,0,1-.5-0.5v-17a0.5,0.5,0,0,1,1,0v17A0.5,0.5,0,0,1,29,64Z"/><path class="cls-2" d="M36.76,28.33a5,5,0,0,1,5,4.91l25.75,5h0v20L30.35,65.53a2.72,2.72,0,0,1-.52.05,2.63,2.63,0,0,1-2.11-1A10.47,10.47,0,0,1,26,58.27v-20a9.48,9.48,0,0,1,3-7.52l3.2,0.62a5,5,0,0,1,4.59-3m0-2a7,7,0,0,0-5.6,2.81l-1.8-.35a2,2,0,0,0-1.73.49,11.5,11.5,0,0,0-3.63,9v20a12.15,12.15,0,0,0,2.13,7.48,4.66,4.66,0,0,0,3.7,1.82,4.73,4.73,0,0,0,.9-0.09l37.13-7.26a2,2,0,0,0,1.62-2v-20a2,2,0,0,0-1.62-2L43.51,31.55a7,7,0,0,0-6.75-5.22h0Z"/><path class="cls-2" d="M36.8,40.62a7.3,7.3,0,0,1-5.18-2.14,0.5,0.5,0,1,1,.71-0.71,6.33,6.33,0,0,0,8.94,0,0.5,0.5,0,0,1,.71.71A7.3,7.3,0,0,1,36.8,40.62Z"/><path class="cls-2" d="M36.8,38.77a5.47,5.47,0,1,1,5.47-5.47A5.48,5.48,0,0,1,36.8,38.77Zm0-9.95a4.47,4.47,0,1,0,4.47,4.47A4.48,4.48,0,0,0,36.8,28.83Z"/><path class="cls-2" d="M36.74,28.33a5,5,0,0,1,5,4.91l25.77,5L29,45.8a10.08,10.08,0,0,1-3-7.52,9.48,9.48,0,0,1,3-7.52l3.17,0.62a5,5,0,0,1,4.58-3m0-1a6,6,0,0,0-5.13,2.92l-2.43-.48-0.19,0a1,1,0,0,0-.68.26A10.57,10.57,0,0,0,25,38.27a11.07,11.07,0,0,0,3.25,8.21,1,1,0,0,0,.73.32l0.19,0,38.5-7.52a1,1,0,0,0,0-2l-25-4.89a6,6,0,0,0-5.9-5.07h0Z"/><path class="cls-2" d="M39,29A1,1,0,0,1,38,27.7a9.33,9.33,0,0,1,1.73-2.8,7.87,7.87,0,0,0-2.26-2,1,1,0,0,1,1.05-1.7c0.5,0.31,3,2,3.33,3.81a1,1,0,0,1-.27.87,8.24,8.24,0,0,0-1.69,2.52A1,1,0,0,1,39,29Z"/><path class="cls-2" d="M37.67,31.33l-0.16,0a0.5,0.5,0,0,1-.32-0.63,42.3,42.3,0,0,1,2-4.09,0.5,0.5,0,0,1,.88.47A42.67,42.67,0,0,0,38.14,31,0.5,0.5,0,0,1,37.67,31.33Z"/></svg>