<svg id="svg" xmlns="http://www.w3.org/2000/svg" width="91" height="100" viewBox="0 0 91 100"><defs><style>.cls-1{fill:#e9eef5;}.cls-2{fill:#0455a8;}</style></defs><title>svg-sources</title><circle class="cls-1" cx="45.5" cy="45.5" r="45.5"/><path class="cls-2" d="M64.48,60.34A8.52,8.52,0,0,1,56.56,55a3.76,3.76,0,0,0-3.51-2.38H37.95A3.76,3.76,0,0,0,34.44,55a8.51,8.51,0,1,1-15.81-6.3l6.62-16.61a6.48,6.48,0,0,1,8.39-3.62,6.81,6.81,0,0,0,2.51.48H54.84a6.82,6.82,0,0,0,2.51-.48,6.48,6.48,0,0,1,8.39,3.62l6.62,16.61A8.51,8.51,0,0,1,64.48,60.34ZM37.95,50.6h15.1a5.75,5.75,0,0,1,5.37,3.64,6.51,6.51,0,0,0,12.09-4.82L63.89,32.81a4.48,4.48,0,0,0-5.8-2.5,8.8,8.8,0,0,1-3.25.62H36.16a8.79,8.79,0,0,1-3.25-.62,4.48,4.48,0,0,0-5.8,2.5L20.49,49.42a6.51,6.51,0,0,0,12.09,4.82A5.75,5.75,0,0,1,37.95,50.6Z"/><path class="cls-2" d="M35.33,45.67h-1A1.71,1.71,0,0,1,32.6,44V42.48H31.13a1.71,1.71,0,0,1-1.71-1.71v-1A1.71,1.71,0,0,1,31.13,38H32.6V36.57a1.71,1.71,0,0,1,1.71-1.71h1A1.71,1.71,0,0,1,37,36.57V38h1.48a1.71,1.71,0,0,1,1.71,1.71v1a1.71,1.71,0,0,1-1.71,1.71H37V44A1.71,1.71,0,0,1,35.33,45.67ZM31.13,39a0.71,0.71,0,0,0-.71.71v1a0.71,0.71,0,0,0,.71.71H33.6V44a0.71,0.71,0,0,0,.71.71h1A0.71,0.71,0,0,0,36,44V41.48h2.48a0.71,0.71,0,0,0,.71-0.71v-1A0.71,0.71,0,0,0,38.51,39H36V36.57a0.71,0.71,0,0,0-.71-0.71h-1a0.71,0.71,0,0,0-.71.71V39H31.13Z"/><path class="cls-2" d="M52.47,43a2.78,2.78,0,1,1,2-.81h0A2.77,2.77,0,0,1,52.47,43Zm0-4.56a1.78,1.78,0,1,0,1.26.52A1.78,1.78,0,0,0,52.47,38.48Zm1.61,3.39h0Z"/><path class="cls-2" d="M59.89,43a2.78,2.78,0,1,1,2-.81h0A2.78,2.78,0,0,1,59.89,43Zm0-4.56a1.78,1.78,0,1,0,1.26.52A1.78,1.78,0,0,0,59.89,38.48Zm1.61,3.39h0Z"/></svg>