<svg id="svg" xmlns="http://www.w3.org/2000/svg" width="91" height="100" viewBox="0 0 91 100"><defs><style>.cls-1{fill:#e9eef5;}.cls-2{fill:#0455a8;}</style></defs><title>svg-sources</title><circle class="cls-1" cx="45.5" cy="45.5" r="45.5"/><path class="cls-2" d="M45.5,49.49a9,9,0,1,1,6.37-2.63A9,9,0,0,1,45.5,49.49Zm0-17a8,8,0,1,0,5.66,2.34A8,8,0,0,0,45.5,32.49Z"/><path class="cls-2" d="M45.5,69.47l-0.42-.2A32,32,0,0,1,26.62,40.41a18.88,18.88,0,0,1,37.76,0h0A32,32,0,0,1,45.92,69.27Zm0-45.94A16.9,16.9,0,0,0,28.62,40.41,30,30,0,0,0,45.5,67.26,30,30,0,0,0,62.38,40.41,16.9,16.9,0,0,0,45.5,23.53Z"/><path class="cls-2" d="M45.5,52.84a12.32,12.32,0,0,1-8.74-3.61,0.5,0.5,0,0,1,.71-0.71A11.35,11.35,0,1,0,36,46.74a0.5,0.5,0,0,1-.83.55A12.37,12.37,0,1,1,45.5,52.84Z"/></svg>