<svg id="svg" xmlns="http://www.w3.org/2000/svg" width="91" height="100" viewBox="0 0 91 100"><defs><style>.cls-1{fill:#e9eef5;}.cls-2{fill:#0455a8;}</style></defs><title>svg-sources</title><circle class="cls-1" cx="45.5" cy="45.5" r="45.5"/><path class="cls-2" d="M45.5,28l27,12L59.32,45.81v7.53c0,3.39-6.19,6.14-13.82,6.14s-13.82-2.75-13.82-6.14V45.81L18.54,40l27-12m0-2a2,2,0,0,0-.81.17l-27,12a2,2,0,0,0,0,3.66l11.95,5.31v6.23c0,4.64,6.8,8.14,15.82,8.14S61.32,58,61.32,53.34V47.11L73.27,41.8a2,2,0,0,0,0-3.66l-27-12A2,2,0,0,0,45.5,26h0Z"/><path class="cls-2" d="M45.5,28l27,12-27,12-27-12,27-12m0-1a1,1,0,0,0-.41.09l-27,12a1,1,0,0,0,0,1.83l27,12a1,1,0,0,0,.81,0l27-12a1,1,0,0,0,0-1.83l-27-12A1,1,0,0,0,45.5,27h0Z"/><path class="cls-2" d="M36.49,32l11.82,5.48L42.69,40,30.87,34.49,36.49,32m0-1a1,1,0,0,0-.41.09l-5.61,2.49a1,1,0,0,0,0,1.82l11.82,5.48a1,1,0,0,0,.83,0l5.61-2.49a1,1,0,0,0,0-1.82L36.91,31.09A1,1,0,0,0,36.49,31h0Z"/><path class="cls-2" d="M32.48,66.07a1,1,0,0,1-.74-0.32l-2.38-2.6-2.63,2.63A1,1,0,0,1,25,65.07V44.59a1,1,0,0,1,2,0V62.66L28.69,61a1,1,0,0,1,.73-0.29,1,1,0,0,1,.72.32l1.35,1.47V60.67a1,1,0,0,1,2,0v4.4A1,1,0,0,1,32.48,66.07Z"/></svg>