<?xml version="1.0" encoding="utf-8"?>
<!-- Generator: Adobe Illustrator 19.2.1, SVG Export Plug-In . SVG Version: 6.00 Build 0)  -->
<svg version="1.1" id="svg" xmlns="http://www.w3.org/2000/svg" xmlns:xlink="http://www.w3.org/1999/xlink" x="0px" y="0px"
	 width="91px" height="100px" viewBox="0 0 91 100" style="enable-background:new 0 0 91 100;" xml:space="preserve">
<style type="text/css">
	.st0{fill:#E9EEF5;}
	.st1{fill:#0455A8;}
</style>
<title>svg-sources</title>
<circle class="st0" cx="45.5" cy="45.5" r="45.5"/>
<path class="st1" d="M66.8,42.5c1.1-1.1,1.8-2.7,1.8-4.4v-1.8c0-3.4-2.8-6.2-6.2-6.2s-6.2,2.8-6.2,6.2v1.8c0,1.7,0.7,3.2,1.8,4.4
	c-1.6,0.6-3,1.6-4.2,2.9c-1.1-0.7-2.3-1.2-3.5-1.6c2.2-1.5,3.6-4,3.6-6.9v-2.4c0-0.2,0-0.4,0-0.6c-0.2-4.6-4-8.2-8.6-8s-8.2,4-8,8.6
	v2.4c0,2.9,1.5,5.4,3.7,6.9c-1.2,0.4-2.4,0.9-3.5,1.6c-1.2-1.3-2.7-2.3-4.2-2.9c1.1-1.1,1.8-2.7,1.8-4.4v-1.8c0-3.4-2.8-6.2-6.2-6.2
	s-6.2,2.8-6.2,6.2v1.8c0,1.7,0.7,3.3,1.8,4.4c-1.3,0.5-2.5,1.2-3.5,2.2c-2.4,2.2-3.8,5.4-3.8,8.7c0,2.7,2.2,4.9,4.9,4.9h8
	c0,0.2,0,0.3,0,0.5c0,3.4,2.7,6.1,6.1,6.1h19.2c3.4,0,6.1-2.7,6.1-6.1c0-0.2,0-0.3,0-0.5h8c2.7,0,4.9-2.2,4.9-4.9
	C74.1,48.5,71.1,44.2,66.8,42.5z M58.1,36.3c0-2.3,1.9-4.2,4.2-4.2c2.3,0,4.2,1.9,4.2,4.2v1.8c0,2.3-1.9,4.2-4.2,4.2
	s-4.2-1.9-4.2-4.2V36.3z M59.2,58.8c0,2.2-1.8,4.1-4.1,4.1H35.9c-1.7,0-3.1-1-3.7-2.5c-0.2-0.5-0.3-1-0.3-1.6c0-0.1,0-0.2,0-0.2
	c0.1-4.3,2.2-8.2,5.4-10.6c2.4-1.8,5.3-2.8,8.3-2.8c2.3,0,4.6,0.6,6.7,1.7c0,0,0.1,0,0.1,0.1c0.3,0.2,0.6,0.4,0.9,0.6
	C56.8,49.9,59.2,54.1,59.2,58.8z M39.2,36.9v-2.4c0-3.5,2.8-6.3,6.3-6.3v0c3.5,0,6.3,2.8,6.3,6.3v2.4c-0.1,3.3-2.8,5.9-6.1,6.1
	C42.3,43.1,39.3,40.4,39.2,36.9z M24.4,36.3c0-2.3,1.9-4.2,4.2-4.2c2.3,0,4.2,1.9,4.2,4.2v1.8c0,2.3-1.9,4.2-4.2,4.2
	s-4.2-1.9-4.2-4.2V36.3z M21.8,56.3c-1.6,0-2.9-1.3-2.9-2.9c0-5.4,4.4-9.8,9.8-9.8c3,0,5.8,1.4,7.7,3.7c-2.7,2.2-4.7,5.3-5.3,9H21.8
	z M69.2,56.3h-9.3c-0.6-3.6-2.5-6.8-5.3-8.9c1.8-2.3,4.7-3.7,7.7-3.7c5.4,0,9.8,4.4,9.8,9.8C72.1,55,70.8,56.3,69.2,56.3z"/>
</svg>
