<svg id="svg" xmlns="http://www.w3.org/2000/svg" width="40" height="40" viewBox="0 0 40 40"><defs><style>.cls-1{fill:#dae2ea;}.cls-2{fill:#0455a8;}</style></defs><title>svg-sources</title><circle class="cls-1" cx="20" cy="20" r="20"/><path class="cls-2" d="M20,23.79A3.79,3.79,0,1,1,23.79,20,3.8,3.8,0,0,1,20,23.79Zm0-6.59A2.8,2.8,0,1,0,22.8,20,2.8,2.8,0,0,0,20,17.2Z"/><path class="cls-2" d="M20,25.91A5.91,5.91,0,1,1,25.91,20,5.92,5.92,0,0,1,20,25.91Zm0-11.32A5.41,5.41,0,1,0,25.41,20,5.42,5.42,0,0,0,20,14.59Z"/><path class="cls-2" d="M21.67,31H18.33a1.72,1.72,0,0,1-1.72-1.72V28.17L15.83,29a1.76,1.76,0,0,1-2.43,0L11,26.6a1.72,1.72,0,0,1,0-2.43l0.79-.79H10.72A1.72,1.72,0,0,1,9,21.67V18.33a1.72,1.72,0,0,1,1.72-1.72h1.12L11,15.83a1.72,1.72,0,0,1,0-2.43L13.4,11a1.76,1.76,0,0,1,2.43,0l0.79,0.79V10.72A1.72,1.72,0,0,1,18.33,9h3.33a1.72,1.72,0,0,1,1.72,1.72v1.12L24.17,11a1.76,1.76,0,0,1,2.43,0L29,13.4a1.72,1.72,0,0,1,0,2.43l-0.79.79h1.12A1.72,1.72,0,0,1,31,18.33v3.33a1.72,1.72,0,0,1-1.72,1.72H28.17L29,24.17a1.72,1.72,0,0,1,0,2.43L26.6,29a1.76,1.76,0,0,1-2.43,0l-0.79-.79v1.12A1.72,1.72,0,0,1,21.67,31Zm-5.22-4.07,0.31,0.15,0.53,0.22,0.32,0.12v1.87a0.72,0.72,0,0,0,.72.72h3.33a0.72,0.72,0,0,0,.72-0.72V27.42l0.32-.12,0.53-.22,0.31-.14,1.32,1.32a0.74,0.74,0,0,0,1,0l2.36-2.36a0.73,0.73,0,0,0,0-1l-1.32-1.32,0.14-.31c0.08-.17.15-0.35,0.22-0.53l0.12-.32h1.87A0.72,0.72,0,0,0,30,21.67V18.33a0.72,0.72,0,0,0-.72-0.72H27.42l-0.12-.32c-0.07-.18-0.14-0.36-0.22-0.53l-0.14-.31,1.32-1.32a0.72,0.72,0,0,0,0-1L25.9,11.75a0.74,0.74,0,0,0-1,0l-1.32,1.32-0.31-.14-0.53-.22-0.32-.12V10.72A0.72,0.72,0,0,0,21.67,10H18.33a0.72,0.72,0,0,0-.72.72v1.87l-0.32.12-0.53.22-0.31.14-1.32-1.32a0.74,0.74,0,0,0-1,0L11.75,14.1a0.73,0.73,0,0,0,0,1l1.32,1.32-0.14.31c-0.08.17-.15,0.35-0.22,0.53l-0.12.32H10.72a0.72,0.72,0,0,0-.72.72v3.33a0.72,0.72,0,0,0,.72.72h1.87l0.12,0.32c0.07,0.18.14,0.36,0.22,0.53l0.14,0.31-1.32,1.32a0.73,0.73,0,0,0,0,1l2.36,2.36a0.74,0.74,0,0,0,1,0Z"/></svg>