<svg id="svg" xmlns="http://www.w3.org/2000/svg" width="40" height="40" viewBox="0 0 40 40"><defs><style>.cls-1{fill:#dae2ea;}.cls-2{fill:#0455a8;}</style></defs><title>svg-sources</title><circle class="cls-1" cx="20" cy="20" r="20"/><path class="cls-2" d="M19.69,23.68a7.45,7.45,0,1,1,7.46-7.45A7.46,7.46,0,0,1,19.69,23.68Zm0-14.39a6.94,6.94,0,1,0,6.94,6.94A6.95,6.95,0,0,0,19.69,9.29Z"/><path class="cls-2" d="M23.29,30a7.45,7.45,0,1,1,7.45-7.45A7.46,7.46,0,0,1,23.29,30Zm0-14.39a6.94,6.94,0,1,0,6.94,6.94A6.95,6.95,0,0,0,23.29,15.57Z"/><path class="cls-2" d="M16.09,30a7.45,7.45,0,1,1,7.46-7.45A7.46,7.46,0,0,1,16.09,30Zm0-14.39A6.94,6.94,0,1,0,23,22.51,6.95,6.95,0,0,0,16.09,15.57Z"/><path class="cls-2" d="M19.69,9a7.2,7.2,0,0,1,7.2,7.2s0,0,0,.05a7.19,7.19,0,1,1-7.19,12.45A7.19,7.19,0,1,1,12.5,16.28s0,0,0-.05A7.2,7.2,0,0,1,19.69,9m0-1a8.24,8.24,0,0,0-8.21,7.71,8.22,8.22,0,0,0,8.21,14.2,8.22,8.22,0,0,0,8.21-14.2A8.24,8.24,0,0,0,19.69,8h0Z"/></svg>