<svg id="svg" xmlns="http://www.w3.org/2000/svg" width="39.85" height="39.85" viewBox="0 0 39.85 39.85"><defs><style>.cls-1{fill:#dae2ea;}.cls-2{fill:#0455a8;}</style></defs><title>svg-sources</title><circle class="cls-1" cx="19.93" cy="19.93" r="19.93" transform="translate(-0.44 39.4) rotate(-88.71)"/><path class="cls-2" d="M19.57,21.08a0.22,0.22,0,0,1,0-.44,2.14,2.14,0,0,0,.09-3.95,0.22,0.22,0,1,1,0-.44A2.54,2.54,0,0,1,19.57,21.08Z"/><path class="cls-2" d="M7.95,19.81A1.46,1.46,0,0,1,8,17a0.22,0.22,0,1,1,0,.44,1.07,1.07,0,0,0,0,1.93A0.22,0.22,0,1,1,7.95,19.81Z"/><path class="cls-2" d="M22.37,11.56c1.53,0,2.7,3.27,2.61,7.22s-1.4,7.13-2.93,7.1-2.7-3.27-2.61-7.22,1.4-7.13,2.93-7.1m0-.44c-1.56,0-3.27,2.59-3.38,7.53s1.48,7.64,3,7.67,3.27-2.59,3.38-7.53-1.48-7.64-3-7.67h0Z"/><path class="cls-2" d="M22.37,11.56c1.53,0,2.7,3.27,2.61,7.22s-1.4,7.13-2.93,7.1c-2.35-.05-6.55-4.38-11.82-4.5H9.44c-0.62,0-1.1-1.33-1.06-2.95s0.57-2.91,1.2-2.89l0.73,0c5.3,0.12,9-4.08,12.06-4m0-.88c-1.56,0-3.08.77-4.84,1.71-2.08,1.11-4.44,2.36-7.22,2.3l-0.71,0h0c-1.39,0-2,1.86-2.09,3.75S8,22.23,9.42,22.26H10.2c2.94,0.07,5.6,1.59,7.74,2.81C19.57,26,20.86,26.73,22,26.76c2.39,0.05,3.74-4,3.83-8s-1.07-8.07-3.47-8.12h0Z"/><path class="cls-2" d="M11.4,29.12H11.34a1.93,1.93,0,0,1-1.86-2.26l0.85-5a0.44,0.44,0,1,1,.86.15l-0.85,5a1.06,1.06,0,0,0,1,1.23h0.05a1.06,1.06,0,0,0,1.07-.88l0.59-3.48a0.44,0.44,0,1,1,.86.15l-0.59,3.48A1.94,1.94,0,0,1,11.4,29.12Z"/><path class="cls-2" d="M27.2,21.16a0.44,0.44,0,0,1-.32-0.72,2.43,2.43,0,0,0,.07-2.91A0.44,0.44,0,1,1,27.63,17a3.27,3.27,0,0,1-.09,4A0.44,0.44,0,0,1,27.2,21.16Z"/><path class="cls-2" d="M30.68,25.61a0.44,0.44,0,0,1-.32-0.72,9.6,9.6,0,0,0,.26-11.66,0.44,0.44,0,0,1,.69-0.54A10.52,10.52,0,0,1,31,25.46,0.44,0.44,0,0,1,30.68,25.61Z"/><path class="cls-2" d="M28.95,22.94a0.44,0.44,0,0,1-.32-0.72,5.25,5.25,0,0,0,.14-6.38,0.44,0.44,0,1,1,.69-0.54,6.17,6.17,0,0,1-.17,7.49A0.44,0.44,0,0,1,28.95,22.94Z"/></svg>