<svg id="svg" xmlns="http://www.w3.org/2000/svg" width="39.85" height="39.85" viewBox="0 0 39.85 39.85"><defs><style>.cls-1{fill:#dae2ea;}.cls-2{fill:#0455a8;}</style></defs><title>svg-sources</title><circle class="cls-1" cx="19.93" cy="19.93" r="19.93" transform="translate(-0.44 39.4) rotate(-88.71)"/><path class="cls-2" d="M20,22.67a6.3,6.3,0,1,1,6.44-6.16A6.31,6.31,0,0,1,20,22.67Zm0.27-12.16a5.86,5.86,0,1,0,5.73,6A5.87,5.87,0,0,0,20.26,10.51Z"/><path class="cls-2" d="M19.92,25.41a2.92,2.92,0,0,1-2.23-1.12,2,2,0,0,0-1.76-.78,2.93,2.93,0,0,1-3.12-3.27,2,2,0,0,0-.7-1.8,2.93,2.93,0,0,1,.1-4.52A2,2,0,0,0,13,12.17,2.93,2.93,0,0,1,16.25,9a2,2,0,0,0,1.8-.7,2.93,2.93,0,0,1,4.52.1h0a2,2,0,0,0,1.76.78,2.93,2.93,0,0,1,3.12,3.27,2,2,0,0,0,.7,1.8,2.93,2.93,0,0,1-.1,4.52,2,2,0,0,0-.78,1.76A2.93,2.93,0,0,1,24,23.7a2,2,0,0,0-1.8.7A2.92,2.92,0,0,1,19.92,25.41Zm-3.78-2.78a2.92,2.92,0,0,1,2.23,1.12,2,2,0,0,0,3.16.07,2.92,2.92,0,0,1,2.57-1,2,2,0,0,0,2.29-2.19,2.92,2.92,0,0,1,1.11-2.52A2,2,0,0,0,27.57,15a2.92,2.92,0,0,1-1-2.57,2,2,0,0,0-2.19-2.29A2.92,2.92,0,0,1,21.87,9a2,2,0,0,0-3.16-.07,2.92,2.92,0,0,1-2.57,1,2,2,0,0,0-2.29,2.19,2.92,2.92,0,0,1-1.11,2.52,2,2,0,0,0-.07,3.16,2.92,2.92,0,0,1,1,2.57,2,2,0,0,0,2.19,2.29h0.28Z"/><path class="cls-2" d="M21.74,33H21.67a0.57,0.57,0,0,1-.47-0.42l-1.71-6.84a0.44,0.44,0,1,1,.85-0.21l1.53,6.12L23,29.82a0.57,0.57,0,0,1,.78-0.19l1.82,1.09-1.49-6a0.44,0.44,0,1,1,.85-0.21l1.67,6.68a0.57,0.57,0,0,1-.84.62l-2.19-1.32-1.32,2.19A0.57,0.57,0,0,1,21.74,33Z"/><path class="cls-2" d="M17.77,32.91a0.57,0.57,0,0,1-.49-0.3l-1.22-2.25-2.25,1.22A0.57,0.57,0,0,1,13,30.92l2-6.6a0.44,0.44,0,1,1,.84.25l-1.75,5.89,1.87-1a0.57,0.57,0,0,1,.77.23l1,1.87,1.8-6a0.44,0.44,0,1,1,.84.25l-2,6.76a0.57,0.57,0,0,1-.49.4H17.77Z"/></svg>