<svg id="svg" xmlns="http://www.w3.org/2000/svg" width="40" height="40" viewBox="0 0 40 40"><defs><style>.cls-1{fill:#dae2ea;}.cls-2{fill:#0455a8;}</style></defs><title>svg-sources</title><circle class="cls-1" cx="20" cy="20" r="20"/><path class="cls-2" d="M25,8.85a0.87,0.87,0,0,1,1,1v1h2A1.07,1.07,0,0,1,29.06,12v15.7A1.18,1.18,0,0,1,28,29H11.94a1.18,1.18,0,0,1-1.06-1.27L11,11.85a0.9,0.9,0,0,1,1-1h2v-1a0.86,0.86,0,0,1,1-1,0.86,0.86,0,0,1,1,1v1h3v-1a0.86,0.86,0,0,1,1-1,0.86,0.86,0,0,1,1,1v1h3v-1a0.86,0.86,0,0,1,1-1m0-1a1.92,1.92,0,0,0-2,2H22a2,2,0,0,0-4,0H17a1.92,1.92,0,0,0-2-2,1.92,1.92,0,0,0-2,2H12a2,2,0,0,0-2,2V27.71a2.05,2.05,0,0,0,1.94,2.15H28a2.05,2.05,0,0,0,1.94-2.15V12A2.05,2.05,0,0,0,28,9.85H27a1.92,1.92,0,0,0-2-2h0Z"/><path class="cls-2" d="M28.22,27.45H11.72a1.31,1.31,0,0,1-1.3-1.3V24.89a0.22,0.22,0,1,1,.44,0v1.25a0.87,0.87,0,0,0,.86.86h16.5a0.87,0.87,0,0,0,.86-0.86V24.89a0.22,0.22,0,1,1,.44,0v1.25A1.31,1.31,0,0,1,28.22,27.45Z"/><path class="cls-2" d="M28.22,25.32H11.72a1.31,1.31,0,0,1-1.3-1.3V22.77a0.22,0.22,0,1,1,.44,0V24a0.87,0.87,0,0,0,.86.86h16.5A0.87,0.87,0,0,0,29.08,24V22.77a0.22,0.22,0,1,1,.44,0V24A1.31,1.31,0,0,1,28.22,25.32Z"/><path class="cls-2" d="M15,8.86a1,1,0,0,1,1,1v1.39a1,1,0,1,1-2,0V9.86a1,1,0,0,1,1-1m0-.58a1.5,1.5,0,0,0-1.5,1.5v1.54a1.5,1.5,0,1,0,3,0V9.79A1.5,1.5,0,0,0,15,8.29h0Z"/><path class="cls-2" d="M20,8.86a1,1,0,0,1,1,1v1.39a1,1,0,1,1-2,0V9.86a1,1,0,0,1,1-1m0-.58a1.5,1.5,0,0,0-1.5,1.5v1.54a1.5,1.5,0,1,0,3,0V9.79A1.5,1.5,0,0,0,20,8.29h0Z"/><path class="cls-2" d="M25,8.86a1,1,0,0,1,1,1v1.39a1,1,0,1,1-2,0V9.86a1,1,0,0,1,1-1m0-.58a1.5,1.5,0,0,0-1.5,1.5v1.54a1.5,1.5,0,1,0,3,0V9.79A1.5,1.5,0,0,0,25,8.29h0Z"/></svg>