<svg id="svg" xmlns="http://www.w3.org/2000/svg" width="40" height="40" viewBox="0 0 40 40"><defs><style>.cls-1{fill:#dae2ea;}.cls-2{fill:#0455a8;}</style></defs><title>svg-sources</title><circle class="cls-1" cx="20" cy="20" r="20"/><path class="cls-2" d="M29.36,30H10.64A1.64,1.64,0,0,1,9,28.36V12.64A1.64,1.64,0,0,1,10.64,11H29.36A1.64,1.64,0,0,1,31,12.64V28.36A1.64,1.64,0,0,1,29.36,30ZM10.64,12a0.65,0.65,0,0,0-.65.65V28.36a0.65,0.65,0,0,0,.65.65H29.36A0.65,0.65,0,0,0,30,28.36V12.64A0.65,0.65,0,0,0,29.36,12H10.64Z"/><path class="cls-2" d="M30.26,14.49h-21a0.25,0.25,0,1,1,0-.49h21A0.25,0.25,0,1,1,30.26,14.49Z"/><path class="cls-2" d="M16.37,24.11A0.49,0.49,0,0,1,16,24l-2.69-2.69a0.49,0.49,0,0,1,0-.7L16,17.88a0.49,0.49,0,1,1,.7.7l-2.34,2.34,2.34,2.34A0.49,0.49,0,0,1,16.37,24.11Z"/><path class="cls-2" d="M23.63,24.11a0.49,0.49,0,0,1-.35-0.84l2.34-2.34-2.34-2.34a0.49,0.49,0,0,1,.7-0.7l2.69,2.69a0.49,0.49,0,0,1,0,.7L24,24A0.49,0.49,0,0,1,23.63,24.11Z"/><path class="cls-2" d="M18.5,25.09A0.49,0.49,0,0,1,18,24.41l3-7.36a0.49,0.49,0,0,1,.91.37l-3,7.36A0.49,0.49,0,0,1,18.5,25.09Z"/></svg>