<svg id="svg" xmlns="http://www.w3.org/2000/svg" width="221.46" height="151.83" viewBox="0 0 221.46 151.83"><defs><style>.cls-1{fill:#8893a2;}.cls-2{fill:#dae2ea;}.cls-3{fill:#bac3cc;}.cls-4{fill:#a2adba;}.cls-5{fill:#0455a8;}</style></defs><title>svg-sources</title><path class="cls-1" d="M7.74,76.17H12.4a0,0,0,0,1,0,0V131.5a2.33,2.33,0,0,1-2.33,2.33h0a2.33,2.33,0,0,1-2.33-2.33V76.17A0,0,0,0,1,7.74,76.17Z"/><path class="cls-1" d="M209.07,76.17h4.66a0,0,0,0,1,0,0V131.5a2.33,2.33,0,0,1-2.33,2.33h0a2.33,2.33,0,0,1-2.33-2.33V76.17A0,0,0,0,1,209.07,76.17Z"/><path class="cls-1" d="M16.06,54.33h4.28a0,0,0,0,1,0,0v50.86a2.14,2.14,0,0,1-2.14,2.14h0a2.14,2.14,0,0,1-2.14-2.14V54.33a0,0,0,0,1,0,0Z"/><path class="cls-1" d="M201.12,54.33h4.28a0,0,0,0,1,0,0v50.86a2.14,2.14,0,0,1-2.14,2.14h0a2.14,2.14,0,0,1-2.14-2.14V54.33A0,0,0,0,1,201.12,54.33Z"/><polygon class="cls-2" points="221.46 80.15 0 80.15 10 49.76 211.46 49.76 221.46 80.15"/><path class="cls-1" d="M30.13,74.1l-8.93-6a1,1,0,0,1,.34-1.81l40-8.63a1,1,0,0,1,.73.12l9.28,5.64a1,1,0,0,1-.3,1.83L30.9,74.24A1,1,0,0,1,30.13,74.1Z"/><path class="cls-1" d="M186.74,74.1l8.93-6a1,1,0,0,0-.34-1.81l-40-8.63a1,1,0,0,0-.73.12l-9.28,5.64a1,1,0,0,0,.3,1.83L186,74.24A1,1,0,0,0,186.74,74.1Z"/><path class="cls-1" d="M77.34,49.56L29,53.95a5.66,5.66,0,0,1-6.21-5.78V10.39A5.66,5.66,0,0,1,29,4.6L77.34,9c2.24,0.2,4,2.61,4,5.38V44.18C81.36,47,79.58,49.36,77.34,49.56Z"/><path class="cls-1" d="M144.13,49.56l48.3,4.39a5.66,5.66,0,0,0,6.21-5.78V10.39a5.66,5.66,0,0,0-6.21-5.78L144.13,9c-2.24.2-4,2.61-4,5.38V44.18C140.1,47,141.88,49.36,144.13,49.56Z"/><rect class="cls-3" x="59.47" y="2.81" width="29.83" height="36.65" rx="14.91" ry="14.91" transform="translate(-2.06 9.46) rotate(-7.17)"/><rect class="cls-3" x="129.16" y="7.21" width="29.83" height="36.65" rx="14.91" ry="14.91" transform="translate(10.12 -33.33) rotate(13.67)"/><rect class="cls-4" x="59.8" y="51.12" width="11.82" height="22.55" rx="5.91" ry="5.91" transform="matrix(0.31, -0.95, 0.95, 0.31, -13.82, 105.81)"/><rect class="cls-4" x="148.55" y="46.35" width="11.82" height="22.55" rx="5.91" ry="5.91" transform="translate(131.65 220.89) rotate(-102.51)"/><rect class="cls-4" x="54.68" y="85.29" width="15" height="49" rx="7.5" ry="7.5" transform="translate(73.21 235.47) rotate(-155.49)"/><polygon class="cls-4" points="65.73 94.83 66.32 87.4 76.73 81.83 79.73 94.83 64.73 98.83 65.73 94.83"/><rect class="cls-4" x="132.73" y="85.75" width="15" height="49" rx="7.5" ry="7.5" transform="translate(7.84 -9.3) rotate(3.91)"/><rect class="cls-4" x="115.89" y="80.79" width="15" height="49" rx="7.5" ry="7.5" transform="translate(7.46 -8.16) rotate(3.91)"/><rect class="cls-4" x="83.57" y="80.83" width="15" height="49" rx="7.5" ry="7.5" transform="matrix(-1, 0.07, -0.07, -1, 189.11, 204.22)"/><rect class="cls-3" x="50.55" y="36.04" width="11.82" height="38.62" rx="5.91" ry="5.91" transform="translate(57.24 134.42) rotate(-135)"/><rect class="cls-3" x="152.53" y="42.05" width="11.82" height="32.03" rx="5.43" ry="5.43" transform="translate(306.5 -22.9) rotate(131.2)"/><rect class="cls-3" x="166.67" y="52.63" width="11.82" height="22.55" rx="5.91" ry="5.91" transform="translate(147.57 246.24) rotate(-102.51)"/><rect class="cls-3" x="35.05" y="52.35" width="11.82" height="22.55" rx="5.91" ry="5.91" transform="matrix(0.31, -0.95, 0.95, 0.31, -32.15, 83.11)"/><rect class="cls-1" x="107.73" y="101.83" width="6" height="32" rx="3" ry="3"/><path class="cls-5" d="M87.73,105.3c0-9.1,10.3-7.47,23-7.47s23-1.63,23,7.47-10.3,11.53-23,11.53S87.73,114.4,87.73,105.3Z"/><path class="cls-1" d="M126.52,139.06L116,134.33l10.53-4.72c1.45-.65,1.45-1.71,0-2.36a7.32,7.32,0,0,0-5.26,0L110.73,132l-10.53-4.72a7.32,7.32,0,0,0-5.26,0c-1.45.65-1.45,1.71,0,2.36l10.53,4.72-10.53,4.72c-1.45.65-1.45,1.71,0,2.36a7.32,7.32,0,0,0,5.26,0l10.53-4.72,10.53,4.72a7.32,7.32,0,0,0,5.26,0C128,140.77,128,139.71,126.52,139.06Z"/><path class="cls-1" d="M126.52,141.06L116,136.33l10.53-4.72c1.45-.65,1.45-1.71,0-2.36a7.32,7.32,0,0,0-5.26,0L110.73,134l-10.53-4.72a7.32,7.32,0,0,0-5.26,0c-1.45.65-1.45,1.71,0,2.36l10.53,4.72-10.53,4.72c-1.45.65-1.45,1.71,0,2.36a7.32,7.32,0,0,0,5.26,0l10.53-4.72,10.53,4.72a7.32,7.32,0,0,0,5.26,0C128,142.77,128,141.71,126.52,141.06Z"/><circle class="cls-1" cx="96.73" cy="148.83" r="3"/><circle class="cls-1" cx="124.73" cy="148.83" r="3"/><rect class="cls-1" x="93.85" y="128.33" width="2.88" height="1.83"/><rect class="cls-1" x="93.85" y="140.28" width="2.88" height="1.99"/><rect class="cls-1" x="124.73" y="128.33" width="2.88" height="1.83"/><rect class="cls-1" x="124.73" y="140.28" width="2.88" height="1.99"/><path class="cls-1" d="M94.94,137.06l4.27-1.91a3,3,0,0,0-5.27,2.75A1.91,1.91,0,0,1,94.94,137.06Z"/><path class="cls-1" d="M126.26,137.06L122,135.14a3,3,0,0,1,5.27,2.75A1.91,1.91,0,0,0,126.26,137.06Z"/><path class="cls-3" d="M96.38,105.93l-8.28,1.21a12.92,12.92,0,0,1-14.43-9.76L62.21,49.69a11.6,11.6,0,0,1,9.28-14.14l8.3-1.45a17.23,17.23,0,0,1,19.94,14l7.51,42.83A12.92,12.92,0,0,1,96.38,105.93Z"/><path class="cls-3" d="M123.57,105.85h0c-8.43-2.88-13.37-11.35-11.4-19.52l8.66-35.87c2.2-9.11,12.07-14.31,21.56-11.34l2.33,0.73c9.08,2.84,14.27,12.08,11.6,20.64l-11,35.14C142.59,104.37,132.75,109,123.57,105.85Z"/><path class="cls-5" d="M87.73,72.25c0-16.24,10.3-29.41,23-29.41s23,13.17,23,29.41-10.3,20.59-23,20.59S87.73,88.49,87.73,72.25Z"/><rect class="cls-1" x="104.73" y="62.83" width="12" height="20" rx="3.38" ry="3.38"/><rect class="cls-1" x="107.73" y="78.83" width="6" height="32" rx="3" ry="3"/><path class="cls-3" d="M73.25,2.86S66.7,2,65.72,0a11.25,11.25,0,0,0,0,3.83s-5.15,1.33-6.65-1c0,0-.7,2.85,2.82,6.18S73.25,2.86,73.25,2.86Z"/><path class="cls-3" d="M60.62,42.83a21.68,21.68,0,0,1,7.43-6.11c5.3-2.89,8.68,9.61,8.68,9.61L61.36,48.08Z"/><path class="cls-3" d="M158.45,16s3,5.47,2.79,8.64a6.61,6.61,0,0,0-5.67-2.83C151.57,21.83,158.45,16,158.45,16Z"/><path class="cls-3" d="M128.43,27.37s-1.87,8.59-1,10.91a34.24,34.24,0,0,1,3-4.45s-1,3.74-.83,4.45a5.1,5.1,0,0,1,3.5-2C135.23,36.17,128.43,27.37,128.43,27.37Z"/></svg>