<?xml version="1.0" encoding="utf-8"?>
<!-- Generator: Adobe Illustrator 19.2.0, SVG Export Plug-In . SVG Version: 6.00 Build 0)  -->
<svg version="1.1" id="Layer_5" xmlns="http://www.w3.org/2000/svg" xmlns:xlink="http://www.w3.org/1999/xlink" x="0px" y="0px"
	 width="1800px" height="610px" viewBox="0 0 1800 610" style="enable-background:new 0 0 1800 610;" xml:space="preserve">
<style type="text/css">
	.st0{fill:#074B89;}
	.st1{clip-path:url(#SVGID_2_);}
	.st2{fill:#006DBA;}
</style>
<title>puzzle</title>
<path class="st0" d="M1649,281v-73c0-3.3-2.7-6-6-6h-120.1c-1,11.8-10.9,20-22.9,20s-21.9-8.2-22.9-20H1357c-3.3,0-6,2.7-6,6v73
	c-11.6,0-21,9.4-21,21s9.4,21,21,21v73c0,3.3,2.7,6,6,6h120.1c1-11.8,10.9-20,22.9-20s21.9,8.2,22.9,20H1643c3.3,0,6-2.7,6-6v-73
	c11.6,0,21-9.4,21-21S1660.6,281,1649,281z"/>
<path class="st0" d="M449,281v-73c0-3.3-2.7-6-6-6H321c-0.8-11.6-10.8-20.3-22.4-19.5c-10.5,0.7-18.8,9-19.5,19.5H157
	c-3.3,0-6,2.7-6,6v71.1c12.7,1.1,22,12.3,20.9,24.9c-1,11.1-9.8,19.9-20.9,20.9V396c0,3.3,2.7,6,6,6h120.1c1-11.8,10.9-20,22.9-20
	s21.9,8,22.9,20H443c3.3,0,6-2.7,6-6v-73c11.6,0,21-9.4,21-21S460.6,281,449,281z"/>
<path class="st0" d="M1651,121v73c0,3.3,2.7,6,6,6h122.1c0.8,11.6,10.8,20.3,22.4,19.5c10.5-0.7,18.8-9,19.5-19.5h122
	c3.3,0,6-2.7,6-6v-71.1c-12.7-1.1-22-12.3-20.9-24.9c1-11.1,9.8-19.9,20.9-20.9V6c0-3.3-2.7-6-6-6h-286c-3.3,0-6,2.7-6,6v73
	c-11.6,0-21,9.4-21,21l0,0c-0.1,11.5,9,20.9,20.5,21C1650.7,121,1650.8,121,1651,121z"/>
<path class="st0" d="M1649,483v-73c0-3.3-2.7-6-6-6h-122.1c-0.8-11.6-10.8-20.3-22.4-19.5c-10.5,0.7-18.8,9-19.5,19.5h-122
	c-3.3,0-6,2.7-6,6v71.1c12.7,1.1,22,12.3,20.9,24.9c-1,11.1-9.8,19.9-20.9,20.9V598c0,3.3,2.7,6,6,6h286c3.3,0,6-2.7,6-6v-73
	c11.6,0,21-9.4,21-21C1670,492.4,1660.6,483,1649,483z"/>
<path class="st0" d="M151,525v73c0,3.3,2.7,6,6,6h286c3.3,0,6-2.7,6-6v-71.1c-12.7-1.1-22-12.3-20.9-24.9c1-11.1,9.8-19.9,20.9-20.9
	V410c0-3.3-2.7-6-6-6H321c-0.8-11.6-10.8-20.3-22.4-19.5c-10.5,0.7-18.8,9-19.5,19.5H157c-3.3,0-6,2.7-6,6v73c-11.6,0-21,9.4-21,21
	c-0.1,11.5,9,20.9,20.5,21C150.7,525,150.8,525,151,525z"/>
<path class="st0" d="M-149,526.9V598c0,3.3,2.7,6,6,6h286c3.3,0,6-2.7,6-6v-71.1c-12.7-1.1-22-12.3-20.9-24.9
	c1-11.1,9.8-19.9,20.9-20.9V410c0-3.3-2.7-6-6-6H21c-0.5-11-9.7-21-21-21s-20.4,9.9-21,21H-143c-3.3,0-6,2.7-6,6v71.1
	c11.9,1,21,11,21,22.9C-127.9,516-137.1,526-149,526.9z"/>
<path class="st0" d="M1651,526.9V598c0,3.3,2.7,6,6,6h286c3.3,0,6-2.7,6-6v-71.1c-12.7-1.1-22-12.3-20.9-24.9
	c1-11.1,9.8-19.9,20.9-20.9V410c0-3.3-2.7-6-6-6h-122.1c-0.5-11-9.7-21-20.9-21s-20.4,9.9-20.9,21H1657c-3.3,0-6,2.7-6,6v71.1
	c12.7,1.1,22,12.3,20.9,24.9C1670.9,517.1,1662.1,525.9,1651,526.9z"/>
<path class="st0" d="M1649,77.1V6c0-3.3-2.7-6-6-6h-286c-3.3,0-6,2.7-6,6v71.1c12.7,1.1,22,12.3,20.9,24.9
	c-1,11.1-9.8,19.9-20.9,20.9V194c0,3.3,2.7,6,6,6h122.1c0.8,11.6,10.8,20.3,22.4,19.5c10.5-0.7,18.8-9,19.5-19.5h122
	c3.3,0,6-2.7,6-6v-71.1c-12.7-1.1-22-12.3-20.9-24.9C1629.1,86.9,1637.9,78.1,1649,77.1z"/>
<path class="st0" d="M149,77.1V6c0-3.3-2.7-6-6-6h-286c-3.3,0-6,2.7-6,6v71.1c11.9,1,21,11,21,22.9c0,11.9-9.1,21.9-21,22.9V194
	c0,3.3,2.7,6,6,6H-21c0.5,11.2,9.8,20,21,20c11.2,0,20.4-8.8,21-20H143c3.3,0,6-2.7,6-6v-71.1c-12.7-1.1-22-12.3-20.9-24.9
	C129.1,86.9,137.9,78.1,149,77.1z"/>
<path class="st0" d="M449,79V6c0-3.3-2.7-6-6-6H157c-3.3,0-6,2.7-6,6v73c-11.6,0-21,9.4-21,21s9.4,21,21,21v73c0,3.3,2.7,6,6,6
	h120.1c1-11.8,10.9-20,22.9-20s21.9,8.2,22.9,20H443c3.3,0,6-2.7,6-6v-73c11.6,0,21-9.4,21-21S460.6,79,449,79z"/>
<path class="st0" d="M149,281v-73c0-3.3-2.7-6-6-6H22.9c-1,11.8-10.9,20-22.9,20s-21.9-8.2-22.9-20H-143c-3.3,0-6,2.7-6,6v71.1
	c11.9,1,21,11,21,22.9c0.1,12-9.1,22-21,22.9V396c0,3.3,2.7,6,6,6h120.1c1-11.9,11-21,22.9-21c11.9,0,21.9,9.1,22.9,21H143
	c3.3,0,6-2.7,6-6v-73c11.6,0,21-9.4,21-21S160.6,281,149,281z"/>
<path class="st0" d="M1949,281v-73c0-3.3-2.7-6-6-6h-120.1c-1,11.8-10.9,20-22.9,20s-21.9-8.2-22.9-20H1657c-3.3,0-6,2.7-6,6v71.1
	c12.7,1.1,22,12.3,20.9,24.9c-1,11.1-9.8,19.9-20.9,20.9V396c0,3.3,2.7,6,6,6h120.1c1.1-12.7,12.3-22,24.9-20.9
	c11.1,1,19.9,9.8,20.9,20.9H1943c3.3,0,6-2.7,6-6v-73c11.6,0,21-9.4,21-21S1960.6,281,1949,281z"/>
<g>
	<defs>
		<path id="SVGID_1_" d="M2006-224H-266v638h117v67.1c11.9,1,21,11,21,22.9c0.1,12-9.1,22-21,22.9V598c0,3.3,2.7,6,6,6h286
			c3.3,0,6-2.7,6-6v-71.1c-12.7-1.1-22-12.3-20.9-24.9c1-11.1,9.8-19.9,20.9-20.9V414h2v69c-11.6,0-21,9.4-21,21
			c-0.1,11.5,9,20.9,20.5,21c0.2,0,0.3,0,0.5,0v73c0,3.3,2.7,6,6,6h286c3.3,0,6-2.7,6-6v-71.1c-12.7-1.1-22-12.3-20.9-24.9
			c1-11.1,9.8-19.9,20.9-20.9V414h902v67.1c12.7,1.1,22,12.3,20.9,24.9c-1,11.1-9.8,19.9-20.9,20.9V598c0,3.3,2.7,6,6,6h286
			c3.3,0,6-2.7,6-6v-73c11.6,0,21-9.4,21-21c0-11.6-9.4-21-21-21v-69h2v67.1c12.7,1.1,22,12.3,20.9,24.9c-1,11.1-9.8,19.9-20.9,20.9
			V598c0,3.3,2.7,6,6,6h286c3.3,0,6-2.7,6-6v-71.1c-12.7-1.1-22-12.3-20.9-24.9c1-11.1,9.8-19.9,20.9-20.9V414h57V-224z"/>
	</defs>
	<clipPath id="SVGID_2_">
		<use xlink:href="#SVGID_1_"  style="overflow:visible;"/>
	</clipPath>
	<g class="st1">
		<path class="st2" d="M1994.7,562l-194.7-139l-165.6,118.2l-64.7-46.2l-93.8,67H373.1l-68.3-48.8l-58.2,41.6l-5.8-12.8h1.4
			c0.8,0,1.4-0.6,1.4-1.4c0-0.2,0-0.4-0.1-0.6l-5.4-12h0.7c0.8,0,1.4-0.7,1.4-1.5c0-0.2,0-0.3-0.1-0.5l-5.7-12.6
			c-0.3-0.7-1.1-1-1.8-0.7c-0.3,0.1-0.6,0.4-0.7,0.7L226,526c-0.3,0.7,0,1.6,0.8,1.9c0.2,0.1,0.3,0.1,0.5,0.1h0.7l-4.7,10.4
			L137.4,477l-30.9,22.1L-0.1,423l-194.7,139H-235v45h2266v-45H1994.7z"/>
		<path class="st2" d="M332.3,113.2c1.6,1.4,1.7,3.8,0.4,5.4c-1.2,1.3-1,3.3,0.3,4.5c1.3,1.2,3.3,1,4.5-0.3c1.4-1.6,3.8-1.7,5.4-0.4
			c1.3,1.1,3.3,1,4.5-0.3c0,0,0,0,0,0l0,0c1.1-1.3,1-3.3-0.3-4.5c0,0,0,0,0,0l0,0c-1.6-1.4-1.7-3.8-0.4-5.4c1.2-1.3,1-3.3-0.3-4.5
			c-1.3-1.2-3.3-1-4.5,0.3l0,0l0,0c-1.4,1.6-3.8,1.7-5.4,0.4c-1.3-1.2-3.3-1-4.5,0.3C330.8,110,331,112,332.3,113.2L332.3,113.2
			L332.3,113.2z"/>
		<path class="st2" d="M67.1,118c1.3,0.8,1.7,2.4,0.9,3.7c0,0,0,0,0,0c-0.6,1-0.3,2.4,0.7,3.1s2.4,0.3,3.1-0.7
			c0.8-1.3,2.4-1.7,3.7-0.9c0,0,0,0,0,0c1,0.6,2.4,0.3,3.1-0.7s0.3-2.4-0.7-3.1c-1.3-0.8-1.7-2.4-0.9-3.7c0,0,0,0,0,0
			c0.6-1,0.3-2.4-0.7-3.1s-2.4-0.3-3.1,0.7l0,0c-0.8,1.3-2.4,1.7-3.7,0.9c0,0,0,0,0,0l0,0c-1-0.6-2.4-0.3-3.1,0.7S66,117.4,67.1,118
			L67.1,118z"/>
		<path class="st2" d="M1479.4,124.2c1.2,0.4,1.7,1.7,1.3,2.9c0,0,0,0,0,0c-0.4,1,0.1,2.1,1.1,2.4c1,0.4,2.1-0.1,2.4-1.1l0,0
			c0.4-1.2,1.7-1.7,2.9-1.3c0,0,0,0,0,0c1,0.4,2.1-0.1,2.4-1.1c0.4-1-0.1-2.1-1.1-2.4c-1.2-0.4-1.7-1.7-1.3-2.9c0,0,0,0,0,0
			c0.4-1-0.1-2.1-1.1-2.4c-1-0.4-2.1,0.1-2.4,1.1c-0.4,1.2-1.7,1.7-2.9,1.3c0,0,0,0,0,0c-1-0.4-2.1,0.1-2.4,1.1
			C1477.9,122.7,1478.4,123.8,1479.4,124.2L1479.4,124.2z"/>
		<path class="st2" d="M1728.8,73c1.2,0.4,1.7,1.7,1.3,2.9c0,0,0,0,0,0l0,0c-0.4,1,0.1,2.1,1.1,2.4c1,0.4,2.1-0.1,2.4-1.1
			c0.4-1.2,1.7-1.7,2.9-1.3c0,0,0,0,0,0c1,0.4,2-0.1,2.4-1.1c0,0,0,0,0,0l0,0c0.4-1-0.1-2-1.1-2.4c0,0,0,0,0,0
			c-1.2-0.4-1.7-1.7-1.3-2.9c0,0,0,0,0,0c0.4-1-0.1-2-1.1-2.4c0,0,0,0,0,0l0,0c-1-0.4-2,0.1-2.4,1c0,0,0,0,0,0
			c-0.4,1.2-1.7,1.7-2.9,1.3c0,0,0,0,0,0c-1-0.4-2.1,0.1-2.4,1.1C1727.3,71.5,1727.8,72.6,1728.8,73z"/>
		<path class="st2" d="M1433.3,71.7l-1.7,3.5c-0.5,1-0.1,2.2,0.9,2.7c0.4,0.2,0.9,0.3,1.3,0.2l3.8-0.7l2.8,2.7c0.8,0.8,2,0.8,2.8,0
			c0.3-0.3,0.5-0.7,0.6-1.2l0.5-3.8l3.4-1.8c1-0.5,1.4-1.7,0.9-2.7c-0.2-0.4-0.5-0.7-1-0.9l-3.5-1.7l-0.6-3.8
			c-0.2-1.1-1.2-1.8-2.3-1.7c-0.4,0.1-0.9,0.3-1.2,0.6l-2.7,2.8l-3.8-0.6c-1.1-0.2-2.1,0.5-2.3,1.6c-0.1,0.5,0,1,0.3,1.4
			L1433.3,71.7z"/>
		<path class="st2" d="M381.8,255.1c1-0.8,2.4-0.6,3.2,0.4c0,0,0,0,0,0c0.6,0.8,1.8,1,2.6,0.3s1-1.8,0.3-2.6c-0.8-1-0.6-2.4,0.4-3.2
			c0,0,0,0,0,0c0.8-0.6,1-1.8,0.3-2.6c-0.6-0.8-1.8-1-2.6-0.3c-1,0.8-2.4,0.6-3.2-0.4c0,0,0,0,0,0c-0.6-0.8-1.8-1-2.6-0.3
			s-1,1.8-0.3,2.6c0.8,1,0.6,2.4-0.4,3.2c0,0,0,0,0,0c-0.8,0.6-1,1.8-0.3,2.6C379.8,255.6,381,255.8,381.8,255.1z"/>
		<path class="st2" d="M254.1,69.9l1.9,1.3v2.3c0,0.7,0.5,1.2,1.2,1.2c0.3,0,0.6-0.1,0.8-0.3l1.8-1.4l2.2,0.7
			c0.6,0.2,1.3-0.2,1.5-0.8c0.1-0.3,0.1-0.5,0-0.8l-0.8-2.2l1.3-1.9c0.4-0.5,0.2-1.3-0.3-1.7c-0.2-0.1-0.4-0.2-0.7-0.2l-2.3,0.1
			l-1.4-1.9c-0.4-0.5-1.2-0.6-1.7-0.2c-0.2,0.2-0.4,0.4-0.4,0.6l-0.7,2.2l-2.2,0.8c-0.6,0.2-1,0.9-0.7,1.5
			C253.8,69.6,253.9,69.8,254.1,69.9z"/>
		<path class="st2" d="M1446.2,276.8c-0.7-0.9-2-1-2.9-0.3c-0.9,0.7-1,2-0.3,2.9c0.9,1,0.7,2.6-0.3,3.4c0,0,0,0,0,0l0,0
			c-0.9,0.7-1,2-0.3,2.9s2,1,2.9,0.3c1-0.9,2.6-0.7,3.4,0.3c0.7,0.9,2,1,2.9,0.3c0.9-0.7,1-2,0.3-2.9c-0.9-1-0.7-2.6,0.3-3.4
			c0.9-0.7,1-2,0.3-2.9s-2-1-2.9-0.3C1448.6,277.9,1447.1,277.8,1446.2,276.8z"/>
		<path class="st2" d="M296.5,277.7c0.7,0.9,1.9,1,2.8,0.3c0,0,0,0,0.1,0c1-0.9,2.6-0.7,3.4,0.3c0.7,0.9,2,1,2.9,0.3
			c0.9-0.7,1-2,0.3-2.9c-0.9-1-0.7-2.6,0.3-3.4c0.9-0.7,1-2,0.3-2.9c-0.7-0.9-2-1-2.9-0.3c-1,0.9-2.6,0.7-3.4-0.3
			c-0.7-0.9-2-1-2.9-0.3c-0.9,0.7-1,2-0.3,2.9l0,0c0.9,1,0.7,2.6-0.3,3.4c0,0,0,0,0,0C295.9,275.5,295.7,276.7,296.5,277.7
			C296.4,277.6,296.5,277.6,296.5,277.7z"/>
		<path class="st2" d="M1527.4,262.1l4.4,0.8l1.9,4.1c0.5,1.2,1.9,1.7,3.1,1.1c0.5-0.2,0.8-0.6,1.1-1l2.1-4l4.5-0.5
			c1.3-0.2,2.2-1.3,2.1-2.6c-0.1-0.5-0.3-1-0.6-1.4l-3.1-3.2l0.9-4.4c0.3-1.3-0.6-2.5-1.8-2.8c-0.5-0.1-1,0-1.5,0.2l-4,2l-3.9-2.2
			c-1.1-0.6-2.6-0.2-3.2,0.9c-0.3,0.4-0.3,1-0.3,1.5l0.6,4.4l-3.3,3c-1,0.9-1.1,2.3-0.2,3.3C1526.4,261.8,1526.9,262,1527.4,262.1z"
			/>
		<ellipse transform="matrix(0.9684 -0.2496 0.2496 0.9684 29.6023 382.216)" class="st2" cx="1522" cy="74.4" rx="2.6" ry="2.6"/>
		
			<ellipse transform="matrix(0.9684 -0.2496 0.2496 0.9684 -25.113 407.8503)" class="st2" cx="1595.8" cy="303" rx="2.6" ry="2.6"/>
		<ellipse transform="matrix(0.9674 -0.2531 0.2531 0.9674 -1.3634 89.7598)" class="st2" cx="348.2" cy="50.2" rx="2.2" ry="2.2"/>
		
			<ellipse transform="matrix(0.9674 -0.2531 0.2531 0.9674 -58.525 68.5586)" class="st2" cx="237.2" cy="261.8" rx="2.2" ry="2.2"/>
		<path class="st2" d="M366.4,556H377v4h4v-4h6.8l-0.7,1.7c-0.2,0.5,0.1,1.1,0.6,1.3c0.1,0,0.2,0,0.2,0.1h6.1v1h4v-1h6.1
			c0.5,0,0.9-0.4,0.9-0.9c0-0.1,0-0.3-0.1-0.4L401,549h0.9c0.5,0,0.9-0.4,0.9-0.9c0-0.1,0-0.3-0.1-0.4l-3.5-7.7h0.5
			c0.5-0.1,0.9-0.6,0.9-1.1c0-0.1,0-0.2-0.1-0.2l-3.7-8.1c-0.2-0.5-0.7-0.7-1.2-0.4c-0.2,0.1-0.4,0.2-0.4,0.4l-3.7,8.2
			c-0.2,0.5,0.1,1.1,0.6,1.3c0.1,0,0.2,0,0.2,0.1h0.5l-3.2,6.7l-3-6.7h1.4c0.8,0,1.4-0.6,1.4-1.4c0-0.2,0-0.4-0.1-0.6l-5.4-12h0.7
			c0.7,0.1,1.3-0.4,1.4-1.1c0-0.2,0-0.5-0.1-0.7l-5.7-12.5c-0.3-0.7-1.2-1-1.9-0.7c-0.3,0.1-0.6,0.4-0.7,0.7l-5.7,12.4
			c-0.3,0.6,0,1.4,0.6,1.7c0.2,0.1,0.4,0.1,0.7,0.1h0.7l-5.4,12c-0.3,0.7,0,1.5,0.7,1.9c0.2,0.1,0.4,0.1,0.6,0.1h1.4l-6.2,13.8
			c-0.3,0.8,0,1.7,0.8,2.1C366.1,555.9,366.2,556,366.4,556z M391,548.8l-0.2,0.6l-0.2-0.6H391z"/>
		<path class="st2" d="M1404.1,555h7.9v5h3v-5h7.9c0.7,0,1.1-0.6,1.1-1.3c0-0.1,0-0.3-0.1-0.4l-4.7-10.4h1.1
			c0.5,0.1,0.9-0.2,1.1-0.6c0-0.2,0-0.4-0.1-0.6l-4.1-8.8h0.5c0.7-0.1,1.2-0.7,1.1-1.4c0-0.1,0-0.2-0.1-0.4l-4.3-9.6
			c-0.2-0.5-0.8-0.8-1.4-0.6c-0.2,0.1-0.4,0.3-0.5,0.5l-4.3,9.7c-0.3,0.6,0,1.3,0.6,1.6c0.1,0,0.2,0.1,0.4,0.1h0.5l-4.1,8.8
			c-0.2,0.4,0,1,0.4,1.2c0.2,0.1,0.4,0.1,0.6,0.1h1.1l-4.6,10.4c-0.3,0.6,0,1.3,0.6,1.6C1403.9,555,1404,555,1404.1,555z"/>
		<path class="st2" d="M1448.7,501.5l-7,15.3c-0.4,0.8,0,1.7,0.8,2.1c0.3,0.1,0.5,0.2,0.8,0.1h0.9l-6.7,15.2c-0.5,1,0,2.2,1,2.7
			c0.2,0.1,0.4,0.1,0.6,0.2h0.9l-6.7,14.7c-0.4,0.8,0,1.8,0.8,2.2c0.2,0.1,0.5,0.2,0.8,0.1h12.2v6h6v-6h4c0,0.8,0.6,1,1.4,1h9.6v5h5
			v-5h10.6c0.6,0.1,1.3-0.3,1.4-1c0-0.2,0-0.5-0.1-0.7l-6.2-13.3h1.4c0.8,0,1.4-0.6,1.4-1.4c0-0.2,0-0.4-0.1-0.6l-5.4-12h0.7
			c0.8,0,1.4-0.7,1.4-1.5c0-0.2,0-0.3-0.1-0.5l-5.7-12.6c-0.3-0.7-1.1-1-1.8-0.7c-0.3,0.1-0.6,0.4-0.7,0.7L1464,524
			c-0.3,0.7,0,1.6,0.8,1.9c0.2,0.1,0.3,0.1,0.5,0.1h0.7l-3.3,7.1l-6.2-14.1h0.9c0.9,0.1,1.6-0.5,1.7-1.4c0-0.3,0-0.6-0.1-0.8
			l-7-15.4c-0.4-0.9-1.4-1.2-2.3-0.8C1449.2,500.7,1448.8,501.1,1448.7,501.5z M1462.7,541.2l-0.6-1.3h1.2L1462.7,541.2z
			 M1460.9,537.2l-0.2-0.5h0.5L1460.9,537.2z"/>
	</g>
</g>
</svg>
