<?xml version="1.0" encoding="utf-8"?>
<!-- Generator: Adobe Illustrator 19.2.0, SVG Export Plug-In . SVG Version: 6.00 Build 0)  -->
<svg version="1.1" id="Layer_3" xmlns="http://www.w3.org/2000/svg" xmlns:xlink="http://www.w3.org/1999/xlink" x="0px" y="0px"
	 width="680px" height="375px" viewBox="0 0 680 375" style="enable-background:new 0 0 680 375;" xml:space="preserve">
<style type="text/css">
	.st0{fill:#074B89;}
	.st1{clip-path:url(#SVGID_2_);}
	.st2{fill:#006DBA;}
	.st3{fill:none;}
	.st4{fill:url(#SVGID_3_);}
	.st5{fill:#E3EAF4;}
	.st6{fill:#CEDAE3;}
</style>
<title>puzzle</title>
<path class="st0" d="M423.3,174.9V131c0-2-1.6-3.6-3.6-3.6h-72.2c-0.6,7.1-6.6,12-13.8,12s-13.2-5-13.8-12h-72.2
	c-2,0-3.6,1.6-3.6,3.6l0,0v43.9c-7,0-12.6,5.6-12.6,12.6s5.6,12.6,12.6,12.6c0,0,0,0,0,0V244c0,2,1.6,3.6,3.6,3.6l0,0h72.2
	c0.6-7.1,6.6-12,13.8-12s13.2,5,13.8,12h72.2c2,0,3.6-1.6,3.6-3.6v-43.9c7,0,12.6-5.7,12.6-12.6S430.3,174.9,423.3,174.9
	L423.3,174.9z"/>
<path class="st0" d="M784.2,174.9V131c0-2-1.6-3.6-3.6-3.6h-72.2c-0.6,7.1-6.6,12-13.8,12s-13.2-5-13.8-12h-72.2
	c-2,0-3.6,1.6-3.6,3.6v43.9c-7,0-12.6,5.6-12.6,12.6s5.6,12.6,12.6,12.6c0,0,0,0,0,0V244c0,2,1.6,3.6,3.6,3.6h72.2
	c0.6-7.1,6.6-12,13.8-12s13.2,5,13.8,12h72.2c2,0,3.6-1.6,3.6-3.6v-43.9c7,0,12.6-5.7,12.6-12.6S791.2,174.9,784.2,174.9z"/>
<path class="st0" d="M242.9,173.7V131c0-2-1.6-3.6-3.6-3.6l0,0H167c-0.6,7.1-6.6,12-13.8,12s-13.2-5-13.8-12H67.2
	c-2,0-3.6,1.6-3.6,3.6v42.8c7.6,0.6,13.3,7.3,12.6,15c-0.6,6.7-5.9,12-12.6,12.6V244c0,2,1.6,3.6,3.6,3.6h73.4
	c0.4,7,6.4,12.3,13.3,11.9c6.4-0.4,11.5-5.5,11.9-11.9h73.4c2,0,3.6-1.6,3.6-3.6l0,0v-42.7c-5.6-0.1-12.3-4.7-12.7-13.9
	C230.2,178.1,237.3,175,242.9,173.7z"/>
<path class="st0" d="M62.4,174.9V131c0-2-1.6-3.6-3.6-3.6l0,0h-73.4c-0.4-6.7-5.9-12-12.6-12c-6.7,0-12.3,5.3-12.6,12h-73.4
	c-2,0-3.6,1.6-3.6,3.6l0,0v42.8c7.1,0.6,12.6,6.6,12.6,13.8c0,7.2-5.5,13.2-12.6,13.8V244c0,2,1.6,3.6,3.6,3.6l0,0H-41
	c0.6-7.1,6.6-12,13.8-12s13.2,4.8,13.8,12h72.2c2,0,3.6-1.6,3.6-3.6l0,0v-43.9c7,0,12.6-5.7,12.6-12.6S69.4,174.9,62.4,174.9z"/>
<path class="st0" d="M603.8,173.7V131c0-2-1.6-3.6-3.6-3.6h-73.4c-0.4-7-6.4-12.3-13.3-11.9c-6.4,0.4-11.5,5.5-11.9,11.9h-73.4
	c-2,0-3.6,1.6-3.6,3.6v42.8c7.6,0.6,13.3,7.3,12.6,15c-0.6,6.7-5.9,12-12.6,12.6V244c0,2,1.6,3.6,3.6,3.6h71.2c0.6,0,1.1-0.4,1.2-1
	c1.1-6.6,6.8-11,13.7-11c6.9,0,12.6,4.4,13.7,11c0.1,0.6,0.6,1,1.2,1h71.2c2,0,3.6-1.6,3.6-3.6v-42.7c-7.6-0.7-13.2-7.4-12.5-15.1
	C591.9,179.6,597.1,174.3,603.8,173.7z"/>
<path class="st0" d="M423.3,296.4v-43.9c0-2-1.6-3.6-3.6-3.6h-73.4c-0.4-7-6.4-12.3-13.3-11.9c-6.4,0.4-11.5,5.5-11.9,11.9h-73.4
	c-2,0-3.6,1.6-3.6,3.6l0,0v42.8c7.6,0.6,13.3,7.3,12.6,15c-0.6,6.7-5.9,12-12.6,12.6v42.8c0,2,1.6,3.6,3.6,3.6h172
	c2,0,3.6-1.6,3.6-3.6v-43.9c7,0,12.6-5.6,12.7-12.6C435.9,302.1,430.3,296.4,423.3,296.4z"/>
<path class="st0" d="M784.2,296.4v-43.9c0-2-1.6-3.6-3.6-3.6h-73.4c-0.4-7-6.4-12.3-13.3-11.9c-6.4,0.4-11.5,5.5-11.9,11.9h-73.4
	c-2,0-3.6,1.6-3.6,3.6v42.8c7.6,0.6,13.3,7.3,12.6,15c-0.6,6.7-5.9,12-12.6,12.6v42.8c0,2,1.6,3.6,3.6,3.6h172c2,0,3.6-1.6,3.6-3.6
	v-43.9c7,0,12.6-5.6,12.7-12.6C796.9,302.1,791.2,296.4,784.2,296.4z"/>
<path class="st0" d="M242.9,296.4v-43.9c0-2-1.6-3.6-3.6-3.6l0,0H167c-0.6,7.1-6.6,12-13.8,12s-13.2-5-13.8-12H67.2
	c-2,0-3.6,1.6-3.6,3.6l0,0v43.9c-7,0-12.6,5.7-12.6,12.6s5.7,12.6,12.6,12.6v43.9c0,2,1.6,3.6,3.6,3.6h172c2,0,3.6-1.6,3.6-3.6
	v-43.9c7,0,12.6-5.6,12.7-12.6C255.5,302.1,249.8,296.4,242.9,296.4L242.9,296.4z"/>
<path class="st0" d="M603.8,296.4v-43.9c0-2-1.6-3.6-3.6-3.6h-72.9c-0.3,0-0.6-0.2-0.6-0.6c-0.6-6.9-6.8-12-13.7-11.4
	c-6,0.6-10.8,5.3-11.4,11.4c0,0.3-0.3,0.6-0.6,0.6h-72.9c-2,0-3.6,1.6-3.6,3.6v42.8c7.6,0.6,13.3,7.3,12.6,15
	c-0.6,6.7-5.9,12-12.6,12.6v42.8c0,2,1.6,3.6,3.6,3.6h172c2,0,3.6-1.6,3.6-3.6v-43.9c7,0,12.6-5.6,12.7-12.6
	S610.8,296.4,603.8,296.4z"/>
<path class="st0" d="M242.9,53.4V9.4c0-2-1.6-3.6-3.6-3.6l0,0h-172c-2,0-3.6,1.6-3.6,3.6l0,0v42.8c7.6,0.6,13.3,7.3,12.6,15
	c-0.6,6.7-5.9,12-12.6,12.6v42.8c0,2,1.6,3.6,3.6,3.6l0,0h73.4c0.4,7,6.4,12.3,13.3,11.9c6.4-0.4,11.5-5.5,11.9-11.9h73.4
	c2,0,3.6-1.6,3.6-3.6l0,0V78.6c6.9-0.6,12.1-6.8,11.4-13.8C253.7,58.8,248.9,54,242.9,53.4z"/>
<path class="st0" d="M-116.9,321.6v43.9c0,2,1.6,3.6,3.6,3.6h172c2,0,3.6-1.6,3.6-3.6v-42.8c-7.6-0.6-13.3-7.3-12.6-15
	c0.6-6.7,5.9-12,12.6-12.6v-42.8c0-2-1.6-3.6-3.6-3.6l0,0h-73.4c-0.4-6.7-5.9-12-12.6-12c-6.7,0-12.3,5.3-12.6,12h-73.4
	c-2,0-3.6,1.6-3.6,3.6l0,0v43.9c-7,0-12.6,5.6-12.6,12.6c-0.1,6.9,5.4,12.6,12.3,12.6C-117.1,321.6-117,321.6-116.9,321.6z"/>
<path class="st0" d="M423.3,52.2V9.4c0-2-1.6-3.6-3.6-3.6h-172c-2,0-3.6,1.6-3.6,3.6l0,0v42.8c7.6,0.6,13.3,7.3,12.6,15
	c-0.6,6.7-5.9,12-12.6,12.6v42.8c0,2,1.6,3.6,3.6,3.6l0,0h73.4c0.4,7,6.4,12.3,13.3,11.9c6.4-0.4,11.5-5.5,11.9-11.9h73.4
	c2,0,3.6-1.6,3.6-3.6V79.8c-7.6-0.6-13.3-7.3-12.6-15C411.3,58.1,416.6,52.8,423.3,52.2z"/>
<path class="st0" d="M784.2,52.2V9.4c0-2-1.6-3.6-3.6-3.6h-172c-2,0-3.6,1.6-3.6,3.6c0,0,0,0,0,0v42.8c7.6,0.6,13.3,7.3,12.6,15
	c-0.6,6.7-5.9,12-12.6,12.6v42.8c0,2,1.6,3.6,3.6,3.6H682c0.4,7,6.4,12.3,13.3,11.9c6.4-0.4,11.5-5.5,11.9-11.9h73.4
	c2,0,3.6-1.6,3.6-3.6V79.8c-7.6-0.7-13.3-7.3-12.6-15C772.2,58.1,777.5,52.8,784.2,52.2z"/>
<path class="st0" d="M603.8,53.4V9.4c0-2-1.6-3.6-3.6-3.6h-172c-2,0-3.6,1.6-3.6,3.6v43.9c-7,0-12.6,5.7-12.6,12.6
	s5.7,12.6,12.6,12.6v43.9c0,2,1.6,3.6,3.6,3.6h72.2c0.6-7.1,6.6-12,13.8-12s13.2,5,13.8,12h72.2c2,0,3.6-1.6,3.6-3.6V78.6
	c7,0,12.6-5.7,12.6-12.7C616.4,59,610.8,53.3,603.8,53.4L603.8,53.4z"/>
<path class="st0" d="M62.4,53.4V9.4c0-2-1.6-3.6-3.6-3.6l0,0h-172c-2,0-3.6,1.6-3.6,3.6l0,0v43.9c-7,0-12.7,5.6-12.7,12.6
	c0,0,0,0,0,0.1c0,7,5.7,12.6,12.6,12.6v43.9c0,2,1.6,3.6,3.6,3.6l0,0H-41c0.6-7.1,6.6-12,13.8-12s13.2,5,13.8,12h72.2
	c2,0,3.6-1.6,3.6-3.6l0,0V78.6C69.4,78.6,75,73,75,66C75,59,69.4,53.4,62.4,53.4L62.4,53.4z"/>
<g>
	<defs>
		<path id="SVGID_1_" d="M964.7,175v-43.9c0.2-1.9-1.3-3.6-3.2-3.8c0,0,0,0-0.1,0h-72.2c-0.6,7.2-6.6,12-13.8,12s-13.2-4.8-13.8-12
			h-30.4v-1.2h31.6c0.4,7,6.4,12.3,13.3,11.9c6.4-0.4,11.5-5.5,11.9-11.9h73.4c1.8,0.1,3.3-1.3,3.3-3.1c0-0.1,0-0.2,0-0.3V79.9
			c-7.2-0.6-12.7-6.6-12.6-13.8c0.2-7.1,5.6-13,12.6-13.8V9.6c0.2-1.9-1.3-3.6-3.2-3.8c0,0,0,0-0.1,0h-172c-2.1,0-3.8,1.7-3.9,3.8
			v43.9c-6.9,0.1-12.5,5.7-12.6,12.6c-0.1,6.9,5.4,12.6,12.3,12.6c0.1,0,0.2,0,0.3,0v36.5h-1.2V79.9c-7.1-0.8-12.5-6.7-12.6-13.8
			c0.2-7.1,5.6-13,12.6-13.8V9.6c0.2-1.9-1.3-3.6-3.2-3.8c0,0,0,0-0.1,0h-172c-2.1,0-3.8,1.7-3.9,3.8v42.8c7.6,0.6,13.3,7.3,12.6,15
			c-0.6,6.7-5.9,12-12.6,12.6v35.4h-1.2V78.8c7,0,12.6-5.7,12.6-12.6s-5.7-12.6-12.6-12.6V9.6c0.2-1.9-1.3-3.6-3.2-3.8
			c0,0,0,0-0.1,0h-172c-2.1,0-3.8,1.7-3.9,3.8v43.9c-7,0-12.6,5.7-12.6,12.6s5.7,12.6,12.6,12.6v43.9c0,2,1.9,3.4,3.9,3.4h72.2
			c0.6-6.6,6.6-12,13.8-12s13.2,5.4,13.8,12h44.8v1.2h-46c-0.4-7-6.4-12.3-13.3-11.9c-6.4,0.4-11.5,5.5-11.9,11.9h-73.5
			c-2.1,0-3.8,1.7-3.9,3.8v42.8c7.6,0.6,13.3,7.3,12.6,15c-0.6,6.7-5.9,12-12.6,12.6v35.4h-1.2v-36.5c7,0,12.6-5.7,12.6-12.6
			c0-7-5.7-12.6-12.6-12.6v-43.9c0.2-1.9-1.3-3.6-3.2-3.8c0,0,0,0-0.1,0h-72.2c-0.6,7.2-6.6,12-13.8,12s-13.2-4.8-13.8-12h-64.7
			v-1.2h65.9c0.4,7,6.4,12.3,13.3,11.9c6.4-0.4,11.5-5.5,11.9-11.9H420c1.8,0.1,3.3-1.3,3.3-3.1c0-0.1,0-0.2,0-0.3V79.9
			c-7.1-0.8-12.5-6.7-12.6-13.8c0.2-7.1,5.6-13,12.6-13.8V9.6c0.2-1.9-1.3-3.6-3.2-3.8c0,0,0,0-0.1,0H248c-2.1,0-3.8,1.7-3.9,3.8
			v42.8c7.6,0.6,13.3,7.3,12.6,15c-0.6,6.7-5.9,12-12.6,12.6v27.6h-1.2V78.8c7,0,12.6-5.7,12.6-12.6s-5.7-12.6-12.6-12.6V9.6
			c0.2-1.9-1.3-3.6-3.2-3.8c0,0,0,0-0.1,0h-172c-2.1,0-3.8,1.7-3.9,3.8v42.8c7.6,0.6,13.3,7.3,12.6,15c-0.6,6.7-5.9,12-12.6,12.6
			v35.4h-1.2V78.8c7,0,12.6-5.7,12.6-12.6s-5.7-12.6-12.6-12.6l0,0V9.6c0.2-1.9-1.3-3.6-3.2-3.8c0,0,0,0-0.1,0H-113
			c-2.1,0-3.8,1.7-3.9,3.8v43.9c-6.9,0.1-12.5,5.7-12.6,12.6c0.1,6.9,5.7,12.5,12.7,12.6v36.5h-1.2V79.9
			c-7.1-0.8-12.5-6.7-12.6-13.8c0.2-7.1,5.6-13,12.6-13.8V9.6c0.2-1.9-1.3-3.6-3.2-3.8c0,0,0,0-0.1,0h-172c-2.1,0-3.8,1.7-3.9,3.8
			v42.8c7.2,0.6,12.6,6.6,12.6,13.8c0,7.2-5.5,13.2-12.6,13.8v42.8c0,2,1.9,3.4,3.9,3.4h73.4c0.4,6.7,5.9,12,12.6,12
			c6.7,0,12.2-5.3,12.6-12h53.3v1.2h-52.1c-0.6,7.2-6.6,12-13.8,12s-13.2-4.8-13.8-12h-72.2c-2.1,0-3.8,1.7-3.9,3.8v42.8
			c7.2,0.6,12.7,6.6,12.6,13.8c0,7.2-5.5,13.2-12.6,13.8v42.8c0,2,1.9,3.4,3.9,3.4h72.2c0.8-7.1,6.7-12.5,13.8-12.7
			c7.1,0.2,13,5.6,13.8,12.6h52.1v1.2h-53.3c-0.3-6.6-5.8-12.6-12.6-12.6s-12.3,6-12.6,12.6h-73.4c-2.1,0-3.8,1.7-3.9,3.8v42.8
			c7.2,0.6,12.7,6.6,12.6,13.8c0.1,7.2-5.4,13.2-12.6,13.8v42.8c0,2,1.9,3.4,3.9,3.4h172c1.8,0.1,3.3-1.3,3.3-3.1c0-0.1,0-0.2,0-0.3
			V323c-7.2-0.6-12.7-6.6-12.6-13.8c0.2-7.1,5.6-13,12.6-13.8v-21.9h1.2v23c-6.9,0.1-12.5,5.7-12.6,12.6
			c-0.1,6.9,5.4,12.5,12.3,12.6c0.1,0,0.2,0,0.3,0v43.9c0,2,1.9,3.4,3.9,3.4H59c1.8,0.1,3.3-1.3,3.3-3.1c0-0.1,0-0.2,0-0.3V323
			c-7.2-0.6-12.7-6.6-12.6-13.8c0.2-7.1,5.6-13,12.6-13.8v-12.9h1.2v14c-7,0-12.6,5.7-12.6,12.6s5.7,12.6,12.6,12.6v43.9
			c0,2,1.9,3.4,3.9,3.4h172c1.8,0.1,3.3-1.3,3.3-3.1c0-0.1,0-0.2,0-0.3v-43.9c7,0,12.6-5.7,12.6-12.6s-5.7-12.6-12.6-12.6v-43.9
			c0.2-1.9-1.3-3.6-3.2-3.8c0,0,0,0-0.1,0h-72.1c-0.6,7.2-6.6,12-13.8,12s-13.2-4.8-13.8-12H75.6v-1.2h65.3
			c0.4,7,6.4,12.3,13.3,11.9c6.4-0.4,11.5-5.5,11.9-11.9h73.4c1.8,0.1,3.3-1.3,3.3-3.1c0-0.1,0-0.2,0-0.3v-42.8
			c-7.6-0.6-13.3-7.3-12.6-15c0.6-6.7,5.9-12,12.6-12.6v-24.3h1.2V175c-7,0-12.6,5.7-12.6,12.6c0,7,5.7,12.6,12.6,12.6v43.9
			c0,2,1.9,3.4,3.9,3.4h72.2c0.6-6.6,6.6-12,13.8-12s13.2,5.4,13.8,12h54.5v1.2h-55.7c-0.4-7-6.4-12.3-13.3-11.9
			c-6.4,0.4-11.5,5.5-11.9,11.9H248c-2.1,0-3.8,1.7-3.9,3.8v42.8c7.6,0.6,13.3,7.3,12.6,15c-0.6,6.7-5.9,12-12.6,12.6v42.8
			c0,2,1.9,3.4,3.9,3.4h172c1.8,0.1,3.3-1.3,3.3-3.1c0-0.1,0-0.2,0-0.3v-43.9c7,0,12.6-5.7,12.6-12.6s-5.7-12.6-12.6-12.6v-14h1.2
			v12.9c7.6,0.6,13.3,7.3,12.6,15c-0.6,6.7-5.9,12-12.6,12.6v42.8c0,2,1.9,3.4,3.9,3.4h172c1.8,0.1,3.3-1.3,3.3-3.1
			c0-0.1,0-0.2,0-0.3v-43.9c7,0,12.6-5.7,12.6-12.6s-5.7-12.6-12.6-12.6v-23h1.3v21.9c7.6,0.7,13.2,7.4,12.5,15
			c-0.6,6.7-5.9,11.9-12.5,12.5v42.8c0,2,1.9,3.4,3.9,3.4h172c1.8,0.1,3.3-1.3,3.3-3.1c0-0.1,0-0.2,0-0.3v-43.9
			c7,0,12.6-5.7,12.6-12.6s-5.7-12.6-12.6-12.6l0,0v-23h1.2v21.9c7.6,0.6,13.3,7.3,12.6,15c-0.6,6.7-5.9,12-12.6,12.6v42.8
			c0,2,1.9,3.4,3.9,3.4h172c1.8,0.1,3.3-1.3,3.3-3.1c0-0.1,0-0.2,0-0.3V323c-7.2-0.6-12.7-6.6-12.6-13.8c0.2-7.1,5.6-13,12.6-13.8
			v-42.8c0.2-1.9-1.3-3.6-3.2-3.8c0,0,0,0-0.1,0H888c-0.3-6.6-5.8-12.6-12.6-12.6s-12.3,6-12.6,12.6h-49.1v-1.2h47.9
			c0.6-7.6,7.3-13.3,15-12.6c6.7,0.6,12,5.9,12.6,12.6h72.2c1.8,0.1,3.3-1.3,3.3-3.1c0-0.1,0-0.2,0-0.3v-43.9
			c7,0,12.7-5.7,12.7-12.7S971.7,175,964.7,175z M-26.9,114.1c7.2,0,13.2,5.4,13.8,12h57.5v1.2h-58.7c-0.4-6.7-5.9-12-12.6-12
			c-6.7,0-12.2,5.3-12.6,12h-65.9v-1.2h64.7C-40.1,119.5-34.2,114.1-26.9,114.1z M-105.4,182.1c1.2,1.7,1.2,3.6,1.2,5.6
			s0,3.9-1.2,5.7V182.1L-105.4,182.1z M-26.9,236.9c-6.7,0-12.2,5.3-12.6,12h-65.9v-1.2h64.7c0.6-6.6,6.6-12,13.8-12
			s13.2,4.8,13.8,12h57.5v1.2h-58.7C-14.7,242.1-20.2,236.9-26.9,236.9L-26.9,236.9z M75.6,190.7v-6c0.6,1,0.3,2,0.3,3
			S76.2,189.7,75.6,190.7z M153.5,139.4c-7.2,0-13.2-4.8-13.8-12H75.6v-1.2h65.3c0.4,7,6.4,12.3,13.3,11.9
			c6.4-0.4,11.5-5.5,11.9-11.9h47.2v1.2h-46.1C166.7,134.6,160.8,139.4,153.5,139.4z M798.1,187.7c0,7.2-5.5,13.2-12.6,13.8v34.8
			h-1.2v-35.9c7,0,12.6-5.7,12.6-12.6c0-7-5.7-12.6-12.6-12.6v-25.4h1.2v24.3C792.6,174.5,798.1,180.5,798.1,187.7L798.1,187.7z
			 M591.1,187.7c0.2-7.1,5.6-13,12.6-13.8v-24.3h1.2V175c-7,0-12.6,5.7-12.6,12.6c0,7,5.7,12.6,12.6,12.6v35.9h-1.2v-34.7
			C596.7,200.7,591.3,194.8,591.1,187.7L591.1,187.7z M690.7,236.2c1.3,0,2.7-0.6,4.2-0.6s2.9,0.6,4.2,0.6H690.7L690.7,236.2z
			 M527,248.4c-0.6-6.9-6.8-12-13.7-11.4c-6,0.6-10.8,5.3-11.4,11.4c0,0.3-0.3,0.5-0.6,0.5h-52.7v-1.2h51c0.6,0,1.1-0.4,1.2-0.9
			c1.1-6.6,6.8-11,13.7-11s12.6,4.4,13.7,11c0.1,0.6,0.6,1,1.2,0.9h43.8v1.2h-45.4C527.3,249,527.1,248.8,527,248.4
			C527,248.4,527,248.4,527,248.4z"/>
	</defs>
	<clipPath id="SVGID_2_">
		<use xlink:href="#SVGID_1_"  style="overflow:visible;"/>
	</clipPath>
	<g class="st1">
		<rect x="-349.1" y="343.9" class="st2" width="1363.1" height="27.1"/>
		
			<ellipse transform="matrix(0.9776 -0.2105 0.2105 0.9776 -7.3213 28.6299)" class="st2" cx="130.8" cy="48.7" rx="12.3" ry="12.3"/>
		<ellipse transform="matrix(0.9776 -0.2105 0.2105 0.9776 -6.3749 31.5077)" class="st2" cx="144.8" cy="45.7" rx="0.9" ry="0.9"/>
		<path class="st2" d="M101,54.1l14.8-3.2c0.6-0.1,1.1,0.2,1.2,0.8l0,0c0.1,0.6-0.2,1.1-0.8,1.2l-14.8,3.2c-0.6,0.1-1.1-0.2-1.2-0.8
			l0,0C100.1,54.8,100.4,54.2,101,54.1z"/>
		<path class="st2" d="M107,66.3l13.6-6.7c0.5-0.3,1.1,0,1.4,0.5v0c0.3,0.5,0,1.1-0.5,1.4l-13.6,6.7c-0.5,0.3-1.1,0-1.4-0.5v0
			C106.3,67.1,106.5,66.5,107,66.3z"/>
		<path class="st2" d="M102,40.5l15.1,0.5c0.6,0,1,0.5,1,1.1l0,0c0,0.6-0.5,1-1.1,1l-15.1-0.5c-0.6,0-1-0.5-1-1.1l0,0
			C100.9,40.9,101.4,40.4,102,40.5z"/>
		<path class="st2" d="M177.9,75.4L177.9,75.4c0.3-1-0.3-2.1-1.3-2.3l0,0c-1-0.3-2.1,0.3-2.4,1.3l0,0c-0.4,1.2-1.6,1.9-2.8,1.6l0,0
			c-1-0.3-2.1,0.3-2.4,1.3l0,0c-0.3,1,0.3,2.1,1.3,2.3l0,0c1.2,0.4,1.9,1.6,1.6,2.8l0,0c-0.3,1,0.3,2.1,1.3,2.3l0,0
			c1,0.3,2.1-0.3,2.4-1.3l0,0c0.4-1.2,1.6-1.9,2.8-1.6l0,0c1,0.3,2.1-0.3,2.4-1.3l0,0c0.3-1-0.3-2.1-1.3-2.3l0,0
			C178.2,77.9,177.6,76.6,177.9,75.4z"/>
		<path class="st2" d="M0.8,73.3L0.8,73.3c0.7-0.8,0.6-2-0.2-2.7l0,0c-0.8-0.7-2-0.6-2.7,0.2l0,0c-0.8,0.9-2.3,1-3.2,0.2l0,0
			c-0.8-0.7-2-0.6-2.7,0.2l0,0c-0.7,0.8-0.6,2,0.2,2.7l0,0c0.9,0.8,1,2.3,0.2,3.2l0,0c-0.7,0.8-0.6,2,0.2,2.7l0,0
			c0.8,0.7,2,0.6,2.7-0.2l0,0c0.8-0.9,2.3-1,3.2-0.2l0,0c0.8,0.7,2,0.6,2.7-0.2l0,0c0.7-0.8,0.6-2-0.2-2.7l0,0
			C0,75.8-0.1,74.3,0.8,73.3z"/>
		<path class="st2" d="M552.3,92.7L552.3,92.7c-0.4-0.5-1.1-0.6-1.6-0.2l0,0c-0.5,0.4-0.5,1.1-0.2,1.5l0,0c0.5,0.6,0.4,1.4-0.2,1.9
			c0,0,0,0,0,0l0,0c-0.5,0.4-0.6,1.1-0.2,1.6l0,0c0.4,0.5,1.1,0.6,1.6,0.2l0,0c0.6-0.5,1.4-0.4,1.9,0.2c0,0,0,0,0,0l0,0
			c0.4,0.5,1.1,0.6,1.6,0.2l0,0c0.5-0.4,0.6-1.1,0.2-1.6l0,0c-0.5-0.6-0.4-1.4,0.2-1.9c0,0,0,0,0,0l0,0c0.5-0.4,0.6-1.1,0.2-1.6l0,0
			c-0.4-0.5-1.1-0.6-1.6-0.2l0,0C553.6,93.3,552.7,93.2,552.3,92.7C552.3,92.7,552.3,92.7,552.3,92.7z"/>
		<path class="st2" d="M193.9,45.8L193.9,45.8c-0.1-0.5-0.7-0.9-1.2-0.8c0,0,0,0,0,0l0,0c-0.5,0.1-0.9,0.7-0.8,1.2c0,0,0,0,0,0l0,0
			c0.1,0.6-0.3,1.3-0.9,1.4c0,0,0,0,0,0l0,0c-0.5,0.1-0.9,0.7-0.8,1.2c0,0,0,0,0,0l0,0c0.1,0.5,0.7,0.9,1.2,0.8c0,0,0,0,0,0l0,0
			c0.6-0.1,1.3,0.3,1.4,0.9c0,0,0,0,0,0l0,0c0.1,0.5,0.7,0.9,1.2,0.8c0,0,0,0,0,0l0,0c0.5-0.1,0.9-0.7,0.8-1.2c0,0,0,0,0,0l0,0
			c-0.1-0.6,0.3-1.3,0.9-1.4c0,0,0,0,0,0l0,0c0.5-0.1,0.9-0.7,0.8-1.2c0,0,0,0,0,0l0,0c-0.1-0.5-0.7-0.9-1.2-0.8c0,0,0,0,0,0l0,0
			C194.7,46.8,194,46.4,193.9,45.8C193.9,45.8,193.9,45.8,193.9,45.8z"/>
		<path class="st2" d="M352.2,92.5L352.2,92.5c0.3-0.5,0.2-1.1-0.3-1.4c0,0,0,0,0,0l0,0c-0.5-0.3-1.1-0.2-1.4,0.3c0,0,0,0,0,0l0,0
			c-0.4,0.6-1.1,0.7-1.7,0.4c0,0,0,0,0,0l0,0c-0.5-0.3-1.1-0.2-1.4,0.3c0,0,0,0,0,0l0,0c-0.3,0.5-0.2,1.1,0.3,1.4c0,0,0,0,0,0l0,0
			c0.6,0.4,0.7,1.1,0.4,1.7c0,0,0,0,0,0l0,0c-0.3,0.5-0.2,1.1,0.3,1.4c0,0,0,0,0,0l0,0c0.5,0.3,1.1,0.2,1.4-0.3c0,0,0,0,0,0l0,0
			c0.4-0.6,1.1-0.7,1.7-0.4c0,0,0,0,0,0l0,0c0.5,0.3,1.1,0.2,1.4-0.3c0,0,0,0,0,0l0,0c0.3-0.5,0.2-1.1-0.3-1.4c0,0,0,0,0,0l0,0
			C352,93.8,351.9,93.1,352.2,92.5C352.2,92.5,352.2,92.5,352.2,92.5z"/>
		<path class="st2" d="M340.4,55.7c2.2,8.8,11.1,14.1,19.9,11.9c8.4-2.1,13.7-10.4,12.1-18.9L340.4,55.7z"/>
		<path class="st2" d="M352.7,35.6c-8.6,1.9-14.2,10.2-12.6,18.8l32-6.9C369.9,39,361.3,33.7,352.7,35.6z M365.9,45.3
			c-1.2,1.6-4,1.5-6.1-0.1s-2.9-4.3-1.7-5.9s4-1.5,6.1,0.1S367.1,43.8,365.9,45.3z"/>
		<path class="st2" d="M310.3,86.1l1.2-0.2c0.3-0.1,0.7,0.1,0.7,0.5c0,0.1,0,0.3,0,0.4l-0.5,1.1l0.6,1c0.2,0.3,0.1,0.7-0.2,0.8
			c-0.1,0.1-0.2,0.1-0.4,0.1l-1.2-0.2l-0.8,0.9c-0.2,0.3-0.6,0.3-0.9,0c-0.1-0.1-0.2-0.2-0.2-0.3l-0.2-1.1l-1.1-0.5
			c-0.3-0.1-0.4-0.5-0.3-0.8c0.1-0.1,0.1-0.2,0.3-0.3l1-0.6l0.1-1.2c0.1-0.3,0.4-0.6,0.7-0.5c0.1,0,0.2,0.1,0.3,0.1L310.3,86.1z"/>
		<path class="st2" d="M661,46.7l2.1,1c0.6,0.3,0.8,1,0.5,1.6c-0.1,0.2-0.3,0.4-0.5,0.5L661,51l-0.3,2.3c-0.1,0.7-0.7,1.1-1.4,1
			c-0.3,0-0.5-0.2-0.7-0.3l-1.7-1.6l-2.3,0.4c-0.7,0.2-1.3-0.3-1.5-0.9c-0.1-0.3,0-0.6,0.2-0.9l1-2.1l-1.1-2
			c-0.3-0.6-0.1-1.3,0.5-1.6c0.2-0.1,0.5-0.2,0.8-0.1l2.3,0.3l1.6-1.7c0.5-0.5,1.2-0.5,1.7-0.1c0.2,0.2,0.3,0.4,0.4,0.7L661,46.7z"
			/>
		<path class="st2" d="M518.9,195.2L518.9,195.2c-0.4-0.5-1.1-0.6-1.6-0.2l0,0c-0.5,0.4-0.6,1.1-0.2,1.6l0,0
			c0.5,0.6,0.4,1.4-0.2,1.9c0,0,0,0,0,0l0,0c-0.5,0.4-0.6,1.1-0.2,1.6l0,0c0.4,0.5,1.1,0.6,1.6,0.2l0,0c0.6-0.5,1.4-0.4,1.9,0.2
			c0,0,0,0,0,0l0,0c0.4,0.5,1.1,0.6,1.6,0.2l0,0c0.5-0.4,0.6-1.1,0.2-1.6l0,0c-0.5-0.6-0.4-1.4,0.2-1.9c0,0,0,0,0,0l0,0
			c0.5-0.4,0.6-1.1,0.2-1.6l0,0c-0.4-0.5-1.1-0.6-1.6-0.2l0,0C520.2,195.9,519.3,195.8,518.9,195.2
			C518.9,195.2,518.9,195.2,518.9,195.2z"/>
		<path class="st2" d="M22.6,154.2L22.6,154.2c-0.4-0.5-1.1-0.6-1.6-0.2l0,0c-0.5,0.4-0.6,1.1-0.2,1.6l0,0c0.5,0.6,0.4,1.4-0.2,1.9
			c0,0,0,0,0,0l0,0c-0.5,0.4-0.6,1.1-0.2,1.6l0,0c0.4,0.5,1.1,0.6,1.6,0.2l0,0c0.6-0.5,1.4-0.4,1.9,0.2c0,0,0,0,0,0l0,0
			c0.4,0.5,1.1,0.6,1.6,0.2l0,0c0.5-0.4,0.6-1.1,0.2-1.6l0,0c-0.5-0.6-0.4-1.4,0.2-1.9c0,0,0,0,0,0l0,0c0.5-0.4,0.6-1.1,0.2-1.6l0,0
			c-0.4-0.5-1.1-0.6-1.6-0.2l0,0C23.9,154.9,23,154.8,22.6,154.2C22.6,154.2,22.6,154.2,22.6,154.2z"/>
		<path class="st2" d="M480.9,150.2l1.6-0.9c0.5-0.2,1.1,0,1.3,0.5c0.1,0.2,0.1,0.3,0.1,0.5l-0.3,1.8l1.3,1.3c0.4,0.4,0.3,1-0.1,1.4
			c-0.1,0.1-0.3,0.2-0.5,0.2l-1.8,0.3l-0.8,1.7c-0.3,0.5-0.9,0.6-1.4,0.4c-0.2-0.1-0.3-0.2-0.4-0.4l-0.8-1.7l-1.8-0.3
			c-0.5-0.1-0.9-0.6-0.8-1.2c0-0.2,0.1-0.3,0.2-0.5l1.3-1.3l-0.3-1.8c0-0.6,0.4-1,0.9-1.1c0.2,0,0.3,0,0.5,0.1L480.9,150.2z"/>
		<path class="st2" d="M140.9,93.1l1.2-0.7c0.4-0.2,0.8-0.1,1,0.3c0.1,0.1,0.1,0.3,0.1,0.5l-0.2,1.4l1,1c0.3,0.3,0.3,0.7,0,1
			c-0.1,0.1-0.3,0.2-0.4,0.2l-1.4,0.2l-0.6,1.2c-0.2,0.4-0.6,0.5-1,0.3c-0.1-0.1-0.3-0.2-0.3-0.3l-0.7-1.2l-1.4-0.2
			c-0.4-0.1-0.7-0.4-0.6-0.8c0-0.2,0.1-0.3,0.2-0.4l1-1l-0.2-1.4c-0.1-0.4,0.2-0.8,0.6-0.8c0.2,0,0.3,0,0.5,0.1L140.9,93.1z"/>
		<path class="st2" d="M180.8,160.1L180.8,160.1c0.5-0.4,0.6-1.2,0.2-1.7c0,0,0,0,0,0l0,0c-0.4-0.5-1.2-0.6-1.7-0.2c0,0,0,0,0,0l0,0
			c-0.6,0.5-1.6,0.4-2.1-0.2c0,0,0,0,0,0l0,0c-0.4-0.5-1.2-0.6-1.7-0.2c0,0,0,0,0,0l0,0c-0.5,0.4-0.6,1.2-0.2,1.7c0,0,0,0,0,0l0,0
			c0.5,0.6,0.4,1.6-0.2,2.1c0,0,0,0,0,0l0,0c-0.5,0.4-0.6,1.2-0.2,1.7c0,0,0,0,0,0l0,0c0.4,0.5,1.2,0.6,1.7,0.2c0,0,0,0,0,0l0,0
			c0.6-0.5,1.6-0.4,2.1,0.2c0,0,0,0,0,0l0,0c0.4,0.5,1.2,0.6,1.7,0.2c0,0,0,0,0,0l0,0c0.5-0.4,0.6-1.2,0.2-1.7c0,0,0,0,0,0l0,0
			C180.1,161.5,180.2,160.6,180.8,160.1C180.8,160.1,180.8,160.1,180.8,160.1z"/>
		<path class="st2" d="M665.9,174.4L665.9,174.4c0.5-0.4,0.6-1.2,0.2-1.7c0,0,0,0,0,0l0,0c-0.4-0.5-1.2-0.6-1.7-0.2c0,0,0,0,0,0l0,0
			c-0.6,0.5-1.6,0.4-2.1-0.2c0,0,0,0,0,0l0,0c-0.4-0.5-1.2-0.6-1.7-0.2c0,0,0,0,0,0l0,0c-0.5,0.4-0.6,1.2-0.2,1.7c0,0,0,0,0,0l0,0
			c0.5,0.6,0.4,1.6-0.2,2.1c0,0,0,0,0,0l0,0c-0.5,0.4-0.6,1.2-0.2,1.7c0,0,0,0,0,0l0,0c0.4,0.5,1.2,0.6,1.7,0.2c0,0,0,0,0,0l0,0
			c0.6-0.5,1.6-0.4,2.1,0.2c0,0,0,0,0,0l0,0c0.4,0.5,1.2,0.6,1.7,0.2c0,0,0,0,0,0l0,0c0.5-0.4,0.6-1.2,0.2-1.7c0,0,0,0,0,0l0,0
			C665.2,175.8,665.3,174.9,665.9,174.4C665.9,174.4,665.9,174.4,665.9,174.4z"/>
		<path class="st2" d="M552.7,171L552.7,171c0.5-0.4,0.6-1.2,0.2-1.7c0,0,0,0,0,0l0,0c-0.4-0.5-1.2-0.6-1.7-0.2c0,0,0,0,0,0l0,0
			c-0.6,0.5-1.6,0.4-2.1-0.2c0,0,0,0,0,0l0,0c-0.4-0.5-1.2-0.6-1.7-0.2c0,0,0,0,0,0l0,0c-0.5,0.4-0.6,1.2-0.2,1.7c0,0,0,0,0,0l0,0
			c0.5,0.6,0.4,1.6-0.2,2.1c0,0,0,0,0,0l0,0c-0.5,0.4-0.6,1.2-0.2,1.7c0,0,0,0,0,0l0,0c0.4,0.5,1.2,0.6,1.7,0.2c0,0,0,0,0,0l0,0
			c0.6-0.5,1.6-0.4,2.1,0.2c0,0,0,0,0,0l0,0c0.4,0.5,1.2,0.6,1.7,0.2c0,0,0,0,0,0l0,0c0.5-0.4,0.6-1.2,0.2-1.7c0,0,0,0,0,0l0,0
			C552,172.4,552.1,171.5,552.7,171C552.7,171,552.7,171,552.7,171z"/>
		<path class="st2" d="M126.9,162.7l2.7,0.3c0.8,0.1,1.3,0.8,1.2,1.6c0,0.3-0.2,0.6-0.4,0.8l-1.9,1.9l0.5,2.6
			c0.2,0.8-0.3,1.5-1.1,1.7c-0.3,0.1-0.6,0-0.9-0.1l-2.4-1.2l-2.4,1.3c-0.7,0.4-1.5,0.1-1.9-0.6c-0.1-0.3-0.2-0.6-0.2-0.9l0.4-2.7
			l-2-1.8c-0.6-0.5-0.6-1.4-0.1-2c0.2-0.2,0.5-0.4,0.8-0.4l2.7-0.5l1.1-2.5c0.3-0.7,1.2-1,1.9-0.7c0.3,0.1,0.5,0.3,0.6,0.6
			L126.9,162.7z"/>
		<ellipse transform="matrix(0.9675 -0.2529 0.2529 0.9675 -7.1478 76.5793)" class="st2" cx="294.3" cy="66.1" rx="1.6" ry="1.6"/>
		<ellipse transform="matrix(0.9675 -0.2529 0.2529 0.9675 -6.2495 78.8089)" class="st2" cx="303.4" cy="63.7" rx="2.1" ry="2.1"/>
		
			<ellipse transform="matrix(0.9675 -0.2529 0.2529 0.9675 -11.3071 83.4402)" class="st2" cx="318.9" cy="85.7" rx="1.6" ry="1.6"/>
		
			<ellipse transform="matrix(0.9675 -0.2529 0.2529 0.9675 -13.1084 78.9829)" class="st2" cx="300.7" cy="90.5" rx="1.6" ry="1.6"/>
		
			<ellipse transform="matrix(0.9675 -0.2529 0.2529 0.9675 -13.9911 76.7861)" class="st2" cx="291.7" cy="92.8" rx="1.3" ry="1.3"/>
		<line class="st3" x1="292.1" y1="88.8" x2="293.9" y2="70.1"/>
		<path class="st2" d="M292.2,89.2H292c-0.2,0-0.4-0.2-0.4-0.4c0,0,0,0,0,0l1.9-18.7c0-0.2,0.2-0.4,0.5-0.4s0.4,0.2,0.4,0.5
			l-1.8,18.7C292.5,89,292.4,89.1,292.2,89.2z"/>
		<line class="st3" x1="301.1" y1="86.4" x2="302" y2="77.1"/>
		<path class="st2" d="M301.2,86.8H301c-0.2,0-0.4-0.2-0.4-0.4c0,0,0,0,0,0l0.9-9.4c0-0.2,0.2-0.4,0.5-0.4s0.4,0.2,0.4,0.5l0,0
			l-0.9,9.3C301.5,86.6,301.3,86.8,301.2,86.8z"/>
		<line class="st3" x1="316.6" y1="82.4" x2="305.8" y2="67"/>
		<path class="st2" d="M316.7,82.8c-0.2,0-0.3,0-0.4-0.2l-10.8-15.4c-0.1-0.2-0.1-0.4,0.1-0.6c0.2-0.1,0.4-0.1,0.5,0.1l10.7,15.4
			c0.1,0.2,0.1,0.4-0.1,0.6L316.7,82.8z"/>
		<line class="st3" x1="307.2" y1="84.2" x2="296.9" y2="69.3"/>
		<path class="st2" d="M307.3,84.6c-0.2,0-0.3,0-0.4-0.2l-10.3-14.9c-0.1-0.2-0.1-0.4,0.1-0.6c0.2-0.1,0.4-0.1,0.6,0.1c0,0,0,0,0,0
			l10.3,14.8c0.1,0.2,0.1,0.4-0.1,0.6L307.3,84.6z"/>
		<line class="st3" x1="294.6" y1="92.6" x2="298.1" y2="91.7"/>
		<path class="st2" d="M298.2,91.6l-3.7,1c-0.2,0.1-0.4,0-0.5-0.2c-0.1-0.2,0-0.4,0.2-0.5c0,0,0.1,0,0.1,0l3.7-1
			c0.2-0.1,0.4,0,0.5,0.2C298.5,91.3,298.4,91.5,298.2,91.6C298.2,91.6,298.2,91.6,298.2,91.6z"/>
		<line class="st3" x1="297.1" y1="65.3" x2="299.9" y2="64.6"/>
		<path class="st2" d="M300.2,64.5l-3.2,0.8c-0.2,0.1-0.4,0-0.5-0.2c-0.1-0.2,0-0.4,0.2-0.5c0,0,0.1,0,0.1,0l3.2-0.8
			c0.2-0.1,0.4,0,0.5,0.2C300.5,64.2,300.4,64.4,300.2,64.5C300.2,64.5,300.2,64.5,300.2,64.5z"/>
		<line class="st3" x1="313.3" y1="87.7" x2="316" y2="87"/>
		<path class="st2" d="M316.2,86.9l-2.6,0.7c-0.2,0.1-0.4,0-0.5-0.2c-0.1-0.2,0-0.4,0.2-0.5c0,0,0.1,0,0.1,0l2.6-0.7
			c0.2-0.1,0.4,0,0.5,0.2C316.6,86.6,316.5,86.8,316.2,86.9C316.3,86.9,316.2,86.9,316.2,86.9z"/>
		<path class="st2" d="M525.7,289.8l-29,29c-1,1-1,2.6,0,3.6c0.1,0.1,0.2,0.1,0.2,0.2c10.1,7.9,24.7,6.1,32.6-3.9
			c6.6-8.4,6.6-20.2,0-28.7c-0.9-1.1-2.5-1.3-3.6-0.4C525.8,289.6,525.8,289.7,525.7,289.8z"/>
		<circle class="st2" cx="504.2" cy="297.3" r="2.7"/>
		<circle class="st2" cx="521.5" cy="314.6" r="3.7"/>
		<circle class="st2" cx="527.7" cy="320.7" r="3.7"/>
		<path class="st2" d="M534.6,342.7h-13.9c-0.7,0-1.2-0.5-1.2-1.2c0-0.1,0-0.2,0-0.3l4-14.2c0.1-0.5,0.6-0.9,1.2-0.9h5.9
			c0.5,0,1,0.4,1.2,0.9l4,14.2c0.2,0.6-0.2,1.3-0.8,1.5C534.8,342.7,534.7,342.7,534.6,342.7z"/>
		<circle class="st2" cx="335" cy="339" r="3.6"/>
		<circle class="st2" cx="326" cy="339" r="3.6"/>
		<circle class="st2" cx="361.2" cy="339" r="3.6"/>
		<circle class="st2" cx="352.2" cy="339" r="3.6"/>
		<circle class="st2" cx="308" cy="339" r="3.6"/>
		<path class="st2" d="M302.7,322.7h11.6c1.1,0,1.9,0.9,1.9,1.9v12.6c0,1.1-0.9,1.9-1.9,1.9h-11.6c-1.1,0-1.9-0.9-1.9-1.9v-12.6
			C300.8,323.5,301.6,322.7,302.7,322.7z"/>
		<path class="st2" d="M321.1,315.1h46.7c1.1,0,1.9,0.9,1.9,1.9v20.1c0,1.1-0.9,1.9-1.9,1.9h-46.7c-1.1,0-1.9-0.9-1.9-1.9V317
			C319.2,316,320.1,315.1,321.1,315.1z"/>
		<rect x="312.7" y="335.4" class="st2" width="15.2" height="3.6"/>
		
			<linearGradient id="SVGID_3_" gradientUnits="userSpaceOnUse" x1="198.2819" y1="99.2271" x2="481.0119" y2="285.6971" gradientTransform="matrix(1 0 0 -1 0 376)">
			<stop  offset="0" style="stop-color:#007ADC;stop-opacity:0"/>
			<stop  offset="1" style="stop-color:#007ADC"/>
		</linearGradient>
		<path class="st4" d="M477.2,100.6l-16.6-3.2l3.4-17.3C229.2,226.9-8.9,265.2-74.7,167.7l270,400.1
			C129.6,470.4,253.5,263.4,477.2,100.6z"/>
		<path class="st5" d="M490.1,84.9L490.1,84.9c-1,5.3-6.1,8.7-11.4,7.7l-9.6-1.9l0,0l1.9-9.6c1-5.3,6.2-8.8,11.5-7.7l0,0
			C487.7,74.5,491.2,79.6,490.1,84.9L490.1,84.9z"/>
		<path class="st5" d="M497.9,71.6c5.1,7.5,6.4,16.9,3.7,25.5c-0.6,1.8,0.4,3.7,2.2,4.2c0.8,0.2,1.6,0.2,2.4-0.1
			c2.1-0.9,4.1-2.1,5.9-3.5c13-9.9,15.6-28.5,5.7-41.5c-9.5-12.5-27.2-15.5-40.2-6.6c-1.4,1-2.8,2-4,3.2c-1.3,1.3-1.3,3.5,0,4.8
			c0.6,0.6,1.3,0.9,2.1,1C484.6,59.3,492.8,64,497.9,71.6z"/>
		<path class="st6" d="M489,80.7c1.2,1.8,3.3,2.7,5.4,2.5c15.8-1.9,33.1-3.9,43.3-10.8c13.3-9,22.1-23.3,24.2-39.2
			c0.4-3.2-1.6-6.2-4.8-7C541.6,22.2,525,25,511.7,34c-10.2,6.9-18.5,22.2-26.2,36.1c-1,1.9-0.9,4.2,0.3,6L489,80.7z"/>
		
			<ellipse transform="matrix(0.8288 -0.5595 0.5595 0.8288 62.2866 304.4918)" class="st5" cx="528.8" cy="50.4" rx="12.4" ry="12.4"/>
		<polygon class="st2" points="736.6,303.6 793.9,344.5 679.3,344.5 		"/>
		<polygon class="st2" points="-24.4,314.5 17.5,344.5 -66.3,344.5 		"/>
		<circle class="st0" cx="528.8" cy="50.4" r="9.4"/>
		<path class="st2" d="M21,313.7l3.4,7.6c0.2,0.4,0,0.9-0.4,1.1c-0.1,0.1-0.2,0.1-0.4,0.1h-6.8c-0.5,0-0.8-0.4-0.8-0.8
			c0-0.1,0-0.2,0.1-0.4l3.4-7.6c0.2-0.4,0.7-0.6,1.1-0.4C20.8,313.4,20.9,313.6,21,313.7z"/>
		<path class="st2" d="M21,317.6l5.5,12.2c0.2,0.4,0,0.9-0.4,1.1c-0.1,0.1-0.2,0.1-0.4,0.1h-11c-0.5,0-0.8-0.4-0.8-0.8
			c0-0.1,0-0.2,0.1-0.4l5.5-12.2c0.2-0.4,0.7-0.6,1.1-0.4C20.8,317.2,20.9,317.4,21,317.6z"/>
		<path class="st2" d="M21,322.4l7.6,16.7c0.2,0.4,0,0.9-0.4,1.1c-0.1,0.1-0.2,0.1-0.4,0.1H12.7c-0.5,0-0.8-0.4-0.8-0.8
			c0-0.1,0-0.2,0.1-0.4l7.6-16.7c0.2-0.4,0.7-0.6,1.1-0.4C20.8,322.1,20.9,322.2,21,322.4z"/>
		<path class="st2" d="M19.6,334.2h1.3c0.5,0,0.8,0.4,0.8,0.8v7.7l0,0h-3l0,0V335C18.8,334.5,19.2,334.2,19.6,334.2z"/>
		<path class="st2" d="M677.9,313.4l3.4,7.6c0.2,0.4,0,0.9-0.4,1.1c-0.1,0.1-0.2,0.1-0.4,0.1h-6.9c-0.5,0-0.8-0.4-0.8-0.9
			c0-0.1,0-0.2,0.1-0.3l3.4-7.6c0.2-0.4,0.7-0.6,1.1-0.4C677.7,313.1,677.8,313.2,677.9,313.4z"/>
		<path class="st2" d="M677.9,317.2l5.5,12.2c0.2,0.4,0,0.9-0.4,1.1c-0.1,0.1-0.2,0.1-0.4,0.1h-11c-0.5,0-0.8-0.4-0.8-0.8
			c0-0.1,0-0.2,0.1-0.4l5.5-12.2c0.2-0.4,0.7-0.6,1.1-0.4C677.7,316.9,677.8,317.1,677.9,317.2z"/>
		<path class="st2" d="M677.9,322l7.6,16.7c0.2,0.4,0,0.9-0.4,1.1c-0.1,0.1-0.2,0.1-0.4,0.1h-15.1c-0.5,0-0.8-0.4-0.8-0.8
			c0-0.1,0-0.2,0.1-0.4l7.6-16.7c0.2-0.4,0.7-0.6,1.1-0.4C677.7,321.7,677.8,321.8,677.9,322z"/>
		<path class="st2" d="M676.5,333.8h1.3c0.5,0,0.8,0.4,0.8,0.8v0v8l0,0h-3l0,0v-8C675.7,334.2,676,333.8,676.5,333.8L676.5,333.8
			L676.5,333.8z"/>
		<path class="st2" d="M643.2,319.6l2.6,5.7c0.1,0.3,0,0.7-0.3,0.8c-0.1,0-0.2,0.1-0.3,0.1H640c-0.3,0-0.6-0.3-0.6-0.6
			c0-0.1,0-0.2,0.1-0.3l2.6-5.7c0.1-0.3,0.5-0.5,0.8-0.3C643,319.4,643.1,319.5,643.2,319.6z"/>
		<path class="st2" d="M643.2,322.5l4.1,9.1c0.1,0.3,0,0.7-0.3,0.8c-0.1,0-0.2,0.1-0.3,0.1h-8.3c-0.3,0-0.6-0.3-0.6-0.6
			c0-0.1,0-0.2,0.1-0.3l4.1-9.1c0.1-0.3,0.5-0.5,0.8-0.3C643,322.2,643.1,322.3,643.2,322.5z"/>
		<path class="st2" d="M643.2,326.1l5.7,12.5c0.1,0.3,0,0.7-0.3,0.8c-0.1,0-0.2,0.1-0.3,0.1h-11.4c-0.3,0-0.6-0.3-0.6-0.6
			c0-0.1,0-0.2,0.1-0.3l5.7-12.5c0.1-0.3,0.5-0.5,0.8-0.3C643,325.8,643.1,325.9,643.2,326.1z"/>
		<path class="st2" d="M642.2,334.9h0.8c0.4,0,0.7,0.3,0.7,0.7v7l0,0h-2.3l0,0v-7C641.5,335.3,641.8,335,642.2,334.9z"/>
		<path class="st2" d="M665.6,307.5l4.2,9.4c0.3,0.5,0.1,1.1-0.4,1.4c-0.2,0.1-0.4,0.1-0.5,0.1h-8.5c-0.6,0-1-0.4-1.1-0.9
			c0-0.2,0-0.4,0.1-0.5l4.2-9.4c0.2-0.5,0.7-0.8,1.3-0.7C665.3,306.9,665.5,307.2,665.6,307.5z"/>
		<path class="st2" d="M665.6,312.2l6.8,15c0.3,0.5,0.1,1.1-0.4,1.4c-0.2,0.1-0.4,0.1-0.5,0.1h-13.6c-0.6,0-1-0.4-1.1-0.9
			c0-0.2,0-0.4,0.1-0.5l6.8-15c0.2-0.5,0.7-0.8,1.3-0.6C665.3,311.7,665.5,311.9,665.6,312.2z"/>
		<path class="st2" d="M665.6,317l9.4,20.6c0.3,0.5,0.1,1.1-0.4,1.4c-0.2,0.1-0.4,0.1-0.5,0.1h-18.7c-0.6,0-1-0.4-1.1-0.9
			c0-0.2,0-0.4,0.1-0.5l9.3-20.6c0.2-0.5,0.7-0.8,1.3-0.6C665.3,316.5,665.5,316.7,665.6,317z"/>
		<path class="st2" d="M663.9,332.7h1.6c0.6,0,1,0.4,1,1v9l0,0h-3.7l0,0v-9C662.8,333.1,663.2,332.7,663.9,332.7
			C663.8,332.7,663.9,332.7,663.9,332.7z"/>
		<path class="st2" d="M31,324.9l2.2,4.9c0.1,0.3,0,0.6-0.3,0.7c-0.1,0-0.2,0.1-0.2,0.1h-4.4c-0.3,0-0.5-0.2-0.5-0.5
			c0-0.1,0-0.2,0.1-0.2l2.2-4.9c0.1-0.3,0.4-0.4,0.7-0.3C30.8,324.7,30.9,324.8,31,324.9z"/>
		<path class="st2" d="M31,327.4l3.5,7.8c0.1,0.3,0,0.6-0.3,0.7c-0.1,0-0.2,0.1-0.3,0.1h-7c-0.3,0-0.5-0.2-0.5-0.5
			c0-0.1,0-0.2,0.1-0.2l3.5-7.8c0.1-0.3,0.4-0.4,0.7-0.3C30.8,327.2,30.9,327.3,31,327.4z"/>
		<path class="st2" d="M31,330.5l4.9,10.8c0.1,0.3,0,0.6-0.3,0.7c-0.1,0-0.2,0.1-0.2,0.1h-9.7c-0.3,0-0.5-0.2-0.5-0.5
			c0-0.1,0-0.2,0.1-0.2l4.9-10.8c0.1-0.3,0.4-0.4,0.7-0.3C30.8,330.2,30.9,330.4,31,330.5z"/>
		<path class="st2" d="M30.1,338.1h0.9c0.3,0,0.5,0.2,0.5,0.5l0,0v4.1l0,0h-1.9l0,0v-4.1C29.5,338.3,29.8,338.1,30.1,338.1
			C30.1,338.1,30.1,338.1,30.1,338.1z"/>
		<path class="st2" d="M114.1,292.8h-9.3c-1.5,0-2.7,1.2-2.7,2.7l0,0v49h4.2V297h7.8v47.5h4.2v-49c0-1.5-1.2-2.7-2.7-2.7
			c0,0,0,0,0,0L114.1,292.8L114.1,292.8z"/>
		<rect x="104.5" y="303.7" class="st2" width="10.2" height="1.2"/>
		
			<rect x="109.9" y="291.8" transform="matrix(0.7071 -0.7071 0.7071 0.7071 -180.1762 166.164)" class="st2" width="1.2" height="17.5"/>
		
			<rect x="109.9" y="299.7" transform="matrix(0.7071 -0.7071 0.7071 0.7071 -185.7053 168.4546)" class="st2" width="1.2" height="17.5"/>
		
			<rect x="109.9" y="307.5" transform="matrix(0.7071 -0.7071 0.7071 0.7071 -191.2499 170.7564)" class="st2" width="1.2" height="17.5"/>
		
			<rect x="109.9" y="315.9" transform="matrix(0.7071 -0.7071 0.7071 0.7071 -197.1893 173.2169)" class="st2" width="1.2" height="17.5"/>
		
			<rect x="109.9" y="323.7" transform="matrix(0.7071 -0.7071 0.7071 0.7071 -202.7184 175.5075)" class="st2" width="1.2" height="17.5"/>
		
			<rect x="109.9" y="331.6" transform="matrix(0.7071 -0.7071 0.7071 0.7071 -208.2629 177.8093)" class="st2" width="1.2" height="17.5"/>
		<rect x="104.5" y="295.8" class="st2" width="10.2" height="1.2"/>
		<rect x="104.5" y="311.6" class="st2" width="10.2" height="1.2"/>
		<rect x="104.5" y="319.5" class="st2" width="10.2" height="1.2"/>
		<rect x="104.5" y="335.4" class="st2" width="10.2" height="1.2"/>
		<rect x="104.5" y="327.5" class="st2" width="10.2" height="1.2"/>
		<rect x="104.5" y="343.3" class="st2" width="10.2" height="1.2"/>
		<rect x="121.3" y="340.9" class="st2" width="45.1" height="1.8"/>
	</g>
</g>
</svg>
