<?xml version="1.0" encoding="utf-8"?>
<!-- Generator: Adobe Illustrator 19.2.0, SVG Export Plug-In . SVG Version: 6.00 Build 0)  -->
<svg version="1.1" id="Layer_1" xmlns="http://www.w3.org/2000/svg" xmlns:xlink="http://www.w3.org/1999/xlink" x="0px" y="0px"
	 width="1500px" height="610px" viewBox="0 0 1500 610" style="enable-background:new 0 0 1500 610;" xml:space="preserve">
<style type="text/css">
	.st0{display:none;}
	.st1{fill:#074B89;}
	.st2{clip-path:url(#SVGID_6_);}
	.st3{fill:#006DBA;}
	.st4{clip-path:url(#SVGID_12_);}
	.st5{clip-path:url(#SVGID_18_);}
	.st6{clip-path:url(#SVGID_20_);}
	.st7{clip-path:url(#SVGID_22_);}
	.st8{fill:url(#SVGID_23_);}
</style>
<g id="bg">
</g>
<g id="Layer_2" class="st0">
</g>
<g id="Layer_5">
	<path class="st1" d="M1349,281v-73c0-3.3-2.7-6-6-6h-120.1c-1,11.7-10.9,20-22.9,20s-21.9-8.3-22.9-20H1057c-3.3,0-6,2.7-6,6v73
		c-11.6,0-21,9.4-21,21s9.4,21,21,21v73c0,3.3,2.7,6,6,6h120.1c1-11.7,10.9-20,22.9-20s21.9,8.3,22.9,20H1343c3.3,0,6-2.7,6-6v-73
		c11.6,0,21-9.4,21-21S1360.6,281,1349,281z"/>
	<path class="st1" d="M149,281v-73c0-3.3-2.7-6-6-6H20.9c-0.5-11-9.7-20-20.9-20c-11.3,0-20.4,8.9-20.9,20H-143c-3.3,0-6,2.7-6,6
		v71.1c11.7,1,21,10.9,21,22.9s-9,21.9-21,22.9V396c0,3.3,2.7,6,6,6h120.1c1-11.7,10.9-20,22.9-20s21.9,8,22.9,20H143
		c3.3,0,6-2.7,6-6v-73c11.6,0,21-9.4,21-21S160.6,281,149,281z"/>
	<path class="st1" d="M1351,121v73c0,3.3,2.7,6,6,6h122.1c0.5,11.1,9.7,20,20.9,20s20.4-9,20.9-20H1643c3.3,0,6-2.7,6-6v-71.1
		c-12-1-21-10.9-21-22.9s9.3-21.9,21-22.9V6c0-3.3-2.7-6-6-6h-286c-3.3,0-6,2.7-6,6v73c-11.6,0-21,9.4-21,21S1339,121,1351,121z"/>
	<path class="st1" d="M1349,483v-73c0-3.3-2.7-6-6-6h-122.1c-0.5-11.1-9.7-20-20.9-20c-11.3,0-20.4,8.9-20.9,20H1057
		c-3.3,0-6,2.7-6,6v71.1c11.7,1,21,10.9,21,22.9s-9.3,21.9-21,22.9V598c0,3.3,2.7,6,6,6h286c3.3,0,6-2.7,6-6v-73
		c11.6,0,21-9.4,21-21S1360.6,483,1349,483z"/>
	<path class="st1" d="M-149,525v73c0,3.3,2.7,6,6,6h286c3.3,0,6-2.7,6-6v-67v-4v-0.1c-12-1-21-10.9-21-22.9s9.3-21.9,21-22.9V481
		v-30v-41c0-3.3-2.7-6-6-6H20.9c-0.5-11-9.7-20-20.9-20c-11.3,0-20.4,8.9-20.9,20H-143c-3.3,0-6,2.7-6,6v73c-11.6,0-21,9.4-21,21
		C-170,515.6-161,525-149,525z"/>
	<path class="st1" d="M1351,526.9V598c0,3.3,2.7,6,6,6h286c3.3,0,6-2.7,6-6v-64v-7.1c-12-1-21-10.9-21-22.9s9.3-21.9,21-22.9V450
		v-40c0-3.3-2.7-6-6-6h-122.1c-0.5-11-9.7-21-20.9-21c-11.3,0-20.4,9.9-20.9,21H1357c-3.3,0-6,2.7-6,6v71.1c11.7,1,21,10.9,21,22.9
		S1363,525.9,1351,526.9z"/>
	<path class="st1" d="M1349,77.1V6c0-3.3-2.7-6-6-6h-286c-3.3,0-6,2.7-6,6v64v7.1c11.7,1,21,10.9,21,22.9s-9.3,21.9-21,22.9V154v40
		c0,3.3,2.7,6,6,6h122.1c0.5,11.1,9.7,20,20.9,20c11.3,0,20.4-8.9,20.9-20H1343c3.3,0,6-2.7,6-6v-71.1c-11.7-1-21-10.9-21-22.9
		S1337.3,78.1,1349,77.1z"/>
	<path class="st1" d="M149,79V6c0-3.3-2.7-6-6-6h-286c-3.3,0-6,2.7-6,6v73c-11.6,0-21,9.4-21,21s9.4,21,21,21v73c0,3.3,2.7,6,6,6
		h120.1c1-11.7,10.9-20,22.9-20s21.9,8.3,22.9,20H143c3.3,0,6-2.7,6-6v-73c11.6,0,21-9.4,21-21S160.6,79,149,79z"/>
	<path class="st1" d="M1649,281v-73c0-3.3-2.7-6-6-6h-120.1c-1,11.7-10.9,20-22.9,20s-21.9-8.3-22.9-20H1357c-3.3,0-6,2.7-6,6v18
		v53.1c11.7,1,21,10.9,21,22.9s-9,21.9-21,22.9V378v18c0,3.3,2.7,6,6,6h120.1c1-11.7,10.9-21,22.9-21s21.9,9.3,22.9,21H1643
		c3.3,0,6-2.7,6-6v-73c11.6,0,21-9.4,21-21S1660.6,281,1649,281z"/>
</g>
<g id="Layer_3">
	<g>
		<g>
			<defs>
				<path id="SVGID_1_" d="M2340-594v-73c0-3.3-2.7-6-6-6h-286c-3.3,0-6,2.7-6,6v67v4v0.1c11.7,1,21,10.9,21,22.9s-9.3,21.9-21,22.9
					v0.1v30v41c0,3.3,2.7,6,6,6h122.1c0.5,11.1,9.7,20,20.9,20c11.3,0,20.4-8.9,20.9-20H2334c3.3,0,6-2.7,6-6v-73
					c11.6,0,21-9.4,21-21S2351.6-594,2340-594z"/>
			</defs>
			<clipPath id="SVGID_2_">
				<use xlink:href="#SVGID_1_"  style="overflow:visible;"/>
			</clipPath>
		</g>
	</g>
	<g>
		<g>
			<defs>
				<path id="SVGID_3_" d="M2340-355.9V-427c0-3.3-2.7-6-6-6h-120.1c-1,11.7-10.9,20-22.9,20s-21.9-8.3-22.9-20H2048
					c-3.3,0-6,2.7-6,6v71.1c11.7,1,21,10.9,21,22.9s-9.3,21.9-21,22.9v71.1c0,3.3,2.7,6,6,6h122.1c0.5,11.1,9.7,20,20.9,20
					c11.3,0,20.4-8.9,20.9-20H2334c3.3,0,6-2.7,6-6v-71.1c-11.7-1-21-10.9-21-22.9S2328.3-354.9,2340-355.9z"/>
			</defs>
			<clipPath id="SVGID_4_">
				<use xlink:href="#SVGID_3_"  style="overflow:visible;"/>
			</clipPath>
		</g>
	</g>
	<g>
		<g>
			<defs>
				<path id="SVGID_5_" d="M2340-114v-73c0-3.3-2.7-6-6-6h-120.1c-1,11.7-10.9,20-22.9,20s-21.9-8.3-22.9-20H2048c-3.3,0-6,2.7-6,6
					v73c-11.6,0-21,9.4-21,21s9.4,21,21,21V1c0,3.3,2.7,6,6,6h286c3.3,0,6-2.7,6-6v-73c11.6,0,21-9.4,21-21S2351.6-114,2340-114z"/>
			</defs>
			<clipPath id="SVGID_6_">
				<use xlink:href="#SVGID_5_"  style="overflow:visible;"/>
			</clipPath>
			<g class="st2">
				<rect x="1356" y="-35" class="st3" width="2266" height="45"/>
			</g>
		</g>
	</g>
	<g>
		<g>
			<defs>
				<path id="SVGID_7_" d="M2680-595.9V-667c0-3.3-2.7-6-6-6h-286c-3.3,0-6,2.7-6,6v64v7.1c11.7,1,21,10.9,21,22.9
					s-9.3,21.9-21,22.9v31.1v40c0,3.3,2.7,6,6,6h122.1c0.5,11.1,9.7,20,20.9,20c11.3,0,20.4-8.9,20.9-20H2674c3.3,0,6-2.7,6-6v-71.1
					c-11.7-1-21-10.9-21-22.9S2668.3-594.9,2680-595.9z"/>
			</defs>
			<clipPath id="SVGID_8_">
				<use xlink:href="#SVGID_7_"  style="overflow:visible;"/>
			</clipPath>
		</g>
	</g>
	<g>
		<g>
			<defs>
				<path id="SVGID_9_" d="M2680-354v-73c0-3.3-2.7-6-6-6h-120.1c-1,11.7-10.9,20-22.9,20s-21.9-8.3-22.9-20H2388c-3.3,0-6,2.7-6,6
					v73c-11.6,0-21,9.4-21,21s9.4,21,21,21v73c0,3.3,2.7,6,6,6h120.1c1-11.7,10.9-20,22.9-20s21.9,8.3,22.9,20H2674c3.3,0,6-2.7,6-6
					v-73c11.6,0,21-9.4,21-21S2691.6-354,2680-354z"/>
			</defs>
			<clipPath id="SVGID_10_">
				<use xlink:href="#SVGID_9_"  style="overflow:visible;"/>
			</clipPath>
		</g>
	</g>
	<g>
		<g>
			<defs>
				<path id="SVGID_11_" d="M2680-114v-73c0-3.3-2.7-6-6-6h-122.1c-0.5-11.1-9.7-20-20.9-20c-11.3,0-20.4,8.9-20.9,20H2388
					c-3.3,0-6,2.7-6,6v71.1c11.7,1,21,10.9,21,22.9s-9.3,21.9-21,22.9V1c0,3.3,2.7,6,6,6h286c3.3,0,6-2.7,6-6v-73
					c11.6,0,21-9.4,21-21S2691.6-114,2680-114z"/>
			</defs>
			<clipPath id="SVGID_12_">
				<use xlink:href="#SVGID_11_"  style="overflow:visible;"/>
			</clipPath>
			<g class="st4">
				<rect x="1396" y="-35" class="st3" width="2266" height="45"/>
			</g>
		</g>
	</g>
	<g>
		<g>
			<defs>
				<path id="SVGID_13_" d="M3020-594v-73c0-3.3-2.7-6-6-6h-286c-3.3,0-6,2.7-6,6v73c-11.6,0-21,9.4-21,21s9.4,21,21,21v73
					c0,3.3,2.7,6,6,6h120.1c1-11.7,10.9-20,22.9-20s21.9,8.3,22.9,20H3014c3.3,0,6-2.7,6-6v-73c11.6,0,21-9.4,21-21
					S3031.6-594,3020-594z"/>
			</defs>
			<clipPath id="SVGID_14_">
				<use xlink:href="#SVGID_13_"  style="overflow:visible;"/>
			</clipPath>
		</g>
	</g>
	<g>
		<g>
			<defs>
				<path id="SVGID_15_" d="M3020-355.9V-427c0-3.3-2.7-6-6-6h-122.1c-0.5-11.1-9.7-20-20.9-20c-11.3,0-20.4,8.9-20.9,20H2728
					c-3.3,0-6,2.7-6,6v71.1c11.7,1,21,10.9,21,22.9s-9.3,21.9-21,22.9v71.1c0,3.3,2.7,6,6,6h118.3c1,0,1.8-0.7,2-1.7
					c1.8-10.9,11.3-18.3,22.7-18.3s20.9,7.4,22.7,18.3c0.2,1,1,1.7,2,1.7H3014c3.3,0,6-2.7,6-6v-71.1c-11.7-1-21-10.9-21-22.9
					S3008.3-354.9,3020-355.9z"/>
			</defs>
			<clipPath id="SVGID_16_">
				<use xlink:href="#SVGID_15_"  style="overflow:visible;"/>
			</clipPath>
		</g>
	</g>
	<g>
		<g>
			<defs>
				<path id="SVGID_17_" d="M3020-114v-73c0-3.3-2.7-6-6-6h-121.1c-0.5,0-0.9-0.4-1-0.9c-1-10.7-9.9-19.1-20.9-19.1
					s-19.9,8.4-20.9,19.1c0,0.5-0.5,0.9-1,0.9H2728c-3.3,0-6,2.7-6,6v71.1c11.7,1,21,10.9,21,22.9s-9.3,21.9-21,22.9V1
					c0,3.3,2.7,6,6,6h286c3.3,0,6-2.7,6-6v-73c11.6,0,21-9.4,21-21S3031.6-114,3020-114z"/>
			</defs>
			<clipPath id="SVGID_18_">
				<use xlink:href="#SVGID_17_"  style="overflow:visible;"/>
			</clipPath>
			<g class="st5">
				<rect x="1436" y="-35" class="st3" width="2266" height="45"/>
			</g>
		</g>
	</g>
	<g>
		<g>
			<defs>
				<path id="SVGID_19_" d="M1706-224H-566v638h117v67.1c11.7,1,21,10.9,21,22.9s-9,21.9-21,22.9V598c0,3.3,2.7,6,6,6h286
					c3.3,0,6-2.7,6-6v-64v-7.1c-12-1-21-10.9-21-22.9s9.3-21.9,21-22.9V450v-36h2v69c-11.6,0-21,9.4-21,21c0,11.6,9,21,21,21v73
					c0,3.3,2.7,6,6,6h286c3.3,0,6-2.7,6-6v-67v-4v-0.1c-12-1-21-10.9-21-22.9s9.3-21.9,21-22.9V481v-30v-37h902v67.1
					c11.7,1,21,10.9,21,22.9s-9.3,21.9-21,22.9V598c0,3.3,2.7,6,6,6h286c3.3,0,6-2.7,6-6v-73c11.6,0,21-9.4,21-21s-9.4-21-21-21v-69
					h2v67.1c11.7,1,21,10.9,21,22.9s-9,21.9-21,22.9V598c0,3.3,2.7,6,6,6h286c3.3,0,6-2.7,6-6v-64v-7.1c-12-1-21-10.9-21-22.9
					s9.3-21.9,21-22.9V450v-36h57V-224z"/>
			</defs>
			<clipPath id="SVGID_20_">
				<use xlink:href="#SVGID_19_"  style="overflow:visible;"/>
			</clipPath>
			<g class="st6">
				<path class="st3" d="M1694.7,562L1500,423l-165.6,118.2l-64.7-46.2l-93.8,67H73.1L4.7,513.2l-58.2,41.6l-5.8-12.8h1.4
					c1,0,1.7-1.1,1.3-2l-5.4-12h0.7c1,0,1.7-1.1,1.3-2l-5.7-12.6c-0.5-1.1-2.1-1.1-2.6,0L-74,526c-0.4,0.9,0.3,2,1.3,2h0.7
					l-4.7,10.4l-85.8-61.3l-30.9,22.1L-300.1,423l-194.7,139H-535v45h2266v-45H1694.7z"/>
				<path class="st3" d="M32.3,113.2c1.6,1.4,1.7,3.8,0.4,5.4c-1.2,1.3-1,3.3,0.3,4.5s3.3,1,4.5-0.3c1.4-1.6,3.8-1.7,5.4-0.4
					c1.3,1.2,3.3,1,4.5-0.3l0,0c1.2-1.3,1-3.3-0.3-4.5l0,0c-1.6-1.4-1.7-3.8-0.4-5.4c1.2-1.3,1-3.3-0.3-4.5s-3.3-1-4.5,0.3l0,0
					c-1.4,1.6-3.8,1.7-5.4,0.4c-1.3-1.2-3.3-1-4.5,0.3S31,112,32.3,113.2L32.3,113.2z"/>
				<path class="st3" d="M1179.4,124.1c1.2,0.4,1.7,1.8,1.3,2.9c-0.4,1,0.1,2,1.1,2.4s2-0.1,2.4-1.1c0.4-1.2,1.8-1.7,2.9-1.3
					c1,0.4,2-0.1,2.4-1.1s-0.1-2-1.1-2.4c-1.2-0.4-1.7-1.8-1.3-2.9c0.4-1-0.1-2-1.1-2.4s-2,0.1-2.4,1.1c-0.4,1.2-1.8,1.7-2.9,1.3
					c-1-0.4-2,0.1-2.4,1.1C1177.9,122.7,1178.4,123.8,1179.4,124.1z"/>
				<path class="st3" d="M1428.8,73c1.2,0.4,1.7,1.8,1.3,2.9l0,0c-0.4,1,0.1,2,1.1,2.4s2-0.1,2.4-1.1c0.4-1.2,1.8-1.7,2.9-1.3
					c1,0.4,2-0.1,2.4-1.1l0,0c0.4-1-0.1-2-1.1-2.4c-1.2-0.4-1.7-1.8-1.3-2.9c0.4-1-0.1-2-1.1-2.4l0,0c-1-0.4-2,0.1-2.4,1.1
					c-0.4,1.2-1.8,1.7-2.9,1.3c-1-0.4-2,0.1-2.4,1.1S1427.8,72.6,1428.8,73z"/>
				<path class="st3" d="M1133.3,71.7l-1.7,3.5c-0.7,1.5,0.5,3.2,2.2,2.9l3.8-0.7l2.8,2.7c1.2,1.2,3.2,0.5,3.4-1.2l0.5-3.8l3.4-1.8
					c1.5-0.8,1.4-2.9-0.1-3.6l-3.5-1.6l-0.6-3.8c-0.3-1.6-2.3-2.3-3.5-1.1l-2.6,2.8l-3.8-0.6c-1.6-0.3-2.9,1.5-2.1,3L1133.3,71.7z"
					/>
				<path class="st3" d="M81.8,255.1c1-0.8,2.4-0.6,3.2,0.4c0.6,0.8,1.8,1,2.6,0.3c0.8-0.6,1-1.8,0.3-2.6c-0.8-1-0.6-2.4,0.4-3.2
					c0.8-0.6,1-1.8,0.3-2.6c-0.6-0.8-1.8-1-2.6-0.3c-1,0.8-2.4,0.6-3.2-0.4c-0.6-0.8-1.8-1-2.6-0.3c-0.8,0.6-1,1.8-0.3,2.6
					c0.8,1,0.6,2.4-0.4,3.2c-0.8,0.6-1,1.8-0.3,2.6C79.8,255.6,81,255.8,81.8,255.1z"/>
				<path class="st3" d="M1146.2,276.8c-0.7-0.9-2-1-2.9-0.3s-1,2-0.3,2.9c0.9,1,0.7,2.6-0.3,3.4l0,0c-0.9,0.7-1,2-0.3,2.9
					s2,1,2.9,0.3c1-0.9,2.6-0.7,3.4,0.3c0.7,0.9,2,1,2.9,0.3s1-2,0.3-2.9c-0.9-1-0.7-2.6,0.3-3.4c0.9-0.7,1-2,0.3-2.9s-2-1-2.9-0.3
					C1148.6,277.9,1147.1,277.8,1146.2,276.8z"/>
				<path class="st3" d="M-3.5,277.7c0.7,0.9,2,1,2.9,0.3c1-0.9,2.6-0.7,3.4,0.3c0.7,0.9,2,1,2.9,0.3s1-2,0.3-2.9
					c-0.9-1-0.7-2.6,0.3-3.4c0.9-0.7,1-2,0.3-2.9s-2-1-2.9-0.3c-1,0.9-2.6,0.7-3.4-0.3c-0.7-0.9-2-1-2.9-0.3s-1,2-0.3,2.9
					c0.9,1,0.7,2.6-0.3,3.4C-4.1,275.5-4.2,276.8-3.5,277.7z"/>
				<path class="st3" d="M1227.4,262.1l4.4,0.8l1.9,4.1c0.8,1.8,3.3,1.8,4.2,0.1l2.1-4l4.5-0.5c1.9-0.2,2.8-2.6,1.4-3.9l-3.1-3.2
					l0.9-4.4c0.4-1.9-1.6-3.4-3.3-2.6l-4,2l-3.9-2.2c-1.7-0.9-3.7,0.4-3.5,2.4l0.6,4.4l-3.3,3
					C1224.8,259.4,1225.5,261.8,1227.4,262.1z"/>
				
					<ellipse transform="matrix(0.9675 -0.253 0.253 0.9675 22.0235 310.521)" class="st3" cx="1218.4" cy="69.6" rx="2.6" ry="2.6"/>
				
					<ellipse transform="matrix(0.9675 -0.253 0.253 0.9675 -33.1979 336.7053)" class="st3" cx="1292.6" cy="297.4" rx="2.6" ry="2.6"/>
				<ellipse transform="matrix(0.9675 -0.253 0.253 0.9675 -11.1333 13.8273)" class="st3" cx="48.2" cy="50.2" rx="2.2" ry="2.2"/>
				<path class="st3" d="M66.4,556H77v4h4v-4h6.8l-0.7,1.7c-0.3,0.6,0.2,1.3,0.8,1.3H94v1h4v-1h6.1c0.7,0,1.1-0.7,0.8-1.3l-4-8.7
					h0.9c0.7,0,1.1-0.7,0.8-1.3l-3.5-7.7h0.5c0.7,0,1.1-0.8,0.8-1.3l-3.7-8.1c-0.3-0.7-1.3-0.7-1.6,0l-3.7,8.2
					c-0.3,0.6,0.2,1.3,0.8,1.3h0.5l-3.2,6.7l-2.9-6.7H88c1,0,1.7-1.1,1.3-2L84,526h0.7c1,0,1.7-0.8,1.3-1.8l-5.7-12.5
					c-0.5-1.1-2.1-1-2.6,0.1L72,524.2c-0.4,0.9,0.3,1.8,1.3,1.8H74l-5.4,12c-0.4,0.9,0.3,2,1.3,2h1.4l-6.2,13.8
					C64.7,554.7,65.4,556,66.4,556z M91,548.8l-0.3,0.6l-0.3-0.6H91z"/>
				<path class="st3" d="M1104.1,555h7.9v5h3v-5h7.9c0.8,0,1.3-0.9,1-1.6l-4.6-10.4h1.1c0.8,0,1.3-0.5,1-1.2l-4.1-8.8h0.5
					c0.8,0,1.3-1,1-1.7l-4.3-9.6c-0.4-0.8-1.5-0.9-1.9-0.1l-4.3,9.6c-0.3,0.7,0.2,1.7,1,1.7h0.5l-4.1,8.8c-0.3,0.7,0.2,1.2,1,1.2
					h1.1l-4.6,10.4C1102.8,554.1,1103.3,555,1104.1,555z"/>
				<path class="st3" d="M1148.7,501.5l-7,15.3c-0.5,1.1,0.3,2.2,1.6,2.2h0.9l-6.7,15.2c-0.5,1.1,0.3,2.8,1.6,2.8h0.9l-6.7,14.7
					c-0.5,1.1,0.3,2.3,1.6,2.3h12.3v6h6v-6h4c0,0.8,0.6,1,1.4,1h9.6v5h5v-5h10.6c1,0,1.7-0.8,1.3-1.7l-6.2-13.3h1.4
					c1,0,1.7-1.1,1.3-2l-5.4-12h0.7c1,0,1.7-1.1,1.3-2l-5.7-12.6c-0.5-1.1-2.1-1.1-2.6,0L1164,524c-0.4,0.9,0.3,2,1.3,2h0.7
					l-3.3,7.1l-6.2-14.1h0.9c1.3,0,2.1-1.1,1.6-2.2l-7-15.4C1151.2,500,1149.3,500.1,1148.7,501.5z M1162.7,541.2l-0.6-1.3h1.2
					L1162.7,541.2z M1160.9,537.2l-0.2-0.5h0.5L1160.9,537.2z"/>
			</g>
		</g>
	</g>
	<path class="st1" d="M449,279.1V208c0-3.3-2.7-6-6-6H322.9c-1,11.7-10.9,20-22.9,20s-21.9-8.3-22.9-20H157c-3.3,0-6,2.7-6,6v71.1
		c11.7,1,21,10.9,21,22.9s-9.3,21.9-21,22.9V396c0,3.3,2.7,6,6,6h122.1c0.5,11.1,9.7,20,20.9,20c11.3,0,20.4-8.9,20.9-20H443
		c3.3,0,6-2.7,6-6v-71.1c-11.7-1-21-10.9-21-22.9S437.3,280.1,449,279.1z"/>
	<path class="st1" d="M449,483v-73c0-3.3-2.7-6-6-6H322.9c-1,11.7-10.9,20-22.9,20s-21.9-8.3-22.9-20H157c-3.3,0-6,2.7-6,6v73
		c-11.6,0-21,9.4-21,21c0,11.6,9.4,21,21,21v73c0,3.3,2.7,6,6,6h286c3.3,0,6-2.7,6-6v-73c11.6,0,21-9.4,21-21S460.6,483,449,483z"/>
	<path class="st1" d="M449,79V6c0-3.3-2.7-6-6-6H157c-3.3,0-6,2.7-6,6v67v4v0.1c11.7,1,21,10.9,21,22.9s-9.3,21.9-21,22.9v0.1v30v41
		c0,3.3,2.7,6,6,6h122.1c0.5,11.1,9.7,20,20.9,20c11.3,0,20.4-8.9,20.9-20H443c3.3,0,6-2.7,6-6v-73c11.6,0,21-9.4,21-21
		S460.6,79,449,79z"/>
	<g>
		<g>
			<defs>
				<path id="SVGID_21_" d="M449,279.1V236h31v-56h-31v-59c11.6,0,21-9.4,21-21s-9.4-21-21-21V6c0-3.3-2.7-6-6-6H157
					c-3.3,0-6,2.7-6,6v67v4v0.1c11.7,1,21,10.9,21,22.9s-9.3,21.9-21,22.9v0.1v30v41c0,3.3,2.7,6,6,6h122.1c0.5,11.1,9.7,20,20.9,20
					c11.3,0,20.4-8.9,20.9-20H436v2H322.9c-1,11.7-10.9,20-22.9,20s-21.9-8.3-22.9-20H157c-3.3,0-6,2.7-6,6v71.1
					c11.7,1,21,10.9,21,22.9s-9.3,21.9-21,22.9V372H86v71h65v40c-11.6,0-21,9.4-21,21c0,11.6,9.4,21,21,21v73c0,3.3,2.7,6,6,6h286
					c3.3,0,6-2.7,6-6v-73c11.6,0,21-9.4,21-21s-9.4-21-21-21v-73c0-3.3-2.7-6-6-6H322.9c-1,11.7-10.9,20-22.9,20s-21.9-8.3-22.9-20
					H161v-2h118.1c0.5,11.1,9.7,20,20.9,20c11.3,0,20.4-8.9,20.9-20H443c3.3,0,6-2.7,6-6v-71.1c-11.7-1-21-10.9-21-22.9
					S437.3,280.1,449,279.1z"/>
			</defs>
			<clipPath id="SVGID_22_">
				<use xlink:href="#SVGID_21_"  style="overflow:visible;"/>
			</clipPath>
			<g class="st7">
				<rect x="-535" y="562" class="st3" width="2266" height="45"/>
				<g>
					
						<ellipse transform="matrix(0.9776 -0.2104 0.2104 0.9776 -9.1192 56.8894)" class="st3" cx="262.8" cy="71.3" rx="20.5" ry="20.5"/>
					
						<ellipse transform="matrix(0.9776 -0.2104 0.2104 0.9776 -7.5441 61.6799)" class="st3" cx="286.1" cy="66.3" rx="1.5" ry="1.5"/>
					<path class="st3" d="M238.5,78.3l-24.6,5.3c-0.9,0.2-1.9-0.4-2.1-1.3l0,0c-0.2-0.9,0.4-1.9,1.3-2.1l24.6-5.3
						c0.9-0.2,1.9,0.4,2.1,1.3l0,0C240,77.2,239.4,78.1,238.5,78.3z"/>
					<g>
						<path class="st3" d="M247.3,92.4l-22.6,11.1c-0.9,0.4-1.9,0.1-2.3-0.8l0,0c-0.4-0.9-0.1-1.9,0.8-2.3l22.6-11.1
							c0.9-0.4,1.9-0.1,2.3,0.8l0,0C248.5,91,248.1,92,247.3,92.4z"/>
						<path class="st3" d="M239.9,58.4l-25.2-0.9c-1,0-1.8,0.7-1.8,1.7l0,0c0,1,0.7,1.8,1.7,1.8l25.2,0.9c1,0,1.8-0.7,1.8-1.7l0,0
							C241.6,59.3,240.9,58.5,239.9,58.4z"/>
					</g>
				</g>
				<path class="st3" d="M341,115.7L341,115.7c0.5-1.7-0.5-3.4-2.2-3.9l0,0c-1.7-0.5-3.4,0.5-3.9,2.2l0,0c-0.6,2-2.7,3.2-4.7,2.6
					l0,0c-1.7-0.5-3.4,0.5-3.9,2.2l0,0c-0.5,1.7,0.5,3.4,2.2,3.9l0,0c2,0.6,3.2,2.7,2.6,4.7l0,0c-0.5,1.7,0.5,3.4,2.2,3.9l0,0
					c1.7,0.5,3.4-0.5,3.9-2.2l0,0c0.6-2,2.7-3.2,4.7-2.6l0,0c1.7,0.5,3.4-0.5,3.9-2.2l0,0c0.5-1.7-0.5-3.4-2.2-3.9l0,0
					C341.6,119.8,340.4,117.7,341,115.7z"/>
				<path class="st3" d="M367.6,66.4L367.6,66.4c-0.2-0.9-1.1-1.5-2-1.2l0,0c-0.9,0.2-1.5,1.1-1.2,2l0,0c0.2,1.1-0.4,2.2-1.5,2.4
					l0,0c-0.9,0.2-1.5,1.1-1.2,2l0,0c0.2,0.9,1.1,1.5,2,1.2l0,0c1.1-0.2,2.2,0.4,2.4,1.5l0,0c0.2,0.9,1.1,1.5,2,1.2l0,0
					c0.9-0.2,1.5-1.1,1.2-2l0,0c-0.2-1.1,0.4-2.2,1.5-2.4l0,0c0.9-0.2,1.5-1.1,1.2-2l0,0c-0.2-0.9-1.1-1.5-2-1.2l0,0
					C368.9,68.2,367.8,67.5,367.6,66.4z"/>
				<path class="st3" d="M279.5,145l2.1-1.1c0.9-0.5,1.9,0.3,1.8,1.3l-0.4,2.3l1.7,1.6c0.7,0.7,0.3,1.9-0.7,2.1l-2.3,0.3l-1,2.1
					c-0.4,0.9-1.7,0.9-2.2,0l-1-2.1l-2.3-0.3c-1-0.1-1.4-1.4-0.7-2.1l1.7-1.6l-0.4-2.3c-0.2-1,0.9-1.7,1.8-1.3L279.5,145z"/>
				<path class="st3" d="M345.9,256.5L345.9,256.5c0.9-0.7,1-2,0.3-2.9l0,0c-0.7-0.9-2-1-2.9-0.3l0,0c-1,0.9-2.6,0.7-3.4-0.3l0,0
					c-0.7-0.9-2-1-2.9-0.3l0,0c-0.9,0.7-1,2-0.3,2.9l0,0c0.9,1,0.7,2.6-0.3,3.4l0,0c-0.9,0.7-1,2-0.3,2.9l0,0c0.7,0.9,2,1,2.9,0.3
					l0,0c1-0.9,2.6-0.7,3.4,0.3l0,0c0.7,0.9,2,1,2.9,0.3l0,0c0.9-0.7,1-2,0.3-2.9l0,0C344.7,258.9,344.9,257.3,345.9,256.5z"/>
				<path class="st3" d="M256.3,260.7l4.5,0.5c1.9,0.2,2.8,2.6,1.4,3.9l-3.1,3.2l0.9,4.4c0.4,1.9-1.6,3.4-3.3,2.6l-4-2l-3.9,2.2
					c-1.7,0.9-3.7-0.4-3.5-2.4l0.6-4.4l-3.3-3c-1.4-1.3-0.7-3.7,1.2-4l4.4-0.8l1.9-4.1c0.8-1.8,3.3-1.8,4.2-0.1L256.3,260.7z"/>
				<g>
					
						<linearGradient id="SVGID_23_" gradientUnits="userSpaceOnUse" x1="374.9137" y1="159.5825" x2="844.9137" y2="469.5825" gradientTransform="matrix(1 0 0 -1 0 610)">
						<stop  offset="0" style="stop-color:#007ADC;stop-opacity:0"/>
						<stop  offset="1" style="stop-color:#007ADC"/>
					</linearGradient>
					<path class="st8" d="M838.6,157.6l-27.6-5.3l5.6-28.7C426.3,367.5,30.5,431.2-78.9,269.1L370,934.3
						C260.6,772.3,466.8,428.2,838.6,157.6z"/>
				</g>
				<g>
					<path class="st3" d="M235,477h-13h-2.5c-2.5,0-4.5,2-4.5,4.5v2.5v79h7v-79h13v79h7v-79v-2.5c0-2.5-2-4.5-4.5-4.5H235z"/>
					<rect x="219" y="495.2" class="st3" width="17" height="2"/>
					
						<rect x="228" y="475.5" transform="matrix(0.7071 -0.7071 0.7071 0.7071 -279.4193 305.4314)" class="st3" width="2" height="29"/>
					
						<rect x="228" y="488.5" transform="matrix(0.7071 -0.7071 0.7071 0.7071 -288.6116 309.2391)" class="st3" width="2" height="29"/>
					
						<rect x="228" y="501.5" transform="matrix(0.7071 -0.7071 0.7071 0.7071 -297.804 313.0738)" class="st3" width="2" height="29"/>
					
						<rect x="228" y="515.5" transform="matrix(0.7071 -0.7071 0.7071 0.7071 -307.7033 317.1472)" class="st3" width="2" height="29"/>
					
						<rect x="228" y="528.5" transform="matrix(0.7071 -0.7071 0.7071 0.7071 -316.8956 320.9549)" class="st3" width="2" height="29"/>
					
						<rect x="228" y="541.5" transform="matrix(0.7071 -0.7071 0.7071 0.7071 -326.088 324.7896)" class="st3" width="2" height="29"/>
					<rect x="219" y="482" class="st3" width="17" height="2"/>
					<rect x="219" y="508.3" class="st3" width="17" height="2"/>
					<rect x="219" y="521.5" class="st3" width="17" height="2"/>
					<rect x="219" y="547.8" class="st3" width="17" height="2"/>
					<rect x="219" y="534.7" class="st3" width="17" height="2"/>
					<rect x="219" y="561" class="st3" width="17" height="2"/>
				</g>
				<rect x="247" y="557" class="st3" width="75" height="3"/>
			</g>
		</g>
	</g>
</g>
<g id="Layer_4">
</g>
<g id="Layer_6">
</g>
</svg>
