<?xml version="1.0" encoding="utf-8"?>
<!-- Generator: Adobe Illustrator 19.2.0, SVG Export Plug-In . SVG Version: 6.00 Build 0)  -->
<svg version="1.1" id="svg" xmlns="http://www.w3.org/2000/svg" xmlns:xlink="http://www.w3.org/1999/xlink" x="0px" y="0px"
	 width="91px" height="100px" viewBox="0 0 91 100" style="enable-background:new 0 0 91 100;" xml:space="preserve">
<style type="text/css">
	.st0{fill:#E9EEF5;}
	.st1{fill:#074B89;}
</style>
<title>svg-sources</title>
<circle class="st0" cx="45.5" cy="45.5" r="45.5"/>
<g>
	<path class="st1" d="M47.3,65.2h-3.6c-2.2,0-3.9-1.8-3.9-3.9V51.2H29.7c-2.2,0-3.9-1.8-3.9-3.9v-3.6c0-2.2,1.8-3.9,3.9-3.9h10.1
		V29.7c0-2.2,1.8-3.9,3.9-3.9h3.6c2.2,0,3.9,1.8,3.9,3.9v10.1h10.1c2.2,0,3.9,1.8,3.9,3.9v3.6c0,2.2-1.8,3.9-3.9,3.9H51.2v10.1
		C51.2,63.5,49.5,65.2,47.3,65.2z M29.7,41.8c-1.1,0-1.9,0.9-1.9,1.9v3.6c0,1.1,0.9,1.9,1.9,1.9h12.1v12.1c0,1.1,0.9,1.9,1.9,1.9
		h3.6c1.1,0,1.9-0.9,1.9-1.9V49.2h12.1c1.1,0,1.9-0.9,1.9-1.9v-3.6c0-1.1-0.9-1.9-1.9-1.9H49.2V29.7c0-1.1-0.9-1.9-1.9-1.9h-3.6
		c-1.1,0-1.9,0.9-1.9,1.9v12.1C41.8,41.8,29.7,41.8,29.7,41.8z"/>
</g>
</svg>
