<?xml version="1.0" encoding="utf-8"?>
<!-- Generator: Adobe Illustrator 19.2.0, SVG Export Plug-In . SVG Version: 6.00 Build 0)  -->
<svg version="1.1" id="svg" xmlns="http://www.w3.org/2000/svg" xmlns:xlink="http://www.w3.org/1999/xlink" x="0px" y="0px"
	 width="91px" height="100px" viewBox="0 0 91 100" style="enable-background:new 0 0 91 100;" xml:space="preserve">
<style type="text/css">
	.st0{fill:#E9EEF5;}
	.st1{fill:#074B89;}
</style>
<title>svg-sources</title>
<circle class="st0" cx="45.5" cy="45.5" r="45.5"/>
<g>
	<path class="st1" d="M61.8,31.5c2.6,0,4.7,2.1,4.7,4.7v18.7c0,2.6-2.1,4.7-4.7,4.7H29.2c-2.6,0-4.7-2.1-4.7-4.7V36.2
		c0-2.6,2.1-4.7,4.7-4.7H61.8 M61.8,29.2H29.2c-3.9,0-7,3.1-7,7v18.7c0,3.9,3.1,7,7,7h32.7c3.9,0,7-3.1,7-7V36.2
		C68.8,32.3,65.7,29.2,61.8,29.2L61.8,29.2z"/>
	<polygon class="st1" points="45.5,49.7 23.1,32.6 23.8,31.7 45.5,48.3 67.2,31.7 67.9,32.6 	"/>
</g>
</svg>
