<?xml version="1.0" encoding="utf-8"?>
<!-- Generator: Adobe Illustrator 19.2.0, SVG Export Plug-In . SVG Version: 6.00 Build 0)  -->
<svg version="1.1" id="svg" xmlns="http://www.w3.org/2000/svg" xmlns:xlink="http://www.w3.org/1999/xlink" x="0px" y="0px"
	 width="91px" height="100px" viewBox="0 0 91 100" style="enable-background:new 0 0 91 100;" xml:space="preserve">
<style type="text/css">
	.st0{fill:#E9EEF5;}
	.st1{fill:#074B89;}
</style>
<title>svg-sources</title>
<circle class="st0" cx="45.5" cy="45.5" r="45.5"/>
<g>
	<path class="st1" d="M64.8,50.2c0.6,0,1.1,0.5,1.1,1.1V57c0,0.6-0.5,1.1-1.1,1.1H58c-0.6,0-1.1-0.5-1.1-1.1v-5.7
		c0-0.6,0.5-1.1,1.1-1.1H64.8 M64.8,47.9H58c-1.9,0-3.4,1.5-3.4,3.4V57c0,1.9,1.5,3.4,3.4,3.4h6.8c1.9,0,3.4-1.5,3.4-3.4v-5.7
		C68.2,49.4,66.7,47.9,64.8,47.9L64.8,47.9z"/>
	<path class="st1" d="M48.9,50.2c0.6,0,1.1,0.5,1.1,1.1V57c0,0.6-0.5,1.1-1.1,1.1h-6.8c-0.6,0-1.1-0.5-1.1-1.1v-5.7
		c0-0.6,0.5-1.1,1.1-1.1H48.9 M48.9,47.9h-6.8c-1.9,0-3.4,1.5-3.4,3.4V57c0,1.9,1.5,3.4,3.4,3.4h6.8c1.9,0,3.4-1.5,3.4-3.4v-5.7
		C52.3,49.4,50.8,47.9,48.9,47.9L48.9,47.9z"/>
	<path class="st1" d="M48.9,30.9c0.6,0,1.1,0.5,1.1,1.1v5.7c0,0.6-0.5,1.1-1.1,1.1h-6.8c-0.6,0-1.1-0.5-1.1-1.1V32
		c0-0.6,0.5-1.1,1.1-1.1H48.9 M48.9,28.6h-6.8c-1.9,0-3.4,1.5-3.4,3.4v5.7c0,1.9,1.5,3.4,3.4,3.4h6.8c1.9,0,3.4-1.5,3.4-3.4V32
		C52.3,30.1,50.8,28.6,48.9,28.6L48.9,28.6z"/>
	<path class="st1" d="M33,50.2c0.6,0,1.1,0.5,1.1,1.1V57c0,0.6-0.5,1.1-1.1,1.1h-6.8c-0.6,0-1.1-0.5-1.1-1.1v-5.7
		c0-0.6,0.5-1.1,1.1-1.1H33 M33,47.9h-6.8c-1.9,0-3.4,1.5-3.4,3.4V57c0,1.9,1.5,3.4,3.4,3.4H33c1.9,0,3.4-1.5,3.4-3.4v-5.7
		C36.4,49.4,34.9,47.9,33,47.9L33,47.9z"/>
	<rect x="44.9" y="42.2" class="st1" width="1.1" height="4.6"/>
	<path class="st1" d="M30.7,43.4c-0.6,0-1.1,0.5-1.1,1.1v2.3h1.1v-2.3h29.6v2.3h1.1v-2.3c0-0.6-0.5-1.1-1.1-1.1H30.7z"/>
</g>
</svg>
