<?xml version="1.0" encoding="utf-8"?>
<!-- Generator: Adobe Illustrator 19.2.0, SVG Export Plug-In . SVG Version: 6.00 Build 0)  -->
<svg version="1.1" id="svg" xmlns="http://www.w3.org/2000/svg" xmlns:xlink="http://www.w3.org/1999/xlink" x="0px" y="0px"
	 width="91px" height="100px" viewBox="0 0 91 100" style="enable-background:new 0 0 91 100;" xml:space="preserve">
<style type="text/css">
	.st0{fill:#E9EEF5;}
	.st1{fill:#074B89;}
</style>
<title>svg-sources</title>
<circle class="st0" cx="45.5" cy="45.5" r="45.5"/>
<g>
	<path class="st1" d="M54.7,30.7c7.4,0,13.5,6,13.5,13.5l0,0c0,7.1-6.2,12.9-13.8,12.9H40.7L40,57.8l-7.1,6.5v-7.7L31.2,56
		c-5.4-1.7-8.3-5.8-8.3-11.8c0-7.4,6-13.5,13.4-13.5l0,0H54.7 M54.7,28.2H36.3c-8.8,0-16,7.2-16,16l0,0c0,7.1,3.6,12.1,10.1,14.2
		v6.3c0.2,1.3,1.3,2.2,2.6,2.1c0.5,0,1-0.2,1.4-0.6l7.3-6.7h12.6c8.8,0,16.3-6.6,16.3-15.4C70.7,35.4,63.5,28.2,54.7,28.2L54.7,28.2
		L54.7,28.2z"/>
	<rect x="32.9" y="39.5" class="st1" width="23.9" height="1.3"/>
	<rect x="32.9" y="43.3" class="st1" width="16.3" height="1.3"/>
	<rect x="32.9" y="47" class="st1" width="20.1" height="1.3"/>
</g>
</svg>
