<?xml version="1.0" encoding="utf-8"?>
<!-- Generator: Adobe Illustrator 19.2.0, SVG Export Plug-In . SVG Version: 6.00 Build 0)  -->
<svg version="1.1" id="svg" xmlns="http://www.w3.org/2000/svg" xmlns:xlink="http://www.w3.org/1999/xlink" x="0px" y="0px"
	 width="91px" height="100px" viewBox="0 0 91 100" style="enable-background:new 0 0 91 100;" xml:space="preserve">
<style type="text/css">
	.st0{fill:#E9EEF5;}
	.st1{fill:#074B89;}
</style>
<title>svg-sources</title>
<circle class="st0" cx="45.5" cy="45.5" r="45.5"/>
<g>
	<path class="st1" d="M61.2,32c2.5,0,4.5,2,4.5,4.5v18c0,2.5-2,4.5-4.5,4.5H29.8c-2.5,0-4.5-2-4.5-4.5v-18c0-2.5,2-4.5,4.5-4.5H61.2
		 M61.2,29.8H29.8c-3.7,0-6.8,3-6.8,6.8v18c0,3.7,3,6.8,6.8,6.8h31.5c3.7,0,6.8-3,6.8-6.8v-18C68,32.8,65,29.8,61.2,29.8L61.2,29.8z
		"/>
	<path class="st1" d="M56.8,41.5c-0.3,0-0.6-0.3-0.6-0.6c0-0.1,0.1-0.3,0.2-0.4l5.6-5.6c0.2-0.2,0.6-0.2,0.8,0s0.2,0.6,0,0.8
		l-5.6,5.6C57,41.5,56.9,41.5,56.8,41.5z"/>
	<path class="st1" d="M62.4,41.5c-0.1,0-0.3-0.1-0.4-0.2l-5.6-5.6c-0.2-0.2-0.2-0.6,0-0.8s0.6-0.2,0.8,0l5.6,5.6
		c0.2,0.2,0.2,0.6,0,0.8C62.7,41.4,62.5,41.5,62.4,41.5z"/>
	<path class="st1" d="M56,47.8c0.4,0,0.8,0.3,0.8,0.8v4.1c0,0.4-0.3,0.8-0.8,0.8H35c-0.4,0-0.8-0.3-0.8-0.8l0,0v-4.1
		c0-0.4,0.3-0.8,0.8-0.8H56 M56,46.6H35c-1.1,0-1.9,0.9-1.9,1.9v4.1c0,1,0.9,1.9,1.9,1.9h21c1.1,0,1.9-0.9,1.9-1.9v-4.1
		C57.9,47.5,57,46.6,56,46.6L56,46.6z"/>
</g>
</svg>
