<?xml version="1.0" encoding="utf-8"?>
<!-- Generator: Adobe Illustrator 19.2.0, SVG Export Plug-In . SVG Version: 6.00 Build 0)  -->
<svg version="1.1" id="puzzle" xmlns="http://www.w3.org/2000/svg" xmlns:xlink="http://www.w3.org/1999/xlink" x="0px" y="0px"
	 width="340px" height="240px" viewBox="0 0 340 240" style="enable-background:new 0 0 340 240;" xml:space="preserve">
<style type="text/css">
	.st0{fill:#053B63;}
</style>
<title>svg-sources</title>
<path class="st0" d="M319,99V26c0-3.3-2.7-6-6-6H192.9c-1,11.8-10.9,20-22.9,20s-21.9-8.2-22.9-20H27c-3.3,0-6,2.7-6,6v73
	c-11.6,0-21,9.4-21,21s9.4,21,21,21v73c0,3.3,2.7,6,6,6h286c3.3,0,6-2.7,6-6v-73c11.6,0,21-9.4,21-21S330.6,99,319,99z"/>
</svg>
