<?xml version="1.0" encoding="utf-8"?>
<!-- Generator: Adobe Illustrator 19.2.0, SVG Export Plug-In . SVG Version: 6.00 Build 0)  -->
<svg version="1.1" id="puzzle" xmlns="http://www.w3.org/2000/svg" xmlns:xlink="http://www.w3.org/1999/xlink" x="0px" y="0px"
	 width="340px" height="240px" viewBox="0 0 340 240" style="enable-background:new 0 0 340 240;" xml:space="preserve">
<style type="text/css">
	.st0{fill:#053B63;}
</style>
<title>svg-sources</title>
<path class="st0" d="M319,97.1V26c0-3.3-2.7-6-6-6H190.9c-0.8-11.6-10.8-20.3-22.4-19.5C158,1.2,149.7,9.5,149,20H27
	c-3.3,0-6,2.7-6,6v71.1c12.7,1.1,22,12.3,20.9,24.9c-1,11.1-9.8,19.9-20.9,20.9V214c0,3.3,2.7,6,6,6h118.3c1,0,1.8-0.7,2-1.7
	C149,207.4,158.5,200,170,200s20.9,7.4,22.7,18.3c0.2,1,1,1.7,2,1.7H313c3.3,0,6-2.7,6-6v-71.1c-12.7-1.1-22-12.3-20.9-24.9
	C299.1,106.9,307.9,98.1,319,97.1z"/>
</svg>
