<?xml version="1.0" encoding="utf-8"?>
<!-- Generator: Adobe Illustrator 19.2.1, SVG Export Plug-In . SVG Version: 6.00 Build 0)  -->
<svg version="1.1" id="puzzle" xmlns="http://www.w3.org/2000/svg" xmlns:xlink="http://www.w3.org/1999/xlink" x="0px" y="0px"
	 width="340px" height="240px" viewBox="0 0 340 240" style="enable-background:new 0 0 340 240;" xml:space="preserve">
<style type="text/css">
	.st0{fill:#074B89;}
	.st1{clip-path:url(#SVGID_2_);}
	.st2{fill:#006DBA;}
	.st3{fill:none;}
	.st4{fill:url(#SVGID_3_);}
	.st5{fill:#E3EAF4;}
	.st6{fill:#CEDAE3;}
	.st7{fill:#005F99;}
	.st8{fill:#035CA1;}
</style>
<title>svg-sources</title>
<path class="st0" d="M319,99V26c0-3.3-2.7-6-6-6H191.9c-0.5,0-0.9-0.4-1-0.9C189.9,8.4,180.9,0,170,0s-19.9,8.4-20.9,19.1
	c0,0.5-0.5,0.9-1,0.9H27c-3.3,0-6,2.7-6,6v71.1c11.7,1,21,10.9,21,22.9s-9.3,21.9-21,22.9V214c0,3.3,2.7,6,6,6h286c3.3,0,6-2.7,6-6
	v-73c11.6,0,21-9.4,21-21S330.6,99,319,99z"/>
<g>
	<g>
		<g>
			<defs>
				<path id="SVGID_1_" d="M319,99V26c0-3.3-2.7-6-6-6H191.9c-0.5,0-0.9-0.4-1-0.9C189.9,8.4,180.9,0,170,0s-19.9,8.4-20.9,19.1
					c0,0.5-0.5,0.9-1,0.9H27c-3.3,0-6,2.7-6,6v71.1c11.7,1,21,10.9,21,22.9s-9.3,21.9-21,22.9V214c0,3.3,2.7,6,6,6h286
					c3.3,0,6-2.7,6-6v-73c11.6,0,21-9.4,21-21S330.6,99,319,99z"/>
			</defs>
			<clipPath id="SVGID_2_">
				<use xlink:href="#SVGID_1_"  style="overflow:visible;"/>
			</clipPath>
			<g class="st1">
				<rect x="-1265" y="178" class="st2" width="2266" height="45"/>
				<path class="st2" d="M-808.2-115.3L-808.2-115.3L-808.2-115.3z"/>
				<g>
					
						<ellipse transform="matrix(0.9776 -0.2104 0.2104 0.9776 55.3337 -105.298)" class="st2" cx="-467.2" cy="-312.7" rx="20.5" ry="20.5"/>
					
						<ellipse transform="matrix(0.9776 -0.2104 0.2104 0.9776 56.9073 -100.5073)" class="st2" cx="-443.9" cy="-317.7" rx="1.5" ry="1.5"/>
					<path class="st2" d="M-491.5-305.7l-24.6,5.3c-0.9,0.2-1.9-0.4-2.1-1.3l0,0c-0.2-0.9,0.4-1.9,1.3-2.1l24.6-5.3
						c0.9-0.2,1.9,0.4,2.1,1.3l0,0C-490-306.8-490.6-305.9-491.5-305.7z"/>
					<g>
						<path class="st2" d="M-482.7-291.6l-22.6,11.1c-0.9,0.4-1.9,0.1-2.3-0.8l0,0c-0.4-0.9-0.1-1.9,0.8-2.3l22.6-11.1
							c0.9-0.4,1.9-0.1,2.3,0.8l0,0C-481.5-293-481.9-292-482.7-291.6z"/>
						<path class="st2" d="M-490.1-325.6l-25.2-0.9c-1,0-1.8,0.7-1.8,1.7l0,0c0,1,0.7,1.8,1.7,1.8l25.2,0.9c1,0,1.8-0.7,1.8-1.7l0,0
							C-488.4-324.7-489.1-325.5-490.1-325.6z"/>
					</g>
				</g>
				<path class="st2" d="M-389-268.3L-389-268.3c0.5-1.7-0.5-3.4-2.2-3.9l0,0c-1.7-0.5-3.4,0.5-3.9,2.2l0,0c-0.6,2-2.7,3.2-4.7,2.6
					l0,0c-1.7-0.5-3.4,0.5-3.9,2.2l0,0c-0.5,1.7,0.5,3.4,2.2,3.9l0,0c2,0.6,3.2,2.7,2.6,4.7l0,0c-0.5,1.7,0.5,3.4,2.2,3.9l0,0
					c1.7,0.5,3.4-0.5,3.9-2.2l0,0c0.6-2,2.7-3.2,4.7-2.6l0,0c1.7,0.5,3.4-0.5,3.9-2.2l0,0c0.5-1.7-0.5-3.4-2.2-3.9l0,0
					C-388.4-264.2-389.6-266.3-389-268.3z"/>
				<path class="st2" d="M-169.4-336.1L-169.4-336.1c-1.1-1.4-3.1-1.6-4.4-0.5l0,0c-1.4,1.1-1.6,3.1-0.5,4.4l0,0
					c1.3,1.6,1,4-0.6,5.3l0,0c-1.4,1.1-1.6,3.1-0.5,4.4l0,0c1.1,1.4,3.1,1.6,4.4,0.5l0,0c1.6-1.3,4-1,5.3,0.6l0,0
					c1.1,1.4,3.1,1.6,4.4,0.5l0,0c1.4-1.1,1.6-3.1,0.5-4.4l0,0c-1.3-1.6-1-4,0.6-5.3l0,0c1.4-1.1,1.6-3.1,0.5-4.4l0,0
					c-1.1-1.4-3.1-1.6-4.4-0.5l0,0C-165.7-334.2-168.1-334.5-169.4-336.1z"/>
				<path class="st2" d="M-683.4-271.8L-683.4-271.8c1.2-1.3,1-3.3-0.3-4.5l0,0c-1.3-1.2-3.3-1-4.5,0.3l0,0
					c-1.4,1.6-3.8,1.7-5.4,0.4l0,0c-1.3-1.2-3.3-1-4.5,0.3l0,0c-1.2,1.3-1,3.3,0.3,4.5l0,0c1.6,1.4,1.7,3.8,0.4,5.4l0,0
					c-1.2,1.3-1,3.3,0.3,4.5l0,0c1.3,1.2,3.3,1,4.5-0.3l0,0c1.4-1.6,3.8-1.7,5.4-0.4l0,0c1.3,1.2,3.3,1,4.5-0.3l0,0
					c1.2-1.3,1-3.3-0.3-4.5l0,0C-684.7-267.8-684.8-270.2-683.4-271.8z"/>
				<path class="st2" d="M-954.6-261L-954.6-261c1,0.6,2.4,0.3,3.1-0.7l0,0c0.6-1,0.3-2.4-0.7-3.1l0,0c-1.3-0.8-1.7-2.4-0.9-3.7l0,0
					c0.6-1,0.3-2.4-0.7-3.1l0,0c-1-0.6-2.4-0.3-3.1,0.7l0,0c-0.8,1.3-2.4,1.7-3.7,0.9l0,0c-1-0.6-2.4-0.3-3.1,0.7l0,0
					c-0.6,1-0.3,2.4,0.7,3.1l0,0c1.3,0.8,1.7,2.4,0.9,3.7l0,0c-0.6,1-0.3,2.4,0.7,3.1l0,0c1,0.6,2.4,0.3,3.1-0.7l0,0
					C-957.5-261.3-955.8-261.7-954.6-261z"/>
				<path class="st2" d="M233.4-239.7L233.4-239.7c-0.6-0.8-1.8-1-2.6-0.3l0,0c-0.8,0.6-1,1.8-0.3,2.6l0,0c0.8,1,0.6,2.4-0.4,3.2
					l0,0c-0.8,0.6-1,1.8-0.3,2.6l0,0c0.6,0.8,1.8,1,2.6,0.3l0,0c1-0.8,2.4-0.6,3.2,0.4l0,0c0.6,0.8,1.8,1,2.6,0.3l0,0
					c0.8-0.6,1-1.8,0.3-2.6l0,0c-0.8-1-0.6-2.4,0.4-3.2l0,0c0.8-0.6,1-1.8,0.3-2.6l0,0c-0.6-0.8-1.8-1-2.6-0.3l0,0
					C235.6-238.5,234.1-238.7,233.4-239.7z"/>
				<path class="st2" d="M457.1-263.3L457.1-263.3c0.4-1-0.1-2-1.1-2.4l0,0c-1-0.4-2,0.1-2.4,1.1l0,0c-0.4,1.2-1.8,1.7-2.9,1.3l0,0
					c-1-0.4-2,0.1-2.4,1.1l0,0c-0.4,1,0.1,2,1.1,2.4l0,0c1.2,0.4,1.7,1.8,1.3,2.9l0,0c-0.4,1,0.1,2,1.1,2.4l0,0c1,0.4,2-0.1,2.4-1.1
					l0,0c0.4-1.2,1.8-1.7,2.9-1.3l0,0c1,0.4,2-0.1,2.4-1.1l0,0c0.4-1-0.1-2-1.1-2.4l0,0C457.2-260.8,456.7-262.1,457.1-263.3z"/>
				<path class="st2" d="M706.5-314.5L706.5-314.5c0.4-1-0.1-2-1.1-2.4l0,0c-1-0.4-2,0.1-2.4,1.1l0,0c-0.4,1.2-1.8,1.7-2.9,1.3l0,0
					c-1-0.4-2,0.1-2.4,1.1l0,0c-0.4,1,0.1,2,1.1,2.4l0,0c1.2,0.4,1.7,1.8,1.3,2.9l0,0c-0.4,1,0.1,2,1.1,2.4l0,0c1,0.4,2-0.1,2.4-1.1
					l0,0c0.4-1.2,1.8-1.7,2.9-1.3l0,0c1,0.4,2-0.1,2.4-1.1l0,0c0.4-1-0.1-2-1.1-2.4l0,0C706.6-312,706.1-313.3,706.5-314.5z"/>
				<path class="st2" d="M-362.4-317.6L-362.4-317.6c-0.2-0.9-1.1-1.5-2-1.2l0,0c-0.9,0.2-1.5,1.1-1.2,2l0,0
					c0.2,1.1-0.4,2.2-1.5,2.4l0,0c-0.9,0.2-1.5,1.1-1.2,2l0,0c0.2,0.9,1.1,1.5,2,1.2l0,0c1.1-0.2,2.2,0.4,2.4,1.5l0,0
					c0.2,0.9,1.1,1.5,2,1.2l0,0c0.9-0.2,1.5-1.1,1.2-2l0,0c-0.2-1.1,0.4-2.2,1.5-2.4l0,0c0.9-0.2,1.5-1.1,1.2-2l0,0
					c-0.2-0.9-1.1-1.5-2-1.2l0,0C-361.1-315.8-362.2-316.5-362.4-317.6z"/>
				<path class="st2" d="M-99.1-239.9L-99.1-239.9c0.5-0.8,0.3-1.8-0.5-2.3l0,0c-0.8-0.5-1.8-0.3-2.3,0.5l0,0
					c-0.6,0.9-1.8,1.2-2.8,0.6l0,0c-0.8-0.5-1.8-0.3-2.3,0.5l0,0c-0.5,0.8-0.3,1.8,0.5,2.3l0,0c0.9,0.6,1.2,1.8,0.6,2.8l0,0
					c-0.5,0.8-0.3,1.8,0.5,2.3l0,0c0.8,0.5,1.8,0.3,2.3-0.5l0,0c0.6-0.9,1.8-1.2,2.8-0.6l0,0c0.8,0.5,1.8,0.3,2.3-0.5l0,0
					c0.5-0.8,0.3-1.8-0.5-2.3l0,0C-99.5-237.7-99.8-239-99.1-239.9z"/>
				<g>
					<path class="st2" d="M-118.9-301.1c3.7,14.1,17.8,22.9,32.1,19.8s23.6-17,21-31.3L-118.9-301.1z"/>
					<path class="st2" d="M-98.4-334.6c-14.3,3.1-23.6,17-21,31.3l53.2-11.5C-69.9-328.9-84-337.7-98.4-334.6z M-76.4-318.3
						c-2,2.6-6.6,2.5-10.2-0.2c-3.6-2.8-4.8-7.1-2.8-9.8c2-2.6,6.6-2.5,10.2,0.2C-75.6-325.3-74.4-320.9-76.4-318.3z"/>
				</g>
				<path class="st2" d="M-168.8-250.6l1.9-0.4c0.8-0.2,1.5,0.7,1.1,1.4l-0.8,1.8l1,1.7c0.4,0.7-0.2,1.6-1,1.5l-2-0.2l-1.3,1.5
					c-0.6,0.6-1.6,0.3-1.8-0.5l-0.4-1.9l-1.8-0.8c-0.8-0.3-0.8-1.4-0.1-1.8l1.7-1l0.2-2c0.1-0.8,1.1-1.2,1.7-0.6L-168.8-250.6z"/>
				<path class="st2" d="M120.2-351.9l2.7-1.4c1.2-0.6,2.6,0.4,2.3,1.7l-0.5,3.1l2.2,2.2c1,0.9,0.4,2.6-0.9,2.7l-3.1,0.4l-1.4,2.8
					c-0.6,1.2-2.3,1.2-2.9,0l-1.4-2.8l-3.1-0.4c-1.3-0.2-1.8-1.8-0.9-2.7l2.2-2.2l-0.5-3.1c-0.2-1.3,1.2-2.3,2.3-1.7L120.2-351.9z"
					/>
				<path class="st2" d="M414.1-316l3.5,1.6c1.5,0.7,1.5,2.8,0.1,3.6l-3.4,1.8l-0.5,3.8c-0.2,1.7-2.2,2.4-3.4,1.2l-2.8-2.7l-3.8,0.7
					c-1.6,0.3-2.9-1.4-2.2-2.9l1.7-3.5l-1.9-3.4c-0.8-1.5,0.4-3.2,2.1-3l3.8,0.6l2.6-2.8c1.1-1.2,3.2-0.6,3.5,1.1L414.1-316z"/>
				<path class="st2" d="M177.8-69.3L177.8-69.3c-0.6-0.8-1.8-1-2.6-0.3l0,0c-0.8,0.6-1,1.8-0.3,2.6l0,0c0.8,1,0.6,2.4-0.4,3.2l0,0
					c-0.8,0.6-1,1.8-0.3,2.6l0,0c0.6,0.8,1.8,1,2.6,0.3l0,0c1-0.8,2.4-0.6,3.2,0.4l0,0c0.6,0.8,1.8,1,2.6,0.3l0,0
					c0.8-0.6,1-1.8,0.3-2.6l0,0c-0.8-1-0.6-2.4,0.4-3.2l0,0c0.8-0.6,1-1.8,0.3-2.6l0,0c-0.6-0.8-1.8-1-2.6-0.3l0,0
					C180-68.1,178.6-68.3,177.8-69.3z"/>
				<path class="st2" d="M-647.2-137.3L-647.2-137.3c-0.6-0.8-1.8-1-2.6-0.3l0,0c-0.8,0.6-1,1.8-0.3,2.6l0,0c0.8,1,0.6,2.4-0.4,3.2
					l0,0c-0.8,0.6-1,1.8-0.3,2.6l0,0c0.6,0.8,1.8,1,2.6,0.3l0,0c1-0.8,2.4-0.6,3.2,0.4l0,0c0.6,0.8,1.8,1,2.6,0.3l0,0
					c0.8-0.6,1-1.8,0.3-2.6l0,0c-0.8-1-0.6-2.4,0.4-3.2l0,0c0.8-0.6,1-1.8,0.3-2.6l0,0c-0.6-0.8-1.8-1-2.6-0.3l0,0
					C-645-136.1-646.4-136.3-647.2-137.3z"/>
				<path class="st2" d="M114.8-144l2.7-1.4c1.2-0.6,2.6,0.4,2.3,1.7l-0.5,3.1l2.2,2.2c1,0.9,0.4,2.6-0.9,2.7l-3.1,0.4l-1.4,2.8
					c-0.6,1.2-2.3,1.2-2.9,0l-1.4-2.8l-3.1-0.4c-1.3-0.2-1.8-1.8-0.9-2.7l2.2-2.2l-0.5-3.1c-0.2-1.3,1.2-2.3,2.3-1.7L114.8-144z"/>
				<path class="st2" d="M-450.5-239l2.1-1.1c0.9-0.5,1.9,0.3,1.8,1.3l-0.4,2.3l1.7,1.6c0.7,0.7,0.3,1.9-0.7,2.1l-2.3,0.3l-1,2.1
					c-0.4,0.9-1.7,0.9-2.2,0l-1-2.1l-2.3-0.3c-1-0.1-1.4-1.4-0.7-2.1l1.7-1.6l-0.4-2.3c-0.2-1,0.9-1.7,1.8-1.3L-450.5-239z"/>
				<path class="st2" d="M-773.4-317l0.6-2.2c0.3-1,1.5-1.2,2.1-0.4l1.4,1.9l2.3-0.1c1,0,1.6,1.1,1,1.9l-1.3,1.9l0.8,2.2
					c0.4,0.9-0.5,1.9-1.5,1.6l-2.2-0.7l-1.8,1.4c-0.8,0.6-1.9,0.1-2-0.9v-2.3l-1.9-1.3c-0.8-0.6-0.7-1.8,0.3-2.2L-773.4-317z"/>
				<path class="st2" d="M-384.1-127.5L-384.1-127.5c0.9-0.7,1-2,0.3-2.9l0,0c-0.7-0.9-2-1-2.9-0.3l0,0c-1,0.9-2.6,0.7-3.4-0.3l0,0
					c-0.7-0.9-2-1-2.9-0.3l0,0c-0.9,0.7-1,2-0.3,2.9l0,0c0.9,1,0.7,2.6-0.3,3.4l0,0c-0.9,0.7-1,2-0.3,2.9l0,0c0.7,0.9,2,1,2.9,0.3
					l0,0c1-0.9,2.6-0.7,3.4,0.3l0,0c0.7,0.9,2,1,2.9,0.3l0,0c0.9-0.7,1-2,0.3-2.9l0,0C-385.3-125.1-385.1-126.7-384.1-127.5z"/>
				<path class="st2" d="M422.3-103.8L422.3-103.8c0.9-0.7,1-2,0.3-2.9l0,0c-0.7-0.9-2-1-2.9-0.3l0,0c-1,0.9-2.6,0.7-3.4-0.3l0,0
					c-0.7-0.9-2-1-2.9-0.3l0,0c-0.9,0.7-1,2-0.3,2.9l0,0c0.9,1,0.7,2.6-0.3,3.4l0,0c-0.9,0.7-1,2-0.3,2.9l0,0c0.7,0.9,2,1,2.9,0.3
					l0,0c1-0.9,2.6-0.7,3.4,0.3l0,0c0.7,0.9,2,1,2.9,0.3l0,0c0.9-0.7,1-2,0.3-2.9l0,0C421.1-101.4,421.2-102.9,422.3-103.8z"/>
				<path class="st2" d="M-723.8-111.8L-723.8-111.8c0.9-0.7,1-2,0.3-2.9l0,0c-0.7-0.9-2-1-2.9-0.3l0,0c-1,0.9-2.6,0.7-3.4-0.3l0,0
					c-0.7-0.9-2-1-2.9-0.3l0,0c-0.9,0.7-1,2-0.3,2.9l0,0c0.9,1,0.7,2.6-0.3,3.4l0,0c-0.9,0.7-1,2-0.3,2.9l0,0c0.7,0.9,2,1,2.9,0.3
					l0,0c1-0.9,2.6-0.7,3.4,0.3l0,0c0.7,0.9,2,1,2.9,0.3l0,0c0.9-0.7,1-2,0.3-2.9l0,0C-724.9-109.4-724.8-110.9-723.8-111.8z"/>
				<path class="st2" d="M234.1-109.4L234.1-109.4c0.9-0.7,1-2,0.3-2.9l0,0c-0.7-0.9-2-1-2.9-0.3l0,0c-1,0.9-2.6,0.7-3.4-0.3l0,0
					c-0.7-0.9-2-1-2.9-0.3l0,0c-0.9,0.7-1,2-0.3,2.9l0,0c0.9,1,0.7,2.6-0.3,3.4l0,0c-0.9,0.7-1,2-0.3,2.9l0,0c0.7,0.9,2,1,2.9,0.3
					l0,0c1-0.9,2.6-0.7,3.4,0.3l0,0c0.7,0.9,2,1,2.9,0.3l0,0c0.9-0.7,1-2,0.3-2.9l0,0C232.9-107,233-108.5,234.1-109.4z"/>
				<path class="st2" d="M-473.7-123.3l4.5,0.5c1.9,0.2,2.8,2.6,1.4,3.9l-3.1,3.2l0.9,4.4c0.4,1.9-1.6,3.4-3.3,2.6l-4-2l-3.9,2.2
					c-1.7,0.9-3.7-0.4-3.5-2.4l0.6-4.4l-3.3-3c-1.4-1.3-0.7-3.7,1.2-4l4.4-0.8l1.9-4.1c0.8-1.8,3.3-1.8,4.2-0.1L-473.7-123.3z"/>
				<path class="st2" d="M506.3-133.5l4-2c1.7-0.9,3.7,0.7,3.3,2.6l-0.9,4.4l3.1,3.2c1.3,1.4,0.5,3.7-1.4,3.9l-4.5,0.5l-2.1,4
					c-0.9,1.7-3.4,1.6-4.2-0.1l-1.9-4.1l-4.4-0.8c-1.9-0.3-2.6-2.7-1.2-4l3.3-3l-0.6-4.4c-0.3-1.9,1.8-3.3,3.5-2.4L506.3-133.5z"/>
				
					<ellipse transform="matrix(0.9675 -0.253 0.253 0.9675 65.4673 -58.6979)" class="st2" cx="-195.5" cy="-283.9" rx="2.6" ry="2.6"/>
				
					<ellipse transform="matrix(0.9675 -0.253 0.253 0.9675 66.9477 -54.9783)" class="st2" cx="-180.3" cy="-287.8" rx="3.5" ry="3.5"/>
				
					<ellipse transform="matrix(0.9675 -0.253 0.253 0.9675 58.5496 -47.2899)" class="st2" cx="-154.6" cy="-251.3" rx="2.6" ry="2.6"/>
				
					<ellipse transform="matrix(0.9675 -0.253 0.253 0.9675 95.4325 113.3371)" class="st2" cx="488.4" cy="-314.4" rx="2.6" ry="2.6"/>
				
					<ellipse transform="matrix(0.9675 -0.253 0.253 0.9675 40.2125 139.5205)" class="st2" cx="562.6" cy="-86.6" rx="2.6" ry="2.6"/>
				
					<ellipse transform="matrix(0.9675 -0.253 0.253 0.9675 55.539 -54.6947)" class="st2" cx="-184.9" cy="-243.3" rx="2.6" ry="2.6"/>
				
					<ellipse transform="matrix(0.9675 -0.253 0.253 0.9675 54.0677 -58.3372)" class="st2" cx="-199.8" cy="-239.4" rx="2.2" ry="2.2"/>
				
					<ellipse transform="matrix(0.9675 -0.253 0.253 0.9675 62.2708 -183.3552)" class="st2" cx="-681.8" cy="-333.8" rx="2.2" ry="2.2"/>
				
					<ellipse transform="matrix(0.9675 -0.253 0.253 0.9675 5.1245 -204.5542)" class="st2" cx="-792.8" cy="-122.2" rx="2.2" ry="2.2"/>
				<g>
					<line class="st3" x1="-199.2" y1="-246.1" x2="-196.1" y2="-277.2"/>
					<path class="st2" d="M-199-245.4c-0.1,0-0.2,0-0.2,0c-0.4,0-0.6-0.4-0.6-0.7l3-31.1c0-0.4,0.4-0.6,0.7-0.6
						c0.4,0,0.6,0.4,0.6,0.7l-3,31.1C-198.5-245.7-198.7-245.5-199-245.4z"/>
				</g>
				<g>
					<line class="st3" x1="-184.2" y1="-250" x2="-182.7" y2="-265.6"/>
					<path class="st2" d="M-184.1-249.3c-0.1,0-0.2,0-0.2,0c-0.4,0-0.6-0.4-0.6-0.7l1.5-15.5c0-0.4,0.4-0.6,0.7-0.6
						c0.4,0,0.6,0.4,0.6,0.7l-1.5,15.5C-183.6-249.6-183.8-249.4-184.1-249.3z"/>
				</g>
				<g>
					<line class="st3" x1="-158.4" y1="-256.8" x2="-176.3" y2="-282.4"/>
					<path class="st2" d="M-158.3-256.1c-0.3,0.1-0.6,0-0.7-0.3l-17.9-25.6c-0.2-0.3-0.1-0.7,0.2-0.9c0.3-0.2,0.7-0.1,0.9,0.2
						l17.9,25.6c0.2,0.3,0.1,0.7-0.2,0.9C-158.1-256.2-158.2-256.1-158.3-256.1z"/>
				</g>
				<g>
					<line class="st3" x1="-174" y1="-253.8" x2="-191.2" y2="-278.5"/>
					<path class="st2" d="M-173.9-253.1c-0.3,0.1-0.6,0-0.7-0.3l-17.2-24.7c-0.2-0.3-0.1-0.7,0.2-0.9c0.3-0.2,0.7-0.1,0.9,0.2
						l17.2,24.7c0.2,0.3,0.1,0.7-0.2,0.9C-173.7-253.2-173.8-253.1-173.9-253.1z"/>
				</g>
				<g>
					<line class="st3" x1="-195" y1="-239.8" x2="-189.2" y2="-241.3"/>
					<path class="st2" d="M-189-241.4l-6.1,1.6c-0.4,0.1-0.7,0-0.8-0.4s0.1-0.7,0.5-0.7l6.1-1.6c0.4-0.1,0.7,0,0.8,0.4
						S-188.7-241.5-189-241.4z"/>
				</g>
				<g>
					<line class="st3" x1="-190.8" y1="-285.1" x2="-186.2" y2="-286.3"/>
					<path class="st2" d="M-185.7-286.4l-5.3,1.4c-0.4,0.1-0.7,0-0.8-0.4s0.1-0.7,0.5-0.7l5.3-1.4c0.4-0.1,0.7,0,0.8,0.4
						C-185.1-286.8-185.3-286.5-185.7-286.4z"/>
				</g>
				<g>
					<line class="st3" x1="-163.9" y1="-247.9" x2="-159.4" y2="-249.1"/>
					<path class="st2" d="M-159.1-249.2l-4.4,1.1c-0.4,0.1-0.7,0-0.8-0.4s0.1-0.7,0.5-0.7l4.4-1.1c0.4-0.1,0.7,0,0.8,0.4
						S-158.7-249.3-159.1-249.2z"/>
				</g>
				<g>
					<path class="st2" d="M189.2,88L141,136.2c-1.8,1.8-1.6,4.8,0.4,6.4c15.1,11.8,37.1,10.8,51-3.2c13.9-13.9,15-35.9,3.2-51
						C194,86.4,191,86.2,189.2,88z"/>
					<circle class="st2" cx="153.5" cy="100.5" r="4.6"/>
					<circle class="st2" cx="182.2" cy="129.2" r="6.2"/>
					<circle class="st2" cx="192.5" cy="139.5" r="6.2"/>
					<path class="st2" d="M204,176h-23.1c-1.3,0-2.3-1.3-1.9-2.6l6.6-23.5c0.2-0.9,1-1.5,1.9-1.5h9.8c0.9,0,1.7,0.6,1.9,1.5
						l6.6,23.5C206.3,174.7,205.3,176,204,176z"/>
				</g>
				<g>
					<circle class="st2" cx="-127.8" cy="169.9" r="6.1"/>
					<circle class="st2" cx="-142.8" cy="169.9" r="6.1"/>
					<circle class="st2" cx="-84.3" cy="169.9" r="6.1"/>
					<circle class="st2" cx="-99.2" cy="169.9" r="6.1"/>
					<circle class="st2" cx="-172.8" cy="169.9" r="6.1"/>
					<path class="st2" d="M-162.3,142.7h-19.2c-1.7,0-3.2,1.4-3.2,3.2v20.9c0,1.7,1.4,3.2,3.2,3.2h19.2c1.7,0,3.2-1.4,3.2-3.2v-20.9
						C-159.1,144.1-160.5,142.7-162.3,142.7z"/>
					<path class="st2" d="M-73.2,130.2h-77.7c-1.7,0-3.2,1.4-3.2,3.2v33.4c0,1.7,1.4,3.2,3.2,3.2h77.7c1.7,0,3.2-1.4,3.2-3.2v-33.4
						C-70,131.6-71.4,130.2-73.2,130.2z"/>
					<rect x="-164.9" y="163.8" class="st2" width="25.3" height="6.1"/>
				</g>
				<g>
					
						<linearGradient id="SVGID_3_" gradientUnits="userSpaceOnUse" x1="-355.0633" y1="384.4524" x2="114.9367" y2="74.4524" gradientTransform="matrix(1 0 0 1 0 -318)">
						<stop  offset="0" style="stop-color:#007ADC;stop-opacity:0"/>
						<stop  offset="1" style="stop-color:#007ADC"/>
					</linearGradient>
					<path class="st4" d="M108.6-226.4L81-231.7l5.6-28.7c-390.3,244-786.1,307.7-895.5,145.6L-360,550.3
						C-469.4,388.3-263.2,44.2,108.6-226.4z"/>
				</g>
				<g>
					<path class="st5" d="M95-242.8l3.1-16c1.7-8.8,10.2-14.6,19.1-12.9l0,0c8.8,1.7,14.6,10.2,12.9,19.1l0,0
						c-1.7,8.8-10.2,14.6-19.1,12.9L95-242.8z"/>
					<path class="st5" d="M142.9-274.8c8.7,13,10.5,28.6,6.1,42.4c-1.4,4.6,3.2,8.8,7.6,6.9c3.4-1.5,6.7-3.4,9.8-5.8
						c20.1-15.3,25.3-44.3,11.7-65.6c-15-23.4-46.2-29.8-69-14.3c-2.4,1.6-4.6,3.4-6.6,5.3c-3.5,3.3-1.3,9.3,3.5,9.6
						C120.3-295.1,134.2-287.7,142.9-274.8z"/>
					<path class="st6" d="M128.1-259.5c2,3,5.5,4.6,9,4.1c26.3-3.1,55-6.4,72-17.9c23-15.6,36.9-39.6,40.2-65.2
						c0.7-5.3-2.7-10.4-7.9-11.7c-24.9-6.5-52.4-2.6-75.5,12.9c-17,11.5-30.8,36.8-43.5,60.1c-1.7,3.1-1.5,7,0.5,9.9L128.1-259.5z"
						/>
					
						<ellipse transform="matrix(0.8288 -0.5595 0.5595 0.8288 206.6764 55.7179)" class="st5" cx="194.4" cy="-309.9" rx="20.7" ry="20.7"/>
				</g>
				<polygon class="st2" points="770.1,39 966.1,179 574,179 				"/>
				<polygon class="st2" points="-1030.1,39 -834,179 -1226.1,179 				"/>
				<polygon class="st2" points="-892.6,93 -772.1,179 -1013,179 				"/>
				<polygon class="st2" points="539.8,111 635,179 444.5,179 				"/>
				<polygon class="st2" points="-725.3,129.2 -655.5,179 -795,179 				"/>
				<circle class="st7" cx="194.4" cy="-309.9" r="15.6"/>
				<g>
					<path class="st2" d="M-649.7,127.8l5.7,12.6c0.4,0.9-0.3,2-1.3,2h-11.4c-1,0-1.7-1.1-1.3-2l5.7-12.6
						C-651.8,126.7-650.2,126.7-649.7,127.8z"/>
					<path class="st2" d="M-649.7,134.2l9.2,20.2c0.4,0.9-0.3,2-1.3,2h-18.3c-1,0-1.7-1.1-1.3-2l9.2-20.2
						C-651.8,133.1-650.2,133.1-649.7,134.2z"/>
					<path class="st2" d="M-649.7,142.2l12.6,27.8c0.4,0.9-0.3,2-1.3,2h-25.2c-1,0-1.7-1.1-1.3-2l12.6-27.8
						C-651.8,141.1-650.2,141.1-649.7,142.2z"/>
					<path class="st2" d="M-649.9,161.8h-2.2c-0.8,0-1.4,0.6-1.4,1.4V176h5v-12.8C-648.5,162.4-649.1,161.8-649.9,161.8z"/>
				</g>
				<g>
					<g>
						<path class="st2" d="M442.3,127.3l5.7,12.6c0.4,0.9-0.3,2-1.3,2h-11.4c-1,0-1.7-1.1-1.3-2l5.7-12.6
							C440.2,126.2,441.8,126.2,442.3,127.3z"/>
						<path class="st2" d="M442.3,133.7l9.2,20.2c0.4,0.9-0.3,2-1.3,2h-18.3c-1,0-1.7-1.1-1.3-2l9.2-20.2
							C440.2,132.6,441.8,132.6,442.3,133.7z"/>
						<path class="st2" d="M442.3,141.7l12.6,27.8c0.4,0.9-0.3,2-1.3,2h-25.2c-1,0-1.7-1.1-1.3-2l12.6-27.8
							C440.2,140.6,441.8,140.6,442.3,141.7z"/>
						<path class="st2" d="M442.1,161.3h-2.2c-0.8,0-1.4,0.6-1.4,1.4V176h5v-13.3C443.5,161.9,442.9,161.3,442.1,161.3z"/>
					</g>
					<g>
						<path class="st2" d="M384.5,137.6l4.3,9.5c0.3,0.7-0.2,1.5-1,1.5h-8.6c-0.8,0-1.3-0.8-1-1.5l4.3-9.5
							C382.9,136.8,384.1,136.8,384.5,137.6z"/>
						<path class="st2" d="M384.5,142.4l6.9,15.2c0.3,0.7-0.2,1.5-1,1.5h-13.7c-0.8,0-1.3-0.8-1-1.5l6.9-15.2
							C382.9,141.6,384.1,141.6,384.5,142.4z"/>
						<path class="st2" d="M384.5,148.4l9.4,20.9c0.3,0.7-0.2,1.5-1,1.5H374c-0.8,0-1.3-0.8-1-1.5l9.4-20.9
							C382.9,147.6,384.1,147.6,384.5,148.4z"/>
						<path class="st2" d="M384.2,163.1h-1.3c-0.7,0-1.2,0.5-1.2,1.2V176h3.7v-11.7C385.4,163.7,384.8,163.1,384.2,163.1z"/>
					</g>
					<g>
						<path class="st2" d="M421.8,117.5l7,15.5c0.5,1.1-0.3,2.4-1.6,2.4h-14.1c-1.3,0-2.1-1.3-1.6-2.4l7-15.5
							C419.3,116.1,421.2,116.1,421.8,117.5z"/>
						<path class="st2" d="M421.8,125.3l11.3,24.9c0.5,1.1-0.3,2.4-1.6,2.4H409c-1.3,0-2.1-1.3-1.6-2.4l11.3-24.9
							C419.3,124,421.2,124,421.8,125.3z"/>
						<path class="st2" d="M421.8,133.3l15.5,34.3c0.5,1.1-0.3,2.4-1.6,2.4h-31.1c-1.3,0-2.1-1.3-1.6-2.4l15.5-34.3
							C419.3,131.9,421.2,131.9,421.8,133.3z"/>
						<path class="st2" d="M421.6,159.4h-2.7c-1,0-1.7,0.8-1.7,1.7V176h6.2v-14.9C423.3,160.1,422.6,159.4,421.6,159.4z"/>
					</g>
				</g>
				<g>
					<path class="st2" d="M-795.7,129.3l5.7,12.6c0.4,0.9-0.3,2-1.3,2h-11.4c-1,0-1.7-1.1-1.3-2l5.7-12.6
						C-797.8,128.2-796.2,128.2-795.7,129.3z"/>
					<path class="st2" d="M-795.7,135.7l9.2,20.2c0.4,0.9-0.3,2-1.3,2h-18.3c-1,0-1.7-1.1-1.3-2l9.2-20.2
						C-797.8,134.6-796.2,134.6-795.7,135.7z"/>
					<path class="st2" d="M-795.7,143.7l12.6,27.8c0.4,0.9-0.3,2-1.3,2h-25.2c-1,0-1.7-1.1-1.3-2l12.6-27.8
						C-797.8,142.6-796.2,142.6-795.7,143.7z"/>
					<path class="st2" d="M-795.9,163.3h-2.2c-0.8,0-1.4,0.6-1.4,1.4V180h5v-15.3C-794.5,163.9-795.1,163.3-795.9,163.3z"/>
				</g>
				<g>
					<path class="st2" d="M-633.2,146.5l3.7,8.1c0.3,0.6-0.2,1.3-0.8,1.3h-7.3c-0.7,0-1.1-0.7-0.8-1.3l3.7-8.1
						C-634.5,145.8-633.5,145.8-633.2,146.5z"/>
					<path class="st2" d="M-633.2,150.6l5.9,13c0.3,0.6-0.2,1.3-0.8,1.3h-11.8c-0.7,0-1.1-0.7-0.8-1.3l5.9-13
						C-634.5,149.9-633.5,149.9-633.2,150.6z"/>
					<path class="st2" d="M-633.2,155.7l8.1,17.9c0.3,0.6-0.2,1.3-0.8,1.3h-16.2c-0.7,0-1.1-0.7-0.8-1.3l8.1-17.9
						C-634.5,155-633.5,155-633.2,155.7z"/>
					<path class="st2" d="M-633.3,168.3h-1.4c-0.5,0-0.9,0.4-0.9,0.9v6.8h3.2v-6.8C-632.4,168.7-632.8,168.3-633.3,168.3z"/>
				</g>
				<g>
					<path class="st2" d="M-495,93h-13h-2.5c-2.5,0-4.5,2-4.5,4.5v2.5v79h7v-79h13v79h7v-79v-2.5c0-2.5-2-4.5-4.5-4.5H-495z"/>
					<rect x="-511" y="111.2" class="st2" width="17" height="2"/>
					
						<rect x="-502" y="91.5" transform="matrix(0.7071 -0.7071 0.7071 0.7071 -221.6863 -323.226)" class="st2" width="2" height="29"/>
					
						<rect x="-502" y="104.5" transform="matrix(0.7071 -0.7071 0.7071 0.7071 -230.8787 -319.4185)" class="st2" width="2" height="29"/>
					
						<rect x="-502" y="117.5" transform="matrix(0.7071 -0.7071 0.7071 0.7071 -240.0902 -315.6029)" class="st2" width="2" height="29"/>
					
						<rect x="-502" y="131.5" transform="matrix(0.7071 -0.7071 0.7071 0.7071 -249.9705 -311.5104)" class="st2" width="2" height="29"/>
					
						<rect x="-502" y="144.5" transform="matrix(0.7071 -0.7071 0.7071 0.7071 -259.1629 -307.7027)" class="st2" width="2" height="29"/>
					
						<rect x="-502" y="157.5" transform="matrix(0.7071 -0.7071 0.7071 0.7071 -268.3744 -303.8873)" class="st2" width="2" height="29"/>
					<rect x="-511" y="98" class="st2" width="17" height="2"/>
					<rect x="-511" y="124.3" class="st2" width="17" height="2"/>
					<rect x="-511" y="137.5" class="st2" width="17" height="2"/>
					<rect x="-511" y="163.8" class="st2" width="17" height="2"/>
					<rect x="-511" y="150.7" class="st2" width="17" height="2"/>
					<rect x="-511" y="177" class="st2" width="17" height="2"/>
				</g>
				<rect x="-483" y="173" class="st2" width="75" height="3"/>
			</g>
		</g>
	</g>
</g>
<circle class="st2" cx="280.5" cy="198.5" r="4.6"/>
<path class="st8" d="M298.4,191.1c-4.8,0-8.7,3.9-8.7,8.7s3.9,8.7,8.7,8.7s8.7-3.9,8.7-8.7S303.2,191.1,298.4,191.1z M298.4,194.8
	c0.9,0,1.6,0.7,1.6,1.6c0,0.9-0.7,1.6-1.6,1.6c-0.9,0-1.6-0.7-1.6-1.6C296.8,195.5,297.5,194.8,298.4,194.8z M300.6,204.4h-4.2
	c-0.3,0-0.5-0.2-0.5-0.5c0-0.3,0.2-0.5,0.5-0.5h0.5v-3.6v0h-0.5c-0.3,0-0.5-0.2-0.5-0.5c0-0.3,0.2-0.5,0.5-0.5h3.3
	c0.2,0,0.4,0.2,0.4,0.4v4.2h0.5c0.3,0,0.5,0.2,0.5,0.5C301.1,204.2,300.8,204.4,300.6,204.4z"/>
</svg>
