<?xml version="1.0" encoding="utf-8"?>
<!-- Generator: Adobe Illustrator 19.2.0, SVG Export Plug-In . SVG Version: 6.00 Build 0)  -->
<svg version="1.1" id="puzzle" xmlns="http://www.w3.org/2000/svg" xmlns:xlink="http://www.w3.org/1999/xlink" x="0px" y="0px"
	 width="340px" height="240px" viewBox="0 0 340 240" style="enable-background:new 0 0 340 240;" xml:space="preserve">
<style type="text/css">
	.st0{fill:#053B63;}
</style>
<title>svg-sources</title>
<path class="st0" d="M319,99V26c0-3.3-2.7-6-6-6H190.9c-0.8-11.6-10.8-20.3-22.4-19.5C158,1.2,149.7,9.5,149,20H27c-3.3,0-6,2.7-6,6
	v71.1c12.7,1.1,22,12.3,20.9,24.9c-1,11.1-9.8,19.9-20.9,20.9V214c0,3.3,2.7,6,6,6h286c3.3,0,6-2.7,6-6v-73c11.6,0,21-9.4,21-21
	S330.6,99,319,99z"/>
</svg>
