<?xml version="1.0" encoding="utf-8"?>
<!-- Generator: Adobe Illustrator 19.2.1, SVG Export Plug-In . SVG Version: 6.00 Build 0)  -->
<svg version="1.1" id="puzzle" xmlns="http://www.w3.org/2000/svg" xmlns:xlink="http://www.w3.org/1999/xlink" x="0px" y="0px"
	 width="340px" height="240px" viewBox="0 0 340 240" style="enable-background:new 0 0 340 240;" xml:space="preserve">
<style type="text/css">
	.st0{fill:#074B89;}
	.st1{clip-path:url(#SVGID_2_);}
	.st2{fill:#006DBA;}
	.st3{fill:none;}
	.st4{fill:url(#SVGID_3_);}
	.st5{fill:#E3EAF4;}
	.st6{fill:#CEDAE3;}
	.st7{fill:#005F99;}
	.st8{fill:#035CA1;}
</style>
<title>svg-sources</title>
<path class="st0" d="M319,99V26c0-3.3-2.7-6-6-6H192.9c-1,11.7-10.9,20-22.9,20s-21.9-8.3-22.9-20H27c-3.3,0-6,2.7-6,6v73
	c-11.6,0-21,9.4-21,21s9.4,21,21,21v73c0,3.3,2.7,6,6,6h120.1c1-11.7,10.9-20,22.9-20s21.9,8.3,22.9,20H313c3.3,0,6-2.7,6-6v-73
	c11.6,0,21-9.4,21-21S330.6,99,319,99z"/>
<g>
	<g>
		<g>
			<defs>
				<path id="SVGID_1_" d="M319,99V26c0-3.3-2.7-6-6-6H192.9c-1,11.7-10.9,20-22.9,20s-21.9-8.3-22.9-20H27c-3.3,0-6,2.7-6,6v73
					c-11.6,0-21,9.4-21,21s9.4,21,21,21v73c0,3.3,2.7,6,6,6h120.1c1-11.7,10.9-20,22.9-20s21.9,8.3,22.9,20H313c3.3,0,6-2.7,6-6v-73
					c11.6,0,21-9.4,21-21S330.6,99,319,99z"/>
			</defs>
			<clipPath id="SVGID_2_">
				<use xlink:href="#SVGID_1_"  style="overflow:visible;"/>
			</clipPath>
			<g class="st1">
				<rect x="-965" y="380" class="st2" width="2266" height="45"/>
				<path class="st2" d="M-508.2,86.7L-508.2,86.7L-508.2,86.7z"/>
				<g>
					
						<ellipse transform="matrix(0.9776 -0.2104 0.2104 0.9776 19.5484 -37.6566)" class="st2" cx="-167.2" cy="-110.7" rx="20.5" ry="20.5"/>
					
						<ellipse transform="matrix(0.9776 -0.2104 0.2104 0.9776 21.122 -32.8659)" class="st2" cx="-143.9" cy="-115.7" rx="1.5" ry="1.5"/>
					<path class="st2" d="M-191.5-103.7l-24.6,5.3c-0.9,0.2-1.9-0.4-2.1-1.3l0,0c-0.2-0.9,0.4-1.9,1.3-2.1l24.6-5.3
						c0.9-0.2,1.9,0.4,2.1,1.3l0,0C-190-104.8-190.6-103.9-191.5-103.7z"/>
					<g>
						<path class="st2" d="M-182.7-89.6l-22.6,11.1c-0.9,0.4-1.9,0.1-2.3-0.8l0,0c-0.4-0.9-0.1-1.9,0.8-2.3l22.6-11.1
							c0.9-0.4,1.9-0.1,2.3,0.8l0,0C-181.5-91-181.9-90-182.7-89.6z"/>
						<path class="st2" d="M-190.1-123.6l-25.2-0.9c-1,0-1.8,0.7-1.8,1.7l0,0c0,1,0.7,1.8,1.7,1.8l25.2,0.9c1,0,1.8-0.7,1.8-1.7l0,0
							C-188.4-122.7-189.1-123.5-190.1-123.6z"/>
					</g>
				</g>
				<path class="st2" d="M-89-66.3L-89-66.3c0.5-1.7-0.5-3.4-2.2-3.9l0,0c-1.7-0.5-3.4,0.5-3.9,2.2l0,0c-0.6,2-2.7,3.2-4.7,2.6l0,0
					c-1.7-0.5-3.4,0.5-3.9,2.2l0,0c-0.5,1.7,0.5,3.4,2.2,3.9l0,0c2,0.6,3.2,2.7,2.6,4.7l0,0c-0.5,1.7,0.5,3.4,2.2,3.9l0,0
					c1.7,0.5,3.4-0.5,3.9-2.2l0,0c0.6-2,2.7-3.2,4.7-2.6l0,0c1.7,0.5,3.4-0.5,3.9-2.2l0,0c0.5-1.7-0.5-3.4-2.2-3.9l0,0
					C-88.4-62.2-89.6-64.3-89-66.3z"/>
				<path class="st2" d="M130.6-134.1L130.6-134.1c-1.1-1.4-3.1-1.6-4.4-0.5l0,0c-1.4,1.1-1.6,3.1-0.5,4.4l0,0c1.3,1.6,1,4-0.6,5.3
					l0,0c-1.4,1.1-1.6,3.1-0.5,4.4l0,0c1.1,1.4,3.1,1.6,4.4,0.5l0,0c1.6-1.3,4-1,5.3,0.6l0,0c1.1,1.4,3.1,1.6,4.4,0.5l0,0
					c1.4-1.1,1.6-3.1,0.5-4.4l0,0c-1.3-1.6-1-4,0.6-5.3l0,0c1.4-1.1,1.6-3.1,0.5-4.4l0,0c-1.1-1.4-3.1-1.6-4.4-0.5l0,0
					C134.3-132.2,131.9-132.5,130.6-134.1z"/>
				<path class="st2" d="M-383.4-69.8L-383.4-69.8c1.2-1.3,1-3.3-0.3-4.5l0,0c-1.3-1.2-3.3-1-4.5,0.3l0,0c-1.4,1.6-3.8,1.7-5.4,0.4
					l0,0c-1.3-1.2-3.3-1-4.5,0.3l0,0c-1.2,1.3-1,3.3,0.3,4.5l0,0c1.6,1.4,1.7,3.8,0.4,5.4l0,0c-1.2,1.3-1,3.3,0.3,4.5l0,0
					c1.3,1.2,3.3,1,4.5-0.3l0,0c1.4-1.6,3.8-1.7,5.4-0.4l0,0c1.3,1.2,3.3,1,4.5-0.3l0,0c1.2-1.3,1-3.3-0.3-4.5l0,0
					C-384.7-65.8-384.8-68.2-383.4-69.8z"/>
				<path class="st2" d="M-654.6-59L-654.6-59c1,0.6,2.4,0.3,3.1-0.7l0,0c0.6-1,0.3-2.4-0.7-3.1l0,0c-1.3-0.8-1.7-2.4-0.9-3.7l0,0
					c0.6-1,0.3-2.4-0.7-3.1l0,0c-1-0.6-2.4-0.3-3.1,0.7l0,0c-0.8,1.3-2.4,1.7-3.7,0.9l0,0c-1-0.6-2.4-0.3-3.1,0.7l0,0
					c-0.6,1-0.3,2.4,0.7,3.1l0,0c1.3,0.8,1.7,2.4,0.9,3.7l0,0c-0.6,1-0.3,2.4,0.7,3.1l0,0c1,0.6,2.4,0.3,3.1-0.7l0,0
					C-657.5-59.3-655.8-59.7-654.6-59z"/>
				<path class="st2" d="M533.4-37.7L533.4-37.7c-0.6-0.8-1.8-1-2.6-0.3l0,0c-0.8,0.6-1,1.8-0.3,2.6l0,0c0.8,1,0.6,2.4-0.4,3.2l0,0
					c-0.8,0.6-1,1.8-0.3,2.6l0,0c0.6,0.8,1.8,1,2.6,0.3l0,0c1-0.8,2.4-0.6,3.2,0.4l0,0c0.6,0.8,1.8,1,2.6,0.3l0,0
					c0.8-0.6,1-1.8,0.3-2.6l0,0c-0.8-1-0.6-2.4,0.4-3.2l0,0c0.8-0.6,1-1.8,0.3-2.6l0,0c-0.6-0.8-1.8-1-2.6-0.3l0,0
					C535.6-36.5,534.1-36.7,533.4-37.7z"/>
				<path class="st2" d="M757.1-61.3L757.1-61.3c0.4-1-0.1-2-1.1-2.4l0,0c-1-0.4-2,0.1-2.4,1.1l0,0c-0.4,1.2-1.8,1.7-2.9,1.3l0,0
					c-1-0.4-2,0.1-2.4,1.1l0,0c-0.4,1,0.1,2,1.1,2.4l0,0c1.2,0.4,1.7,1.8,1.3,2.9l0,0c-0.4,1,0.1,2,1.1,2.4l0,0c1,0.4,2-0.1,2.4-1.1
					l0,0c0.4-1.2,1.8-1.7,2.9-1.3l0,0c1,0.4,2-0.1,2.4-1.1l0,0c0.4-1-0.1-2-1.1-2.4l0,0C757.2-58.8,756.7-60.1,757.1-61.3z"/>
				<path class="st2" d="M1006.5-112.5L1006.5-112.5c0.4-1-0.1-2-1.1-2.4l0,0c-1-0.4-2,0.1-2.4,1.1l0,0c-0.4,1.2-1.8,1.7-2.9,1.3
					l0,0c-1-0.4-2,0.1-2.4,1.1l0,0c-0.4,1,0.1,2,1.1,2.4l0,0c1.2,0.4,1.7,1.8,1.3,2.9l0,0c-0.4,1,0.1,2,1.1,2.4l0,0
					c1,0.4,2-0.1,2.4-1.1l0,0c0.4-1.2,1.8-1.7,2.9-1.3l0,0c1,0.4,2-0.1,2.4-1.1l0,0c0.4-1-0.1-2-1.1-2.4l0,0
					C1006.6-110,1006.1-111.3,1006.5-112.5z"/>
				<path class="st2" d="M-62.4-115.6L-62.4-115.6c-0.2-0.9-1.1-1.5-2-1.2l0,0c-0.9,0.2-1.5,1.1-1.2,2l0,0c0.2,1.1-0.4,2.2-1.5,2.4
					l0,0c-0.9,0.2-1.5,1.1-1.2,2l0,0c0.2,0.9,1.1,1.5,2,1.2l0,0c1.1-0.2,2.2,0.4,2.4,1.5l0,0c0.2,0.9,1.1,1.5,2,1.2l0,0
					c0.9-0.2,1.5-1.1,1.2-2l0,0c-0.2-1.1,0.4-2.2,1.5-2.4l0,0c0.9-0.2,1.5-1.1,1.2-2l0,0c-0.2-0.9-1.1-1.5-2-1.2l0,0
					C-61.1-113.8-62.2-114.5-62.4-115.6z"/>
				<path class="st2" d="M200.9-37.9L200.9-37.9c0.5-0.8,0.3-1.8-0.5-2.3l0,0c-0.8-0.5-1.8-0.3-2.3,0.5l0,0
					c-0.6,0.9-1.8,1.2-2.8,0.6l0,0c-0.8-0.5-1.8-0.3-2.3,0.5l0,0c-0.5,0.8-0.3,1.8,0.5,2.3l0,0c0.9,0.6,1.2,1.8,0.6,2.8l0,0
					c-0.5,0.8-0.3,1.8,0.5,2.3l0,0c0.8,0.5,1.8,0.3,2.3-0.5l0,0c0.6-0.9,1.8-1.2,2.8-0.6l0,0c0.8,0.5,1.8,0.3,2.3-0.5l0,0
					c0.5-0.8,0.3-1.8-0.5-2.3l0,0C200.5-35.7,200.2-37,200.9-37.9z"/>
				<g>
					<path class="st2" d="M181.1-99.1c3.7,14.1,17.8,22.9,32.1,19.8c14.3-3.1,23.6-17,21-31.3L181.1-99.1z"/>
					<path class="st2" d="M201.6-132.6c-14.3,3.1-23.6,17-21,31.3l53.2-11.5C230.1-126.9,216-135.7,201.6-132.6z M223.6-116.3
						c-2,2.6-6.6,2.5-10.2-0.2c-3.6-2.8-4.8-7.1-2.8-9.8c2-2.6,6.6-2.5,10.2,0.2C224.4-123.3,225.6-118.9,223.6-116.3z"/>
				</g>
				<path class="st2" d="M131.2-48.6l1.9-0.4c0.8-0.2,1.5,0.7,1.1,1.4l-0.8,1.8l1,1.7c0.4,0.7-0.2,1.6-1,1.5l-2-0.2l-1.3,1.5
					c-0.6,0.6-1.6,0.3-1.8-0.5l-0.4-1.9l-1.8-0.8c-0.8-0.3-0.8-1.4-0.1-1.8l1.7-1l0.2-2c0.1-0.8,1.1-1.2,1.7-0.6L131.2-48.6z"/>
				<path class="st2" d="M420.2-149.9l2.7-1.4c1.2-0.6,2.6,0.4,2.3,1.7l-0.5,3.1l2.2,2.2c1,0.9,0.4,2.6-0.9,2.7l-3.1,0.4l-1.4,2.8
					c-0.6,1.2-2.3,1.2-2.9,0l-1.4-2.8l-3.1-0.4c-1.3-0.2-1.8-1.8-0.9-2.7l2.2-2.2l-0.5-3.1c-0.2-1.3,1.2-2.3,2.3-1.7L420.2-149.9z"
					/>
				<path class="st2" d="M714.1-114l3.5,1.6c1.5,0.7,1.5,2.8,0.1,3.6l-3.4,1.8l-0.5,3.8c-0.2,1.7-2.2,2.4-3.4,1.2l-2.8-2.7l-3.8,0.7
					c-1.6,0.3-2.9-1.4-2.2-2.9l1.7-3.5l-1.9-3.4c-0.8-1.5,0.4-3.2,2.1-3l3.8,0.6l2.6-2.8c1.1-1.2,3.2-0.6,3.5,1.1L714.1-114z"/>
				<path class="st2" d="M477.8,132.7L477.8,132.7c-0.6-0.8-1.8-1-2.6-0.3l0,0c-0.8,0.6-1,1.8-0.3,2.6l0,0c0.8,1,0.6,2.4-0.4,3.2
					l0,0c-0.8,0.6-1,1.8-0.3,2.6l0,0c0.6,0.8,1.8,1,2.6,0.3l0,0c1-0.8,2.4-0.6,3.2,0.4l0,0c0.6,0.8,1.8,1,2.6,0.3l0,0
					c0.8-0.6,1-1.8,0.3-2.6l0,0c-0.8-1-0.6-2.4,0.4-3.2l0,0c0.8-0.6,1-1.8,0.3-2.6l0,0c-0.6-0.8-1.8-1-2.6-0.3l0,0
					C480,133.9,478.6,133.7,477.8,132.7z"/>
				<path class="st2" d="M-347.2,64.7L-347.2,64.7c-0.6-0.8-1.8-1-2.6-0.3l0,0c-0.8,0.6-1,1.8-0.3,2.6l0,0c0.8,1,0.6,2.4-0.4,3.2
					l0,0c-0.8,0.6-1,1.8-0.3,2.6l0,0c0.6,0.8,1.8,1,2.6,0.3l0,0c1-0.8,2.4-0.6,3.2,0.4l0,0c0.6,0.8,1.8,1,2.6,0.3l0,0
					c0.8-0.6,1-1.8,0.3-2.6l0,0c-0.8-1-0.6-2.4,0.4-3.2l0,0c0.8-0.6,1-1.8,0.3-2.6l0,0c-0.6-0.8-1.8-1-2.6-0.3l0,0
					C-345,65.9-346.4,65.7-347.2,64.7z"/>
				<path class="st2" d="M414.8,58l2.7-1.4c1.2-0.6,2.6,0.4,2.3,1.7l-0.5,3.1l2.2,2.2c1,0.9,0.4,2.6-0.9,2.7l-3.1,0.4l-1.4,2.8
					c-0.6,1.2-2.3,1.2-2.9,0l-1.4-2.8l-3.1-0.4c-1.3-0.2-1.8-1.8-0.9-2.7l2.2-2.2l-0.5-3.1c-0.2-1.3,1.2-2.3,2.3-1.7L414.8,58z"/>
				<path class="st2" d="M-150.5-37l2.1-1.1c0.9-0.5,1.9,0.3,1.8,1.3l-0.4,2.3l1.7,1.6c0.7,0.7,0.3,1.9-0.7,2.1l-2.3,0.3l-1,2.1
					c-0.4,0.9-1.7,0.9-2.2,0l-1-2.1l-2.3-0.3c-1-0.1-1.4-1.4-0.7-2.1l1.7-1.6l-0.4-2.3c-0.2-1,0.9-1.7,1.8-1.3L-150.5-37z"/>
				<path class="st2" d="M-473.4-115l0.6-2.2c0.3-1,1.5-1.2,2.1-0.4l1.4,1.9l2.3-0.1c1,0,1.6,1.1,1,1.9l-1.3,1.9l0.8,2.2
					c0.4,0.9-0.5,1.9-1.5,1.6l-2.2-0.7l-1.8,1.4c-0.8,0.6-1.9,0.1-2-0.9v-2.3l-1.9-1.3c-0.8-0.6-0.7-1.8,0.3-2.2L-473.4-115z"/>
				<path class="st2" d="M-84.1,74.5L-84.1,74.5c0.9-0.7,1-2,0.3-2.9l0,0c-0.7-0.9-2-1-2.9-0.3l0,0c-1,0.9-2.6,0.7-3.4-0.3l0,0
					c-0.7-0.9-2-1-2.9-0.3l0,0c-0.9,0.7-1,2-0.3,2.9l0,0c0.9,1,0.7,2.6-0.3,3.4l0,0c-0.9,0.7-1,2-0.3,2.9l0,0c0.7,0.9,2,1,2.9,0.3
					l0,0c1-0.9,2.6-0.7,3.4,0.3l0,0c0.7,0.9,2,1,2.9,0.3l0,0c0.9-0.7,1-2,0.3-2.9l0,0C-85.3,76.9-85.1,75.3-84.1,74.5z"/>
				<path class="st2" d="M722.3,98.2L722.3,98.2c0.9-0.7,1-2,0.3-2.9l0,0c-0.7-0.9-2-1-2.9-0.3l0,0c-1,0.9-2.6,0.7-3.4-0.3l0,0
					c-0.7-0.9-2-1-2.9-0.3l0,0c-0.9,0.7-1,2-0.3,2.9l0,0c0.9,1,0.7,2.6-0.3,3.4l0,0c-0.9,0.7-1,2-0.3,2.9l0,0c0.7,0.9,2,1,2.9,0.3
					l0,0c1-0.9,2.6-0.7,3.4,0.3l0,0c0.7,0.9,2,1,2.9,0.3l0,0c0.9-0.7,1-2,0.3-2.9l0,0C721.1,100.6,721.2,99.1,722.3,98.2z"/>
				<path class="st2" d="M-423.8,90.2L-423.8,90.2c0.9-0.7,1-2,0.3-2.9l0,0c-0.7-0.9-2-1-2.9-0.3l0,0c-1,0.9-2.6,0.7-3.4-0.3l0,0
					c-0.7-0.9-2-1-2.9-0.3l0,0c-0.9,0.7-1,2-0.3,2.9l0,0c0.9,1,0.7,2.6-0.3,3.4l0,0c-0.9,0.7-1,2-0.3,2.9l0,0c0.7,0.9,2,1,2.9,0.3
					l0,0c1-0.9,2.6-0.7,3.4,0.3l0,0c0.7,0.9,2,1,2.9,0.3l0,0c0.9-0.7,1-2,0.3-2.9l0,0C-424.9,92.6-424.8,91.1-423.8,90.2z"/>
				<path class="st2" d="M534.1,92.6L534.1,92.6c0.9-0.7,1-2,0.3-2.9l0,0c-0.7-0.9-2-1-2.9-0.3l0,0c-1,0.9-2.6,0.7-3.4-0.3l0,0
					c-0.7-0.9-2-1-2.9-0.3l0,0c-0.9,0.7-1,2-0.3,2.9l0,0c0.9,1,0.7,2.6-0.3,3.4l0,0c-0.9,0.7-1,2-0.3,2.9l0,0c0.7,0.9,2,1,2.9,0.3
					l0,0c1-0.9,2.6-0.7,3.4,0.3l0,0c0.7,0.9,2,1,2.9,0.3l0,0c0.9-0.7,1-2,0.3-2.9l0,0C532.9,95,533,93.5,534.1,92.6z"/>
				<path class="st2" d="M-173.7,78.7l4.5,0.5c1.9,0.2,2.8,2.6,1.4,3.9l-3.1,3.2l0.9,4.4c0.4,1.9-1.6,3.4-3.3,2.6l-4-2l-3.9,2.2
					c-1.7,0.9-3.7-0.4-3.5-2.4l0.6-4.4l-3.3-3c-1.4-1.3-0.7-3.7,1.2-4l4.4-0.8l1.9-4.1c0.8-1.8,3.3-1.8,4.2-0.1L-173.7,78.7z"/>
				<path class="st2" d="M806.3,68.5l4-2c1.7-0.9,3.7,0.7,3.3,2.6l-0.9,4.4l3.1,3.2c1.3,1.4,0.5,3.7-1.4,3.9l-4.5,0.5l-2.1,4
					c-0.9,1.7-3.4,1.6-4.2-0.1l-1.9-4.1l-4.4-0.8c-1.9-0.3-2.6-2.7-1.2-4l3.3-3l-0.6-4.4c-0.3-1.9,1.8-3.3,3.5-2.4L806.3,68.5z"/>
				<ellipse transform="matrix(0.9675 -0.253 0.253 0.9675 24.121 23.7737)" class="st2" cx="104.5" cy="-81.9" rx="2.6" ry="2.6"/>
				
					<ellipse transform="matrix(0.9675 -0.253 0.253 0.9675 25.6014 27.4934)" class="st2" cx="119.7" cy="-85.8" rx="3.5" ry="3.5"/>
				
					<ellipse transform="matrix(0.9675 -0.253 0.253 0.9675 17.2034 35.1817)" class="st2" cx="145.4" cy="-49.3" rx="2.6" ry="2.6"/>
				
					<ellipse transform="matrix(0.9675 -0.253 0.253 0.9675 54.0862 195.8088)" class="st2" cx="788.4" cy="-112.4" rx="2.6" ry="2.6"/>
				
					<ellipse transform="matrix(0.9675 -0.253 0.253 0.9675 -1.1338 221.9922)" class="st2" cx="862.6" cy="115.4" rx="2.6" ry="2.6"/>
				<ellipse transform="matrix(0.9675 -0.253 0.253 0.9675 14.1928 27.777)" class="st2" cx="115.1" cy="-41.3" rx="2.6" ry="2.6"/>
				
					<ellipse transform="matrix(0.9675 -0.253 0.253 0.9675 12.7215 24.1345)" class="st2" cx="100.2" cy="-37.4" rx="2.2" ry="2.2"/>
				
					<ellipse transform="matrix(0.9675 -0.253 0.253 0.9675 20.9245 -100.8835)" class="st2" cx="-381.8" cy="-131.8" rx="2.2" ry="2.2"/>
				
					<ellipse transform="matrix(0.9675 -0.253 0.253 0.9675 -36.2217 -122.0825)" class="st2" cx="-492.8" cy="79.8" rx="2.2" ry="2.2"/>
				<g>
					<line class="st3" x1="100.8" y1="-44.1" x2="103.9" y2="-75.2"/>
					<path class="st2" d="M101-43.4c-0.1,0-0.2,0-0.2,0c-0.4,0-0.6-0.4-0.6-0.7l3-31.1c0-0.4,0.4-0.6,0.7-0.6c0.4,0,0.6,0.4,0.6,0.7
						l-3,31.1C101.5-43.7,101.3-43.5,101-43.4z"/>
				</g>
				<g>
					<line class="st3" x1="115.8" y1="-48" x2="117.3" y2="-63.6"/>
					<path class="st2" d="M115.9-47.3c-0.1,0-0.2,0-0.2,0c-0.4,0-0.6-0.4-0.6-0.7l1.5-15.5c0-0.4,0.4-0.6,0.7-0.6
						c0.4,0,0.6,0.4,0.6,0.7l-1.5,15.5C116.4-47.6,116.2-47.4,115.9-47.3z"/>
				</g>
				<g>
					<line class="st3" x1="141.6" y1="-54.8" x2="123.7" y2="-80.4"/>
					<path class="st2" d="M141.7-54.1c-0.3,0.1-0.6,0-0.7-0.3L123.2-80c-0.2-0.3-0.1-0.7,0.2-0.9c0.3-0.2,0.7-0.1,0.9,0.2l17.9,25.6
						c0.2,0.3,0.1,0.7-0.2,0.9C141.9-54.2,141.8-54.1,141.7-54.1z"/>
				</g>
				<g>
					<line class="st3" x1="126" y1="-51.8" x2="108.8" y2="-76.5"/>
					<path class="st2" d="M126.1-51.1c-0.3,0.1-0.6,0-0.7-0.3l-17.2-24.7c-0.2-0.3-0.1-0.7,0.2-0.9c0.3-0.2,0.7-0.1,0.9,0.2
						l17.2,24.7c0.2,0.3,0.1,0.7-0.2,0.9C126.3-51.2,126.2-51.1,126.1-51.1z"/>
				</g>
				<g>
					<line class="st3" x1="105" y1="-37.8" x2="110.8" y2="-39.3"/>
					<path class="st2" d="M111-39.4l-6.1,1.6c-0.4,0.1-0.7,0-0.8-0.4c-0.1-0.4,0.1-0.7,0.5-0.7l6.1-1.6c0.4-0.1,0.7,0,0.8,0.4
						S111.3-39.5,111-39.4z"/>
				</g>
				<g>
					<line class="st3" x1="109.2" y1="-83.1" x2="113.8" y2="-84.3"/>
					<path class="st2" d="M114.3-84.4L109-83c-0.4,0.1-0.7,0-0.8-0.4s0.1-0.7,0.5-0.7l5.3-1.4c0.4-0.1,0.7,0,0.8,0.4
						C114.9-84.8,114.7-84.5,114.3-84.4z"/>
				</g>
				<g>
					<line class="st3" x1="136.1" y1="-45.9" x2="140.6" y2="-47.1"/>
					<path class="st2" d="M140.9-47.2l-4.4,1.1c-0.4,0.1-0.7,0-0.8-0.4s0.1-0.7,0.5-0.7l4.4-1.1c0.4-0.1,0.7,0,0.8,0.4
						C141.5-47.6,141.3-47.3,140.9-47.2z"/>
				</g>
				<g>
					<path class="st2" d="M489.2,290L441,338.2c-1.8,1.8-1.6,4.8,0.4,6.4c15.1,11.8,37.1,10.8,51-3.2c13.9-13.9,15-35.9,3.2-51
						C494,288.4,491,288.2,489.2,290z"/>
					<circle class="st2" cx="453.5" cy="302.5" r="4.6"/>
					<circle class="st2" cx="482.2" cy="331.2" r="6.2"/>
					<circle class="st2" cx="492.5" cy="341.5" r="6.2"/>
					<path class="st2" d="M504,378h-23.1c-1.3,0-2.3-1.3-1.9-2.6l6.6-23.5c0.2-0.9,1-1.5,1.9-1.5h9.8c0.9,0,1.7,0.6,1.9,1.5
						l6.6,23.5C506.3,376.7,505.3,378,504,378z"/>
				</g>
				<g>
					<circle class="st2" cx="172.2" cy="371.9" r="6.1"/>
					<circle class="st2" cx="157.2" cy="371.9" r="6.1"/>
					<circle class="st2" cx="215.7" cy="371.9" r="6.1"/>
					<circle class="st2" cx="200.8" cy="371.9" r="6.1"/>
					<circle class="st2" cx="127.2" cy="371.9" r="6.1"/>
					<path class="st2" d="M137.7,344.7h-19.2c-1.7,0-3.2,1.4-3.2,3.2v20.9c0,1.7,1.4,3.2,3.2,3.2h19.2c1.7,0,3.2-1.4,3.2-3.2v-20.9
						C140.9,346.1,139.5,344.7,137.7,344.7z"/>
					<path class="st2" d="M226.8,332.2h-77.7c-1.7,0-3.2,1.4-3.2,3.2v33.4c0,1.7,1.4,3.2,3.2,3.2h77.7c1.7,0,3.2-1.4,3.2-3.2v-33.4
						C230,333.6,228.6,332.2,226.8,332.2z"/>
					<rect x="135.1" y="365.8" class="st2" width="25.3" height="6.1"/>
				</g>
				<g>
					
						<linearGradient id="SVGID_3_" gradientUnits="userSpaceOnUse" x1="-55.0863" y1="586.4175" x2="414.9137" y2="276.4175" gradientTransform="matrix(1 0 0 1 0 -318)">
						<stop  offset="0" style="stop-color:#007ADC;stop-opacity:0"/>
						<stop  offset="1" style="stop-color:#007ADC"/>
					</linearGradient>
					<path class="st4" d="M408.6-24.4L381-29.7l5.6-28.7C-3.7,185.5-399.5,249.2-508.9,87.1L-60,752.3
						C-169.4,590.3,36.8,246.2,408.6-24.4z"/>
				</g>
				<g>
					<path class="st5" d="M395-40.8l3.1-16c1.7-8.8,10.2-14.6,19.1-12.9l0,0c8.8,1.7,14.6,10.2,12.9,19.1l0,0
						c-1.7,8.8-10.2,14.6-19.1,12.9L395-40.8z"/>
					<path class="st5" d="M442.9-72.8c8.7,13,10.5,28.6,6.1,42.4c-1.4,4.6,3.2,8.8,7.6,6.9c3.4-1.5,6.7-3.4,9.8-5.8
						c20.1-15.3,25.3-44.3,11.7-65.6c-15-23.4-46.2-29.8-69-14.3c-2.4,1.6-4.6,3.4-6.6,5.3c-3.5,3.3-1.3,9.3,3.5,9.6
						C420.3-93.1,434.2-85.7,442.9-72.8z"/>
					<path class="st6" d="M428.1-57.5c2,3,5.5,4.6,9,4.1c26.3-3.1,55-6.4,72-17.9c23-15.6,36.9-39.6,40.2-65.2
						c0.7-5.3-2.7-10.4-7.9-11.7c-24.9-6.5-52.4-2.6-75.5,12.9c-17,11.5-30.8,36.8-43.5,60.1c-1.7,3.1-1.5,7,0.5,9.9L428.1-57.5z"/>
					
						<ellipse transform="matrix(0.8288 -0.5595 0.5595 0.8288 145.0106 258.1454)" class="st5" cx="494.4" cy="-107.9" rx="20.7" ry="20.7"/>
				</g>
				<polygon class="st2" points="1070.1,241 1266.1,381 874,381 				"/>
				<polygon class="st2" points="-730.1,241 -534,381 -926.1,381 				"/>
				<polygon class="st2" points="-592.6,295 -472.1,381 -713,381 				"/>
				<polygon class="st2" points="839.8,313 935,381 744.5,381 				"/>
				<polygon class="st2" points="-425.3,331.2 -355.5,381 -495,381 				"/>
				<circle class="st7" cx="494.4" cy="-107.9" r="15.6"/>
				<g>
					<path class="st2" d="M-349.7,329.8l5.7,12.6c0.4,0.9-0.3,2-1.3,2h-11.4c-1,0-1.7-1.1-1.3-2l5.7-12.6
						C-351.8,328.7-350.2,328.7-349.7,329.8z"/>
					<path class="st2" d="M-349.7,336.2l9.2,20.2c0.4,0.9-0.3,2-1.3,2h-18.3c-1,0-1.7-1.1-1.3-2l9.2-20.2
						C-351.8,335.1-350.2,335.1-349.7,336.2z"/>
					<path class="st2" d="M-349.7,344.2l12.6,27.8c0.4,0.9-0.3,2-1.3,2h-25.2c-1,0-1.7-1.1-1.3-2l12.6-27.8
						C-351.8,343.1-350.2,343.1-349.7,344.2z"/>
					<path class="st2" d="M-349.9,363.8h-2.2c-0.8,0-1.4,0.6-1.4,1.4V378h5v-12.8C-348.5,364.4-349.1,363.8-349.9,363.8z"/>
				</g>
				<g>
					<g>
						<path class="st2" d="M742.3,329.3l5.7,12.6c0.4,0.9-0.3,2-1.3,2h-11.4c-1,0-1.7-1.1-1.3-2l5.7-12.6
							C740.2,328.2,741.8,328.2,742.3,329.3z"/>
						<path class="st2" d="M742.3,335.7l9.2,20.2c0.4,0.9-0.3,2-1.3,2h-18.3c-1,0-1.7-1.1-1.3-2l9.2-20.2
							C740.2,334.6,741.8,334.6,742.3,335.7z"/>
						<path class="st2" d="M742.3,343.7l12.6,27.8c0.4,0.9-0.3,2-1.3,2h-25.2c-1,0-1.7-1.1-1.3-2l12.6-27.8
							C740.2,342.6,741.8,342.6,742.3,343.7z"/>
						<path class="st2" d="M742.1,363.3h-2.2c-0.8,0-1.4,0.6-1.4,1.4V378h5v-13.3C743.5,363.9,742.9,363.3,742.1,363.3z"/>
					</g>
					<g>
						<path class="st2" d="M684.5,339.6l4.3,9.5c0.3,0.7-0.2,1.5-1,1.5h-8.6c-0.8,0-1.3-0.8-1-1.5l4.3-9.5
							C682.9,338.8,684.1,338.8,684.5,339.6z"/>
						<path class="st2" d="M684.5,344.4l6.9,15.2c0.3,0.7-0.2,1.5-1,1.5h-13.7c-0.8,0-1.3-0.8-1-1.5l6.9-15.2
							C682.9,343.6,684.1,343.6,684.5,344.4z"/>
						<path class="st2" d="M684.5,350.4l9.4,20.9c0.3,0.7-0.2,1.5-1,1.5H674c-0.8,0-1.3-0.8-1-1.5l9.4-20.9
							C682.9,349.6,684.1,349.6,684.5,350.4z"/>
						<path class="st2" d="M684.2,365.1h-1.3c-0.7,0-1.2,0.5-1.2,1.2V378h3.7v-11.7C685.4,365.7,684.8,365.1,684.2,365.1z"/>
					</g>
					<g>
						<path class="st2" d="M721.8,319.5l7,15.5c0.5,1.1-0.3,2.4-1.6,2.4h-14.1c-1.3,0-2.1-1.3-1.6-2.4l7-15.5
							C719.3,318.1,721.2,318.1,721.8,319.5z"/>
						<path class="st2" d="M721.8,327.3l11.3,24.9c0.5,1.1-0.3,2.4-1.6,2.4H709c-1.3,0-2.1-1.3-1.6-2.4l11.3-24.9
							C719.3,326,721.2,326,721.8,327.3z"/>
						<path class="st2" d="M721.8,335.3l15.5,34.3c0.5,1.1-0.3,2.4-1.6,2.4h-31.1c-1.3,0-2.1-1.3-1.6-2.4l15.5-34.3
							C719.3,333.9,721.2,333.9,721.8,335.3z"/>
						<path class="st2" d="M721.6,361.4h-2.7c-1,0-1.7,0.8-1.7,1.7V378h6.2v-14.9C723.3,362.1,722.6,361.4,721.6,361.4z"/>
					</g>
				</g>
				<g>
					<path class="st2" d="M-495.7,331.3l5.7,12.6c0.4,0.9-0.3,2-1.3,2h-11.4c-1,0-1.7-1.1-1.3-2l5.7-12.6
						C-497.8,330.2-496.2,330.2-495.7,331.3z"/>
					<path class="st2" d="M-495.7,337.7l9.2,20.2c0.4,0.9-0.3,2-1.3,2h-18.3c-1,0-1.7-1.1-1.3-2l9.2-20.2
						C-497.8,336.6-496.2,336.6-495.7,337.7z"/>
					<path class="st2" d="M-495.7,345.7l12.6,27.8c0.4,0.9-0.3,2-1.3,2h-25.2c-1,0-1.7-1.1-1.3-2l12.6-27.8
						C-497.8,344.6-496.2,344.6-495.7,345.7z"/>
					<path class="st2" d="M-495.9,365.3h-2.2c-0.8,0-1.4,0.6-1.4,1.4V382h5v-15.3C-494.5,365.9-495.1,365.3-495.9,365.3z"/>
				</g>
				<g>
					<path class="st2" d="M-333.2,348.5l3.7,8.1c0.3,0.6-0.2,1.3-0.8,1.3h-7.3c-0.7,0-1.1-0.7-0.8-1.3l3.7-8.1
						C-334.5,347.8-333.5,347.8-333.2,348.5z"/>
					<path class="st2" d="M-333.2,352.6l5.9,13c0.3,0.6-0.2,1.3-0.8,1.3h-11.8c-0.7,0-1.1-0.7-0.8-1.3l5.9-13
						C-334.5,351.9-333.5,351.9-333.2,352.6z"/>
					<path class="st2" d="M-333.2,357.7l8.1,17.9c0.3,0.6-0.2,1.3-0.8,1.3h-16.2c-0.7,0-1.1-0.7-0.8-1.3l8.1-17.9
						C-334.5,357-333.5,357-333.2,357.7z"/>
					<path class="st2" d="M-333.3,370.3h-1.4c-0.5,0-0.9,0.4-0.9,0.9v6.8h3.2v-6.8C-332.4,370.7-332.8,370.3-333.3,370.3z"/>
				</g>
				<g>
					<path class="st2" d="M-195,295h-13h-2.5c-2.5,0-4.5,2-4.5,4.5v2.5v79h7v-79h13v79h7v-79v-2.5c0-2.5-2-4.5-4.5-4.5H-195z"/>
					<rect x="-211" y="313.2" class="st2" width="17" height="2"/>
					
						<rect x="-202" y="293.5" transform="matrix(0.7071 -0.7071 0.7071 0.7071 -276.6537 -51.9307)" class="st2" width="2" height="29"/>
					
						<rect x="-202" y="306.5" transform="matrix(0.7071 -0.7071 0.7071 0.7071 -285.8461 -48.1231)" class="st2" width="2" height="29"/>
					
						<rect x="-202" y="319.5" transform="matrix(0.7071 -0.7071 0.7071 0.7071 -295.0576 -44.3075)" class="st2" width="2" height="29"/>
					
						<rect x="-202" y="333.5" transform="matrix(0.7071 -0.7071 0.7071 0.7071 -304.9379 -40.2151)" class="st2" width="2" height="29"/>
					
						<rect x="-202" y="346.5" transform="matrix(0.7071 -0.7071 0.7071 0.7071 -314.1302 -36.4074)" class="st2" width="2" height="29"/>
					
						<rect x="-202" y="359.5" transform="matrix(0.7071 -0.7071 0.7071 0.7071 -323.3417 -32.5918)" class="st2" width="2" height="29"/>
					<rect x="-211" y="300" class="st2" width="17" height="2"/>
					<rect x="-211" y="326.3" class="st2" width="17" height="2"/>
					<rect x="-211" y="339.5" class="st2" width="17" height="2"/>
					<rect x="-211" y="365.8" class="st2" width="17" height="2"/>
					<rect x="-211" y="352.7" class="st2" width="17" height="2"/>
					<rect x="-211" y="379" class="st2" width="17" height="2"/>
				</g>
				<rect x="-183" y="375" class="st2" width="75" height="3"/>
			</g>
		</g>
	</g>
</g>
<path class="st8" d="M298.3,190.6c-4.8,0-8.7,3.9-8.7,8.7s3.9,8.7,8.7,8.7s8.7-3.9,8.7-8.7S303.1,190.6,298.3,190.6z M298.3,194.3
	c0.9,0,1.6,0.7,1.6,1.6c0,0.9-0.7,1.6-1.6,1.6c-0.9,0-1.6-0.7-1.6-1.6C296.7,195,297.4,194.3,298.3,194.3z M300.4,204h-4.2
	c-0.3,0-0.5-0.2-0.5-0.5c0-0.3,0.2-0.5,0.5-0.5h0.5v-3.6v0h-0.5c-0.3,0-0.5-0.2-0.5-0.5c0-0.3,0.2-0.5,0.5-0.5h3.3
	c0.2,0,0.4,0.2,0.4,0.4v4.2h0.5c0.3,0,0.5,0.2,0.5,0.5C300.9,203.7,300.7,204,300.4,204z"/>
</svg>
