<?xml version="1.0" encoding="utf-8"?>
<!-- Generator: Adobe Illustrator 19.2.1, SVG Export Plug-In . SVG Version: 6.00 Build 0)  -->
<svg version="1.1" id="puzzle" xmlns="http://www.w3.org/2000/svg" xmlns:xlink="http://www.w3.org/1999/xlink" x="0px" y="0px"
	 width="340px" height="240px" viewBox="0 0 340 240" style="enable-background:new 0 0 340 240;" xml:space="preserve">
<style type="text/css">
	.st0{fill:#074B89;}
	.st1{clip-path:url(#SVGID_2_);}
	.st2{fill:#006DBA;}
	.st3{fill:none;}
	.st4{fill:url(#SVGID_3_);}
	.st5{fill:#E3EAF4;}
	.st6{fill:#CEDAE3;}
	.st7{fill:#005F99;}
	.st8{fill:#035CA1;}
</style>
<title>svg-sources</title>
<path class="st0" d="M319,99V26c0-3.3-2.2-6-5.5-6H191.4c-0.5-11.1-9.7-20-20.9-20c-11.3,0-20.4,8.9-20.9,20H27.5
	c-3.3,0-6.5,2.7-6.5,6v71.1c12,1,21,10.9,21,22.9s-9,21.9-21,22.9V214c0,3.3,3.2,6,6.5,6h286c3.3,0,5.5-2.7,5.5-6v-73
	c12,0,21-9.4,21-21S331,99,319,99z"/>
<g>
	<g>
		<g>
			<defs>
				<path id="SVGID_1_" d="M319,99V26c0-3.3-2.2-6-5.5-6H191.4c-0.5-11.1-9.7-20-20.9-20c-11.3,0-20.4,8.9-20.9,20H27.5
					c-3.3,0-6.5,2.7-6.5,6v71.1c12,1,21,10.9,21,22.9s-9,21.9-21,22.9V214c0,3.3,3.2,6,6.5,6h286c3.3,0,5.5-2.7,5.5-6v-73
					c12,0,21-9.4,21-21S331,99,319,99z"/>
			</defs>
			<clipPath id="SVGID_2_">
				<use xlink:href="#SVGID_1_"  style="overflow:visible;"/>
			</clipPath>
			<g class="st1">
				<rect x="-964.5" y="178" class="st2" width="2266" height="45"/>
				<path class="st2" d="M-507.7-115.3L-507.7-115.3L-507.7-115.3z"/>
				<g>
					
						<ellipse transform="matrix(0.9776 -0.2104 0.2104 0.9776 62.0603 -42.0731)" class="st2" cx="-166.7" cy="-312.7" rx="20.5" ry="20.5"/>
					
						<ellipse transform="matrix(0.9776 -0.2104 0.2104 0.9776 63.6339 -37.2824)" class="st2" cx="-143.4" cy="-317.7" rx="1.5" ry="1.5"/>
					<path class="st2" d="M-191-305.7l-24.6,5.3c-0.9,0.2-1.9-0.4-2.1-1.3l0,0c-0.2-0.9,0.4-1.9,1.3-2.1l24.6-5.3
						c0.9-0.2,1.9,0.4,2.1,1.3l0,0C-189.5-306.8-190.1-305.9-191-305.7z"/>
					<g>
						<path class="st2" d="M-182.2-291.6l-22.6,11.1c-0.9,0.4-1.9,0.1-2.3-0.8l0,0c-0.4-0.9-0.1-1.9,0.8-2.3l22.6-11.1
							c0.9-0.4,1.9-0.1,2.3,0.8l0,0C-181-293-181.4-292-182.2-291.6z"/>
						<path class="st2" d="M-189.6-325.6l-25.2-0.9c-1,0-1.8,0.7-1.8,1.7l0,0c0,1,0.7,1.8,1.7,1.8l25.2,0.9c1,0,1.8-0.7,1.8-1.7l0,0
							C-187.9-324.7-188.6-325.5-189.6-325.6z"/>
					</g>
				</g>
				<path class="st2" d="M-88.5-268.3L-88.5-268.3c0.5-1.7-0.5-3.4-2.2-3.9l0,0c-1.7-0.5-3.4,0.5-3.9,2.2l0,0
					c-0.6,2-2.7,3.2-4.7,2.6l0,0c-1.7-0.5-3.4,0.5-3.9,2.2l0,0c-0.5,1.7,0.5,3.4,2.2,3.9l0,0c2,0.6,3.2,2.7,2.6,4.7l0,0
					c-0.5,1.7,0.5,3.4,2.2,3.9l0,0c1.7,0.5,3.4-0.5,3.9-2.2l0,0c0.6-2,2.7-3.2,4.7-2.6l0,0c1.7,0.5,3.4-0.5,3.9-2.2l0,0
					c0.5-1.7-0.5-3.4-2.2-3.9l0,0C-87.9-264.2-89.1-266.3-88.5-268.3z"/>
				<path class="st2" d="M131.1-336.1L131.1-336.1c-1.1-1.4-3.1-1.6-4.4-0.5l0,0c-1.4,1.1-1.6,3.1-0.5,4.4l0,0c1.3,1.6,1,4-0.6,5.3
					l0,0c-1.4,1.1-1.6,3.1-0.5,4.4l0,0c1.1,1.4,3.1,1.6,4.4,0.5l0,0c1.6-1.3,4-1,5.3,0.6l0,0c1.1,1.4,3.1,1.6,4.4,0.5l0,0
					c1.4-1.1,1.6-3.1,0.5-4.4l0,0c-1.3-1.6-1-4,0.6-5.3l0,0c1.4-1.1,1.6-3.1,0.5-4.4l0,0c-1.1-1.4-3.1-1.6-4.4-0.5l0,0
					C134.8-334.2,132.4-334.5,131.1-336.1z"/>
				<path class="st2" d="M-382.9-271.8L-382.9-271.8c1.2-1.3,1-3.3-0.3-4.5l0,0c-1.3-1.2-3.3-1-4.5,0.3l0,0
					c-1.4,1.6-3.8,1.7-5.4,0.4l0,0c-1.3-1.2-3.3-1-4.5,0.3l0,0c-1.2,1.3-1,3.3,0.3,4.5l0,0c1.6,1.4,1.7,3.8,0.4,5.4l0,0
					c-1.2,1.3-1,3.3,0.3,4.5l0,0c1.3,1.2,3.3,1,4.5-0.3l0,0c1.4-1.6,3.8-1.7,5.4-0.4l0,0c1.3,1.2,3.3,1,4.5-0.3l0,0
					c1.2-1.3,1-3.3-0.3-4.5l0,0C-384.2-267.8-384.3-270.2-382.9-271.8z"/>
				<path class="st2" d="M-654.1-261L-654.1-261c1,0.6,2.4,0.3,3.1-0.7l0,0c0.6-1,0.3-2.4-0.7-3.1l0,0c-1.3-0.8-1.7-2.4-0.9-3.7l0,0
					c0.6-1,0.3-2.4-0.7-3.1l0,0c-1-0.6-2.4-0.3-3.1,0.7l0,0c-0.8,1.3-2.4,1.7-3.7,0.9l0,0c-1-0.6-2.4-0.3-3.1,0.7l0,0
					c-0.6,1-0.3,2.4,0.7,3.1l0,0c1.3,0.8,1.7,2.4,0.9,3.7l0,0c-0.6,1-0.3,2.4,0.7,3.1l0,0c1,0.6,2.4,0.3,3.1-0.7l0,0
					C-657-261.3-655.3-261.7-654.1-261z"/>
				<path class="st2" d="M533.9-239.7L533.9-239.7c-0.6-0.8-1.8-1-2.6-0.3l0,0c-0.8,0.6-1,1.8-0.3,2.6l0,0c0.8,1,0.6,2.4-0.4,3.2
					l0,0c-0.8,0.6-1,1.8-0.3,2.6l0,0c0.6,0.8,1.8,1,2.6,0.3l0,0c1-0.8,2.4-0.6,3.2,0.4l0,0c0.6,0.8,1.8,1,2.6,0.3l0,0
					c0.8-0.6,1-1.8,0.3-2.6l0,0c-0.8-1-0.6-2.4,0.4-3.2l0,0c0.8-0.6,1-1.8,0.3-2.6l0,0c-0.6-0.8-1.8-1-2.6-0.3l0,0
					C536.1-238.5,534.6-238.7,533.9-239.7z"/>
				<path class="st2" d="M757.6-263.3L757.6-263.3c0.4-1-0.1-2-1.1-2.4l0,0c-1-0.4-2,0.1-2.4,1.1l0,0c-0.4,1.2-1.8,1.7-2.9,1.3l0,0
					c-1-0.4-2,0.1-2.4,1.1l0,0c-0.4,1,0.1,2,1.1,2.4l0,0c1.2,0.4,1.7,1.8,1.3,2.9l0,0c-0.4,1,0.1,2,1.1,2.4l0,0c1,0.4,2-0.1,2.4-1.1
					l0,0c0.4-1.2,1.8-1.7,2.9-1.3l0,0c1,0.4,2-0.1,2.4-1.1l0,0c0.4-1-0.1-2-1.1-2.4l0,0C757.7-260.8,757.2-262.1,757.6-263.3z"/>
				<path class="st2" d="M1007-314.5L1007-314.5c0.4-1-0.1-2-1.1-2.4l0,0c-1-0.4-2,0.1-2.4,1.1l0,0c-0.4,1.2-1.8,1.7-2.9,1.3l0,0
					c-1-0.4-2,0.1-2.4,1.1l0,0c-0.4,1,0.1,2,1.1,2.4l0,0c1.2,0.4,1.7,1.8,1.3,2.9l0,0c-0.4,1,0.1,2,1.1,2.4l0,0c1,0.4,2-0.1,2.4-1.1
					l0,0c0.4-1.2,1.8-1.7,2.9-1.3l0,0c1,0.4,2-0.1,2.4-1.1l0,0c0.4-1-0.1-2-1.1-2.4l0,0C1007.1-312,1006.6-313.3,1007-314.5z"/>
				<path class="st2" d="M-61.9-317.6L-61.9-317.6c-0.2-0.9-1.1-1.5-2-1.2l0,0c-0.9,0.2-1.5,1.1-1.2,2l0,0c0.2,1.1-0.4,2.2-1.5,2.4
					l0,0c-0.9,0.2-1.5,1.1-1.2,2l0,0c0.2,0.9,1.1,1.5,2,1.2l0,0c1.1-0.2,2.2,0.4,2.4,1.5l0,0c0.2,0.9,1.1,1.5,2,1.2l0,0
					c0.9-0.2,1.5-1.1,1.2-2l0,0c-0.2-1.1,0.4-2.2,1.5-2.4l0,0c0.9-0.2,1.5-1.1,1.2-2l0,0c-0.2-0.9-1.1-1.5-2-1.2l0,0
					C-60.6-315.8-61.7-316.5-61.9-317.6z"/>
				<path class="st2" d="M201.4-239.9L201.4-239.9c0.5-0.8,0.3-1.8-0.5-2.3l0,0c-0.8-0.5-1.8-0.3-2.3,0.5l0,0
					c-0.6,0.9-1.8,1.2-2.8,0.6l0,0c-0.8-0.5-1.8-0.3-2.3,0.5l0,0c-0.5,0.8-0.3,1.8,0.5,2.3l0,0c0.9,0.6,1.2,1.8,0.6,2.8l0,0
					c-0.5,0.8-0.3,1.8,0.5,2.3l0,0c0.8,0.5,1.8,0.3,2.3-0.5l0,0c0.6-0.9,1.8-1.2,2.8-0.6l0,0c0.8,0.5,1.8,0.3,2.3-0.5l0,0
					c0.5-0.8,0.3-1.8-0.5-2.3l0,0C201-237.7,200.7-239,201.4-239.9z"/>
				<g>
					<path class="st2" d="M181.6-301.1c3.7,14.1,17.8,22.9,32.1,19.8s23.6-17,21-31.3L181.6-301.1z"/>
					<path class="st2" d="M202.1-334.6c-14.3,3.1-23.6,17-21,31.3l53.2-11.5C230.6-328.9,216.5-337.7,202.1-334.6z M224.1-318.3
						c-2,2.6-6.6,2.5-10.2-0.2c-3.6-2.8-4.8-7.1-2.8-9.8c2-2.6,6.6-2.5,10.2,0.2C224.9-325.3,226.1-320.9,224.1-318.3z"/>
				</g>
				<path class="st2" d="M131.7-250.6l1.9-0.4c0.8-0.2,1.5,0.7,1.1,1.4l-0.8,1.8l1,1.7c0.4,0.7-0.2,1.6-1,1.5l-2-0.2l-1.3,1.5
					c-0.6,0.6-1.6,0.3-1.8-0.5l-0.4-1.9l-1.8-0.8c-0.8-0.3-0.8-1.4-0.1-1.8l1.7-1l0.2-2c0.1-0.8,1.1-1.2,1.7-0.6L131.7-250.6z"/>
				<path class="st2" d="M420.7-351.9l2.7-1.4c1.2-0.6,2.6,0.4,2.3,1.7l-0.5,3.1l2.2,2.2c1,0.9,0.4,2.6-0.9,2.7l-3.1,0.4l-1.4,2.8
					c-0.6,1.2-2.3,1.2-2.9,0l-1.4-2.8l-3.1-0.4c-1.3-0.2-1.8-1.8-0.9-2.7l2.2-2.2l-0.5-3.1c-0.2-1.3,1.2-2.3,2.3-1.7L420.7-351.9z"
					/>
				<path class="st2" d="M714.6-316l3.5,1.6c1.5,0.7,1.5,2.8,0.1,3.6l-3.4,1.8l-0.5,3.8c-0.2,1.7-2.2,2.4-3.4,1.2l-2.8-2.7l-3.8,0.7
					c-1.6,0.3-2.9-1.4-2.2-2.9l1.7-3.5l-1.9-3.4c-0.8-1.5,0.4-3.2,2.1-3l3.8,0.6l2.6-2.8c1.1-1.2,3.2-0.6,3.5,1.1L714.6-316z"/>
				<path class="st2" d="M478.3-69.3L478.3-69.3c-0.6-0.8-1.8-1-2.6-0.3l0,0c-0.8,0.6-1,1.8-0.3,2.6l0,0c0.8,1,0.6,2.4-0.4,3.2l0,0
					c-0.8,0.6-1,1.8-0.3,2.6l0,0c0.6,0.8,1.8,1,2.6,0.3l0,0c1-0.8,2.4-0.6,3.2,0.4l0,0c0.6,0.8,1.8,1,2.6,0.3l0,0
					c0.8-0.6,1-1.8,0.3-2.6l0,0c-0.8-1-0.6-2.4,0.4-3.2l0,0c0.8-0.6,1-1.8,0.3-2.6l0,0c-0.6-0.8-1.8-1-2.6-0.3l0,0
					C480.5-68.1,479.1-68.3,478.3-69.3z"/>
				<path class="st2" d="M-346.7-137.3L-346.7-137.3c-0.6-0.8-1.8-1-2.6-0.3l0,0c-0.8,0.6-1,1.8-0.3,2.6l0,0c0.8,1,0.6,2.4-0.4,3.2
					l0,0c-0.8,0.6-1,1.8-0.3,2.6l0,0c0.6,0.8,1.8,1,2.6,0.3l0,0c1-0.8,2.4-0.6,3.2,0.4l0,0c0.6,0.8,1.8,1,2.6,0.3l0,0
					c0.8-0.6,1-1.8,0.3-2.6l0,0c-0.8-1-0.6-2.4,0.4-3.2l0,0c0.8-0.6,1-1.8,0.3-2.6l0,0c-0.6-0.8-1.8-1-2.6-0.3l0,0
					C-344.5-136.1-345.9-136.3-346.7-137.3z"/>
				<path class="st2" d="M415.3-144l2.7-1.4c1.2-0.6,2.6,0.4,2.3,1.7l-0.5,3.1l2.2,2.2c1,0.9,0.4,2.6-0.9,2.7l-3.1,0.4l-1.4,2.8
					c-0.6,1.2-2.3,1.2-2.9,0l-1.4-2.8l-3.1-0.4c-1.3-0.2-1.8-1.8-0.9-2.7l2.2-2.2l-0.5-3.1c-0.2-1.3,1.2-2.3,2.3-1.7L415.3-144z"/>
				<path class="st2" d="M-150-239l2.1-1.1c0.9-0.5,1.9,0.3,1.8,1.3l-0.4,2.3l1.7,1.6c0.7,0.7,0.3,1.9-0.7,2.1l-2.3,0.3l-1,2.1
					c-0.4,0.9-1.7,0.9-2.2,0l-1-2.1l-2.3-0.3c-1-0.1-1.4-1.4-0.7-2.1l1.7-1.6l-0.4-2.3c-0.2-1,0.9-1.7,1.8-1.3L-150-239z"/>
				<path class="st2" d="M-472.9-317l0.6-2.2c0.3-1,1.5-1.2,2.1-0.4l1.4,1.9l2.3-0.1c1,0,1.6,1.1,1,1.9l-1.3,1.9l0.8,2.2
					c0.4,0.9-0.5,1.9-1.5,1.6l-2.2-0.7l-1.8,1.4c-0.8,0.6-1.9,0.1-2-0.9v-2.3l-1.9-1.3c-0.8-0.6-0.7-1.8,0.3-2.2L-472.9-317z"/>
				<path class="st2" d="M-83.6-127.5L-83.6-127.5c0.9-0.7,1-2,0.3-2.9l0,0c-0.7-0.9-2-1-2.9-0.3l0,0c-1,0.9-2.6,0.7-3.4-0.3l0,0
					c-0.7-0.9-2-1-2.9-0.3l0,0c-0.9,0.7-1,2-0.3,2.9l0,0c0.9,1,0.7,2.6-0.3,3.4l0,0c-0.9,0.7-1,2-0.3,2.9l0,0c0.7,0.9,2,1,2.9,0.3
					l0,0c1-0.9,2.6-0.7,3.4,0.3l0,0c0.7,0.9,2,1,2.9,0.3l0,0c0.9-0.7,1-2,0.3-2.9l0,0C-84.8-125.1-84.6-126.7-83.6-127.5z"/>
				<path class="st2" d="M722.8-103.8L722.8-103.8c0.9-0.7,1-2,0.3-2.9l0,0c-0.7-0.9-2-1-2.9-0.3l0,0c-1,0.9-2.6,0.7-3.4-0.3l0,0
					c-0.7-0.9-2-1-2.9-0.3l0,0c-0.9,0.7-1,2-0.3,2.9l0,0c0.9,1,0.7,2.6-0.3,3.4l0,0c-0.9,0.7-1,2-0.3,2.9l0,0c0.7,0.9,2,1,2.9,0.3
					l0,0c1-0.9,2.6-0.7,3.4,0.3l0,0c0.7,0.9,2,1,2.9,0.3l0,0c0.9-0.7,1-2,0.3-2.9l0,0C721.6-101.4,721.7-102.9,722.8-103.8z"/>
				<path class="st2" d="M-423.3-111.8L-423.3-111.8c0.9-0.7,1-2,0.3-2.9l0,0c-0.7-0.9-2-1-2.9-0.3l0,0c-1,0.9-2.6,0.7-3.4-0.3l0,0
					c-0.7-0.9-2-1-2.9-0.3l0,0c-0.9,0.7-1,2-0.3,2.9l0,0c0.9,1,0.7,2.6-0.3,3.4l0,0c-0.9,0.7-1,2-0.3,2.9l0,0c0.7,0.9,2,1,2.9,0.3
					l0,0c1-0.9,2.6-0.7,3.4,0.3l0,0c0.7,0.9,2,1,2.9,0.3l0,0c0.9-0.7,1-2,0.3-2.9l0,0C-424.4-109.4-424.3-110.9-423.3-111.8z"/>
				<path class="st2" d="M534.6-109.4L534.6-109.4c0.9-0.7,1-2,0.3-2.9l0,0c-0.7-0.9-2-1-2.9-0.3l0,0c-1,0.9-2.6,0.7-3.4-0.3l0,0
					c-0.7-0.9-2-1-2.9-0.3l0,0c-0.9,0.7-1,2-0.3,2.9l0,0c0.9,1,0.7,2.6-0.3,3.4l0,0c-0.9,0.7-1,2-0.3,2.9l0,0c0.7,0.9,2,1,2.9,0.3
					l0,0c1-0.9,2.6-0.7,3.4,0.3l0,0c0.7,0.9,2,1,2.9,0.3l0,0c0.9-0.7,1-2,0.3-2.9l0,0C533.4-107,533.5-108.5,534.6-109.4z"/>
				<path class="st2" d="M-173.2-123.3l4.5,0.5c1.9,0.2,2.8,2.6,1.4,3.9l-3.1,3.2l0.9,4.4c0.4,1.9-1.6,3.4-3.3,2.6l-4-2l-3.9,2.2
					c-1.7,0.9-3.7-0.4-3.5-2.4l0.6-4.4l-3.3-3c-1.4-1.3-0.7-3.7,1.2-4l4.4-0.8l1.9-4.1c0.8-1.8,3.3-1.8,4.2-0.1L-173.2-123.3z"/>
				<path class="st2" d="M806.8-133.5l4-2c1.7-0.9,3.7,0.7,3.3,2.6l-0.9,4.4l3.1,3.2c1.3,1.4,0.5,3.7-1.4,3.9l-4.5,0.5l-2.1,4
					c-0.9,1.7-3.4,1.6-4.2-0.1l-1.9-4.1l-4.4-0.8c-1.9-0.3-2.6-2.7-1.2-4l3.3-3l-0.6-4.4c-0.3-1.9,1.8-3.3,3.5-2.4L806.8-133.5z"/>
				<ellipse transform="matrix(0.9675 -0.253 0.253 0.9675 75.2433 17.3286)" class="st2" cx="105" cy="-283.9" rx="2.6" ry="2.6"/>
				
					<ellipse transform="matrix(0.9675 -0.253 0.253 0.9675 76.7237 21.0483)" class="st2" cx="120.2" cy="-287.8" rx="3.5" ry="3.5"/>
				
					<ellipse transform="matrix(0.9675 -0.253 0.253 0.9675 68.3257 28.7366)" class="st2" cx="145.9" cy="-251.3" rx="2.6" ry="2.6"/>
				
					<ellipse transform="matrix(0.9675 -0.253 0.253 0.9675 105.2085 189.3637)" class="st2" cx="788.9" cy="-314.4" rx="2.6" ry="2.6"/>
				
					<ellipse transform="matrix(0.9675 -0.253 0.253 0.9675 49.9886 215.5471)" class="st2" cx="863.1" cy="-86.6" rx="2.6" ry="2.6"/>
				
					<ellipse transform="matrix(0.9675 -0.253 0.253 0.9675 65.3151 21.3319)" class="st2" cx="115.6" cy="-243.3" rx="2.6" ry="2.6"/>
				
					<ellipse transform="matrix(0.9675 -0.253 0.253 0.9675 63.8438 17.6893)" class="st2" cx="100.7" cy="-239.4" rx="2.2" ry="2.2"/>
				
					<ellipse transform="matrix(0.9675 -0.253 0.253 0.9675 72.0469 -107.3286)" class="st2" cx="-381.3" cy="-333.8" rx="2.2" ry="2.2"/>
				
					<ellipse transform="matrix(0.9675 -0.253 0.253 0.9675 14.9006 -128.5276)" class="st2" cx="-492.3" cy="-122.2" rx="2.2" ry="2.2"/>
				<g>
					<line class="st3" x1="101.3" y1="-246.1" x2="104.4" y2="-277.2"/>
					<path class="st2" d="M101.5-245.4c-0.1,0-0.2,0-0.2,0c-0.4,0-0.6-0.4-0.6-0.7l3-31.1c0-0.4,0.4-0.6,0.7-0.6
						c0.4,0,0.6,0.4,0.6,0.7l-3,31.1C102-245.7,101.8-245.5,101.5-245.4z"/>
				</g>
				<g>
					<line class="st3" x1="116.3" y1="-250" x2="117.8" y2="-265.6"/>
					<path class="st2" d="M116.4-249.3c-0.1,0-0.2,0-0.2,0c-0.4,0-0.6-0.4-0.6-0.7l1.5-15.5c0-0.4,0.4-0.6,0.7-0.6
						c0.4,0,0.6,0.4,0.6,0.7l-1.5,15.5C116.9-249.6,116.7-249.4,116.4-249.3z"/>
				</g>
				<g>
					<line class="st3" x1="142.1" y1="-256.8" x2="124.2" y2="-282.4"/>
					<path class="st2" d="M142.2-256.1c-0.3,0.1-0.6,0-0.7-0.3L123.7-282c-0.2-0.3-0.1-0.7,0.2-0.9c0.3-0.2,0.7-0.1,0.9,0.2
						l17.9,25.6c0.2,0.3,0.1,0.7-0.2,0.9C142.4-256.2,142.3-256.1,142.2-256.1z"/>
				</g>
				<g>
					<line class="st3" x1="126.5" y1="-253.8" x2="109.3" y2="-278.5"/>
					<path class="st2" d="M126.6-253.1c-0.3,0.1-0.6,0-0.7-0.3l-17.2-24.7c-0.2-0.3-0.1-0.7,0.2-0.9c0.3-0.2,0.7-0.1,0.9,0.2
						l17.2,24.7c0.2,0.3,0.1,0.7-0.2,0.9C126.8-253.2,126.7-253.1,126.6-253.1z"/>
				</g>
				<g>
					<line class="st3" x1="105.5" y1="-239.8" x2="111.3" y2="-241.3"/>
					<path class="st2" d="M111.5-241.4l-6.1,1.6c-0.4,0.1-0.7,0-0.8-0.4c-0.1-0.4,0.1-0.7,0.5-0.7l6.1-1.6c0.4-0.1,0.7,0,0.8,0.4
						S111.8-241.5,111.5-241.4z"/>
				</g>
				<g>
					<line class="st3" x1="109.7" y1="-285.1" x2="114.3" y2="-286.3"/>
					<path class="st2" d="M114.8-286.4l-5.3,1.4c-0.4,0.1-0.7,0-0.8-0.4c-0.1-0.4,0.1-0.7,0.5-0.7l5.3-1.4c0.4-0.1,0.7,0,0.8,0.4
						C115.4-286.8,115.2-286.5,114.8-286.4z"/>
				</g>
				<g>
					<line class="st3" x1="136.6" y1="-247.9" x2="141.1" y2="-249.1"/>
					<path class="st2" d="M141.4-249.2l-4.4,1.1c-0.4,0.1-0.7,0-0.8-0.4s0.1-0.7,0.5-0.7l4.4-1.1c0.4-0.1,0.7,0,0.8,0.4
						S141.8-249.3,141.4-249.2z"/>
				</g>
				<g>
					<path class="st2" d="M489.7,88l-48.2,48.2c-1.8,1.8-1.6,4.8,0.4,6.4c15.1,11.8,37.1,10.8,51-3.2c13.9-13.9,15-35.9,3.2-51
						C494.5,86.4,491.5,86.2,489.7,88z"/>
					<circle class="st2" cx="454" cy="100.5" r="4.6"/>
					<circle class="st2" cx="482.7" cy="129.2" r="6.2"/>
					<circle class="st2" cx="493" cy="139.5" r="6.2"/>
					<path class="st2" d="M504.5,176h-23.1c-1.3,0-2.3-1.3-1.9-2.6l6.6-23.5c0.2-0.9,1-1.5,1.9-1.5h9.8c0.9,0,1.7,0.6,1.9,1.5
						l6.6,23.5C506.8,174.7,505.8,176,504.5,176z"/>
				</g>
				<g>
					<circle class="st2" cx="172.7" cy="169.9" r="6.1"/>
					<circle class="st2" cx="157.7" cy="169.9" r="6.1"/>
					<circle class="st2" cx="216.2" cy="169.9" r="6.1"/>
					<circle class="st2" cx="201.3" cy="169.9" r="6.1"/>
					<circle class="st2" cx="127.7" cy="169.9" r="6.1"/>
					<path class="st2" d="M138.2,142.7H119c-1.7,0-3.2,1.4-3.2,3.2v20.9c0,1.7,1.4,3.2,3.2,3.2h19.2c1.7,0,3.2-1.4,3.2-3.2v-20.9
						C141.4,144.1,140,142.7,138.2,142.7z"/>
					<path class="st2" d="M227.3,130.2h-77.7c-1.7,0-3.2,1.4-3.2,3.2v33.4c0,1.7,1.4,3.2,3.2,3.2h77.7c1.7,0,3.2-1.4,3.2-3.2v-33.4
						C230.5,131.6,229.1,130.2,227.3,130.2z"/>
					<rect x="135.6" y="163.8" class="st2" width="25.3" height="6.1"/>
				</g>
				<g>
					
						<linearGradient id="SVGID_3_" gradientUnits="userSpaceOnUse" x1="-54.6015" y1="384.3946" x2="415.3985" y2="74.3946" gradientTransform="matrix(1 0 0 1 0 -318)">
						<stop  offset="0" style="stop-color:#007ADC;stop-opacity:0"/>
						<stop  offset="1" style="stop-color:#007ADC"/>
					</linearGradient>
					<path class="st4" d="M409.1-226.4l-27.6-5.3l5.6-28.7C-3.2-16.5-399,47.2-508.4-114.9l448.8,665.2
						C-168.9,388.3,37.3,44.2,409.1-226.4z"/>
				</g>
				<g>
					<path class="st5" d="M395.5-242.8l3.1-16c1.7-8.8,10.2-14.6,19.1-12.9l0,0c8.8,1.7,14.6,10.2,12.9,19.1l0,0
						c-1.7,8.8-10.2,14.6-19.1,12.9L395.5-242.8z"/>
					<path class="st5" d="M443.4-274.8c8.7,13,10.5,28.6,6.1,42.4c-1.4,4.6,3.2,8.8,7.6,6.9c3.4-1.5,6.7-3.4,9.8-5.8
						c20.1-15.3,25.3-44.3,11.7-65.6c-15-23.4-46.2-29.8-69-14.3c-2.4,1.6-4.6,3.4-6.6,5.3c-3.5,3.3-1.3,9.3,3.5,9.6
						C420.8-295.1,434.7-287.7,443.4-274.8z"/>
					<path class="st6" d="M428.6-259.5c2,3,5.5,4.6,9,4.1c26.3-3.1,55-6.4,72-17.9c23-15.6,36.9-39.6,40.2-65.2
						c0.7-5.3-2.7-10.4-7.9-11.7c-24.9-6.5-52.4-2.6-75.5,12.9c-17,11.5-30.8,36.8-43.5,60.1c-1.7,3.1-1.5,7,0.5,9.9L428.6-259.5z"
						/>
					
						<ellipse transform="matrix(0.8288 -0.5595 0.5595 0.8288 258.1151 223.8474)" class="st5" cx="494.9" cy="-309.9" rx="20.7" ry="20.7"/>
				</g>
				<polygon class="st2" points="1070.6,39 1266.6,179 874.5,179 				"/>
				<polygon class="st2" points="-729.6,39 -533.5,179 -925.6,179 				"/>
				<polygon class="st2" points="-592.1,93 -471.6,179 -712.5,179 				"/>
				<polygon class="st2" points="840.3,111 935.5,179 745,179 				"/>
				<polygon class="st2" points="-424.8,129.2 -355,179 -494.5,179 				"/>
				<circle class="st7" cx="494.9" cy="-309.9" r="15.6"/>
				<g>
					<path class="st2" d="M-349.2,127.8l5.7,12.6c0.4,0.9-0.3,2-1.3,2h-11.4c-1,0-1.7-1.1-1.3-2l5.7-12.6
						C-351.3,126.7-349.7,126.7-349.2,127.8z"/>
					<path class="st2" d="M-349.2,134.2l9.2,20.2c0.4,0.9-0.3,2-1.3,2h-18.3c-1,0-1.7-1.1-1.3-2l9.2-20.2
						C-351.3,133.1-349.7,133.1-349.2,134.2z"/>
					<path class="st2" d="M-349.2,142.2l12.6,27.8c0.4,0.9-0.3,2-1.3,2h-25.2c-1,0-1.7-1.1-1.3-2l12.6-27.8
						C-351.3,141.1-349.7,141.1-349.2,142.2z"/>
					<path class="st2" d="M-349.4,161.8h-2.2c-0.8,0-1.4,0.6-1.4,1.4V176h5v-12.8C-348,162.4-348.6,161.8-349.4,161.8z"/>
				</g>
				<g>
					<g>
						<path class="st2" d="M742.8,127.3l5.7,12.6c0.4,0.9-0.3,2-1.3,2h-11.4c-1,0-1.7-1.1-1.3-2l5.7-12.6
							C740.7,126.2,742.3,126.2,742.8,127.3z"/>
						<path class="st2" d="M742.8,133.7l9.2,20.2c0.4,0.9-0.3,2-1.3,2h-18.3c-1,0-1.7-1.1-1.3-2l9.2-20.2
							C740.7,132.6,742.3,132.6,742.8,133.7z"/>
						<path class="st2" d="M742.8,141.7l12.6,27.8c0.4,0.9-0.3,2-1.3,2h-25.2c-1,0-1.7-1.1-1.3-2l12.6-27.8
							C740.7,140.6,742.3,140.6,742.8,141.7z"/>
						<path class="st2" d="M742.6,161.3h-2.2c-0.8,0-1.4,0.6-1.4,1.4V176h5v-13.3C744,161.9,743.4,161.3,742.6,161.3z"/>
					</g>
					<g>
						<path class="st2" d="M685,137.6l4.3,9.5c0.3,0.7-0.2,1.5-1,1.5h-8.6c-0.8,0-1.3-0.8-1-1.5l4.3-9.5
							C683.4,136.8,684.6,136.8,685,137.6z"/>
						<path class="st2" d="M685,142.4l6.9,15.2c0.3,0.7-0.2,1.5-1,1.5h-13.7c-0.8,0-1.3-0.8-1-1.5l6.9-15.2
							C683.4,141.6,684.6,141.6,685,142.4z"/>
						<path class="st2" d="M685,148.4l9.4,20.9c0.3,0.7-0.2,1.5-1,1.5h-18.9c-0.8,0-1.3-0.8-1-1.5l9.4-20.9
							C683.4,147.6,684.6,147.6,685,148.4z"/>
						<path class="st2" d="M684.7,163.1h-1.3c-0.7,0-1.2,0.5-1.2,1.2V176h3.7v-11.7C685.9,163.7,685.3,163.1,684.7,163.1z"/>
					</g>
					<g>
						<path class="st2" d="M722.3,117.5l7,15.5c0.5,1.1-0.3,2.4-1.6,2.4h-14.1c-1.3,0-2.1-1.3-1.6-2.4l7-15.5
							C719.8,116.1,721.7,116.1,722.3,117.5z"/>
						<path class="st2" d="M722.3,125.3l11.3,24.9c0.5,1.1-0.3,2.4-1.6,2.4h-22.6c-1.3,0-2.1-1.3-1.6-2.4l11.3-24.9
							C719.8,124,721.7,124,722.3,125.3z"/>
						<path class="st2" d="M722.3,133.3l15.5,34.3c0.5,1.1-0.3,2.4-1.6,2.4h-31.1c-1.3,0-2.1-1.3-1.6-2.4l15.5-34.3
							C719.8,131.9,721.7,131.9,722.3,133.3z"/>
						<path class="st2" d="M722.1,159.4h-2.7c-1,0-1.7,0.8-1.7,1.7V176h6.2v-14.9C723.8,160.1,723.1,159.4,722.1,159.4z"/>
					</g>
				</g>
				<g>
					<path class="st2" d="M-495.2,129.3l5.7,12.6c0.4,0.9-0.3,2-1.3,2h-11.4c-1,0-1.7-1.1-1.3-2l5.7-12.6
						C-497.3,128.2-495.7,128.2-495.2,129.3z"/>
					<path class="st2" d="M-495.2,135.7l9.2,20.2c0.4,0.9-0.3,2-1.3,2h-18.3c-1,0-1.7-1.1-1.3-2l9.2-20.2
						C-497.3,134.6-495.7,134.6-495.2,135.7z"/>
					<path class="st2" d="M-495.2,143.7l12.6,27.8c0.4,0.9-0.3,2-1.3,2h-25.2c-1,0-1.7-1.1-1.3-2l12.6-27.8
						C-497.3,142.6-495.7,142.6-495.2,143.7z"/>
					<path class="st2" d="M-495.4,163.3h-2.2c-0.8,0-1.4,0.6-1.4,1.4V180h5v-15.3C-494,163.9-494.6,163.3-495.4,163.3z"/>
				</g>
				<g>
					<path class="st2" d="M-332.7,146.5l3.7,8.1c0.3,0.6-0.2,1.3-0.8,1.3h-7.3c-0.7,0-1.1-0.7-0.8-1.3l3.7-8.1
						C-334,145.8-333,145.8-332.7,146.5z"/>
					<path class="st2" d="M-332.7,150.6l5.9,13c0.3,0.6-0.2,1.3-0.8,1.3h-11.8c-0.7,0-1.1-0.7-0.8-1.3l5.9-13
						C-334,149.9-333,149.9-332.7,150.6z"/>
					<path class="st2" d="M-332.7,155.7l8.1,17.9c0.3,0.6-0.2,1.3-0.8,1.3h-16.2c-0.7,0-1.1-0.7-0.8-1.3l8.1-17.9
						C-334,155-333,155-332.7,155.7z"/>
					<path class="st2" d="M-332.8,168.3h-1.4c-0.5,0-0.9,0.4-0.9,0.9v6.8h3.2v-6.8C-331.9,168.7-332.3,168.3-332.8,168.3z"/>
				</g>
				<g>
					<path class="st2" d="M-194.5,93h-13h-2.5c-2.5,0-4.5,2-4.5,4.5v2.5v79h7v-79h13v79h7v-79v-2.5c0-2.5-2-4.5-4.5-4.5H-194.5z"/>
					<rect x="-210.5" y="111.2" class="st2" width="17" height="2"/>
					
						<rect x="-201.5" y="91.5" transform="matrix(0.7071 -0.7071 0.7071 0.7071 -133.6723 -110.7413)" class="st2" width="2" height="29"/>
					
						<rect x="-201.5" y="104.5" transform="matrix(0.7071 -0.7071 0.7071 0.7071 -142.8646 -106.9337)" class="st2" width="2" height="29"/>
					
						<rect x="-201.5" y="117.5" transform="matrix(0.7071 -0.7071 0.7071 0.7071 -152.0761 -103.1182)" class="st2" width="2" height="29"/>
					
						<rect x="-201.5" y="131.5" transform="matrix(0.7071 -0.7071 0.7071 0.7071 -161.9564 -99.0257)" class="st2" width="2" height="29"/>
					
						<rect x="-201.5" y="144.5" transform="matrix(0.7071 -0.7071 0.7071 0.7071 -171.1488 -95.2181)" class="st2" width="2" height="29"/>
					
						<rect x="-201.5" y="157.5" transform="matrix(0.7071 -0.7071 0.7071 0.7071 -180.3603 -91.4025)" class="st2" width="2" height="29"/>
					<rect x="-210.5" y="98" class="st2" width="17" height="2"/>
					<rect x="-210.5" y="124.3" class="st2" width="17" height="2"/>
					<rect x="-210.5" y="137.5" class="st2" width="17" height="2"/>
					<rect x="-210.5" y="163.8" class="st2" width="17" height="2"/>
					<rect x="-210.5" y="150.7" class="st2" width="17" height="2"/>
					<rect x="-210.5" y="177" class="st2" width="17" height="2"/>
				</g>
				<rect x="-182.5" y="173" class="st2" width="75" height="3"/>
			</g>
		</g>
	</g>
</g>
<path class="st8" d="M298.4,190.6c-4.8,0-8.7,3.9-8.7,8.7s3.9,8.7,8.7,8.7s8.7-3.9,8.7-8.7S303.2,190.6,298.4,190.6z M298.4,194.3
	c0.9,0,1.6,0.7,1.6,1.6c0,0.9-0.7,1.6-1.6,1.6c-0.9,0-1.6-0.7-1.6-1.6C296.8,195,297.5,194.3,298.4,194.3z M300.6,204h-4.2
	c-0.3,0-0.5-0.2-0.5-0.5c0-0.3,0.2-0.5,0.5-0.5h0.5v-3.6v0h-0.5c-0.3,0-0.5-0.2-0.5-0.5c0-0.3,0.2-0.5,0.5-0.5h3.3
	c0.2,0,0.4,0.2,0.4,0.4v4.2h0.5c0.3,0,0.5,0.2,0.5,0.5C301.1,203.7,300.8,204,300.6,204z"/>
</svg>
