<?xml version="1.0" encoding="utf-8"?>
<!-- Generator: Adobe Illustrator 19.2.1, SVG Export Plug-In . SVG Version: 6.00 Build 0)  -->
<svg version="1.1" id="puzzle" xmlns="http://www.w3.org/2000/svg" xmlns:xlink="http://www.w3.org/1999/xlink" x="0px" y="0px"
	 width="340px" height="240px" viewBox="0 0 340 240" style="enable-background:new 0 0 340 240;" xml:space="preserve">
<style type="text/css">
	.st0{fill:#074B89;}
	.st1{clip-path:url(#SVGID_2_);}
	.st2{fill:#006DBA;}
	.st3{fill:none;}
	.st4{fill:url(#SVGID_3_);}
	.st5{fill:#E3EAF4;}
	.st6{fill:#CEDAE3;}
	.st7{fill:#005F99;}
	.st8{fill:#035CA1;}
</style>
<title>svg-sources</title>
<path class="st0" d="M319,97.1V26c0-3.3-2.7-6-6-6H192.9c-1,11.7-10.9,20-22.9,20s-21.9-8.3-22.9-20H27c-3.3,0-6,2.7-6,6v71.1
	c11.7,1,21,10.9,21,22.9s-9.3,21.9-21,22.9V214c0,3.3,2.7,6,6,6h122.1c0.5,11.1,9.7,20,20.9,20c11.3,0,20.4-8.9,20.9-20H313
	c3.3,0,6-2.7,6-6v-71.1c-11.7-1-21-10.9-21-22.9S307.3,98.1,319,97.1z"/>
<g>
	<g>
		<g>
			<defs>
				<path id="SVGID_1_" d="M319,97.1V26c0-3.3-2.7-6-6-6H192.9c-1,11.7-10.9,20-22.9,20s-21.9-8.3-22.9-20H27c-3.3,0-6,2.7-6,6v71.1
					c11.7,1,21,10.9,21,22.9s-9.3,21.9-21,22.9V214c0,3.3,2.7,6,6,6h122.1c0.5,11.1,9.7,20,20.9,20c11.3,0,20.4-8.9,20.9-20H313
					c3.3,0,6-2.7,6-6v-71.1c-11.7-1-21-10.9-21-22.9S307.3,98.1,319,97.1z"/>
			</defs>
			<clipPath id="SVGID_2_">
				<use xlink:href="#SVGID_1_"  style="overflow:visible;"/>
			</clipPath>
			<g class="st1">
				<rect x="-665" y="380" class="st2" width="2266" height="45"/>
				<path class="st2" d="M-208.2,86.7L-208.2,86.7L-208.2,86.7z"/>
				<g>
					
						<ellipse transform="matrix(0.9776 -0.2104 0.2104 0.9776 26.2638 25.4632)" class="st2" cx="132.8" cy="-110.7" rx="20.5" ry="20.5"/>
					
						<ellipse transform="matrix(0.9776 -0.2104 0.2104 0.9776 27.8374 30.2539)" class="st2" cx="156.1" cy="-115.7" rx="1.5" ry="1.5"/>
					<path class="st2" d="M108.5-103.7l-24.6,5.3c-0.9,0.2-1.9-0.4-2.1-1.3l0,0c-0.2-0.9,0.4-1.9,1.3-2.1l24.6-5.3
						c0.9-0.2,1.9,0.4,2.1,1.3l0,0C110-104.8,109.4-103.9,108.5-103.7z"/>
					<g>
						<path class="st2" d="M117.3-89.6L94.7-78.4c-0.9,0.4-1.9,0.1-2.3-0.8l0,0c-0.4-0.9-0.1-1.9,0.8-2.3l22.6-11.1
							c0.9-0.4,1.9-0.1,2.3,0.8l0,0C118.5-91,118.1-90,117.3-89.6z"/>
						<path class="st2" d="M109.9-123.6l-25.2-0.9c-1,0-1.8,0.7-1.8,1.7l0,0c0,1,0.7,1.8,1.7,1.8l25.2,0.9c1,0,1.8-0.7,1.8-1.7l0,0
							C111.6-122.7,110.9-123.5,109.9-123.6z"/>
					</g>
				</g>
				<path class="st2" d="M211-66.3L211-66.3c0.5-1.7-0.5-3.4-2.2-3.9l0,0c-1.7-0.5-3.4,0.5-3.9,2.2l0,0c-0.6,2-2.7,3.2-4.7,2.6l0,0
					c-1.7-0.5-3.4,0.5-3.9,2.2l0,0c-0.5,1.7,0.5,3.4,2.2,3.9l0,0c2,0.6,3.2,2.7,2.6,4.7l0,0c-0.5,1.7,0.5,3.4,2.2,3.9l0,0
					c1.7,0.5,3.4-0.5,3.9-2.2l0,0c0.6-2,2.7-3.2,4.7-2.6l0,0c1.7,0.5,3.4-0.5,3.9-2.2l0,0c0.5-1.7-0.5-3.4-2.2-3.9l0,0
					C211.6-62.2,210.4-64.3,211-66.3z"/>
				<path class="st2" d="M430.6-134.1L430.6-134.1c-1.1-1.4-3.1-1.6-4.4-0.5l0,0c-1.4,1.1-1.6,3.1-0.5,4.4l0,0c1.3,1.6,1,4-0.6,5.3
					l0,0c-1.4,1.1-1.6,3.1-0.5,4.4l0,0c1.1,1.4,3.1,1.6,4.4,0.5l0,0c1.6-1.3,4-1,5.3,0.6l0,0c1.1,1.4,3.1,1.6,4.4,0.5l0,0
					c1.4-1.1,1.6-3.1,0.5-4.4l0,0c-1.3-1.6-1-4,0.6-5.3l0,0c1.4-1.1,1.6-3.1,0.5-4.4l0,0c-1.1-1.4-3.1-1.6-4.4-0.5l0,0
					C434.3-132.2,431.9-132.5,430.6-134.1z"/>
				<path class="st2" d="M-83.4-69.8L-83.4-69.8c1.2-1.3,1-3.3-0.3-4.5l0,0c-1.3-1.2-3.3-1-4.5,0.3l0,0c-1.4,1.6-3.8,1.7-5.4,0.4
					l0,0c-1.3-1.2-3.3-1-4.5,0.3l0,0c-1.2,1.3-1,3.3,0.3,4.5l0,0c1.6,1.4,1.7,3.8,0.4,5.4l0,0c-1.2,1.3-1,3.3,0.3,4.5l0,0
					c1.3,1.2,3.3,1,4.5-0.3l0,0c1.4-1.6,3.8-1.7,5.4-0.4l0,0c1.3,1.2,3.3,1,4.5-0.3l0,0c1.2-1.3,1-3.3-0.3-4.5l0,0
					C-84.7-65.8-84.8-68.2-83.4-69.8z"/>
				<path class="st2" d="M-354.6-59L-354.6-59c1,0.6,2.4,0.3,3.1-0.7l0,0c0.6-1,0.3-2.4-0.7-3.1l0,0c-1.3-0.8-1.7-2.4-0.9-3.7l0,0
					c0.6-1,0.3-2.4-0.7-3.1l0,0c-1-0.6-2.4-0.3-3.1,0.7l0,0c-0.8,1.3-2.4,1.7-3.7,0.9l0,0c-1-0.6-2.4-0.3-3.1,0.7l0,0
					c-0.6,1-0.3,2.4,0.7,3.1l0,0c1.3,0.8,1.7,2.4,0.9,3.7l0,0c-0.6,1-0.3,2.4,0.7,3.1l0,0c1,0.6,2.4,0.3,3.1-0.7l0,0
					C-357.5-59.3-355.8-59.7-354.6-59z"/>
				<path class="st2" d="M833.4-37.7L833.4-37.7c-0.6-0.8-1.8-1-2.6-0.3l0,0c-0.8,0.6-1,1.8-0.3,2.6l0,0c0.8,1,0.6,2.4-0.4,3.2l0,0
					c-0.8,0.6-1,1.8-0.3,2.6l0,0c0.6,0.8,1.8,1,2.6,0.3l0,0c1-0.8,2.4-0.6,3.2,0.4l0,0c0.6,0.8,1.8,1,2.6,0.3l0,0
					c0.8-0.6,1-1.8,0.3-2.6l0,0c-0.8-1-0.6-2.4,0.4-3.2l0,0c0.8-0.6,1-1.8,0.3-2.6l0,0c-0.6-0.8-1.8-1-2.6-0.3l0,0
					C835.6-36.5,834.1-36.7,833.4-37.7z"/>
				<path class="st2" d="M1057.1-61.3L1057.1-61.3c0.4-1-0.1-2-1.1-2.4l0,0c-1-0.4-2,0.1-2.4,1.1l0,0c-0.4,1.2-1.8,1.7-2.9,1.3l0,0
					c-1-0.4-2,0.1-2.4,1.1l0,0c-0.4,1,0.1,2,1.1,2.4l0,0c1.2,0.4,1.7,1.8,1.3,2.9l0,0c-0.4,1,0.1,2,1.1,2.4l0,0c1,0.4,2-0.1,2.4-1.1
					l0,0c0.4-1.2,1.8-1.7,2.9-1.3l0,0c1,0.4,2-0.1,2.4-1.1l0,0c0.4-1-0.1-2-1.1-2.4l0,0C1057.2-58.8,1056.7-60.1,1057.1-61.3z"/>
				<path class="st2" d="M1306.5-112.5L1306.5-112.5c0.4-1-0.1-2-1.1-2.4l0,0c-1-0.4-2,0.1-2.4,1.1l0,0c-0.4,1.2-1.8,1.7-2.9,1.3
					l0,0c-1-0.4-2,0.1-2.4,1.1l0,0c-0.4,1,0.1,2,1.1,2.4l0,0c1.2,0.4,1.7,1.8,1.3,2.9l0,0c-0.4,1,0.1,2,1.1,2.4l0,0
					c1,0.4,2-0.1,2.4-1.1l0,0c0.4-1.2,1.8-1.7,2.9-1.3l0,0c1,0.4,2-0.1,2.4-1.1l0,0c0.4-1-0.1-2-1.1-2.4l0,0
					C1306.6-110,1306.1-111.3,1306.5-112.5z"/>
				<path class="st2" d="M237.6-115.6L237.6-115.6c-0.2-0.9-1.1-1.5-2-1.2l0,0c-0.9,0.2-1.5,1.1-1.2,2l0,0c0.2,1.1-0.4,2.2-1.5,2.4
					l0,0c-0.9,0.2-1.5,1.1-1.2,2l0,0c0.2,0.9,1.1,1.5,2,1.2l0,0c1.1-0.2,2.2,0.4,2.4,1.5l0,0c0.2,0.9,1.1,1.5,2,1.2l0,0
					c0.9-0.2,1.5-1.1,1.2-2l0,0c-0.2-1.1,0.4-2.2,1.5-2.4l0,0c0.9-0.2,1.5-1.1,1.2-2l0,0c-0.2-0.9-1.1-1.5-2-1.2l0,0
					C238.9-113.8,237.8-114.5,237.6-115.6z"/>
				<path class="st2" d="M500.9-37.9L500.9-37.9c0.5-0.8,0.3-1.8-0.5-2.3l0,0c-0.8-0.5-1.8-0.3-2.3,0.5l0,0
					c-0.6,0.9-1.8,1.2-2.8,0.6l0,0c-0.8-0.5-1.8-0.3-2.3,0.5l0,0c-0.5,0.8-0.3,1.8,0.5,2.3l0,0c0.9,0.6,1.2,1.8,0.6,2.8l0,0
					c-0.5,0.8-0.3,1.8,0.5,2.3l0,0c0.8,0.5,1.8,0.3,2.3-0.5l0,0c0.6-0.9,1.8-1.2,2.8-0.6l0,0c0.8,0.5,1.8,0.3,2.3-0.5l0,0
					c0.5-0.8,0.3-1.8-0.5-2.3l0,0C500.5-35.7,500.2-37,500.9-37.9z"/>
				<g>
					<path class="st2" d="M481.1-99.1c3.7,14.1,17.8,22.9,32.1,19.8c14.3-3.1,23.6-17,21-31.3L481.1-99.1z"/>
					<path class="st2" d="M501.6-132.6c-14.3,3.1-23.6,17-21,31.3l53.2-11.5C530.1-126.9,516-135.7,501.6-132.6z M523.6-116.3
						c-2,2.6-6.6,2.5-10.2-0.2c-3.6-2.8-4.8-7.1-2.8-9.8c2-2.6,6.6-2.5,10.2,0.2C524.4-123.3,525.6-118.9,523.6-116.3z"/>
				</g>
				<path class="st2" d="M431.2-48.6l1.9-0.4c0.8-0.2,1.5,0.7,1.1,1.4l-0.8,1.8l1,1.7c0.4,0.7-0.2,1.6-1,1.5l-2-0.2l-1.3,1.5
					c-0.6,0.6-1.6,0.3-1.8-0.5l-0.4-1.9l-1.8-0.8c-0.8-0.3-0.8-1.4-0.1-1.8l1.7-1l0.2-2c0.1-0.8,1.1-1.2,1.7-0.6L431.2-48.6z"/>
				<path class="st2" d="M720.2-149.9l2.7-1.4c1.2-0.6,2.6,0.4,2.3,1.7l-0.5,3.1l2.2,2.2c1,0.9,0.4,2.6-0.9,2.7l-3.1,0.4l-1.4,2.8
					c-0.6,1.2-2.3,1.2-2.9,0l-1.4-2.8l-3.1-0.4c-1.3-0.2-1.8-1.8-0.9-2.7l2.2-2.2l-0.5-3.1c-0.2-1.3,1.2-2.3,2.3-1.7L720.2-149.9z"
					/>
				<path class="st2" d="M1014.1-114l3.5,1.6c1.5,0.7,1.5,2.8,0.1,3.6l-3.4,1.8l-0.5,3.8c-0.2,1.7-2.2,2.4-3.4,1.2l-2.8-2.7
					l-3.8,0.7c-1.6,0.3-2.9-1.4-2.2-2.9l1.7-3.5l-1.9-3.4c-0.8-1.5,0.4-3.2,2.1-3l3.8,0.6l2.6-2.8c1.1-1.2,3.2-0.6,3.5,1.1
					L1014.1-114z"/>
				<path class="st2" d="M777.8,132.7L777.8,132.7c-0.6-0.8-1.8-1-2.6-0.3l0,0c-0.8,0.6-1,1.8-0.3,2.6l0,0c0.8,1,0.6,2.4-0.4,3.2
					l0,0c-0.8,0.6-1,1.8-0.3,2.6l0,0c0.6,0.8,1.8,1,2.6,0.3l0,0c1-0.8,2.4-0.6,3.2,0.4l0,0c0.6,0.8,1.8,1,2.6,0.3l0,0
					c0.8-0.6,1-1.8,0.3-2.6l0,0c-0.8-1-0.6-2.4,0.4-3.2l0,0c0.8-0.6,1-1.8,0.3-2.6l0,0c-0.6-0.8-1.8-1-2.6-0.3l0,0
					C780,133.9,778.6,133.7,777.8,132.7z"/>
				<path class="st2" d="M-47.2,64.7L-47.2,64.7c-0.6-0.8-1.8-1-2.6-0.3l0,0c-0.8,0.6-1,1.8-0.3,2.6l0,0c0.8,1,0.6,2.4-0.4,3.2l0,0
					c-0.8,0.6-1,1.8-0.3,2.6l0,0c0.6,0.8,1.8,1,2.6,0.3l0,0c1-0.8,2.4-0.6,3.2,0.4l0,0c0.6,0.8,1.8,1,2.6,0.3l0,0
					c0.8-0.6,1-1.8,0.3-2.6l0,0c-0.8-1-0.6-2.4,0.4-3.2l0,0c0.8-0.6,1-1.8,0.3-2.6l0,0c-0.6-0.8-1.8-1-2.6-0.3l0,0
					C-45,65.9-46.4,65.7-47.2,64.7z"/>
				<path class="st2" d="M714.8,58l2.7-1.4c1.2-0.6,2.6,0.4,2.3,1.7l-0.5,3.1l2.2,2.2c1,0.9,0.4,2.6-0.9,2.7l-3.1,0.4l-1.4,2.8
					c-0.6,1.2-2.3,1.2-2.9,0l-1.4-2.8l-3.1-0.4c-1.3-0.2-1.8-1.8-0.9-2.7l2.2-2.2l-0.5-3.1c-0.2-1.3,1.2-2.3,2.3-1.7L714.8,58z"/>
				<path class="st2" d="M149.5-37l2.1-1.1c0.9-0.5,1.9,0.3,1.8,1.3l-0.4,2.3l1.7,1.6c0.7,0.7,0.3,1.9-0.7,2.1l-2.3,0.3l-1,2.1
					c-0.4,0.9-1.7,0.9-2.2,0l-1-2.1l-2.3-0.3c-1-0.1-1.4-1.4-0.7-2.1l1.7-1.6l-0.4-2.3c-0.2-1,0.9-1.7,1.8-1.3L149.5-37z"/>
				<path class="st2" d="M-173.4-115l0.6-2.2c0.3-1,1.5-1.2,2.1-0.4l1.4,1.9l2.3-0.1c1,0,1.6,1.1,1,1.9l-1.3,1.9l0.8,2.2
					c0.4,0.9-0.5,1.9-1.5,1.6l-2.2-0.7l-1.8,1.4c-0.8,0.6-1.9,0.1-2-0.9v-2.3l-1.9-1.3c-0.8-0.6-0.7-1.8,0.3-2.2L-173.4-115z"/>
				<path class="st2" d="M215.9,74.5L215.9,74.5c0.9-0.7,1-2,0.3-2.9l0,0c-0.7-0.9-2-1-2.9-0.3l0,0c-1,0.9-2.6,0.7-3.4-0.3l0,0
					c-0.7-0.9-2-1-2.9-0.3l0,0c-0.9,0.7-1,2-0.3,2.9l0,0c0.9,1,0.7,2.6-0.3,3.4l0,0c-0.9,0.7-1,2-0.3,2.9l0,0c0.7,0.9,2,1,2.9,0.3
					l0,0c1-0.9,2.6-0.7,3.4,0.3l0,0c0.7,0.9,2,1,2.9,0.3l0,0c0.9-0.7,1-2,0.3-2.9l0,0C214.7,76.9,214.9,75.3,215.9,74.5z"/>
				<path class="st2" d="M1022.3,98.2L1022.3,98.2c0.9-0.7,1-2,0.3-2.9l0,0c-0.7-0.9-2-1-2.9-0.3l0,0c-1,0.9-2.6,0.7-3.4-0.3l0,0
					c-0.7-0.9-2-1-2.9-0.3l0,0c-0.9,0.7-1,2-0.3,2.9l0,0c0.9,1,0.7,2.6-0.3,3.4l0,0c-0.9,0.7-1,2-0.3,2.9l0,0c0.7,0.9,2,1,2.9,0.3
					l0,0c1-0.9,2.6-0.7,3.4,0.3l0,0c0.7,0.9,2,1,2.9,0.3l0,0c0.9-0.7,1-2,0.3-2.9l0,0C1021.1,100.6,1021.2,99.1,1022.3,98.2z"/>
				<path class="st2" d="M-123.8,90.2L-123.8,90.2c0.9-0.7,1-2,0.3-2.9l0,0c-0.7-0.9-2-1-2.9-0.3l0,0c-1,0.9-2.6,0.7-3.4-0.3l0,0
					c-0.7-0.9-2-1-2.9-0.3l0,0c-0.9,0.7-1,2-0.3,2.9l0,0c0.9,1,0.7,2.6-0.3,3.4l0,0c-0.9,0.7-1,2-0.3,2.9l0,0c0.7,0.9,2,1,2.9,0.3
					l0,0c1-0.9,2.6-0.7,3.4,0.3l0,0c0.7,0.9,2,1,2.9,0.3l0,0c0.9-0.7,1-2,0.3-2.9l0,0C-124.9,92.6-124.8,91.1-123.8,90.2z"/>
				<path class="st2" d="M834.1,92.6L834.1,92.6c0.9-0.7,1-2,0.3-2.9l0,0c-0.7-0.9-2-1-2.9-0.3l0,0c-1,0.9-2.6,0.7-3.4-0.3l0,0
					c-0.7-0.9-2-1-2.9-0.3l0,0c-0.9,0.7-1,2-0.3,2.9l0,0c0.9,1,0.7,2.6-0.3,3.4l0,0c-0.9,0.7-1,2-0.3,2.9l0,0c0.7,0.9,2,1,2.9,0.3
					l0,0c1-0.9,2.6-0.7,3.4,0.3l0,0c0.7,0.9,2,1,2.9,0.3l0,0c0.9-0.7,1-2,0.3-2.9l0,0C832.9,95,833,93.5,834.1,92.6z"/>
				<path class="st2" d="M126.3,78.7l4.5,0.5c1.9,0.2,2.8,2.6,1.4,3.9l-3.1,3.2l0.9,4.4c0.4,1.9-1.6,3.4-3.3,2.6l-4-2l-3.9,2.2
					c-1.7,0.9-3.7-0.4-3.5-2.4l0.6-4.4l-3.3-3c-1.4-1.3-0.7-3.7,1.2-4l4.4-0.8l1.9-4.1c0.8-1.8,3.3-1.8,4.2-0.1L126.3,78.7z"/>
				<path class="st2" d="M1106.3,68.5l4-2c1.7-0.9,3.7,0.7,3.3,2.6l-0.9,4.4l3.1,3.2c1.3,1.4,0.5,3.7-1.4,3.9l-4.5,0.5l-2.1,4
					c-0.9,1.7-3.4,1.6-4.2-0.1l-1.9-4.1l-4.4-0.8c-1.9-0.3-2.6-2.7-1.2-4l3.3-3l-0.6-4.4c-0.3-1.9,1.8-3.3,3.5-2.4L1106.3,68.5z"/>
				
					<ellipse transform="matrix(0.9675 -0.253 0.253 0.9675 33.8808 99.6738)" class="st2" cx="404.5" cy="-81.9" rx="2.6" ry="2.6"/>
				
					<ellipse transform="matrix(0.9675 -0.253 0.253 0.9675 35.3612 103.3935)" class="st2" cx="419.7" cy="-85.8" rx="3.5" ry="3.5"/>
				
					<ellipse transform="matrix(0.9675 -0.253 0.253 0.9675 26.9632 111.0818)" class="st2" cx="445.4" cy="-49.3" rx="2.6" ry="2.6"/>
				
					<ellipse transform="matrix(0.9675 -0.253 0.253 0.9675 63.846 271.7089)" class="st2" cx="1088.4" cy="-112.4" rx="2.6" ry="2.6"/>
				
					<ellipse transform="matrix(0.9675 -0.253 0.253 0.9675 8.626 297.8922)" class="st2" cx="1162.6" cy="115.4" rx="2.6" ry="2.6"/>
				
					<ellipse transform="matrix(0.9675 -0.253 0.253 0.9675 23.9526 103.677)" class="st2" cx="415.1" cy="-41.3" rx="2.6" ry="2.6"/>
				
					<ellipse transform="matrix(0.9675 -0.253 0.253 0.9675 22.4813 100.0345)" class="st2" cx="400.2" cy="-37.4" rx="2.2" ry="2.2"/>
				
					<ellipse transform="matrix(0.9675 -0.253 0.253 0.9675 30.6843 -24.9834)" class="st2" cx="-81.8" cy="-131.8" rx="2.2" ry="2.2"/>
				
					<ellipse transform="matrix(0.9675 -0.253 0.253 0.9675 -26.4619 -46.1824)" class="st2" cx="-192.8" cy="79.8" rx="2.2" ry="2.2"/>
				<g>
					<line class="st3" x1="400.8" y1="-44.1" x2="403.9" y2="-75.2"/>
					<path class="st2" d="M401-43.4c-0.1,0-0.2,0-0.2,0c-0.4,0-0.6-0.4-0.6-0.7l3-31.1c0-0.4,0.4-0.6,0.7-0.6c0.4,0,0.6,0.4,0.6,0.7
						l-3,31.1C401.5-43.7,401.3-43.5,401-43.4z"/>
				</g>
				<g>
					<line class="st3" x1="415.8" y1="-48" x2="417.3" y2="-63.6"/>
					<path class="st2" d="M415.9-47.3c-0.1,0-0.2,0-0.2,0c-0.4,0-0.6-0.4-0.6-0.7l1.5-15.5c0-0.4,0.4-0.6,0.7-0.6
						c0.4,0,0.6,0.4,0.6,0.7l-1.5,15.5C416.4-47.6,416.2-47.4,415.9-47.3z"/>
				</g>
				<g>
					<line class="st3" x1="441.6" y1="-54.8" x2="423.7" y2="-80.4"/>
					<path class="st2" d="M441.7-54.1c-0.3,0.1-0.6,0-0.7-0.3L423.2-80c-0.2-0.3-0.1-0.7,0.2-0.9c0.3-0.2,0.7-0.1,0.9,0.2l17.9,25.6
						c0.2,0.3,0.1,0.7-0.2,0.9C441.9-54.2,441.8-54.1,441.7-54.1z"/>
				</g>
				<g>
					<line class="st3" x1="426" y1="-51.8" x2="408.8" y2="-76.5"/>
					<path class="st2" d="M426.1-51.1c-0.3,0.1-0.6,0-0.7-0.3l-17.2-24.7c-0.2-0.3-0.1-0.7,0.2-0.9c0.3-0.2,0.7-0.1,0.9,0.2
						l17.2,24.7c0.2,0.3,0.1,0.7-0.2,0.9C426.3-51.2,426.2-51.1,426.1-51.1z"/>
				</g>
				<g>
					<line class="st3" x1="405" y1="-37.8" x2="410.8" y2="-39.3"/>
					<path class="st2" d="M411-39.4l-6.1,1.6c-0.4,0.1-0.7,0-0.8-0.4c-0.1-0.4,0.1-0.7,0.5-0.7l6.1-1.6c0.4-0.1,0.7,0,0.8,0.4
						S411.3-39.5,411-39.4z"/>
				</g>
				<g>
					<line class="st3" x1="409.2" y1="-83.1" x2="413.8" y2="-84.3"/>
					<path class="st2" d="M414.3-84.4L409-83c-0.4,0.1-0.7,0-0.8-0.4s0.1-0.7,0.5-0.7l5.3-1.4c0.4-0.1,0.7,0,0.8,0.4
						C414.9-84.8,414.7-84.5,414.3-84.4z"/>
				</g>
				<g>
					<line class="st3" x1="436.1" y1="-45.9" x2="440.6" y2="-47.1"/>
					<path class="st2" d="M440.9-47.2l-4.4,1.1c-0.4,0.1-0.7,0-0.8-0.4c-0.1-0.4,0.1-0.7,0.5-0.7l4.4-1.1c0.4-0.1,0.7,0,0.8,0.4
						C441.5-47.6,441.3-47.3,440.9-47.2z"/>
				</g>
				<g>
					<path class="st2" d="M789.2,290L741,338.2c-1.8,1.8-1.6,4.8,0.4,6.4c15.1,11.8,37.1,10.8,51-3.2c13.9-13.9,15-35.9,3.2-51
						C794,288.4,791,288.2,789.2,290z"/>
					<circle class="st2" cx="753.5" cy="302.5" r="4.6"/>
					<circle class="st2" cx="782.2" cy="331.2" r="6.2"/>
					<circle class="st2" cx="792.5" cy="341.5" r="6.2"/>
					<path class="st2" d="M804,378h-23.1c-1.3,0-2.3-1.3-1.9-2.6l6.6-23.5c0.2-0.9,1-1.5,1.9-1.5h9.8c0.9,0,1.7,0.6,1.9,1.5
						l6.6,23.5C806.3,376.7,805.3,378,804,378z"/>
				</g>
				<g>
					<circle class="st2" cx="472.2" cy="371.9" r="6.1"/>
					<circle class="st2" cx="457.2" cy="371.9" r="6.1"/>
					<circle class="st2" cx="515.7" cy="371.9" r="6.1"/>
					<circle class="st2" cx="500.8" cy="371.9" r="6.1"/>
					<circle class="st2" cx="427.2" cy="371.9" r="6.1"/>
					<path class="st2" d="M437.7,344.7h-19.2c-1.7,0-3.2,1.4-3.2,3.2v20.9c0,1.7,1.4,3.2,3.2,3.2h19.2c1.7,0,3.2-1.4,3.2-3.2v-20.9
						C440.9,346.1,439.5,344.7,437.7,344.7z"/>
					<path class="st2" d="M526.8,332.2h-77.7c-1.7,0-3.2,1.4-3.2,3.2v33.4c0,1.7,1.4,3.2,3.2,3.2h77.7c1.7,0,3.2-1.4,3.2-3.2v-33.4
						C530,333.6,528.6,332.2,526.8,332.2z"/>
					<rect x="435.1" y="365.8" class="st2" width="25.3" height="6.1"/>
				</g>
				<g>
					
						<linearGradient id="SVGID_3_" gradientUnits="userSpaceOnUse" x1="244.9137" y1="586.4175" x2="714.9137" y2="276.4175" gradientTransform="matrix(1 0 0 1 0 -318)">
						<stop  offset="0" style="stop-color:#007ADC;stop-opacity:0"/>
						<stop  offset="1" style="stop-color:#007ADC"/>
					</linearGradient>
					<path class="st4" d="M708.6-24.4L681-29.7l5.6-28.7C296.3,185.5-99.5,249.2-208.9,87.1L240,752.3
						C130.6,590.3,336.8,246.2,708.6-24.4z"/>
				</g>
				<g>
					<path class="st5" d="M695-40.8l3.1-16c1.7-8.8,10.2-14.6,19.1-12.9l0,0c8.8,1.7,14.6,10.2,12.9,19.1l0,0
						c-1.7,8.8-10.2,14.6-19.1,12.9L695-40.8z"/>
					<path class="st5" d="M742.9-72.8c8.7,13,10.5,28.6,6.1,42.4c-1.4,4.6,3.2,8.8,7.6,6.9c3.4-1.5,6.7-3.4,9.8-5.8
						c20.1-15.3,25.3-44.3,11.7-65.6c-15-23.4-46.2-29.8-69-14.3c-2.4,1.6-4.6,3.4-6.6,5.3c-3.5,3.3-1.3,9.3,3.5,9.6
						C720.3-93.1,734.2-85.7,742.9-72.8z"/>
					<path class="st6" d="M728.1-57.5c2,3,5.5,4.6,9,4.1c26.3-3.1,55-6.4,72-17.9c23-15.6,36.9-39.6,40.2-65.2
						c0.7-5.3-2.7-10.4-7.9-11.7c-24.9-6.5-52.4-2.6-75.5,12.9c-17,11.5-30.8,36.8-43.5,60.1c-1.7,3.1-1.5,7,0.5,9.9L728.1-57.5z"/>
					
						<ellipse transform="matrix(0.8288 -0.5595 0.5595 0.8288 196.3183 425.9584)" class="st5" cx="794.3" cy="-107.9" rx="20.7" ry="20.7"/>
				</g>
				<polygon class="st2" points="1370.1,241 1566.1,381 1174,381 				"/>
				<polygon class="st2" points="-430.1,241 -234,381 -626.1,381 				"/>
				<polygon class="st2" points="-292.6,295 -172.1,381 -413,381 				"/>
				<polygon class="st2" points="1139.8,313 1235,381 1044.5,381 				"/>
				<polygon class="st2" points="-125.3,331.2 -55.5,381 -195,381 				"/>
				<circle class="st7" cx="794.4" cy="-107.9" r="15.6"/>
				<g>
					<path class="st2" d="M-49.7,329.8l5.7,12.6c0.4,0.9-0.3,2-1.3,2h-11.4c-1,0-1.7-1.1-1.3-2l5.7-12.6
						C-51.8,328.7-50.2,328.7-49.7,329.8z"/>
					<path class="st2" d="M-49.7,336.2l9.2,20.2c0.4,0.9-0.3,2-1.3,2h-18.3c-1,0-1.7-1.1-1.3-2l9.2-20.2
						C-51.8,335.1-50.2,335.1-49.7,336.2z"/>
					<path class="st2" d="M-49.7,344.2l12.6,27.8c0.4,0.9-0.3,2-1.3,2h-25.2c-1,0-1.7-1.1-1.3-2l12.6-27.8
						C-51.8,343.1-50.2,343.1-49.7,344.2z"/>
					<path class="st2" d="M-49.9,363.8h-2.2c-0.8,0-1.4,0.6-1.4,1.4V378h5v-12.8C-48.5,364.4-49.1,363.8-49.9,363.8z"/>
				</g>
				<g>
					<g>
						<path class="st2" d="M1042.3,329.3l5.7,12.6c0.4,0.9-0.3,2-1.3,2h-11.4c-1,0-1.7-1.1-1.3-2l5.7-12.6
							C1040.2,328.2,1041.8,328.2,1042.3,329.3z"/>
						<path class="st2" d="M1042.3,335.7l9.2,20.2c0.4,0.9-0.3,2-1.3,2h-18.3c-1,0-1.7-1.1-1.3-2l9.2-20.2
							C1040.2,334.6,1041.8,334.6,1042.3,335.7z"/>
						<path class="st2" d="M1042.3,343.7l12.6,27.8c0.4,0.9-0.3,2-1.3,2h-25.2c-1,0-1.7-1.1-1.3-2l12.6-27.8
							C1040.2,342.6,1041.8,342.6,1042.3,343.7z"/>
						<path class="st2" d="M1042.1,363.3h-2.2c-0.8,0-1.4,0.6-1.4,1.4V378h5v-13.3C1043.5,363.9,1042.9,363.3,1042.1,363.3z"/>
					</g>
					<g>
						<path class="st2" d="M984.5,339.6l4.3,9.5c0.3,0.7-0.2,1.5-1,1.5h-8.6c-0.8,0-1.3-0.8-1-1.5l4.3-9.5
							C982.9,338.8,984.1,338.8,984.5,339.6z"/>
						<path class="st2" d="M984.5,344.4l6.9,15.2c0.3,0.7-0.2,1.5-1,1.5h-13.7c-0.8,0-1.3-0.8-1-1.5l6.9-15.2
							C982.9,343.6,984.1,343.6,984.5,344.4z"/>
						<path class="st2" d="M984.5,350.4l9.4,20.9c0.3,0.7-0.2,1.5-1,1.5H974c-0.8,0-1.3-0.8-1-1.5l9.4-20.9
							C982.9,349.6,984.1,349.6,984.5,350.4z"/>
						<path class="st2" d="M984.2,365.1h-1.3c-0.7,0-1.2,0.5-1.2,1.2V378h3.7v-11.7C985.4,365.7,984.8,365.1,984.2,365.1z"/>
					</g>
					<g>
						<path class="st2" d="M1021.8,319.5l7,15.5c0.5,1.1-0.3,2.4-1.6,2.4h-14.1c-1.3,0-2.1-1.3-1.6-2.4l7-15.5
							C1019.3,318.1,1021.2,318.1,1021.8,319.5z"/>
						<path class="st2" d="M1021.8,327.3l11.3,24.9c0.5,1.1-0.3,2.4-1.6,2.4H1009c-1.3,0-2.1-1.3-1.6-2.4l11.3-24.9
							C1019.3,326,1021.2,326,1021.8,327.3z"/>
						<path class="st2" d="M1021.8,335.3l15.5,34.3c0.5,1.1-0.3,2.4-1.6,2.4h-31.1c-1.3,0-2.1-1.3-1.6-2.4l15.5-34.3
							C1019.3,333.9,1021.2,333.9,1021.8,335.3z"/>
						<path class="st2" d="M1021.6,361.4h-2.7c-1,0-1.7,0.8-1.7,1.7V378h6.2v-14.9C1023.3,362.1,1022.6,361.4,1021.6,361.4z"/>
					</g>
				</g>
				<g>
					<path class="st2" d="M-195.7,331.3l5.7,12.6c0.4,0.9-0.3,2-1.3,2h-11.4c-1,0-1.7-1.1-1.3-2l5.7-12.6
						C-197.8,330.2-196.2,330.2-195.7,331.3z"/>
					<path class="st2" d="M-195.7,337.7l9.2,20.2c0.4,0.9-0.3,2-1.3,2h-18.3c-1,0-1.7-1.1-1.3-2l9.2-20.2
						C-197.8,336.6-196.2,336.6-195.7,337.7z"/>
					<path class="st2" d="M-195.7,345.7l12.6,27.8c0.4,0.9-0.3,2-1.3,2h-25.2c-1,0-1.7-1.1-1.3-2l12.6-27.8
						C-197.8,344.6-196.2,344.6-195.7,345.7z"/>
					<path class="st2" d="M-195.9,365.3h-2.2c-0.8,0-1.4,0.6-1.4,1.4V382h5v-15.3C-194.5,365.9-195.1,365.3-195.9,365.3z"/>
				</g>
				<g>
					<path class="st2" d="M-33.2,348.5l3.7,8.1c0.3,0.6-0.2,1.3-0.8,1.3h-7.3c-0.7,0-1.1-0.7-0.8-1.3l3.7-8.1
						C-34.5,347.8-33.5,347.8-33.2,348.5z"/>
					<path class="st2" d="M-33.2,352.6l5.9,13c0.3,0.6-0.2,1.3-0.8,1.3h-11.8c-0.7,0-1.1-0.7-0.8-1.3l5.9-13
						C-34.5,351.9-33.5,351.9-33.2,352.6z"/>
					<path class="st2" d="M-33.2,357.7l8.1,17.9c0.3,0.6-0.2,1.3-0.8,1.3h-16.2c-0.7,0-1.1-0.7-0.8-1.3l8.1-17.9
						C-34.5,357-33.5,357-33.2,357.7z"/>
					<path class="st2" d="M-33.3,370.3h-1.4c-0.5,0-0.9,0.4-0.9,0.9v6.8h3.2v-6.8C-32.4,370.7-32.8,370.3-33.3,370.3z"/>
				</g>
				<g>
					<path class="st2" d="M105,295H92h-2.5c-2.5,0-4.5,2-4.5,4.5v2.5v79h7v-79h13v79h7v-79v-2.5c0-2.5-2-4.5-4.5-4.5H105z"/>
					<rect x="89" y="313.2" class="st2" width="17" height="2"/>
					
						<rect x="98" y="293.5" transform="matrix(0.7071 -0.7071 0.7071 0.7071 -188.7861 160.2005)" class="st2" width="2" height="29"/>
					
						<rect x="98" y="306.5" transform="matrix(0.7071 -0.7071 0.7071 0.7071 -197.9785 164.0081)" class="st2" width="2" height="29"/>
					
						<rect x="98" y="319.5" transform="matrix(0.7071 -0.7071 0.7071 0.7071 -207.1899 167.8236)" class="st2" width="2" height="29"/>
					
						<rect x="98" y="333.5" transform="matrix(0.7071 -0.7071 0.7071 0.7071 -217.0703 171.9162)" class="st2" width="2" height="29"/>
					
						<rect x="98" y="346.5" transform="matrix(0.7071 -0.7071 0.7071 0.7071 -226.2627 175.7238)" class="st2" width="2" height="29"/>
					
						<rect x="98" y="359.5" transform="matrix(0.7071 -0.7071 0.7071 0.7071 -235.4741 179.5393)" class="st2" width="2" height="29"/>
					<rect x="89" y="300" class="st2" width="17" height="2"/>
					<rect x="89" y="326.3" class="st2" width="17" height="2"/>
					<rect x="89" y="339.5" class="st2" width="17" height="2"/>
					<rect x="89" y="365.8" class="st2" width="17" height="2"/>
					<rect x="89" y="352.7" class="st2" width="17" height="2"/>
					<rect x="89" y="379" class="st2" width="17" height="2"/>
				</g>
				<rect x="117" y="375" class="st2" width="75" height="3"/>
			</g>
		</g>
	</g>
</g>
<path class="st8" d="M298.3,190.6c-4.8,0-8.7,3.9-8.7,8.7s3.9,8.7,8.7,8.7s8.7-3.9,8.7-8.7S303.1,190.6,298.3,190.6z M298.3,194.3
	c0.9,0,1.6,0.7,1.6,1.6c0,0.9-0.7,1.6-1.6,1.6c-0.9,0-1.6-0.7-1.6-1.6C296.7,195,297.4,194.3,298.3,194.3z M300.4,204h-4.2
	c-0.3,0-0.5-0.2-0.5-0.5c0-0.3,0.2-0.5,0.5-0.5h0.5v-3.6v0h-0.5c-0.3,0-0.5-0.2-0.5-0.5c0-0.3,0.2-0.5,0.5-0.5h3.3
	c0.2,0,0.4,0.2,0.4,0.4v4.2h0.5c0.3,0,0.5,0.2,0.5,0.5C300.9,203.7,300.7,204,300.4,204z"/>
</svg>
