<?xml version="1.0" encoding="utf-8"?>
<!-- Generator: Adobe Illustrator 19.2.1, SVG Export Plug-In . SVG Version: 6.00 Build 0)  -->
<svg version="1.1" id="puzzle" xmlns="http://www.w3.org/2000/svg" xmlns:xlink="http://www.w3.org/1999/xlink" x="0px" y="0px"
	 width="340px" height="240px" viewBox="0 0 340 240" style="enable-background:new 0 0 340 240;" xml:space="preserve">
<style type="text/css">
	.st0{fill:#074B89;}
	.st1{clip-path:url(#SVGID_2_);}
	.st2{fill:#006DBA;}
	.st3{fill:none;}
	.st4{fill:url(#SVGID_3_);}
	.st5{fill:#E3EAF4;}
	.st6{fill:#CEDAE3;}
	.st7{fill:#005F99;}
	.st8{fill:#035CA1;}
</style>
<title>svg-sources</title>
<path class="st0" d="M319,99V26c0-3.3-2.7-6-6-6H27c-3.3,0-6,2.7-6,6v67v4v0.1c11.7,1,21,10.9,21,22.9s-9.3,21.9-21,22.9v0.1v30v41
	c0,3.3,2.7,6,6,6h122.1c0.5,11.1,9.7,20,20.9,20c11.3,0,20.4-8.9,20.9-20H313c3.3,0,6-2.7,6-6v-73c11.6,0,21-9.4,21-21
	S330.6,99,319,99z"/>
<g>
	<g>
		<g>
			<defs>
				<path id="SVGID_1_" d="M319,99V26c0-3.3-2.7-6-6-6H27c-3.3,0-6,2.7-6,6v67v4v0.1c11.7,1,21,10.9,21,22.9s-9.3,21.9-21,22.9v0.1
					v30v41c0,3.3,2.7,6,6,6h122.1c0.5,11.1,9.7,20,20.9,20c11.3,0,20.4-8.9,20.9-20H313c3.3,0,6-2.7,6-6v-73c11.6,0,21-9.4,21-21
					S330.6,99,319,99z"/>
			</defs>
			<clipPath id="SVGID_2_">
				<use xlink:href="#SVGID_1_"  style="overflow:visible;"/>
			</clipPath>
			<g class="st1">
				<rect x="-665" y="582" class="st2" width="2266" height="45"/>
				<path class="st2" d="M-208.2,288.7L-208.2,288.7L-208.2,288.7z"/>
				<g>
					
						<ellipse transform="matrix(0.9776 -0.2104 0.2104 0.9776 -16.2368 29.9849)" class="st2" cx="132.8" cy="91.3" rx="20.5" ry="20.5"/>
					
						<ellipse transform="matrix(0.9776 -0.2104 0.2104 0.9776 -14.6632 34.7756)" class="st2" cx="156.1" cy="86.3" rx="1.5" ry="1.5"/>
					<path class="st2" d="M108.5,98.3l-24.6,5.3c-0.9,0.2-1.9-0.4-2.1-1.3l0,0c-0.2-0.9,0.4-1.9,1.3-2.1l24.6-5.3
						c0.9-0.2,1.9,0.4,2.1,1.3l0,0C110,97.2,109.4,98.1,108.5,98.3z"/>
					<g>
						<path class="st2" d="M117.3,112.4l-22.6,11.1c-0.9,0.4-1.9,0.1-2.3-0.8l0,0c-0.4-0.9-0.1-1.9,0.8-2.3l22.6-11.1
							c0.9-0.4,1.9-0.1,2.3,0.8l0,0C118.5,111,118.1,112,117.3,112.4z"/>
						<path class="st2" d="M109.9,78.4l-25.2-0.9c-1,0-1.8,0.7-1.8,1.7l0,0c0,1,0.7,1.8,1.7,1.8l25.2,0.9c1,0,1.8-0.7,1.8-1.7l0,0
							C111.6,79.3,110.9,78.5,109.9,78.4z"/>
					</g>
				</g>
				<path class="st2" d="M211,135.7L211,135.7c0.5-1.7-0.5-3.4-2.2-3.9l0,0c-1.7-0.5-3.4,0.5-3.9,2.2l0,0c-0.6,2-2.7,3.2-4.7,2.6
					l0,0c-1.7-0.5-3.4,0.5-3.9,2.2l0,0c-0.5,1.7,0.5,3.4,2.2,3.9l0,0c2,0.6,3.2,2.7,2.6,4.7l0,0c-0.5,1.7,0.5,3.4,2.2,3.9l0,0
					c1.7,0.5,3.4-0.5,3.9-2.2l0,0c0.6-2,2.7-3.2,4.7-2.6l0,0c1.7,0.5,3.4-0.5,3.9-2.2l0,0c0.5-1.7-0.5-3.4-2.2-3.9l0,0
					C211.6,139.8,210.4,137.7,211,135.7z"/>
				<path class="st2" d="M430.6,67.9L430.6,67.9c-1.1-1.4-3.1-1.6-4.4-0.5l0,0c-1.4,1.1-1.6,3.1-0.5,4.4l0,0c1.3,1.6,1,4-0.6,5.3
					l0,0c-1.4,1.1-1.6,3.1-0.5,4.4l0,0c1.1,1.4,3.1,1.6,4.4,0.5l0,0c1.6-1.3,4-1,5.3,0.6l0,0c1.1,1.4,3.1,1.6,4.4,0.5l0,0
					c1.4-1.1,1.6-3.1,0.5-4.4l0,0c-1.3-1.6-1-4,0.6-5.3l0,0c1.4-1.1,1.6-3.1,0.5-4.4l0,0c-1.1-1.4-3.1-1.6-4.4-0.5l0,0
					C434.3,69.8,431.9,69.5,430.6,67.9z"/>
				<path class="st2" d="M-83.4,132.2L-83.4,132.2c1.2-1.3,1-3.3-0.3-4.5l0,0c-1.3-1.2-3.3-1-4.5,0.3l0,0c-1.4,1.6-3.8,1.7-5.4,0.4
					l0,0c-1.3-1.2-3.3-1-4.5,0.3l0,0c-1.2,1.3-1,3.3,0.3,4.5l0,0c1.6,1.4,1.7,3.8,0.4,5.4l0,0c-1.2,1.3-1,3.3,0.3,4.5l0,0
					c1.3,1.2,3.3,1,4.5-0.3l0,0c1.4-1.6,3.8-1.7,5.4-0.4l0,0c1.3,1.2,3.3,1,4.5-0.3l0,0c1.2-1.3,1-3.3-0.3-4.5l0,0
					C-84.7,136.2-84.8,133.8-83.4,132.2z"/>
				<path class="st2" d="M-354.6,143L-354.6,143c1,0.6,2.4,0.3,3.1-0.7l0,0c0.6-1,0.3-2.4-0.7-3.1l0,0c-1.3-0.8-1.7-2.4-0.9-3.7l0,0
					c0.6-1,0.3-2.4-0.7-3.1l0,0c-1-0.6-2.4-0.3-3.1,0.7l0,0c-0.8,1.3-2.4,1.7-3.7,0.9l0,0c-1-0.6-2.4-0.3-3.1,0.7l0,0
					c-0.6,1-0.3,2.4,0.7,3.1l0,0c1.3,0.8,1.7,2.4,0.9,3.7l0,0c-0.6,1-0.3,2.4,0.7,3.1l0,0c1,0.6,2.4,0.3,3.1-0.7l0,0
					C-357.5,142.7-355.8,142.3-354.6,143z"/>
				<path class="st2" d="M833.4,164.3L833.4,164.3c-0.6-0.8-1.8-1-2.6-0.3l0,0c-0.8,0.6-1,1.8-0.3,2.6l0,0c0.8,1,0.6,2.4-0.4,3.2
					l0,0c-0.8,0.6-1,1.8-0.3,2.6l0,0c0.6,0.8,1.8,1,2.6,0.3l0,0c1-0.8,2.4-0.6,3.2,0.4l0,0c0.6,0.8,1.8,1,2.6,0.3l0,0
					c0.8-0.6,1-1.8,0.3-2.6l0,0c-0.8-1-0.6-2.4,0.4-3.2l0,0c0.8-0.6,1-1.8,0.3-2.6l0,0c-0.6-0.8-1.8-1-2.6-0.3l0,0
					C835.6,165.5,834.1,165.3,833.4,164.3z"/>
				<path class="st2" d="M1057.1,140.7L1057.1,140.7c0.4-1-0.1-2-1.1-2.4l0,0c-1-0.4-2,0.1-2.4,1.1l0,0c-0.4,1.2-1.8,1.7-2.9,1.3
					l0,0c-1-0.4-2,0.1-2.4,1.1l0,0c-0.4,1,0.1,2,1.1,2.4l0,0c1.2,0.4,1.7,1.8,1.3,2.9l0,0c-0.4,1,0.1,2,1.1,2.4l0,0
					c1,0.4,2-0.1,2.4-1.1l0,0c0.4-1.2,1.8-1.7,2.9-1.3l0,0c1,0.4,2-0.1,2.4-1.1l0,0c0.4-1-0.1-2-1.1-2.4l0,0
					C1057.2,143.2,1056.7,141.9,1057.1,140.7z"/>
				<path class="st2" d="M1306.5,89.5L1306.5,89.5c0.4-1-0.1-2-1.1-2.4l0,0c-1-0.4-2,0.1-2.4,1.1l0,0c-0.4,1.2-1.8,1.7-2.9,1.3l0,0
					c-1-0.4-2,0.1-2.4,1.1l0,0c-0.4,1,0.1,2,1.1,2.4l0,0c1.2,0.4,1.7,1.8,1.3,2.9l0,0c-0.4,1,0.1,2,1.1,2.4l0,0c1,0.4,2-0.1,2.4-1.1
					l0,0c0.4-1.2,1.8-1.7,2.9-1.3l0,0c1,0.4,2-0.1,2.4-1.1l0,0c0.4-1-0.1-2-1.1-2.4l0,0C1306.6,92,1306.1,90.7,1306.5,89.5z"/>
				<path class="st2" d="M237.6,86.4L237.6,86.4c-0.2-0.9-1.1-1.5-2-1.2l0,0c-0.9,0.2-1.5,1.1-1.2,2l0,0c0.2,1.1-0.4,2.2-1.5,2.4
					l0,0c-0.9,0.2-1.5,1.1-1.2,2l0,0c0.2,0.9,1.1,1.5,2,1.2l0,0c1.1-0.2,2.2,0.4,2.4,1.5l0,0c0.2,0.9,1.1,1.5,2,1.2l0,0
					c0.9-0.2,1.5-1.1,1.2-2l0,0c-0.2-1.1,0.4-2.2,1.5-2.4l0,0c0.9-0.2,1.5-1.1,1.2-2l0,0c-0.2-0.9-1.1-1.5-2-1.2l0,0
					C238.9,88.2,237.8,87.5,237.6,86.4z"/>
				<path class="st2" d="M500.9,164.1L500.9,164.1c0.5-0.8,0.3-1.8-0.5-2.3l0,0c-0.8-0.5-1.8-0.3-2.3,0.5l0,0
					c-0.6,0.9-1.8,1.2-2.8,0.6l0,0c-0.8-0.5-1.8-0.3-2.3,0.5l0,0c-0.5,0.8-0.3,1.8,0.5,2.3l0,0c0.9,0.6,1.2,1.8,0.6,2.8l0,0
					c-0.5,0.8-0.3,1.8,0.5,2.3l0,0c0.8,0.5,1.8,0.3,2.3-0.5l0,0c0.6-0.9,1.8-1.2,2.8-0.6l0,0c0.8,0.5,1.8,0.3,2.3-0.5l0,0
					c0.5-0.8,0.3-1.8-0.5-2.3l0,0C500.5,166.3,500.2,165,500.9,164.1z"/>
				<g>
					<path class="st2" d="M481.1,102.9c3.7,14.1,17.8,22.9,32.1,19.8c14.3-3.1,23.6-17,21-31.3L481.1,102.9z"/>
					<path class="st2" d="M501.6,69.4c-14.3,3.1-23.6,17-21,31.3l53.2-11.5C530.1,75.1,516,66.3,501.6,69.4z M523.6,85.7
						c-2,2.6-6.6,2.5-10.2-0.2c-3.6-2.8-4.8-7.1-2.8-9.8c2-2.6,6.6-2.5,10.2,0.2C524.4,78.7,525.6,83.1,523.6,85.7z"/>
				</g>
				<path class="st2" d="M431.2,153.4l1.9-0.4c0.8-0.2,1.5,0.7,1.1,1.4l-0.8,1.8l1,1.7c0.4,0.7-0.2,1.6-1,1.5l-2-0.2l-1.3,1.5
					c-0.6,0.6-1.6,0.3-1.8-0.5l-0.4-1.9l-1.8-0.8c-0.8-0.3-0.8-1.4-0.1-1.8l1.7-1l0.2-2c0.1-0.8,1.1-1.2,1.7-0.6L431.2,153.4z"/>
				<path class="st2" d="M720.2,52.1l2.7-1.4c1.2-0.6,2.6,0.4,2.3,1.7l-0.5,3.1l2.2,2.2c1,0.9,0.4,2.6-0.9,2.7l-3.1,0.4l-1.4,2.8
					c-0.6,1.2-2.3,1.2-2.9,0l-1.4-2.8l-3.1-0.4c-1.3-0.2-1.8-1.8-0.9-2.7l2.2-2.2l-0.5-3.1c-0.2-1.3,1.2-2.3,2.3-1.7L720.2,52.1z"/>
				<path class="st2" d="M1014.1,88l3.5,1.6c1.5,0.7,1.5,2.8,0.1,3.6l-3.4,1.8l-0.5,3.8c-0.2,1.7-2.2,2.4-3.4,1.2l-2.8-2.7l-3.8,0.7
					c-1.6,0.3-2.9-1.4-2.2-2.9l1.7-3.5l-1.9-3.4c-0.8-1.5,0.4-3.2,2.1-3l3.8,0.6l2.6-2.8c1.1-1.2,3.2-0.6,3.5,1.1L1014.1,88z"/>
				<path class="st2" d="M777.8,334.7L777.8,334.7c-0.6-0.8-1.8-1-2.6-0.3l0,0c-0.8,0.6-1,1.8-0.3,2.6l0,0c0.8,1,0.6,2.4-0.4,3.2
					l0,0c-0.8,0.6-1,1.8-0.3,2.6l0,0c0.6,0.8,1.8,1,2.6,0.3l0,0c1-0.8,2.4-0.6,3.2,0.4l0,0c0.6,0.8,1.8,1,2.6,0.3l0,0
					c0.8-0.6,1-1.8,0.3-2.6l0,0c-0.8-1-0.6-2.4,0.4-3.2l0,0c0.8-0.6,1-1.8,0.3-2.6l0,0c-0.6-0.8-1.8-1-2.6-0.3l0,0
					C780,335.9,778.6,335.7,777.8,334.7z"/>
				<path class="st2" d="M-47.2,266.7L-47.2,266.7c-0.6-0.8-1.8-1-2.6-0.3l0,0c-0.8,0.6-1,1.8-0.3,2.6l0,0c0.8,1,0.6,2.4-0.4,3.2
					l0,0c-0.8,0.6-1,1.8-0.3,2.6l0,0c0.6,0.8,1.8,1,2.6,0.3l0,0c1-0.8,2.4-0.6,3.2,0.4l0,0c0.6,0.8,1.8,1,2.6,0.3l0,0
					c0.8-0.6,1-1.8,0.3-2.6l0,0c-0.8-1-0.6-2.4,0.4-3.2l0,0c0.8-0.6,1-1.8,0.3-2.6l0,0c-0.6-0.8-1.8-1-2.6-0.3l0,0
					C-45,267.9-46.4,267.7-47.2,266.7z"/>
				<path class="st2" d="M714.8,260l2.7-1.4c1.2-0.6,2.6,0.4,2.3,1.7l-0.5,3.1l2.2,2.2c1,0.9,0.4,2.6-0.9,2.7l-3.1,0.4l-1.4,2.8
					c-0.6,1.2-2.3,1.2-2.9,0l-1.4-2.8l-3.1-0.4c-1.3-0.2-1.8-1.8-0.9-2.7l2.2-2.2l-0.5-3.1c-0.2-1.3,1.2-2.3,2.3-1.7L714.8,260z"/>
				<path class="st2" d="M149.5,165l2.1-1.1c0.9-0.5,1.9,0.3,1.8,1.3l-0.4,2.3l1.7,1.6c0.7,0.7,0.3,1.9-0.7,2.1l-2.3,0.3l-1,2.1
					c-0.4,0.9-1.7,0.9-2.2,0l-1-2.1l-2.3-0.3c-1-0.1-1.4-1.4-0.7-2.1l1.7-1.6l-0.4-2.3c-0.2-1,0.9-1.7,1.8-1.3L149.5,165z"/>
				<path class="st2" d="M-173.4,87l0.6-2.2c0.3-1,1.5-1.2,2.1-0.4l1.4,1.9l2.3-0.1c1,0,1.6,1.1,1,1.9l-1.3,1.9l0.8,2.2
					c0.4,0.9-0.5,1.9-1.5,1.6l-2.2-0.7l-1.8,1.4c-0.8,0.6-1.9,0.1-2-0.9v-2.3l-1.9-1.3c-0.8-0.6-0.7-1.8,0.3-2.2L-173.4,87z"/>
				<path class="st2" d="M215.9,276.5L215.9,276.5c0.9-0.7,1-2,0.3-2.9l0,0c-0.7-0.9-2-1-2.9-0.3l0,0c-1,0.9-2.6,0.7-3.4-0.3l0,0
					c-0.7-0.9-2-1-2.9-0.3l0,0c-0.9,0.7-1,2-0.3,2.9l0,0c0.9,1,0.7,2.6-0.3,3.4l0,0c-0.9,0.7-1,2-0.3,2.9l0,0c0.7,0.9,2,1,2.9,0.3
					l0,0c1-0.9,2.6-0.7,3.4,0.3l0,0c0.7,0.9,2,1,2.9,0.3l0,0c0.9-0.7,1-2,0.3-2.9l0,0C214.7,278.9,214.9,277.3,215.9,276.5z"/>
				<path class="st2" d="M1022.3,300.2L1022.3,300.2c0.9-0.7,1-2,0.3-2.9l0,0c-0.7-0.9-2-1-2.9-0.3l0,0c-1,0.9-2.6,0.7-3.4-0.3l0,0
					c-0.7-0.9-2-1-2.9-0.3l0,0c-0.9,0.7-1,2-0.3,2.9l0,0c0.9,1,0.7,2.6-0.3,3.4l0,0c-0.9,0.7-1,2-0.3,2.9l0,0c0.7,0.9,2,1,2.9,0.3
					l0,0c1-0.9,2.6-0.7,3.4,0.3l0,0c0.7,0.9,2,1,2.9,0.3l0,0c0.9-0.7,1-2,0.3-2.9l0,0C1021.1,302.6,1021.2,301.1,1022.3,300.2z"/>
				<path class="st2" d="M-123.8,292.2L-123.8,292.2c0.9-0.7,1-2,0.3-2.9l0,0c-0.7-0.9-2-1-2.9-0.3l0,0c-1,0.9-2.6,0.7-3.4-0.3l0,0
					c-0.7-0.9-2-1-2.9-0.3l0,0c-0.9,0.7-1,2-0.3,2.9l0,0c0.9,1,0.7,2.6-0.3,3.4l0,0c-0.9,0.7-1,2-0.3,2.9l0,0c0.7,0.9,2,1,2.9,0.3
					l0,0c1-0.9,2.6-0.7,3.4,0.3l0,0c0.7,0.9,2,1,2.9,0.3l0,0c0.9-0.7,1-2,0.3-2.9l0,0C-124.9,294.6-124.8,293.1-123.8,292.2z"/>
				<path class="st2" d="M834.1,294.6L834.1,294.6c0.9-0.7,1-2,0.3-2.9l0,0c-0.7-0.9-2-1-2.9-0.3l0,0c-1,0.9-2.6,0.7-3.4-0.3l0,0
					c-0.7-0.9-2-1-2.9-0.3l0,0c-0.9,0.7-1,2-0.3,2.9l0,0c0.9,1,0.7,2.6-0.3,3.4l0,0c-0.9,0.7-1,2-0.3,2.9l0,0c0.7,0.9,2,1,2.9,0.3
					l0,0c1-0.9,2.6-0.7,3.4,0.3l0,0c0.7,0.9,2,1,2.9,0.3l0,0c0.9-0.7,1-2,0.3-2.9l0,0C832.9,297,833,295.5,834.1,294.6z"/>
				<path class="st2" d="M126.3,280.7l4.5,0.5c1.9,0.2,2.8,2.6,1.4,3.9l-3.1,3.2l0.9,4.4c0.4,1.9-1.6,3.4-3.3,2.6l-4-2l-3.9,2.2
					c-1.7,0.9-3.7-0.4-3.5-2.4l0.6-4.4l-3.3-3c-1.4-1.3-0.7-3.7,1.2-4l4.4-0.8l1.9-4.1c0.8-1.8,3.3-1.8,4.2-0.1L126.3,280.7z"/>
				<path class="st2" d="M1106.3,270.5l4-2c1.7-0.9,3.7,0.7,3.3,2.6l-0.9,4.4l3.1,3.2c1.3,1.4,0.5,3.7-1.4,3.9l-4.5,0.5l-2.1,4
					c-0.9,1.7-3.4,1.6-4.2-0.1l-1.9-4.1l-4.4-0.8c-1.9-0.3-2.6-2.7-1.2-4l3.3-3l-0.6-4.4c-0.3-1.9,1.8-3.3,3.5-2.4L1106.3,270.5z"/>
				
					<ellipse transform="matrix(0.9675 -0.253 0.253 0.9675 -17.2252 106.2454)" class="st2" cx="404.5" cy="120.1" rx="2.6" ry="2.6"/>
				
					<ellipse transform="matrix(0.9675 -0.253 0.253 0.9675 -15.7448 109.9651)" class="st2" cx="419.7" cy="116.2" rx="3.5" ry="3.5"/>
				
					<ellipse transform="matrix(0.9675 -0.253 0.253 0.9675 -24.1428 117.6534)" class="st2" cx="445.4" cy="152.7" rx="2.6" ry="2.6"/>
				<ellipse transform="matrix(0.9675 -0.253 0.253 0.9675 12.74 278.2805)" class="st2" cx="1088.4" cy="89.6" rx="2.6" ry="2.6"/>
				
					<ellipse transform="matrix(0.9675 -0.253 0.253 0.9675 -42.48 304.4638)" class="st2" cx="1162.6" cy="317.4" rx="2.6" ry="2.6"/>
				
					<ellipse transform="matrix(0.9675 -0.253 0.253 0.9675 -27.1535 110.2486)" class="st2" cx="415.1" cy="160.7" rx="2.6" ry="2.6"/>
				
					<ellipse transform="matrix(0.9675 -0.253 0.253 0.9675 -28.6248 106.6061)" class="st2" cx="400.2" cy="164.6" rx="2.2" ry="2.2"/>
				
					<ellipse transform="matrix(0.9675 -0.253 0.253 0.9675 -20.4217 -18.4118)" class="st2" cx="-81.8" cy="70.2" rx="2.2" ry="2.2"/>
				
					<ellipse transform="matrix(0.9675 -0.253 0.253 0.9675 -77.568 -39.6108)" class="st2" cx="-192.8" cy="281.8" rx="2.2" ry="2.2"/>
				<g>
					<line class="st3" x1="400.8" y1="157.9" x2="403.9" y2="126.8"/>
					<path class="st2" d="M401,158.6c-0.1,0-0.2,0-0.2,0c-0.4,0-0.6-0.4-0.6-0.7l3-31.1c0-0.4,0.4-0.6,0.7-0.6
						c0.4,0,0.6,0.4,0.6,0.7l-3,31.1C401.5,158.3,401.3,158.5,401,158.6z"/>
				</g>
				<g>
					<line class="st3" x1="415.8" y1="154" x2="417.3" y2="138.4"/>
					<path class="st2" d="M415.9,154.7c-0.1,0-0.2,0-0.2,0c-0.4,0-0.6-0.4-0.6-0.7l1.5-15.5c0-0.4,0.4-0.6,0.7-0.6
						c0.4,0,0.6,0.4,0.6,0.7l-1.5,15.5C416.4,154.4,416.2,154.6,415.9,154.7z"/>
				</g>
				<g>
					<line class="st3" x1="441.6" y1="147.2" x2="423.7" y2="121.6"/>
					<path class="st2" d="M441.7,147.9c-0.3,0.1-0.6,0-0.7-0.3L423.2,122c-0.2-0.3-0.1-0.7,0.2-0.9c0.3-0.2,0.7-0.1,0.9,0.2
						l17.9,25.6c0.2,0.3,0.1,0.7-0.2,0.9C441.9,147.8,441.8,147.9,441.7,147.9z"/>
				</g>
				<g>
					<line class="st3" x1="426" y1="150.2" x2="408.8" y2="125.5"/>
					<path class="st2" d="M426.1,150.9c-0.3,0.1-0.6,0-0.7-0.3l-17.2-24.7c-0.2-0.3-0.1-0.7,0.2-0.9c0.3-0.2,0.7-0.1,0.9,0.2
						l17.2,24.7c0.2,0.3,0.1,0.7-0.2,0.9C426.3,150.8,426.2,150.9,426.1,150.9z"/>
				</g>
				<g>
					<line class="st3" x1="405" y1="164.2" x2="410.8" y2="162.7"/>
					<path class="st2" d="M411,162.6l-6.1,1.6c-0.4,0.1-0.7,0-0.8-0.4c-0.1-0.4,0.1-0.7,0.5-0.7l6.1-1.6c0.4-0.1,0.7,0,0.8,0.4
						S411.3,162.5,411,162.6z"/>
				</g>
				<g>
					<line class="st3" x1="409.2" y1="118.9" x2="413.8" y2="117.7"/>
					<path class="st2" d="M414.3,117.6L409,119c-0.4,0.1-0.7,0-0.8-0.4s0.1-0.7,0.5-0.7l5.3-1.4c0.4-0.1,0.7,0,0.8,0.4
						C414.9,117.2,414.7,117.5,414.3,117.6z"/>
				</g>
				<g>
					<line class="st3" x1="436.1" y1="156.1" x2="440.6" y2="154.9"/>
					<path class="st2" d="M440.9,154.8l-4.4,1.1c-0.4,0.1-0.7,0-0.8-0.4c-0.1-0.4,0.1-0.7,0.5-0.7l4.4-1.1c0.4-0.1,0.7,0,0.8,0.4
						S441.3,154.7,440.9,154.8z"/>
				</g>
				<g>
					<path class="st2" d="M789.2,492L741,540.2c-1.8,1.8-1.6,4.8,0.4,6.4c15.1,11.8,37.1,10.8,51-3.2c13.9-13.9,15-35.9,3.2-51
						C794,490.4,791,490.2,789.2,492z"/>
					<circle class="st2" cx="753.5" cy="504.5" r="4.6"/>
					<circle class="st2" cx="782.2" cy="533.2" r="6.2"/>
					<circle class="st2" cx="792.5" cy="543.5" r="6.2"/>
					<path class="st2" d="M804,580h-23.1c-1.3,0-2.3-1.3-1.9-2.6l6.6-23.5c0.2-0.9,1-1.5,1.9-1.5h9.8c0.9,0,1.7,0.6,1.9,1.5
						l6.6,23.5C806.3,578.7,805.3,580,804,580z"/>
				</g>
				<g>
					<circle class="st2" cx="472.2" cy="573.9" r="6.1"/>
					<circle class="st2" cx="457.2" cy="573.9" r="6.1"/>
					<circle class="st2" cx="515.7" cy="573.9" r="6.1"/>
					<circle class="st2" cx="500.8" cy="573.9" r="6.1"/>
					<circle class="st2" cx="427.2" cy="573.9" r="6.1"/>
					<path class="st2" d="M437.7,546.7h-19.2c-1.7,0-3.2,1.4-3.2,3.2v20.9c0,1.7,1.4,3.2,3.2,3.2h19.2c1.7,0,3.2-1.4,3.2-3.2v-20.9
						C440.9,548.1,439.5,546.7,437.7,546.7z"/>
					<path class="st2" d="M526.8,534.2h-77.7c-1.7,0-3.2,1.4-3.2,3.2v33.4c0,1.7,1.4,3.2,3.2,3.2h77.7c1.7,0,3.2-1.4,3.2-3.2v-33.4
						C530,535.6,528.6,534.2,526.8,534.2z"/>
					<rect x="435.1" y="567.8" class="st2" width="25.3" height="6.1"/>
				</g>
				<g>
					
						<linearGradient id="SVGID_3_" gradientUnits="userSpaceOnUse" x1="244.9367" y1="788.4523" x2="714.9365" y2="478.4524" gradientTransform="matrix(1 0 0 1 0 -318)">
						<stop  offset="0" style="stop-color:#007ADC;stop-opacity:0"/>
						<stop  offset="1" style="stop-color:#007ADC"/>
					</linearGradient>
					<path class="st4" d="M708.6,177.6l-27.6-5.3l5.6-28.7c-390.3,244-786.1,307.7-895.5,145.6L240,954.3
						C130.6,792.3,336.8,448.2,708.6,177.6z"/>
				</g>
				<g>
					<path class="st5" d="M695,161.2l3.1-16c1.7-8.8,10.2-14.6,19.1-12.9l0,0c8.8,1.7,14.6,10.2,12.9,19.1l0,0
						c-1.7,8.8-10.2,14.6-19.1,12.9L695,161.2z"/>
					<path class="st5" d="M742.9,129.2c8.7,13,10.5,28.6,6.1,42.4c-1.4,4.6,3.2,8.8,7.6,6.9c3.4-1.5,6.7-3.4,9.8-5.8
						c20.1-15.3,25.3-44.3,11.7-65.6c-15-23.4-46.2-29.8-69-14.3c-2.4,1.6-4.6,3.4-6.6,5.3c-3.5,3.3-1.3,9.3,3.5,9.6
						C720.3,108.9,734.2,116.3,742.9,129.2z"/>
					<path class="st6" d="M728.1,144.5c2,3,5.5,4.6,9,4.1c26.3-3.1,55-6.4,72-17.9c23-15.6,36.9-39.6,40.2-65.2
						c0.7-5.3-2.7-10.4-7.9-11.7c-24.9-6.5-52.4-2.6-75.5,12.9c-17,11.5-30.8,36.8-43.5,60.1c-1.7,3.1-1.5,7,0.5,9.9L728.1,144.5z"
						/>
					
						<ellipse transform="matrix(0.8288 -0.5595 0.5595 0.8288 83.2994 460.5362)" class="st5" cx="794.3" cy="94.1" rx="20.7" ry="20.7"/>
				</g>
				<polygon class="st2" points="1370.1,443 1566.1,583 1174,583 				"/>
				<polygon class="st2" points="-430.1,443 -234,583 -626.1,583 				"/>
				<polygon class="st2" points="-292.6,497 -172.1,583 -413,583 				"/>
				<polygon class="st2" points="1139.8,515 1235,583 1044.5,583 				"/>
				<polygon class="st2" points="-125.3,533.2 -55.5,583 -195,583 				"/>
				<circle class="st7" cx="794.4" cy="94.1" r="15.6"/>
				<g>
					<path class="st2" d="M-49.7,531.8l5.7,12.6c0.4,0.9-0.3,2-1.3,2h-11.4c-1,0-1.7-1.1-1.3-2l5.7-12.6
						C-51.8,530.7-50.2,530.7-49.7,531.8z"/>
					<path class="st2" d="M-49.7,538.2l9.2,20.2c0.4,0.9-0.3,2-1.3,2h-18.3c-1,0-1.7-1.1-1.3-2l9.2-20.2
						C-51.8,537.1-50.2,537.1-49.7,538.2z"/>
					<path class="st2" d="M-49.7,546.2l12.6,27.8c0.4,0.9-0.3,2-1.3,2h-25.2c-1,0-1.7-1.1-1.3-2l12.6-27.8
						C-51.8,545.1-50.2,545.1-49.7,546.2z"/>
					<path class="st2" d="M-49.9,565.8h-2.2c-0.8,0-1.4,0.6-1.4,1.4V580h5v-12.8C-48.5,566.4-49.1,565.8-49.9,565.8z"/>
				</g>
				<g>
					<g>
						<path class="st2" d="M1042.3,531.3l5.7,12.6c0.4,0.9-0.3,2-1.3,2h-11.4c-1,0-1.7-1.1-1.3-2l5.7-12.6
							C1040.2,530.2,1041.8,530.2,1042.3,531.3z"/>
						<path class="st2" d="M1042.3,537.7l9.2,20.2c0.4,0.9-0.3,2-1.3,2h-18.3c-1,0-1.7-1.1-1.3-2l9.2-20.2
							C1040.2,536.6,1041.8,536.6,1042.3,537.7z"/>
						<path class="st2" d="M1042.3,545.7l12.6,27.8c0.4,0.9-0.3,2-1.3,2h-25.2c-1,0-1.7-1.1-1.3-2l12.6-27.8
							C1040.2,544.6,1041.8,544.6,1042.3,545.7z"/>
						<path class="st2" d="M1042.1,565.3h-2.2c-0.8,0-1.4,0.6-1.4,1.4V580h5v-13.3C1043.5,565.9,1042.9,565.3,1042.1,565.3z"/>
					</g>
					<g>
						<path class="st2" d="M984.5,541.6l4.3,9.5c0.3,0.7-0.2,1.5-1,1.5h-8.6c-0.8,0-1.3-0.8-1-1.5l4.3-9.5
							C982.9,540.8,984.1,540.8,984.5,541.6z"/>
						<path class="st2" d="M984.5,546.4l6.9,15.2c0.3,0.7-0.2,1.5-1,1.5h-13.7c-0.8,0-1.3-0.8-1-1.5l6.9-15.2
							C982.9,545.6,984.1,545.6,984.5,546.4z"/>
						<path class="st2" d="M984.5,552.4l9.4,20.9c0.3,0.7-0.2,1.5-1,1.5H974c-0.8,0-1.3-0.8-1-1.5l9.4-20.9
							C982.9,551.6,984.1,551.6,984.5,552.4z"/>
						<path class="st2" d="M984.2,567.1h-1.3c-0.7,0-1.2,0.5-1.2,1.2V580h3.7v-11.7C985.4,567.7,984.8,567.1,984.2,567.1z"/>
					</g>
					<g>
						<path class="st2" d="M1021.8,521.5l7,15.5c0.5,1.1-0.3,2.4-1.6,2.4h-14.1c-1.3,0-2.1-1.3-1.6-2.4l7-15.5
							C1019.3,520.1,1021.2,520.1,1021.8,521.5z"/>
						<path class="st2" d="M1021.8,529.3l11.3,24.9c0.5,1.1-0.3,2.4-1.6,2.4H1009c-1.3,0-2.1-1.3-1.6-2.4l11.3-24.9
							C1019.3,528,1021.2,528,1021.8,529.3z"/>
						<path class="st2" d="M1021.8,537.3l15.5,34.3c0.5,1.1-0.3,2.4-1.6,2.4h-31.1c-1.3,0-2.1-1.3-1.6-2.4l15.5-34.3
							C1019.3,535.9,1021.2,535.9,1021.8,537.3z"/>
						<path class="st2" d="M1021.6,563.4h-2.7c-1,0-1.7,0.8-1.7,1.7V580h6.2v-14.9C1023.3,564.1,1022.6,563.4,1021.6,563.4z"/>
					</g>
				</g>
				<g>
					<path class="st2" d="M-195.7,533.3l5.7,12.6c0.4,0.9-0.3,2-1.3,2h-11.4c-1,0-1.7-1.1-1.3-2l5.7-12.6
						C-197.8,532.2-196.2,532.2-195.7,533.3z"/>
					<path class="st2" d="M-195.7,539.7l9.2,20.2c0.4,0.9-0.3,2-1.3,2h-18.3c-1,0-1.7-1.1-1.3-2l9.2-20.2
						C-197.8,538.6-196.2,538.6-195.7,539.7z"/>
					<path class="st2" d="M-195.7,547.7l12.6,27.8c0.4,0.9-0.3,2-1.3,2h-25.2c-1,0-1.7-1.1-1.3-2l12.6-27.8
						C-197.8,546.6-196.2,546.6-195.7,547.7z"/>
					<path class="st2" d="M-195.9,567.3h-2.2c-0.8,0-1.4,0.6-1.4,1.4V584h5v-15.3C-194.5,567.9-195.1,567.3-195.9,567.3z"/>
				</g>
				<g>
					<path class="st2" d="M-33.2,550.5l3.7,8.1c0.3,0.6-0.2,1.3-0.8,1.3h-7.3c-0.7,0-1.1-0.7-0.8-1.3l3.7-8.1
						C-34.5,549.8-33.5,549.8-33.2,550.5z"/>
					<path class="st2" d="M-33.2,554.6l5.9,13c0.3,0.6-0.2,1.3-0.8,1.3h-11.8c-0.7,0-1.1-0.7-0.8-1.3l5.9-13
						C-34.5,553.9-33.5,553.9-33.2,554.6z"/>
					<path class="st2" d="M-33.2,559.7l8.1,17.9c0.3,0.6-0.2,1.3-0.8,1.3h-16.2c-0.7,0-1.1-0.7-0.8-1.3l8.1-17.9
						C-34.5,559-33.5,559-33.2,559.7z"/>
					<path class="st2" d="M-33.3,572.3h-1.4c-0.5,0-0.9,0.4-0.9,0.9v6.8h3.2v-6.8C-32.4,572.7-32.8,572.3-33.3,572.3z"/>
				</g>
				<g>
					<path class="st2" d="M105,497H92h-2.5c-2.5,0-4.5,2-4.5,4.5v2.5v79h7v-79h13v79h7v-79v-2.5c0-2.5-2-4.5-4.5-4.5H105z"/>
					<rect x="89" y="515.2" class="st2" width="17" height="2"/>
					
						<rect x="98" y="495.5" transform="matrix(0.7071 -0.7071 0.7071 0.7071 -331.6211 219.3647)" class="st2" width="2" height="29"/>
					
						<rect x="98" y="508.5" transform="matrix(0.7071 -0.7071 0.7071 0.7071 -340.8134 223.1723)" class="st2" width="2" height="29"/>
					
						<rect x="98" y="521.5" transform="matrix(0.7071 -0.7071 0.7071 0.7071 -350.0249 226.9878)" class="st2" width="2" height="29"/>
					
						<rect x="98" y="535.5" transform="matrix(0.7071 -0.7071 0.7071 0.7071 -359.9053 231.0804)" class="st2" width="2" height="29"/>
					
						<rect x="98" y="548.5" transform="matrix(0.7071 -0.7071 0.7071 0.7071 -369.0976 234.888)" class="st2" width="2" height="29"/>
					
						<rect x="98" y="561.5" transform="matrix(0.7071 -0.7071 0.7071 0.7071 -378.3091 238.7035)" class="st2" width="2" height="29"/>
					<rect x="89" y="502" class="st2" width="17" height="2"/>
					<rect x="89" y="528.3" class="st2" width="17" height="2"/>
					<rect x="89" y="541.5" class="st2" width="17" height="2"/>
					<rect x="89" y="567.8" class="st2" width="17" height="2"/>
					<rect x="89" y="554.7" class="st2" width="17" height="2"/>
					<rect x="89" y="581" class="st2" width="17" height="2"/>
				</g>
				<rect x="117" y="577" class="st2" width="75" height="3"/>
			</g>
		</g>
	</g>
</g>
<path class="st8" d="M298.3,190.7c-4.8,0-8.7,3.9-8.7,8.7s3.9,8.7,8.7,8.7s8.7-3.9,8.7-8.7S303.1,190.7,298.3,190.7z M298.3,194.3
	c0.9,0,1.6,0.7,1.6,1.6c0,0.9-0.7,1.6-1.6,1.6c-0.9,0-1.6-0.7-1.6-1.6C296.6,195,297.4,194.3,298.3,194.3z M300.4,204h-4.2
	c-0.3,0-0.5-0.2-0.5-0.5c0-0.3,0.2-0.5,0.5-0.5h0.5v-3.6v0h-0.5c-0.3,0-0.5-0.2-0.5-0.5c0-0.3,0.2-0.5,0.5-0.5h3.3
	c0.2,0,0.4,0.2,0.4,0.4v4.2h0.5c0.3,0,0.5,0.2,0.5,0.5C300.9,203.8,300.7,204,300.4,204z"/>
</svg>
