<?xml version="1.0" encoding="utf-8"?>
<!-- Generator: Adobe Illustrator 19.2.1, SVG Export Plug-In . SVG Version: 6.00 Build 0)  -->
<svg version="1.1" id="puzzle" xmlns="http://www.w3.org/2000/svg" xmlns:xlink="http://www.w3.org/1999/xlink" x="0px" y="0px"
	 width="340px" height="240px" viewBox="0 0 340 240" style="enable-background:new 0 0 340 240;" xml:space="preserve">
<style type="text/css">
	.st0{fill:#074B89;}
	.st1{clip-path:url(#SVGID_2_);}
	.st2{fill:#006DBA;}
	.st3{fill:none;}
	.st4{fill:url(#SVGID_3_);}
	.st5{fill:#E3EAF4;}
	.st6{fill:#CEDAE3;}
	.st7{fill:#005F99;}
	.st8{fill:#035CA1;}
</style>
<title>svg-sources</title>
<path class="st0" d="M319,97.1V26c0-3.3-2.7-6-6-6H27c-3.3,0-6,2.7-6,6v64v7.1c11.7,1,21,10.9,21,22.9s-9.3,21.9-21,22.9V174v40
	c0,3.3,2.7,6,6,6h122.1c0.5,11.1,9.7,20,20.9,20c11.3,0,20.4-8.9,20.9-20H313c3.3,0,6-2.7,6-6v-71.1c-11.7-1-21-10.9-21-22.9
	S307.3,98.1,319,97.1z"/>
<g>
	<g>
		<g>
			<defs>
				<path id="SVGID_1_" d="M319,97.1V26c0-3.3-2.7-6-6-6H27c-3.3,0-6,2.7-6,6v64v7.1c11.7,1,21,10.9,21,22.9s-9.3,21.9-21,22.9V174
					v40c0,3.3,2.7,6,6,6h122.1c0.5,11.1,9.7,20,20.9,20c11.3,0,20.4-8.9,20.9-20H313c3.3,0,6-2.7,6-6v-71.1c-11.7-1-21-10.9-21-22.9
					S307.3,98.1,319,97.1z"/>
			</defs>
			<clipPath id="SVGID_2_">
				<use xlink:href="#SVGID_1_"  style="overflow:visible;"/>
			</clipPath>
			<g class="st1">
				<rect x="-965" y="582" class="st2" width="2266" height="45"/>
				<path class="st2" d="M-508.2,288.7L-508.2,288.7L-508.2,288.7z"/>
				<g>
					
						<ellipse transform="matrix(0.9776 -0.2104 0.2104 0.9776 -22.9522 -33.1349)" class="st2" cx="-167.2" cy="91.3" rx="20.5" ry="20.5"/>
					
						<ellipse transform="matrix(0.9776 -0.2104 0.2104 0.9776 -21.3786 -28.3442)" class="st2" cx="-143.9" cy="86.3" rx="1.5" ry="1.5"/>
					<path class="st2" d="M-191.5,98.3l-24.6,5.3c-0.9,0.2-1.9-0.4-2.1-1.3l0,0c-0.2-0.9,0.4-1.9,1.3-2.1l24.6-5.3
						c0.9-0.2,1.9,0.4,2.1,1.3l0,0C-190,97.2-190.6,98.1-191.5,98.3z"/>
					<g>
						<path class="st2" d="M-182.7,112.4l-22.6,11.1c-0.9,0.4-1.9,0.1-2.3-0.8l0,0c-0.4-0.9-0.1-1.9,0.8-2.3l22.6-11.1
							c0.9-0.4,1.9-0.1,2.3,0.8l0,0C-181.5,111-181.9,112-182.7,112.4z"/>
						<path class="st2" d="M-190.1,78.4l-25.2-0.9c-1,0-1.8,0.7-1.8,1.7l0,0c0,1,0.7,1.8,1.7,1.8l25.2,0.9c1,0,1.8-0.7,1.8-1.7l0,0
							C-188.4,79.3-189.1,78.5-190.1,78.4z"/>
					</g>
				</g>
				<path class="st2" d="M-89,135.7L-89,135.7c0.5-1.7-0.5-3.4-2.2-3.9l0,0c-1.7-0.5-3.4,0.5-3.9,2.2l0,0c-0.6,2-2.7,3.2-4.7,2.6
					l0,0c-1.7-0.5-3.4,0.5-3.9,2.2l0,0c-0.5,1.7,0.5,3.4,2.2,3.9l0,0c2,0.6,3.2,2.7,2.6,4.7l0,0c-0.5,1.7,0.5,3.4,2.2,3.9l0,0
					c1.7,0.5,3.4-0.5,3.9-2.2l0,0c0.6-2,2.7-3.2,4.7-2.6l0,0c1.7,0.5,3.4-0.5,3.9-2.2l0,0c0.5-1.7-0.5-3.4-2.2-3.9l0,0
					C-88.4,139.8-89.6,137.7-89,135.7z"/>
				<path class="st2" d="M130.6,67.9L130.6,67.9c-1.1-1.4-3.1-1.6-4.4-0.5l0,0c-1.4,1.1-1.6,3.1-0.5,4.4l0,0c1.3,1.6,1,4-0.6,5.3
					l0,0c-1.4,1.1-1.6,3.1-0.5,4.4l0,0c1.1,1.4,3.1,1.6,4.4,0.5l0,0c1.6-1.3,4-1,5.3,0.6l0,0c1.1,1.4,3.1,1.6,4.4,0.5l0,0
					c1.4-1.1,1.6-3.1,0.5-4.4l0,0c-1.3-1.6-1-4,0.6-5.3l0,0c1.4-1.1,1.6-3.1,0.5-4.4l0,0c-1.1-1.4-3.1-1.6-4.4-0.5l0,0
					C134.3,69.8,131.9,69.5,130.6,67.9z"/>
				<path class="st2" d="M-383.4,132.2L-383.4,132.2c1.2-1.3,1-3.3-0.3-4.5l0,0c-1.3-1.2-3.3-1-4.5,0.3l0,0
					c-1.4,1.6-3.8,1.7-5.4,0.4l0,0c-1.3-1.2-3.3-1-4.5,0.3l0,0c-1.2,1.3-1,3.3,0.3,4.5l0,0c1.6,1.4,1.7,3.8,0.4,5.4l0,0
					c-1.2,1.3-1,3.3,0.3,4.5l0,0c1.3,1.2,3.3,1,4.5-0.3l0,0c1.4-1.6,3.8-1.7,5.4-0.4l0,0c1.3,1.2,3.3,1,4.5-0.3l0,0
					c1.2-1.3,1-3.3-0.3-4.5l0,0C-384.7,136.2-384.8,133.8-383.4,132.2z"/>
				<path class="st2" d="M-654.6,143L-654.6,143c1,0.6,2.4,0.3,3.1-0.7l0,0c0.6-1,0.3-2.4-0.7-3.1l0,0c-1.3-0.8-1.7-2.4-0.9-3.7l0,0
					c0.6-1,0.3-2.4-0.7-3.1l0,0c-1-0.6-2.4-0.3-3.1,0.7l0,0c-0.8,1.3-2.4,1.7-3.7,0.9l0,0c-1-0.6-2.4-0.3-3.1,0.7l0,0
					c-0.6,1-0.3,2.4,0.7,3.1l0,0c1.3,0.8,1.7,2.4,0.9,3.7l0,0c-0.6,1-0.3,2.4,0.7,3.1l0,0c1,0.6,2.4,0.3,3.1-0.7l0,0
					C-657.5,142.7-655.8,142.3-654.6,143z"/>
				<path class="st2" d="M533.4,164.3L533.4,164.3c-0.6-0.8-1.8-1-2.6-0.3l0,0c-0.8,0.6-1,1.8-0.3,2.6l0,0c0.8,1,0.6,2.4-0.4,3.2
					l0,0c-0.8,0.6-1,1.8-0.3,2.6l0,0c0.6,0.8,1.8,1,2.6,0.3l0,0c1-0.8,2.4-0.6,3.2,0.4l0,0c0.6,0.8,1.8,1,2.6,0.3l0,0
					c0.8-0.6,1-1.8,0.3-2.6l0,0c-0.8-1-0.6-2.4,0.4-3.2l0,0c0.8-0.6,1-1.8,0.3-2.6l0,0c-0.6-0.8-1.8-1-2.6-0.3l0,0
					C535.6,165.5,534.1,165.3,533.4,164.3z"/>
				<path class="st2" d="M757.1,140.7L757.1,140.7c0.4-1-0.1-2-1.1-2.4l0,0c-1-0.4-2,0.1-2.4,1.1l0,0c-0.4,1.2-1.8,1.7-2.9,1.3l0,0
					c-1-0.4-2,0.1-2.4,1.1l0,0c-0.4,1,0.1,2,1.1,2.4l0,0c1.2,0.4,1.7,1.8,1.3,2.9l0,0c-0.4,1,0.1,2,1.1,2.4l0,0c1,0.4,2-0.1,2.4-1.1
					l0,0c0.4-1.2,1.8-1.7,2.9-1.3l0,0c1,0.4,2-0.1,2.4-1.1l0,0c0.4-1-0.1-2-1.1-2.4l0,0C757.2,143.2,756.7,141.9,757.1,140.7z"/>
				<path class="st2" d="M1006.5,89.5L1006.5,89.5c0.4-1-0.1-2-1.1-2.4l0,0c-1-0.4-2,0.1-2.4,1.1l0,0c-0.4,1.2-1.8,1.7-2.9,1.3l0,0
					c-1-0.4-2,0.1-2.4,1.1l0,0c-0.4,1,0.1,2,1.1,2.4l0,0c1.2,0.4,1.7,1.8,1.3,2.9l0,0c-0.4,1,0.1,2,1.1,2.4l0,0c1,0.4,2-0.1,2.4-1.1
					l0,0c0.4-1.2,1.8-1.7,2.9-1.3l0,0c1,0.4,2-0.1,2.4-1.1l0,0c0.4-1-0.1-2-1.1-2.4l0,0C1006.6,92,1006.1,90.7,1006.5,89.5z"/>
				<path class="st2" d="M-62.4,86.4L-62.4,86.4c-0.2-0.9-1.1-1.5-2-1.2l0,0c-0.9,0.2-1.5,1.1-1.2,2l0,0c0.2,1.1-0.4,2.2-1.5,2.4
					l0,0c-0.9,0.2-1.5,1.1-1.2,2l0,0c0.2,0.9,1.1,1.5,2,1.2l0,0c1.1-0.2,2.2,0.4,2.4,1.5l0,0c0.2,0.9,1.1,1.5,2,1.2l0,0
					c0.9-0.2,1.5-1.1,1.2-2l0,0c-0.2-1.1,0.4-2.2,1.5-2.4l0,0c0.9-0.2,1.5-1.1,1.2-2l0,0c-0.2-0.9-1.1-1.5-2-1.2l0,0
					C-61.1,88.2-62.2,87.5-62.4,86.4z"/>
				<path class="st2" d="M200.9,164.1L200.9,164.1c0.5-0.8,0.3-1.8-0.5-2.3l0,0c-0.8-0.5-1.8-0.3-2.3,0.5l0,0
					c-0.6,0.9-1.8,1.2-2.8,0.6l0,0c-0.8-0.5-1.8-0.3-2.3,0.5l0,0c-0.5,0.8-0.3,1.8,0.5,2.3l0,0c0.9,0.6,1.2,1.8,0.6,2.8l0,0
					c-0.5,0.8-0.3,1.8,0.5,2.3l0,0c0.8,0.5,1.8,0.3,2.3-0.5l0,0c0.6-0.9,1.8-1.2,2.8-0.6l0,0c0.8,0.5,1.8,0.3,2.3-0.5l0,0
					c0.5-0.8,0.3-1.8-0.5-2.3l0,0C200.5,166.3,200.2,165,200.9,164.1z"/>
				<g>
					<path class="st2" d="M181.1,102.9c3.7,14.1,17.8,22.9,32.1,19.8c14.3-3.1,23.6-17,21-31.3L181.1,102.9z"/>
					<path class="st2" d="M201.6,69.4c-14.3,3.1-23.6,17-21,31.3l53.2-11.5C230.1,75.1,216,66.3,201.6,69.4z M223.6,85.7
						c-2,2.6-6.6,2.5-10.2-0.2c-3.6-2.8-4.8-7.1-2.8-9.8c2-2.6,6.6-2.5,10.2,0.2C224.4,78.7,225.6,83.1,223.6,85.7z"/>
				</g>
				<path class="st2" d="M131.2,153.4l1.9-0.4c0.8-0.2,1.5,0.7,1.1,1.4l-0.8,1.8l1,1.7c0.4,0.7-0.2,1.6-1,1.5l-2-0.2l-1.3,1.5
					c-0.6,0.6-1.6,0.3-1.8-0.5l-0.4-1.9l-1.8-0.8c-0.8-0.3-0.8-1.4-0.1-1.8l1.7-1l0.2-2c0.1-0.8,1.1-1.2,1.7-0.6L131.2,153.4z"/>
				<path class="st2" d="M420.2,52.1l2.7-1.4c1.2-0.6,2.6,0.4,2.3,1.7l-0.5,3.1l2.2,2.2c1,0.9,0.4,2.6-0.9,2.7l-3.1,0.4l-1.4,2.8
					c-0.6,1.2-2.3,1.2-2.9,0l-1.4-2.8l-3.1-0.4c-1.3-0.2-1.8-1.8-0.9-2.7l2.2-2.2l-0.5-3.1c-0.2-1.3,1.2-2.3,2.3-1.7L420.2,52.1z"/>
				<path class="st2" d="M714.1,88l3.5,1.6c1.5,0.7,1.5,2.8,0.1,3.6l-3.4,1.8l-0.5,3.8c-0.2,1.7-2.2,2.4-3.4,1.2l-2.8-2.7l-3.8,0.7
					c-1.6,0.3-2.9-1.4-2.2-2.9l1.7-3.5l-1.9-3.4c-0.8-1.5,0.4-3.2,2.1-3l3.8,0.6l2.6-2.8c1.1-1.2,3.2-0.6,3.5,1.1L714.1,88z"/>
				<path class="st2" d="M477.8,334.7L477.8,334.7c-0.6-0.8-1.8-1-2.6-0.3l0,0c-0.8,0.6-1,1.8-0.3,2.6l0,0c0.8,1,0.6,2.4-0.4,3.2
					l0,0c-0.8,0.6-1,1.8-0.3,2.6l0,0c0.6,0.8,1.8,1,2.6,0.3l0,0c1-0.8,2.4-0.6,3.2,0.4l0,0c0.6,0.8,1.8,1,2.6,0.3l0,0
					c0.8-0.6,1-1.8,0.3-2.6l0,0c-0.8-1-0.6-2.4,0.4-3.2l0,0c0.8-0.6,1-1.8,0.3-2.6l0,0c-0.6-0.8-1.8-1-2.6-0.3l0,0
					C480,335.9,478.6,335.7,477.8,334.7z"/>
				<path class="st2" d="M-347.2,266.7L-347.2,266.7c-0.6-0.8-1.8-1-2.6-0.3l0,0c-0.8,0.6-1,1.8-0.3,2.6l0,0c0.8,1,0.6,2.4-0.4,3.2
					l0,0c-0.8,0.6-1,1.8-0.3,2.6l0,0c0.6,0.8,1.8,1,2.6,0.3l0,0c1-0.8,2.4-0.6,3.2,0.4l0,0c0.6,0.8,1.8,1,2.6,0.3l0,0
					c0.8-0.6,1-1.8,0.3-2.6l0,0c-0.8-1-0.6-2.4,0.4-3.2l0,0c0.8-0.6,1-1.8,0.3-2.6l0,0c-0.6-0.8-1.8-1-2.6-0.3l0,0
					C-345,267.9-346.4,267.7-347.2,266.7z"/>
				<path class="st2" d="M414.8,260l2.7-1.4c1.2-0.6,2.6,0.4,2.3,1.7l-0.5,3.1l2.2,2.2c1,0.9,0.4,2.6-0.9,2.7l-3.1,0.4l-1.4,2.8
					c-0.6,1.2-2.3,1.2-2.9,0l-1.4-2.8l-3.1-0.4c-1.3-0.2-1.8-1.8-0.9-2.7l2.2-2.2l-0.5-3.1c-0.2-1.3,1.2-2.3,2.3-1.7L414.8,260z"/>
				<path class="st2" d="M-150.5,165l2.1-1.1c0.9-0.5,1.9,0.3,1.8,1.3l-0.4,2.3l1.7,1.6c0.7,0.7,0.3,1.9-0.7,2.1l-2.3,0.3l-1,2.1
					c-0.4,0.9-1.7,0.9-2.2,0l-1-2.1l-2.3-0.3c-1-0.1-1.4-1.4-0.7-2.1l1.7-1.6l-0.4-2.3c-0.2-1,0.9-1.7,1.8-1.3L-150.5,165z"/>
				<path class="st2" d="M-473.4,87l0.6-2.2c0.3-1,1.5-1.2,2.1-0.4l1.4,1.9l2.3-0.1c1,0,1.6,1.1,1,1.9l-1.3,1.9l0.8,2.2
					c0.4,0.9-0.5,1.9-1.5,1.6l-2.2-0.7l-1.8,1.4c-0.8,0.6-1.9,0.1-2-0.9v-2.3l-1.9-1.3c-0.8-0.6-0.7-1.8,0.3-2.2L-473.4,87z"/>
				<path class="st2" d="M-84.1,276.5L-84.1,276.5c0.9-0.7,1-2,0.3-2.9l0,0c-0.7-0.9-2-1-2.9-0.3l0,0c-1,0.9-2.6,0.7-3.4-0.3l0,0
					c-0.7-0.9-2-1-2.9-0.3l0,0c-0.9,0.7-1,2-0.3,2.9l0,0c0.9,1,0.7,2.6-0.3,3.4l0,0c-0.9,0.7-1,2-0.3,2.9l0,0c0.7,0.9,2,1,2.9,0.3
					l0,0c1-0.9,2.6-0.7,3.4,0.3l0,0c0.7,0.9,2,1,2.9,0.3l0,0c0.9-0.7,1-2,0.3-2.9l0,0C-85.3,278.9-85.1,277.3-84.1,276.5z"/>
				<path class="st2" d="M722.3,300.2L722.3,300.2c0.9-0.7,1-2,0.3-2.9l0,0c-0.7-0.9-2-1-2.9-0.3l0,0c-1,0.9-2.6,0.7-3.4-0.3l0,0
					c-0.7-0.9-2-1-2.9-0.3l0,0c-0.9,0.7-1,2-0.3,2.9l0,0c0.9,1,0.7,2.6-0.3,3.4l0,0c-0.9,0.7-1,2-0.3,2.9l0,0c0.7,0.9,2,1,2.9,0.3
					l0,0c1-0.9,2.6-0.7,3.4,0.3l0,0c0.7,0.9,2,1,2.9,0.3l0,0c0.9-0.7,1-2,0.3-2.9l0,0C721.1,302.6,721.2,301.1,722.3,300.2z"/>
				<path class="st2" d="M-423.8,292.2L-423.8,292.2c0.9-0.7,1-2,0.3-2.9l0,0c-0.7-0.9-2-1-2.9-0.3l0,0c-1,0.9-2.6,0.7-3.4-0.3l0,0
					c-0.7-0.9-2-1-2.9-0.3l0,0c-0.9,0.7-1,2-0.3,2.9l0,0c0.9,1,0.7,2.6-0.3,3.4l0,0c-0.9,0.7-1,2-0.3,2.9l0,0c0.7,0.9,2,1,2.9,0.3
					l0,0c1-0.9,2.6-0.7,3.4,0.3l0,0c0.7,0.9,2,1,2.9,0.3l0,0c0.9-0.7,1-2,0.3-2.9l0,0C-424.9,294.6-424.8,293.1-423.8,292.2z"/>
				<path class="st2" d="M534.1,294.6L534.1,294.6c0.9-0.7,1-2,0.3-2.9l0,0c-0.7-0.9-2-1-2.9-0.3l0,0c-1,0.9-2.6,0.7-3.4-0.3l0,0
					c-0.7-0.9-2-1-2.9-0.3l0,0c-0.9,0.7-1,2-0.3,2.9l0,0c0.9,1,0.7,2.6-0.3,3.4l0,0c-0.9,0.7-1,2-0.3,2.9l0,0c0.7,0.9,2,1,2.9,0.3
					l0,0c1-0.9,2.6-0.7,3.4,0.3l0,0c0.7,0.9,2,1,2.9,0.3l0,0c0.9-0.7,1-2,0.3-2.9l0,0C532.9,297,533,295.5,534.1,294.6z"/>
				<path class="st2" d="M-173.7,280.7l4.5,0.5c1.9,0.2,2.8,2.6,1.4,3.9l-3.1,3.2l0.9,4.4c0.4,1.9-1.6,3.4-3.3,2.6l-4-2l-3.9,2.2
					c-1.7,0.9-3.7-0.4-3.5-2.4l0.6-4.4l-3.3-3c-1.4-1.3-0.7-3.7,1.2-4l4.4-0.8l1.9-4.1c0.8-1.8,3.3-1.8,4.2-0.1L-173.7,280.7z"/>
				<path class="st2" d="M806.3,270.5l4-2c1.7-0.9,3.7,0.7,3.3,2.6l-0.9,4.4l3.1,3.2c1.3,1.4,0.5,3.7-1.4,3.9l-4.5,0.5l-2.1,4
					c-0.9,1.7-3.4,1.6-4.2-0.1l-1.9-4.1l-4.4-0.8c-1.9-0.3-2.6-2.7-1.2-4l3.3-3l-0.6-4.4c-0.3-1.9,1.8-3.3,3.5-2.4L806.3,270.5z"/>
				
					<ellipse transform="matrix(0.9675 -0.253 0.253 0.9675 -26.985 30.3453)" class="st2" cx="104.5" cy="120.1" rx="2.6" ry="2.6"/>
				
					<ellipse transform="matrix(0.9675 -0.253 0.253 0.9675 -25.5046 34.065)" class="st2" cx="119.7" cy="116.2" rx="3.5" ry="3.5"/>
				
					<ellipse transform="matrix(0.9675 -0.253 0.253 0.9675 -33.9027 41.7533)" class="st2" cx="145.4" cy="152.7" rx="2.6" ry="2.6"/>
				<ellipse transform="matrix(0.9675 -0.253 0.253 0.9675 2.9802 202.3804)" class="st2" cx="788.4" cy="89.6" rx="2.6" ry="2.6"/>
				
					<ellipse transform="matrix(0.9675 -0.253 0.253 0.9675 -52.2398 228.5638)" class="st2" cx="862.6" cy="317.4" rx="2.6" ry="2.6"/>
				
					<ellipse transform="matrix(0.9675 -0.253 0.253 0.9675 -36.9133 34.3486)" class="st2" cx="115.1" cy="160.7" rx="2.6" ry="2.6"/>
				
					<ellipse transform="matrix(0.9675 -0.253 0.253 0.9675 -38.3846 30.7061)" class="st2" cx="100.2" cy="164.6" rx="2.2" ry="2.2"/>
				
					<ellipse transform="matrix(0.9675 -0.253 0.253 0.9675 -30.1815 -94.3119)" class="st2" cx="-381.8" cy="70.2" rx="2.2" ry="2.2"/>
				
					<ellipse transform="matrix(0.9675 -0.253 0.253 0.9675 -87.3278 -115.5109)" class="st2" cx="-492.8" cy="281.8" rx="2.2" ry="2.2"/>
				<g>
					<line class="st3" x1="100.8" y1="157.9" x2="103.9" y2="126.8"/>
					<path class="st2" d="M101,158.6c-0.1,0-0.2,0-0.2,0c-0.4,0-0.6-0.4-0.6-0.7l3-31.1c0-0.4,0.4-0.6,0.7-0.6
						c0.4,0,0.6,0.4,0.6,0.7l-3,31.1C101.5,158.3,101.3,158.5,101,158.6z"/>
				</g>
				<g>
					<line class="st3" x1="115.8" y1="154" x2="117.3" y2="138.4"/>
					<path class="st2" d="M115.9,154.7c-0.1,0-0.2,0-0.2,0c-0.4,0-0.6-0.4-0.6-0.7l1.5-15.5c0-0.4,0.4-0.6,0.7-0.6
						c0.4,0,0.6,0.4,0.6,0.7l-1.5,15.5C116.4,154.4,116.2,154.6,115.9,154.7z"/>
				</g>
				<g>
					<line class="st3" x1="141.6" y1="147.2" x2="123.7" y2="121.6"/>
					<path class="st2" d="M141.7,147.9c-0.3,0.1-0.6,0-0.7-0.3L123.2,122c-0.2-0.3-0.1-0.7,0.2-0.9c0.3-0.2,0.7-0.1,0.9,0.2
						l17.9,25.6c0.2,0.3,0.1,0.7-0.2,0.9C141.9,147.8,141.8,147.9,141.7,147.9z"/>
				</g>
				<g>
					<line class="st3" x1="126" y1="150.2" x2="108.8" y2="125.5"/>
					<path class="st2" d="M126.1,150.9c-0.3,0.1-0.6,0-0.7-0.3l-17.2-24.7c-0.2-0.3-0.1-0.7,0.2-0.9c0.3-0.2,0.7-0.1,0.9,0.2
						l17.2,24.7c0.2,0.3,0.1,0.7-0.2,0.9C126.3,150.8,126.2,150.9,126.1,150.9z"/>
				</g>
				<g>
					<line class="st3" x1="105" y1="164.2" x2="110.8" y2="162.7"/>
					<path class="st2" d="M111,162.6l-6.1,1.6c-0.4,0.1-0.7,0-0.8-0.4c-0.1-0.4,0.1-0.7,0.5-0.7l6.1-1.6c0.4-0.1,0.7,0,0.8,0.4
						S111.3,162.5,111,162.6z"/>
				</g>
				<g>
					<line class="st3" x1="109.2" y1="118.9" x2="113.8" y2="117.7"/>
					<path class="st2" d="M114.3,117.6L109,119c-0.4,0.1-0.7,0-0.8-0.4s0.1-0.7,0.5-0.7l5.3-1.4c0.4-0.1,0.7,0,0.8,0.4
						C114.9,117.2,114.7,117.5,114.3,117.6z"/>
				</g>
				<g>
					<line class="st3" x1="136.1" y1="156.1" x2="140.6" y2="154.9"/>
					<path class="st2" d="M140.9,154.8l-4.4,1.1c-0.4,0.1-0.7,0-0.8-0.4s0.1-0.7,0.5-0.7l4.4-1.1c0.4-0.1,0.7,0,0.8,0.4
						S141.3,154.7,140.9,154.8z"/>
				</g>
				<g>
					<path class="st2" d="M489.2,492L441,540.2c-1.8,1.8-1.6,4.8,0.4,6.4c15.1,11.8,37.1,10.8,51-3.2c13.9-13.9,15-35.9,3.2-51
						C494,490.4,491,490.2,489.2,492z"/>
					<circle class="st2" cx="453.5" cy="504.5" r="4.6"/>
					<circle class="st2" cx="482.2" cy="533.2" r="6.2"/>
					<circle class="st2" cx="492.5" cy="543.5" r="6.2"/>
					<path class="st2" d="M504,580h-23.1c-1.3,0-2.3-1.3-1.9-2.6l6.6-23.5c0.2-0.9,1-1.5,1.9-1.5h9.8c0.9,0,1.7,0.6,1.9,1.5
						l6.6,23.5C506.3,578.7,505.3,580,504,580z"/>
				</g>
				<g>
					<circle class="st2" cx="172.2" cy="573.9" r="6.1"/>
					<circle class="st2" cx="157.2" cy="573.9" r="6.1"/>
					<circle class="st2" cx="215.7" cy="573.9" r="6.1"/>
					<circle class="st2" cx="200.8" cy="573.9" r="6.1"/>
					<circle class="st2" cx="127.2" cy="573.9" r="6.1"/>
					<path class="st2" d="M137.7,546.7h-19.2c-1.7,0-3.2,1.4-3.2,3.2v20.9c0,1.7,1.4,3.2,3.2,3.2h19.2c1.7,0,3.2-1.4,3.2-3.2v-20.9
						C140.9,548.1,139.5,546.7,137.7,546.7z"/>
					<path class="st2" d="M226.8,534.2h-77.7c-1.7,0-3.2,1.4-3.2,3.2v33.4c0,1.7,1.4,3.2,3.2,3.2h77.7c1.7,0,3.2-1.4,3.2-3.2v-33.4
						C230,535.6,228.6,534.2,226.8,534.2z"/>
					<rect x="135.1" y="567.8" class="st2" width="25.3" height="6.1"/>
				</g>
				<g>
					
						<linearGradient id="SVGID_3_" gradientUnits="userSpaceOnUse" x1="-55.0633" y1="788.4524" x2="414.9367" y2="478.4524" gradientTransform="matrix(1 0 0 1 0 -318)">
						<stop  offset="0" style="stop-color:#007ADC;stop-opacity:0"/>
						<stop  offset="1" style="stop-color:#007ADC"/>
					</linearGradient>
					<path class="st4" d="M408.6,177.6l-27.6-5.3l5.6-28.7c-390.3,244-786.1,307.7-895.5,145.6L-60,954.3
						C-169.4,792.3,36.8,448.2,408.6,177.6z"/>
				</g>
				<g>
					<path class="st5" d="M395,161.2l3.1-16c1.7-8.8,10.2-14.6,19.1-12.9l0,0c8.8,1.7,14.6,10.2,12.9,19.1l0,0
						c-1.7,8.8-10.2,14.6-19.1,12.9L395,161.2z"/>
					<path class="st5" d="M442.9,129.2c8.7,13,10.5,28.6,6.1,42.4c-1.4,4.6,3.2,8.8,7.6,6.9c3.4-1.5,6.7-3.4,9.8-5.8
						c20.1-15.3,25.3-44.3,11.7-65.6c-15-23.4-46.2-29.8-69-14.3c-2.4,1.6-4.6,3.4-6.6,5.3c-3.5,3.3-1.3,9.3,3.5,9.6
						C420.3,108.9,434.2,116.3,442.9,129.2z"/>
					<path class="st6" d="M428.1,144.5c2,3,5.5,4.6,9,4.1c26.3-3.1,55-6.4,72-17.9c23-15.6,36.9-39.6,40.2-65.2
						c0.7-5.3-2.7-10.4-7.9-11.7c-24.9-6.5-52.4-2.6-75.5,12.9c-17,11.5-30.8,36.8-43.5,60.1c-1.7,3.1-1.5,7,0.5,9.9L428.1,144.5z"
						/>
					
						<ellipse transform="matrix(0.8288 -0.5595 0.5595 0.8288 31.9918 292.7232)" class="st5" cx="494.4" cy="94.1" rx="20.7" ry="20.7"/>
				</g>
				<polygon class="st2" points="1070.1,443 1266.1,583 874,583 				"/>
				<polygon class="st2" points="-730.1,443 -534,583 -926.1,583 				"/>
				<polygon class="st2" points="-592.6,497 -472.1,583 -713,583 				"/>
				<polygon class="st2" points="839.8,515 935,583 744.5,583 				"/>
				<polygon class="st2" points="-425.3,533.2 -355.5,583 -495,583 				"/>
				<circle class="st7" cx="494.4" cy="94.1" r="15.6"/>
				<g>
					<path class="st2" d="M-349.7,531.8l5.7,12.6c0.4,0.9-0.3,2-1.3,2h-11.4c-1,0-1.7-1.1-1.3-2l5.7-12.6
						C-351.8,530.7-350.2,530.7-349.7,531.8z"/>
					<path class="st2" d="M-349.7,538.2l9.2,20.2c0.4,0.9-0.3,2-1.3,2h-18.3c-1,0-1.7-1.1-1.3-2l9.2-20.2
						C-351.8,537.1-350.2,537.1-349.7,538.2z"/>
					<path class="st2" d="M-349.7,546.2l12.6,27.8c0.4,0.9-0.3,2-1.3,2h-25.2c-1,0-1.7-1.1-1.3-2l12.6-27.8
						C-351.8,545.1-350.2,545.1-349.7,546.2z"/>
					<path class="st2" d="M-349.9,565.8h-2.2c-0.8,0-1.4,0.6-1.4,1.4V580h5v-12.8C-348.5,566.4-349.1,565.8-349.9,565.8z"/>
				</g>
				<g>
					<g>
						<path class="st2" d="M742.3,531.3l5.7,12.6c0.4,0.9-0.3,2-1.3,2h-11.4c-1,0-1.7-1.1-1.3-2l5.7-12.6
							C740.2,530.2,741.8,530.2,742.3,531.3z"/>
						<path class="st2" d="M742.3,537.7l9.2,20.2c0.4,0.9-0.3,2-1.3,2h-18.3c-1,0-1.7-1.1-1.3-2l9.2-20.2
							C740.2,536.6,741.8,536.6,742.3,537.7z"/>
						<path class="st2" d="M742.3,545.7l12.6,27.8c0.4,0.9-0.3,2-1.3,2h-25.2c-1,0-1.7-1.1-1.3-2l12.6-27.8
							C740.2,544.6,741.8,544.6,742.3,545.7z"/>
						<path class="st2" d="M742.1,565.3h-2.2c-0.8,0-1.4,0.6-1.4,1.4V580h5v-13.3C743.5,565.9,742.9,565.3,742.1,565.3z"/>
					</g>
					<g>
						<path class="st2" d="M684.5,541.6l4.3,9.5c0.3,0.7-0.2,1.5-1,1.5h-8.6c-0.8,0-1.3-0.8-1-1.5l4.3-9.5
							C682.9,540.8,684.1,540.8,684.5,541.6z"/>
						<path class="st2" d="M684.5,546.4l6.9,15.2c0.3,0.7-0.2,1.5-1,1.5h-13.7c-0.8,0-1.3-0.8-1-1.5l6.9-15.2
							C682.9,545.6,684.1,545.6,684.5,546.4z"/>
						<path class="st2" d="M684.5,552.4l9.4,20.9c0.3,0.7-0.2,1.5-1,1.5H674c-0.8,0-1.3-0.8-1-1.5l9.4-20.9
							C682.9,551.6,684.1,551.6,684.5,552.4z"/>
						<path class="st2" d="M684.2,567.1h-1.3c-0.7,0-1.2,0.5-1.2,1.2V580h3.7v-11.7C685.4,567.7,684.8,567.1,684.2,567.1z"/>
					</g>
					<g>
						<path class="st2" d="M721.8,521.5l7,15.5c0.5,1.1-0.3,2.4-1.6,2.4h-14.1c-1.3,0-2.1-1.3-1.6-2.4l7-15.5
							C719.3,520.1,721.2,520.1,721.8,521.5z"/>
						<path class="st2" d="M721.8,529.3l11.3,24.9c0.5,1.1-0.3,2.4-1.6,2.4H709c-1.3,0-2.1-1.3-1.6-2.4l11.3-24.9
							C719.3,528,721.2,528,721.8,529.3z"/>
						<path class="st2" d="M721.8,537.3l15.5,34.3c0.5,1.1-0.3,2.4-1.6,2.4h-31.1c-1.3,0-2.1-1.3-1.6-2.4l15.5-34.3
							C719.3,535.9,721.2,535.9,721.8,537.3z"/>
						<path class="st2" d="M721.6,563.4h-2.7c-1,0-1.7,0.8-1.7,1.7V580h6.2v-14.9C723.3,564.1,722.6,563.4,721.6,563.4z"/>
					</g>
				</g>
				<g>
					<path class="st2" d="M-495.7,533.3l5.7,12.6c0.4,0.9-0.3,2-1.3,2h-11.4c-1,0-1.7-1.1-1.3-2l5.7-12.6
						C-497.8,532.2-496.2,532.2-495.7,533.3z"/>
					<path class="st2" d="M-495.7,539.7l9.2,20.2c0.4,0.9-0.3,2-1.3,2h-18.3c-1,0-1.7-1.1-1.3-2l9.2-20.2
						C-497.8,538.6-496.2,538.6-495.7,539.7z"/>
					<path class="st2" d="M-495.7,547.7l12.6,27.8c0.4,0.9-0.3,2-1.3,2h-25.2c-1,0-1.7-1.1-1.3-2l12.6-27.8
						C-497.8,546.6-496.2,546.6-495.7,547.7z"/>
					<path class="st2" d="M-495.9,567.3h-2.2c-0.8,0-1.4,0.6-1.4,1.4V584h5v-15.3C-494.5,567.9-495.1,567.3-495.9,567.3z"/>
				</g>
				<g>
					<path class="st2" d="M-333.2,550.5l3.7,8.1c0.3,0.6-0.2,1.3-0.8,1.3h-7.3c-0.7,0-1.1-0.7-0.8-1.3l3.7-8.1
						C-334.5,549.8-333.5,549.8-333.2,550.5z"/>
					<path class="st2" d="M-333.2,554.6l5.9,13c0.3,0.6-0.2,1.3-0.8,1.3h-11.8c-0.7,0-1.1-0.7-0.8-1.3l5.9-13
						C-334.5,553.9-333.5,553.9-333.2,554.6z"/>
					<path class="st2" d="M-333.2,559.7l8.1,17.9c0.3,0.6-0.2,1.3-0.8,1.3h-16.2c-0.7,0-1.1-0.7-0.8-1.3l8.1-17.9
						C-334.5,559-333.5,559-333.2,559.7z"/>
					<path class="st2" d="M-333.3,572.3h-1.4c-0.5,0-0.9,0.4-0.9,0.9v6.8h3.2v-6.8C-332.4,572.7-332.8,572.3-333.3,572.3z"/>
				</g>
				<g>
					<path class="st2" d="M-195,497h-13h-2.5c-2.5,0-4.5,2-4.5,4.5v2.5v79h7v-79h13v79h7v-79v-2.5c0-2.5-2-4.5-4.5-4.5H-195z"/>
					<rect x="-211" y="515.2" class="st2" width="17" height="2"/>
					
						<rect x="-202" y="495.5" transform="matrix(0.7071 -0.7071 0.7071 0.7071 -419.4887 7.2334)" class="st2" width="2" height="29"/>
					
						<rect x="-202" y="508.5" transform="matrix(0.7071 -0.7071 0.7071 0.7071 -428.6811 11.0411)" class="st2" width="2" height="29"/>
					
						<rect x="-202" y="521.5" transform="matrix(0.7071 -0.7071 0.7071 0.7071 -437.8925 14.8566)" class="st2" width="2" height="29"/>
					
						<rect x="-202" y="535.5" transform="matrix(0.7071 -0.7071 0.7071 0.7071 -447.7729 18.9492)" class="st2" width="2" height="29"/>
					
						<rect x="-202" y="548.5" transform="matrix(0.7071 -0.7071 0.7071 0.7071 -456.9653 22.7568)" class="st2" width="2" height="29"/>
					
						<rect x="-202" y="561.5" transform="matrix(0.7071 -0.7071 0.7071 0.7071 -466.1767 26.5723)" class="st2" width="2" height="29"/>
					<rect x="-211" y="502" class="st2" width="17" height="2"/>
					<rect x="-211" y="528.3" class="st2" width="17" height="2"/>
					<rect x="-211" y="541.5" class="st2" width="17" height="2"/>
					<rect x="-211" y="567.8" class="st2" width="17" height="2"/>
					<rect x="-211" y="554.7" class="st2" width="17" height="2"/>
					<rect x="-211" y="581" class="st2" width="17" height="2"/>
				</g>
				<rect x="-183" y="577" class="st2" width="75" height="3"/>
			</g>
		</g>
	</g>
</g>
<path class="st8" d="M298.3,190.6c-4.8,0-8.7,3.9-8.7,8.7s3.9,8.7,8.7,8.7s8.7-3.9,8.7-8.7S303.1,190.6,298.3,190.6z M298.3,194.3
	c0.9,0,1.6,0.7,1.6,1.6c0,0.9-0.7,1.6-1.6,1.6c-0.9,0-1.6-0.7-1.6-1.6C296.7,195,297.4,194.3,298.3,194.3z M300.4,204h-4.2
	c-0.3,0-0.5-0.2-0.5-0.5c0-0.3,0.2-0.5,0.5-0.5h0.5v-3.6v0h-0.5c-0.3,0-0.5-0.2-0.5-0.5c0-0.3,0.2-0.5,0.5-0.5h3.3
	c0.2,0,0.4,0.2,0.4,0.4v4.2h0.5c0.3,0,0.5,0.2,0.5,0.5C300.9,203.7,300.7,204,300.4,204z"/>
</svg>
