<?xml version="1.0" encoding="utf-8"?>
<!-- Generator: Adobe Illustrator 19.2.1, SVG Export Plug-In . SVG Version: 6.00 Build 0)  -->
<svg version="1.1" id="puzzle" xmlns="http://www.w3.org/2000/svg" xmlns:xlink="http://www.w3.org/1999/xlink" x="0px" y="0px"
	 width="340px" height="240px" viewBox="0 0 340 240" style="enable-background:new 0 0 340 240;" xml:space="preserve">
<style type="text/css">
	.st0{fill:#074B89;}
	.st1{clip-path:url(#SVGID_2_);}
	.st2{fill:#006DBA;}
	.st3{fill:none;}
	.st4{fill:url(#SVGID_3_);}
	.st5{fill:#E3EAF4;}
	.st6{fill:#CEDAE3;}
	.st7{fill:#005F99;}
	.st8{fill:#035CA1;}
</style>
<title>svg-sources</title>
<path class="st0" d="M319,97.1V26c0-3.3-2.7-6-6-6H190.9C190.4,8.9,181.3,0,170,0s-20.4,8.9-20.9,20H27c-3.3,0-6,2.7-6,6v71.1
	c11.7,1,21,10.9,21,22.9s-9.3,21.9-21,22.9V214c0,3.3,2.7,6,6,6h118.3c1,0,1.8-0.7,2-1.7c1.8-10.9,11.3-18.3,22.7-18.3
	s20.9,7.4,22.7,18.3c0.2,1,1,1.7,2,1.7H313c3.3,0,6-2.7,6-6v-71.1c-11.7-1-21-10.9-21-22.9S307.3,98.1,319,97.1z"/>
<g>
	<g>
		<g>
			<defs>
				<path id="SVGID_1_" d="M319,97.1V26c0-3.3-2.7-6-6-6H190.9C190.4,8.9,181.3,0,170,0s-20.4,8.9-20.9,20H27c-3.3,0-6,2.7-6,6v71.1
					c11.7,1,21,10.9,21,22.9s-9.3,21.9-21,22.9V214c0,3.3,2.7,6,6,6h118.3c1,0,1.8-0.7,2-1.7c1.8-10.9,11.3-18.3,22.7-18.3
					s20.9,7.4,22.7,18.3c0.2,1,1,1.7,2,1.7H313c3.3,0,6-2.7,6-6v-71.1c-11.7-1-21-10.9-21-22.9S307.3,98.1,319,97.1z"/>
			</defs>
			<clipPath id="SVGID_2_">
				<use xlink:href="#SVGID_1_"  style="overflow:visible;"/>
			</clipPath>
			<g class="st1">
				<rect x="-1265" y="380" class="st2" width="2266" height="45"/>
				<path class="st2" d="M-808.2,86.7L-808.2,86.7L-808.2,86.7z"/>
				<g>
					
						<ellipse transform="matrix(0.9776 -0.2104 0.2104 0.9776 12.8331 -100.7764)" class="st2" cx="-467.2" cy="-110.7" rx="20.5" ry="20.5"/>
					
						<ellipse transform="matrix(0.9776 -0.2104 0.2104 0.9776 14.4066 -95.9856)" class="st2" cx="-443.9" cy="-115.7" rx="1.5" ry="1.5"/>
					<path class="st2" d="M-491.5-103.7l-24.6,5.3c-0.9,0.2-1.9-0.4-2.1-1.3l0,0c-0.2-0.9,0.4-1.9,1.3-2.1l24.6-5.3
						c0.9-0.2,1.9,0.4,2.1,1.3l0,0C-490-104.8-490.6-103.9-491.5-103.7z"/>
					<g>
						<path class="st2" d="M-482.7-89.6l-22.6,11.1c-0.9,0.4-1.9,0.1-2.3-0.8l0,0c-0.4-0.9-0.1-1.9,0.8-2.3l22.6-11.1
							c0.9-0.4,1.9-0.1,2.3,0.8l0,0C-481.5-91-481.9-90-482.7-89.6z"/>
						<path class="st2" d="M-490.1-123.6l-25.2-0.9c-1,0-1.8,0.7-1.8,1.7l0,0c0,1,0.7,1.8,1.7,1.8l25.2,0.9c1,0,1.8-0.7,1.8-1.7l0,0
							C-488.4-122.7-489.1-123.5-490.1-123.6z"/>
					</g>
				</g>
				<path class="st2" d="M-389-66.3L-389-66.3c0.5-1.7-0.5-3.4-2.2-3.9l0,0c-1.7-0.5-3.4,0.5-3.9,2.2l0,0c-0.6,2-2.7,3.2-4.7,2.6
					l0,0c-1.7-0.5-3.4,0.5-3.9,2.2l0,0c-0.5,1.7,0.5,3.4,2.2,3.9l0,0c2,0.6,3.2,2.7,2.6,4.7l0,0c-0.5,1.7,0.5,3.4,2.2,3.9l0,0
					c1.7,0.5,3.4-0.5,3.9-2.2l0,0c0.6-2,2.7-3.2,4.7-2.6l0,0c1.7,0.5,3.4-0.5,3.9-2.2l0,0c0.5-1.7-0.5-3.4-2.2-3.9l0,0
					C-388.4-62.2-389.6-64.3-389-66.3z"/>
				<path class="st2" d="M-169.4-134.1L-169.4-134.1c-1.1-1.4-3.1-1.6-4.4-0.5l0,0c-1.4,1.1-1.6,3.1-0.5,4.4l0,0
					c1.3,1.6,1,4-0.6,5.3l0,0c-1.4,1.1-1.6,3.1-0.5,4.4l0,0c1.1,1.4,3.1,1.6,4.4,0.5l0,0c1.6-1.3,4-1,5.3,0.6l0,0
					c1.1,1.4,3.1,1.6,4.4,0.5l0,0c1.4-1.1,1.6-3.1,0.5-4.4l0,0c-1.3-1.6-1-4,0.6-5.3l0,0c1.4-1.1,1.6-3.1,0.5-4.4l0,0
					c-1.1-1.4-3.1-1.6-4.4-0.5l0,0C-165.7-132.2-168.1-132.5-169.4-134.1z"/>
				<path class="st2" d="M-683.4-69.8L-683.4-69.8c1.2-1.3,1-3.3-0.3-4.5l0,0c-1.3-1.2-3.3-1-4.5,0.3l0,0c-1.4,1.6-3.8,1.7-5.4,0.4
					l0,0c-1.3-1.2-3.3-1-4.5,0.3l0,0c-1.2,1.3-1,3.3,0.3,4.5l0,0c1.6,1.4,1.7,3.8,0.4,5.4l0,0c-1.2,1.3-1,3.3,0.3,4.5l0,0
					c1.3,1.2,3.3,1,4.5-0.3l0,0c1.4-1.6,3.8-1.7,5.4-0.4l0,0c1.3,1.2,3.3,1,4.5-0.3l0,0c1.2-1.3,1-3.3-0.3-4.5l0,0
					C-684.7-65.8-684.8-68.2-683.4-69.8z"/>
				<path class="st2" d="M-954.6-59L-954.6-59c1,0.6,2.4,0.3,3.1-0.7l0,0c0.6-1,0.3-2.4-0.7-3.1l0,0c-1.3-0.8-1.7-2.4-0.9-3.7l0,0
					c0.6-1,0.3-2.4-0.7-3.1l0,0c-1-0.6-2.4-0.3-3.1,0.7l0,0c-0.8,1.3-2.4,1.7-3.7,0.9l0,0c-1-0.6-2.4-0.3-3.1,0.7l0,0
					c-0.6,1-0.3,2.4,0.7,3.1l0,0c1.3,0.8,1.7,2.4,0.9,3.7l0,0c-0.6,1-0.3,2.4,0.7,3.1l0,0c1,0.6,2.4,0.3,3.1-0.7l0,0
					C-957.5-59.3-955.8-59.7-954.6-59z"/>
				<path class="st2" d="M233.4-37.7L233.4-37.7c-0.6-0.8-1.8-1-2.6-0.3l0,0c-0.8,0.6-1,1.8-0.3,2.6l0,0c0.8,1,0.6,2.4-0.4,3.2l0,0
					c-0.8,0.6-1,1.8-0.3,2.6l0,0c0.6,0.8,1.8,1,2.6,0.3l0,0c1-0.8,2.4-0.6,3.2,0.4l0,0c0.6,0.8,1.8,1,2.6,0.3l0,0
					c0.8-0.6,1-1.8,0.3-2.6l0,0c-0.8-1-0.6-2.4,0.4-3.2l0,0c0.8-0.6,1-1.8,0.3-2.6l0,0c-0.6-0.8-1.8-1-2.6-0.3l0,0
					C235.6-36.5,234.1-36.7,233.4-37.7z"/>
				<path class="st2" d="M457.1-61.3L457.1-61.3c0.4-1-0.1-2-1.1-2.4l0,0c-1-0.4-2,0.1-2.4,1.1l0,0c-0.4,1.2-1.8,1.7-2.9,1.3l0,0
					c-1-0.4-2,0.1-2.4,1.1l0,0c-0.4,1,0.1,2,1.1,2.4l0,0c1.2,0.4,1.7,1.8,1.3,2.9l0,0c-0.4,1,0.1,2,1.1,2.4l0,0c1,0.4,2-0.1,2.4-1.1
					l0,0c0.4-1.2,1.8-1.7,2.9-1.3l0,0c1,0.4,2-0.1,2.4-1.1l0,0c0.4-1-0.1-2-1.1-2.4l0,0C457.2-58.8,456.7-60.1,457.1-61.3z"/>
				<path class="st2" d="M706.5-112.5L706.5-112.5c0.4-1-0.1-2-1.1-2.4l0,0c-1-0.4-2,0.1-2.4,1.1l0,0c-0.4,1.2-1.8,1.7-2.9,1.3l0,0
					c-1-0.4-2,0.1-2.4,1.1l0,0c-0.4,1,0.1,2,1.1,2.4l0,0c1.2,0.4,1.7,1.8,1.3,2.9l0,0c-0.4,1,0.1,2,1.1,2.4l0,0c1,0.4,2-0.1,2.4-1.1
					l0,0c0.4-1.2,1.8-1.7,2.9-1.3l0,0c1,0.4,2-0.1,2.4-1.1l0,0c0.4-1-0.1-2-1.1-2.4l0,0C706.6-110,706.1-111.3,706.5-112.5z"/>
				<path class="st2" d="M-362.4-115.6L-362.4-115.6c-0.2-0.9-1.1-1.5-2-1.2l0,0c-0.9,0.2-1.5,1.1-1.2,2l0,0
					c0.2,1.1-0.4,2.2-1.5,2.4l0,0c-0.9,0.2-1.5,1.1-1.2,2l0,0c0.2,0.9,1.1,1.5,2,1.2l0,0c1.1-0.2,2.2,0.4,2.4,1.5l0,0
					c0.2,0.9,1.1,1.5,2,1.2l0,0c0.9-0.2,1.5-1.1,1.2-2l0,0c-0.2-1.1,0.4-2.2,1.5-2.4l0,0c0.9-0.2,1.5-1.1,1.2-2l0,0
					c-0.2-0.9-1.1-1.5-2-1.2l0,0C-361.1-113.8-362.2-114.5-362.4-115.6z"/>
				<path class="st2" d="M-99.1-37.9L-99.1-37.9c0.5-0.8,0.3-1.8-0.5-2.3l0,0c-0.8-0.5-1.8-0.3-2.3,0.5l0,0
					c-0.6,0.9-1.8,1.2-2.8,0.6l0,0c-0.8-0.5-1.8-0.3-2.3,0.5l0,0c-0.5,0.8-0.3,1.8,0.5,2.3l0,0c0.9,0.6,1.2,1.8,0.6,2.8l0,0
					c-0.5,0.8-0.3,1.8,0.5,2.3l0,0c0.8,0.5,1.8,0.3,2.3-0.5l0,0c0.6-0.9,1.8-1.2,2.8-0.6l0,0c0.8,0.5,1.8,0.3,2.3-0.5l0,0
					c0.5-0.8,0.3-1.8-0.5-2.3l0,0C-99.5-35.7-99.8-37-99.1-37.9z"/>
				<g>
					<path class="st2" d="M-118.9-99.1c3.7,14.1,17.8,22.9,32.1,19.8c14.3-3.1,23.6-17,21-31.3L-118.9-99.1z"/>
					<path class="st2" d="M-98.4-132.6c-14.3,3.1-23.6,17-21,31.3l53.2-11.5C-69.9-126.9-84-135.7-98.4-132.6z M-76.4-116.3
						c-2,2.6-6.6,2.5-10.2-0.2c-3.6-2.8-4.8-7.1-2.8-9.8c2-2.6,6.6-2.5,10.2,0.2C-75.6-123.3-74.4-118.9-76.4-116.3z"/>
				</g>
				<path class="st2" d="M-168.8-48.6l1.9-0.4c0.8-0.2,1.5,0.7,1.1,1.4l-0.8,1.8l1,1.7c0.4,0.7-0.2,1.6-1,1.5l-2-0.2l-1.3,1.5
					c-0.6,0.6-1.6,0.3-1.8-0.5l-0.4-1.9l-1.8-0.8c-0.8-0.3-0.8-1.4-0.1-1.8l1.7-1l0.2-2c0.1-0.8,1.1-1.2,1.7-0.6L-168.8-48.6z"/>
				<path class="st2" d="M120.2-149.9l2.7-1.4c1.2-0.6,2.6,0.4,2.3,1.7l-0.5,3.1l2.2,2.2c1,0.9,0.4,2.6-0.9,2.7l-3.1,0.4l-1.4,2.8
					c-0.6,1.2-2.3,1.2-2.9,0l-1.4-2.8l-3.1-0.4c-1.3-0.2-1.8-1.8-0.9-2.7l2.2-2.2l-0.5-3.1c-0.2-1.3,1.2-2.3,2.3-1.7L120.2-149.9z"
					/>
				<path class="st2" d="M414.1-114l3.5,1.6c1.5,0.7,1.5,2.8,0.1,3.6l-3.4,1.8l-0.5,3.8c-0.2,1.7-2.2,2.4-3.4,1.2l-2.8-2.7l-3.8,0.7
					c-1.6,0.3-2.9-1.4-2.2-2.9l1.7-3.5l-1.9-3.4c-0.8-1.5,0.4-3.2,2.1-3l3.8,0.6l2.6-2.8c1.1-1.2,3.2-0.6,3.5,1.1L414.1-114z"/>
				<path class="st2" d="M177.8,132.7L177.8,132.7c-0.6-0.8-1.8-1-2.6-0.3l0,0c-0.8,0.6-1,1.8-0.3,2.6l0,0c0.8,1,0.6,2.4-0.4,3.2
					l0,0c-0.8,0.6-1,1.8-0.3,2.6l0,0c0.6,0.8,1.8,1,2.6,0.3l0,0c1-0.8,2.4-0.6,3.2,0.4l0,0c0.6,0.8,1.8,1,2.6,0.3l0,0
					c0.8-0.6,1-1.8,0.3-2.6l0,0c-0.8-1-0.6-2.4,0.4-3.2l0,0c0.8-0.6,1-1.8,0.3-2.6l0,0c-0.6-0.8-1.8-1-2.6-0.3l0,0
					C180,133.9,178.6,133.7,177.8,132.7z"/>
				<path class="st2" d="M-647.2,64.7L-647.2,64.7c-0.6-0.8-1.8-1-2.6-0.3l0,0c-0.8,0.6-1,1.8-0.3,2.6l0,0c0.8,1,0.6,2.4-0.4,3.2
					l0,0c-0.8,0.6-1,1.8-0.3,2.6l0,0c0.6,0.8,1.8,1,2.6,0.3l0,0c1-0.8,2.4-0.6,3.2,0.4l0,0c0.6,0.8,1.8,1,2.6,0.3l0,0
					c0.8-0.6,1-1.8,0.3-2.6l0,0c-0.8-1-0.6-2.4,0.4-3.2l0,0c0.8-0.6,1-1.8,0.3-2.6l0,0c-0.6-0.8-1.8-1-2.6-0.3l0,0
					C-645,65.9-646.4,65.7-647.2,64.7z"/>
				<path class="st2" d="M114.8,58l2.7-1.4c1.2-0.6,2.6,0.4,2.3,1.7l-0.5,3.1l2.2,2.2c1,0.9,0.4,2.6-0.9,2.7l-3.1,0.4l-1.4,2.8
					c-0.6,1.2-2.3,1.2-2.9,0l-1.4-2.8l-3.1-0.4c-1.3-0.2-1.8-1.8-0.9-2.7l2.2-2.2l-0.5-3.1c-0.2-1.3,1.2-2.3,2.3-1.7L114.8,58z"/>
				<path class="st2" d="M-450.5-37l2.1-1.1c0.9-0.5,1.9,0.3,1.8,1.3l-0.4,2.3l1.7,1.6c0.7,0.7,0.3,1.9-0.7,2.1l-2.3,0.3l-1,2.1
					c-0.4,0.9-1.7,0.9-2.2,0l-1-2.1l-2.3-0.3c-1-0.1-1.4-1.4-0.7-2.1l1.7-1.6l-0.4-2.3c-0.2-1,0.9-1.7,1.8-1.3L-450.5-37z"/>
				<path class="st2" d="M-773.4-115l0.6-2.2c0.3-1,1.5-1.2,2.1-0.4l1.4,1.9l2.3-0.1c1,0,1.6,1.1,1,1.9l-1.3,1.9l0.8,2.2
					c0.4,0.9-0.5,1.9-1.5,1.6l-2.2-0.7l-1.8,1.4c-0.8,0.6-1.9,0.1-2-0.9v-2.3l-1.9-1.3c-0.8-0.6-0.7-1.8,0.3-2.2L-773.4-115z"/>
				<path class="st2" d="M-384.1,74.5L-384.1,74.5c0.9-0.7,1-2,0.3-2.9l0,0c-0.7-0.9-2-1-2.9-0.3l0,0c-1,0.9-2.6,0.7-3.4-0.3l0,0
					c-0.7-0.9-2-1-2.9-0.3l0,0c-0.9,0.7-1,2-0.3,2.9l0,0c0.9,1,0.7,2.6-0.3,3.4l0,0c-0.9,0.7-1,2-0.3,2.9l0,0c0.7,0.9,2,1,2.9,0.3
					l0,0c1-0.9,2.6-0.7,3.4,0.3l0,0c0.7,0.9,2,1,2.9,0.3l0,0c0.9-0.7,1-2,0.3-2.9l0,0C-385.3,76.9-385.1,75.3-384.1,74.5z"/>
				<path class="st2" d="M422.3,98.2L422.3,98.2c0.9-0.7,1-2,0.3-2.9l0,0c-0.7-0.9-2-1-2.9-0.3l0,0c-1,0.9-2.6,0.7-3.4-0.3l0,0
					c-0.7-0.9-2-1-2.9-0.3l0,0c-0.9,0.7-1,2-0.3,2.9l0,0c0.9,1,0.7,2.6-0.3,3.4l0,0c-0.9,0.7-1,2-0.3,2.9l0,0c0.7,0.9,2,1,2.9,0.3
					l0,0c1-0.9,2.6-0.7,3.4,0.3l0,0c0.7,0.9,2,1,2.9,0.3l0,0c0.9-0.7,1-2,0.3-2.9l0,0C421.1,100.6,421.2,99.1,422.3,98.2z"/>
				<path class="st2" d="M-723.8,90.2L-723.8,90.2c0.9-0.7,1-2,0.3-2.9l0,0c-0.7-0.9-2-1-2.9-0.3l0,0c-1,0.9-2.6,0.7-3.4-0.3l0,0
					c-0.7-0.9-2-1-2.9-0.3l0,0c-0.9,0.7-1,2-0.3,2.9l0,0c0.9,1,0.7,2.6-0.3,3.4l0,0c-0.9,0.7-1,2-0.3,2.9l0,0c0.7,0.9,2,1,2.9,0.3
					l0,0c1-0.9,2.6-0.7,3.4,0.3l0,0c0.7,0.9,2,1,2.9,0.3l0,0c0.9-0.7,1-2,0.3-2.9l0,0C-724.9,92.6-724.8,91.1-723.8,90.2z"/>
				<path class="st2" d="M234.1,92.6L234.1,92.6c0.9-0.7,1-2,0.3-2.9l0,0c-0.7-0.9-2-1-2.9-0.3l0,0c-1,0.9-2.6,0.7-3.4-0.3l0,0
					c-0.7-0.9-2-1-2.9-0.3l0,0c-0.9,0.7-1,2-0.3,2.9l0,0c0.9,1,0.7,2.6-0.3,3.4l0,0c-0.9,0.7-1,2-0.3,2.9l0,0c0.7,0.9,2,1,2.9,0.3
					l0,0c1-0.9,2.6-0.7,3.4,0.3l0,0c0.7,0.9,2,1,2.9,0.3l0,0c0.9-0.7,1-2,0.3-2.9l0,0C232.9,95,233,93.5,234.1,92.6z"/>
				<path class="st2" d="M-473.7,78.7l4.5,0.5c1.9,0.2,2.8,2.6,1.4,3.9l-3.1,3.2l0.9,4.4c0.4,1.9-1.6,3.4-3.3,2.6l-4-2l-3.9,2.2
					c-1.7,0.9-3.7-0.4-3.5-2.4l0.6-4.4l-3.3-3c-1.4-1.3-0.7-3.7,1.2-4l4.4-0.8l1.9-4.1c0.8-1.8,3.3-1.8,4.2-0.1L-473.7,78.7z"/>
				<path class="st2" d="M506.3,68.5l4-2c1.7-0.9,3.7,0.7,3.3,2.6l-0.9,4.4l3.1,3.2c1.3,1.4,0.5,3.7-1.4,3.9l-4.5,0.5l-2.1,4
					c-0.9,1.7-3.4,1.6-4.2-0.1l-1.9-4.1l-4.4-0.8c-1.9-0.3-2.6-2.7-1.2-4l3.3-3l-0.6-4.4c-0.3-1.9,1.8-3.3,3.5-2.4L506.3,68.5z"/>
				
					<ellipse transform="matrix(0.9675 -0.253 0.253 0.9675 14.3612 -52.1264)" class="st2" cx="-195.5" cy="-81.9" rx="2.6" ry="2.6"/>
				
					<ellipse transform="matrix(0.9675 -0.253 0.253 0.9675 15.8416 -48.4067)" class="st2" cx="-180.3" cy="-85.8" rx="3.5" ry="3.5"/>
				
					<ellipse transform="matrix(0.9675 -0.253 0.253 0.9675 7.4436 -40.7183)" class="st2" cx="-154.6" cy="-49.3" rx="2.6" ry="2.6"/>
				
					<ellipse transform="matrix(0.9675 -0.253 0.253 0.9675 44.3264 119.9087)" class="st2" cx="488.4" cy="-112.4" rx="2.6" ry="2.6"/>
				
					<ellipse transform="matrix(0.9675 -0.253 0.253 0.9675 -10.8936 146.0921)" class="st2" cx="562.6" cy="115.4" rx="2.6" ry="2.6"/>
				
					<ellipse transform="matrix(0.9675 -0.253 0.253 0.9675 4.433 -48.1231)" class="st2" cx="-184.9" cy="-41.3" rx="2.6" ry="2.6"/>
				
					<ellipse transform="matrix(0.9675 -0.253 0.253 0.9675 2.9617 -51.7656)" class="st2" cx="-199.8" cy="-37.4" rx="2.2" ry="2.2"/>
				
					<ellipse transform="matrix(0.9675 -0.253 0.253 0.9675 11.1647 -176.7836)" class="st2" cx="-681.8" cy="-131.8" rx="2.2" ry="2.2"/>
				
					<ellipse transform="matrix(0.9675 -0.253 0.253 0.9675 -45.9815 -197.9826)" class="st2" cx="-792.8" cy="79.8" rx="2.2" ry="2.2"/>
				<g>
					<line class="st3" x1="-199.2" y1="-44.1" x2="-196.1" y2="-75.2"/>
					<path class="st2" d="M-199-43.4c-0.1,0-0.2,0-0.2,0c-0.4,0-0.6-0.4-0.6-0.7l3-31.1c0-0.4,0.4-0.6,0.7-0.6
						c0.4,0,0.6,0.4,0.6,0.7l-3,31.1C-198.5-43.7-198.7-43.5-199-43.4z"/>
				</g>
				<g>
					<line class="st3" x1="-184.2" y1="-48" x2="-182.7" y2="-63.6"/>
					<path class="st2" d="M-184.1-47.3c-0.1,0-0.2,0-0.2,0c-0.4,0-0.6-0.4-0.6-0.7l1.5-15.5c0-0.4,0.4-0.6,0.7-0.6
						c0.4,0,0.6,0.4,0.6,0.7l-1.5,15.5C-183.6-47.6-183.8-47.4-184.1-47.3z"/>
				</g>
				<g>
					<line class="st3" x1="-158.4" y1="-54.8" x2="-176.3" y2="-80.4"/>
					<path class="st2" d="M-158.3-54.1c-0.3,0.1-0.6,0-0.7-0.3L-176.8-80c-0.2-0.3-0.1-0.7,0.2-0.9c0.3-0.2,0.7-0.1,0.9,0.2
						l17.9,25.6c0.2,0.3,0.1,0.7-0.2,0.9C-158.1-54.2-158.2-54.1-158.3-54.1z"/>
				</g>
				<g>
					<line class="st3" x1="-174" y1="-51.8" x2="-191.2" y2="-76.5"/>
					<path class="st2" d="M-173.9-51.1c-0.3,0.1-0.6,0-0.7-0.3l-17.2-24.7c-0.2-0.3-0.1-0.7,0.2-0.9c0.3-0.2,0.7-0.1,0.9,0.2
						l17.2,24.7c0.2,0.3,0.1,0.7-0.2,0.9C-173.7-51.2-173.8-51.1-173.9-51.1z"/>
				</g>
				<g>
					<line class="st3" x1="-195" y1="-37.8" x2="-189.2" y2="-39.3"/>
					<path class="st2" d="M-189-39.4l-6.1,1.6c-0.4,0.1-0.7,0-0.8-0.4s0.1-0.7,0.5-0.7l6.1-1.6c0.4-0.1,0.7,0,0.8,0.4
						S-188.7-39.5-189-39.4z"/>
				</g>
				<g>
					<line class="st3" x1="-190.8" y1="-83.1" x2="-186.2" y2="-84.3"/>
					<path class="st2" d="M-185.7-84.4L-191-83c-0.4,0.1-0.7,0-0.8-0.4s0.1-0.7,0.5-0.7l5.3-1.4c0.4-0.1,0.7,0,0.8,0.4
						C-185.1-84.8-185.3-84.5-185.7-84.4z"/>
				</g>
				<g>
					<line class="st3" x1="-163.9" y1="-45.9" x2="-159.4" y2="-47.1"/>
					<path class="st2" d="M-159.1-47.2l-4.4,1.1c-0.4,0.1-0.7,0-0.8-0.4s0.1-0.7,0.5-0.7l4.4-1.1c0.4-0.1,0.7,0,0.8,0.4
						C-158.5-47.6-158.7-47.3-159.1-47.2z"/>
				</g>
				<g>
					<path class="st2" d="M189.2,290L141,338.2c-1.8,1.8-1.6,4.8,0.4,6.4c15.1,11.8,37.1,10.8,51-3.2c13.9-13.9,15-35.9,3.2-51
						C194,288.4,191,288.2,189.2,290z"/>
					<circle class="st2" cx="153.5" cy="302.5" r="4.6"/>
					<circle class="st2" cx="182.2" cy="331.2" r="6.2"/>
					<circle class="st2" cx="192.5" cy="341.5" r="6.2"/>
					<path class="st2" d="M204,378h-23.1c-1.3,0-2.3-1.3-1.9-2.6l6.6-23.5c0.2-0.9,1-1.5,1.9-1.5h9.8c0.9,0,1.7,0.6,1.9,1.5
						l6.6,23.5C206.3,376.7,205.3,378,204,378z"/>
				</g>
				<g>
					<circle class="st2" cx="-127.8" cy="371.9" r="6.1"/>
					<circle class="st2" cx="-142.8" cy="371.9" r="6.1"/>
					<circle class="st2" cx="-84.3" cy="371.9" r="6.1"/>
					<circle class="st2" cx="-99.2" cy="371.9" r="6.1"/>
					<circle class="st2" cx="-172.8" cy="371.9" r="6.1"/>
					<path class="st2" d="M-162.3,344.7h-19.2c-1.7,0-3.2,1.4-3.2,3.2v20.9c0,1.7,1.4,3.2,3.2,3.2h19.2c1.7,0,3.2-1.4,3.2-3.2v-20.9
						C-159.1,346.1-160.5,344.7-162.3,344.7z"/>
					<path class="st2" d="M-73.2,332.2h-77.7c-1.7,0-3.2,1.4-3.2,3.2v33.4c0,1.7,1.4,3.2,3.2,3.2h77.7c1.7,0,3.2-1.4,3.2-3.2v-33.4
						C-70,333.6-71.4,332.2-73.2,332.2z"/>
					<rect x="-164.9" y="365.8" class="st2" width="25.3" height="6.1"/>
				</g>
				<g>
					
						<linearGradient id="SVGID_3_" gradientUnits="userSpaceOnUse" x1="-355.0633" y1="586.4524" x2="114.9367" y2="276.4524" gradientTransform="matrix(1 0 0 1 0 -318)">
						<stop  offset="0" style="stop-color:#007ADC;stop-opacity:0"/>
						<stop  offset="1" style="stop-color:#007ADC"/>
					</linearGradient>
					<path class="st4" d="M108.6-24.4L81-29.7l5.6-28.7c-390.3,244-786.1,307.7-895.5,145.6L-360,752.3
						C-469.4,590.3-263.2,246.2,108.6-24.4z"/>
				</g>
				<g>
					<path class="st5" d="M95-40.8l3.1-16c1.7-8.8,10.2-14.6,19.1-12.9l0,0c8.8,1.7,14.6,10.2,12.9,19.1l0,0
						c-1.7,8.8-10.2,14.6-19.1,12.9L95-40.8z"/>
					<path class="st5" d="M142.9-72.8c8.7,13,10.5,28.6,6.1,42.4c-1.4,4.6,3.2,8.8,7.6,6.9c3.4-1.5,6.7-3.4,9.8-5.8
						c20.1-15.3,25.3-44.3,11.7-65.6c-15-23.4-46.2-29.8-69-14.3c-2.4,1.6-4.6,3.4-6.6,5.3c-3.5,3.3-1.3,9.3,3.5,9.6
						C120.3-93.1,134.2-85.7,142.9-72.8z"/>
					<path class="st6" d="M128.1-57.5c2,3,5.5,4.6,9,4.1c26.3-3.1,55-6.4,72-17.9c23-15.6,36.9-39.6,40.2-65.2
						c0.7-5.3-2.7-10.4-7.9-11.7c-24.9-6.5-52.4-2.6-75.5,12.9c-17,11.5-30.8,36.8-43.5,60.1c-1.7,3.1-1.5,7,0.5,9.9L128.1-57.5z"/>
					
						<ellipse transform="matrix(0.8288 -0.5595 0.5595 0.8288 93.6576 90.2957)" class="st5" cx="194.4" cy="-107.9" rx="20.7" ry="20.7"/>
				</g>
				<polygon class="st2" points="770.1,241 966.1,381 574,381 				"/>
				<polygon class="st2" points="-1030.1,241 -834,381 -1226.1,381 				"/>
				<polygon class="st2" points="-892.6,295 -772.1,381 -1013,381 				"/>
				<polygon class="st2" points="539.8,313 635,381 444.5,381 				"/>
				<polygon class="st2" points="-725.3,331.2 -655.5,381 -795,381 				"/>
				<circle class="st7" cx="194.4" cy="-107.9" r="15.6"/>
				<g>
					<path class="st2" d="M-649.7,329.8l5.7,12.6c0.4,0.9-0.3,2-1.3,2h-11.4c-1,0-1.7-1.1-1.3-2l5.7-12.6
						C-651.8,328.7-650.2,328.7-649.7,329.8z"/>
					<path class="st2" d="M-649.7,336.2l9.2,20.2c0.4,0.9-0.3,2-1.3,2h-18.3c-1,0-1.7-1.1-1.3-2l9.2-20.2
						C-651.8,335.1-650.2,335.1-649.7,336.2z"/>
					<path class="st2" d="M-649.7,344.2l12.6,27.8c0.4,0.9-0.3,2-1.3,2h-25.2c-1,0-1.7-1.1-1.3-2l12.6-27.8
						C-651.8,343.1-650.2,343.1-649.7,344.2z"/>
					<path class="st2" d="M-649.9,363.8h-2.2c-0.8,0-1.4,0.6-1.4,1.4V378h5v-12.8C-648.5,364.4-649.1,363.8-649.9,363.8z"/>
				</g>
				<g>
					<g>
						<path class="st2" d="M442.3,329.3l5.7,12.6c0.4,0.9-0.3,2-1.3,2h-11.4c-1,0-1.7-1.1-1.3-2l5.7-12.6
							C440.2,328.2,441.8,328.2,442.3,329.3z"/>
						<path class="st2" d="M442.3,335.7l9.2,20.2c0.4,0.9-0.3,2-1.3,2h-18.3c-1,0-1.7-1.1-1.3-2l9.2-20.2
							C440.2,334.6,441.8,334.6,442.3,335.7z"/>
						<path class="st2" d="M442.3,343.7l12.6,27.8c0.4,0.9-0.3,2-1.3,2h-25.2c-1,0-1.7-1.1-1.3-2l12.6-27.8
							C440.2,342.6,441.8,342.6,442.3,343.7z"/>
						<path class="st2" d="M442.1,363.3h-2.2c-0.8,0-1.4,0.6-1.4,1.4V378h5v-13.3C443.5,363.9,442.9,363.3,442.1,363.3z"/>
					</g>
					<g>
						<path class="st2" d="M384.5,339.6l4.3,9.5c0.3,0.7-0.2,1.5-1,1.5h-8.6c-0.8,0-1.3-0.8-1-1.5l4.3-9.5
							C382.9,338.8,384.1,338.8,384.5,339.6z"/>
						<path class="st2" d="M384.5,344.4l6.9,15.2c0.3,0.7-0.2,1.5-1,1.5h-13.7c-0.8,0-1.3-0.8-1-1.5l6.9-15.2
							C382.9,343.6,384.1,343.6,384.5,344.4z"/>
						<path class="st2" d="M384.5,350.4l9.4,20.9c0.3,0.7-0.2,1.5-1,1.5H374c-0.8,0-1.3-0.8-1-1.5l9.4-20.9
							C382.9,349.6,384.1,349.6,384.5,350.4z"/>
						<path class="st2" d="M384.2,365.1h-1.3c-0.7,0-1.2,0.5-1.2,1.2V378h3.7v-11.7C385.4,365.7,384.8,365.1,384.2,365.1z"/>
					</g>
					<g>
						<path class="st2" d="M421.8,319.5l7,15.5c0.5,1.1-0.3,2.4-1.6,2.4h-14.1c-1.3,0-2.1-1.3-1.6-2.4l7-15.5
							C419.3,318.1,421.2,318.1,421.8,319.5z"/>
						<path class="st2" d="M421.8,327.3l11.3,24.9c0.5,1.1-0.3,2.4-1.6,2.4H409c-1.3,0-2.1-1.3-1.6-2.4l11.3-24.9
							C419.3,326,421.2,326,421.8,327.3z"/>
						<path class="st2" d="M421.8,335.3l15.5,34.3c0.5,1.1-0.3,2.4-1.6,2.4h-31.1c-1.3,0-2.1-1.3-1.6-2.4l15.5-34.3
							C419.3,333.9,421.2,333.9,421.8,335.3z"/>
						<path class="st2" d="M421.6,361.4h-2.7c-1,0-1.7,0.8-1.7,1.7V378h6.2v-14.9C423.3,362.1,422.6,361.4,421.6,361.4z"/>
					</g>
				</g>
				<g>
					<path class="st2" d="M-795.7,331.3l5.7,12.6c0.4,0.9-0.3,2-1.3,2h-11.4c-1,0-1.7-1.1-1.3-2l5.7-12.6
						C-797.8,330.2-796.2,330.2-795.7,331.3z"/>
					<path class="st2" d="M-795.7,337.7l9.2,20.2c0.4,0.9-0.3,2-1.3,2h-18.3c-1,0-1.7-1.1-1.3-2l9.2-20.2
						C-797.8,336.6-796.2,336.6-795.7,337.7z"/>
					<path class="st2" d="M-795.7,345.7l12.6,27.8c0.4,0.9-0.3,2-1.3,2h-25.2c-1,0-1.7-1.1-1.3-2l12.6-27.8
						C-797.8,344.6-796.2,344.6-795.7,345.7z"/>
					<path class="st2" d="M-795.9,365.3h-2.2c-0.8,0-1.4,0.6-1.4,1.4V382h5v-15.3C-794.5,365.9-795.1,365.3-795.9,365.3z"/>
				</g>
				<g>
					<path class="st2" d="M-633.2,348.5l3.7,8.1c0.3,0.6-0.2,1.3-0.8,1.3h-7.3c-0.7,0-1.1-0.7-0.8-1.3l3.7-8.1
						C-634.5,347.8-633.5,347.8-633.2,348.5z"/>
					<path class="st2" d="M-633.2,352.6l5.9,13c0.3,0.6-0.2,1.3-0.8,1.3h-11.8c-0.7,0-1.1-0.7-0.8-1.3l5.9-13
						C-634.5,351.9-633.5,351.9-633.2,352.6z"/>
					<path class="st2" d="M-633.2,357.7l8.1,17.9c0.3,0.6-0.2,1.3-0.8,1.3h-16.2c-0.7,0-1.1-0.7-0.8-1.3l8.1-17.9
						C-634.5,357-633.5,357-633.2,357.7z"/>
					<path class="st2" d="M-633.3,370.3h-1.4c-0.5,0-0.9,0.4-0.9,0.9v6.8h3.2v-6.8C-632.4,370.7-632.8,370.3-633.3,370.3z"/>
				</g>
				<g>
					<path class="st2" d="M-495,295h-13h-2.5c-2.5,0-4.5,2-4.5,4.5v2.5v79h7v-79h13v79h7v-79v-2.5c0-2.5-2-4.5-4.5-4.5H-495z"/>
					<rect x="-511" y="313.2" class="st2" width="17" height="2"/>
					
						<rect x="-502" y="293.5" transform="matrix(0.7071 -0.7071 0.7071 0.7071 -364.5214 -264.0619)" class="st2" width="2" height="29"/>
					
						<rect x="-502" y="306.5" transform="matrix(0.7071 -0.7071 0.7071 0.7071 -373.7137 -260.2542)" class="st2" width="2" height="29"/>
					
						<rect x="-502" y="319.5" transform="matrix(0.7071 -0.7071 0.7071 0.7071 -382.9252 -256.4388)" class="st2" width="2" height="29"/>
					
						<rect x="-502" y="333.5" transform="matrix(0.7071 -0.7071 0.7071 0.7071 -392.8055 -252.3462)" class="st2" width="2" height="29"/>
					
						<rect x="-502" y="346.5" transform="matrix(0.7071 -0.7071 0.7071 0.7071 -401.9978 -248.5386)" class="st2" width="2" height="29"/>
					
						<rect x="-502" y="359.5" transform="matrix(0.7071 -0.7071 0.7071 0.7071 -411.2094 -244.7231)" class="st2" width="2" height="29"/>
					<rect x="-511" y="300" class="st2" width="17" height="2"/>
					<rect x="-511" y="326.3" class="st2" width="17" height="2"/>
					<rect x="-511" y="339.5" class="st2" width="17" height="2"/>
					<rect x="-511" y="365.8" class="st2" width="17" height="2"/>
					<rect x="-511" y="352.7" class="st2" width="17" height="2"/>
					<rect x="-511" y="379" class="st2" width="17" height="2"/>
				</g>
				<rect x="-483" y="375" class="st2" width="75" height="3"/>
			</g>
		</g>
	</g>
</g>
<path class="st8" d="M298.3,190.6c-4.8,0-8.7,3.9-8.7,8.7s3.9,8.7,8.7,8.7s8.7-3.9,8.7-8.7S303.1,190.6,298.3,190.6z M298.3,194.3
	c0.9,0,1.6,0.7,1.6,1.6c0,0.9-0.7,1.6-1.6,1.6c-0.9,0-1.6-0.7-1.6-1.6C296.7,195,297.4,194.3,298.3,194.3z M300.4,204h-4.2
	c-0.3,0-0.5-0.2-0.5-0.5c0-0.3,0.2-0.5,0.5-0.5h0.5v-3.6v0h-0.5c-0.3,0-0.5-0.2-0.5-0.5c0-0.3,0.2-0.5,0.5-0.5h3.3
	c0.2,0,0.4,0.2,0.4,0.4v4.2h0.5c0.3,0,0.5,0.2,0.5,0.5C300.9,203.7,300.7,204,300.4,204z"/>
</svg>
