<?xml version="1.0" encoding="utf-8"?>
<!-- Generator: Adobe Illustrator 19.2.1, SVG Export Plug-In . SVG Version: 6.00 Build 0)  -->
<svg version="1.1" id="puzzle" xmlns="http://www.w3.org/2000/svg" xmlns:xlink="http://www.w3.org/1999/xlink" x="0px" y="0px"
	 width="340px" height="240px" viewBox="0 0 340 240" style="enable-background:new 0 0 340 240;" xml:space="preserve">
<style type="text/css">
	.st0{fill:#074B89;}
	.st1{clip-path:url(#SVGID_2_);}
	.st2{fill:#006DBA;}
	.st3{fill:none;}
	.st4{fill:url(#SVGID_3_);}
	.st5{fill:#E3EAF4;}
	.st6{fill:#CEDAE3;}
	.st7{fill:#005F99;}
	.st8{fill:#035CA1;}
</style>
<title>svg-sources</title>
<path class="st0" d="M319,99V26c0-3.3-2.7-6-6-6H192.9c-1,11.7-10.9,20-22.9,20s-21.9-8.3-22.9-20H27c-3.3,0-6,2.7-6,6v73
	c-11.6,0-21,9.4-21,21s9.4,21,21,21v73c0,3.3,2.7,6,6,6h286c3.3,0,6-2.7,6-6v-73c11.6,0,21-9.4,21-21S330.6,99,319,99z"/>
<g>
	<g>
		<g>
			<defs>
				<path id="SVGID_1_" d="M319,99V26c0-3.3-2.7-6-6-6H192.9c-1,11.7-10.9,20-22.9,20s-21.9-8.3-22.9-20H27c-3.3,0-6,2.7-6,6v73
					c-11.6,0-21,9.4-21,21s9.4,21,21,21v73c0,3.3,2.7,6,6,6h286c3.3,0,6-2.7,6-6v-73c11.6,0,21-9.4,21-21S330.6,99,319,99z"/>
			</defs>
			<clipPath id="SVGID_2_">
				<use xlink:href="#SVGID_1_"  style="overflow:visible;"/>
			</clipPath>
			<g class="st1">
				<rect x="-665" y="178" class="st2" width="2266" height="45"/>
				<path class="st2" d="M-208.2-115.3L-208.2-115.3L-208.2-115.3z"/>
				<g>
					
						<ellipse transform="matrix(0.9776 -0.2104 0.2104 0.9776 68.7645 20.9415)" class="st2" cx="132.8" cy="-312.7" rx="20.5" ry="20.5"/>
					
						<ellipse transform="matrix(0.9776 -0.2104 0.2104 0.9776 70.3381 25.7322)" class="st2" cx="156.1" cy="-317.7" rx="1.5" ry="1.5"/>
					<path class="st2" d="M108.5-305.7l-24.6,5.3c-0.9,0.2-1.9-0.4-2.1-1.3l0,0c-0.2-0.9,0.4-1.9,1.3-2.1l24.6-5.3
						c0.9-0.2,1.9,0.4,2.1,1.3l0,0C110-306.8,109.4-305.9,108.5-305.7z"/>
					<g>
						<path class="st2" d="M117.3-291.6l-22.6,11.1c-0.9,0.4-1.9,0.1-2.3-0.8l0,0c-0.4-0.9-0.1-1.9,0.8-2.3l22.6-11.1
							c0.9-0.4,1.9-0.1,2.3,0.8l0,0C118.5-293,118.1-292,117.3-291.6z"/>
						<path class="st2" d="M109.9-325.6l-25.2-0.9c-1,0-1.8,0.7-1.8,1.7l0,0c0,1,0.7,1.8,1.7,1.8l25.2,0.9c1,0,1.8-0.7,1.8-1.7l0,0
							C111.6-324.7,110.9-325.5,109.9-325.6z"/>
					</g>
				</g>
				<path class="st2" d="M211-268.3L211-268.3c0.5-1.7-0.5-3.4-2.2-3.9l0,0c-1.7-0.5-3.4,0.5-3.9,2.2l0,0c-0.6,2-2.7,3.2-4.7,2.6
					l0,0c-1.7-0.5-3.4,0.5-3.9,2.2l0,0c-0.5,1.7,0.5,3.4,2.2,3.9l0,0c2,0.6,3.2,2.7,2.6,4.7l0,0c-0.5,1.7,0.5,3.4,2.2,3.9l0,0
					c1.7,0.5,3.4-0.5,3.9-2.2l0,0c0.6-2,2.7-3.2,4.7-2.6l0,0c1.7,0.5,3.4-0.5,3.9-2.2l0,0c0.5-1.7-0.5-3.4-2.2-3.9l0,0
					C211.6-264.2,210.4-266.3,211-268.3z"/>
				<path class="st2" d="M430.6-336.1L430.6-336.1c-1.1-1.4-3.1-1.6-4.4-0.5l0,0c-1.4,1.1-1.6,3.1-0.5,4.4l0,0c1.3,1.6,1,4-0.6,5.3
					l0,0c-1.4,1.1-1.6,3.1-0.5,4.4l0,0c1.1,1.4,3.1,1.6,4.4,0.5l0,0c1.6-1.3,4-1,5.3,0.6l0,0c1.1,1.4,3.1,1.6,4.4,0.5l0,0
					c1.4-1.1,1.6-3.1,0.5-4.4l0,0c-1.3-1.6-1-4,0.6-5.3l0,0c1.4-1.1,1.6-3.1,0.5-4.4l0,0c-1.1-1.4-3.1-1.6-4.4-0.5l0,0
					C434.3-334.2,431.9-334.5,430.6-336.1z"/>
				<path class="st2" d="M-83.4-271.8L-83.4-271.8c1.2-1.3,1-3.3-0.3-4.5l0,0c-1.3-1.2-3.3-1-4.5,0.3l0,0c-1.4,1.6-3.8,1.7-5.4,0.4
					l0,0c-1.3-1.2-3.3-1-4.5,0.3l0,0c-1.2,1.3-1,3.3,0.3,4.5l0,0c1.6,1.4,1.7,3.8,0.4,5.4l0,0c-1.2,1.3-1,3.3,0.3,4.5l0,0
					c1.3,1.2,3.3,1,4.5-0.3l0,0c1.4-1.6,3.8-1.7,5.4-0.4l0,0c1.3,1.2,3.3,1,4.5-0.3l0,0c1.2-1.3,1-3.3-0.3-4.5l0,0
					C-84.7-267.8-84.8-270.2-83.4-271.8z"/>
				<path class="st2" d="M-354.6-261L-354.6-261c1,0.6,2.4,0.3,3.1-0.7l0,0c0.6-1,0.3-2.4-0.7-3.1l0,0c-1.3-0.8-1.7-2.4-0.9-3.7l0,0
					c0.6-1,0.3-2.4-0.7-3.1l0,0c-1-0.6-2.4-0.3-3.1,0.7l0,0c-0.8,1.3-2.4,1.7-3.7,0.9l0,0c-1-0.6-2.4-0.3-3.1,0.7l0,0
					c-0.6,1-0.3,2.4,0.7,3.1l0,0c1.3,0.8,1.7,2.4,0.9,3.7l0,0c-0.6,1-0.3,2.4,0.7,3.1l0,0c1,0.6,2.4,0.3,3.1-0.7l0,0
					C-357.5-261.3-355.8-261.7-354.6-261z"/>
				<path class="st2" d="M833.4-239.7L833.4-239.7c-0.6-0.8-1.8-1-2.6-0.3l0,0c-0.8,0.6-1,1.8-0.3,2.6l0,0c0.8,1,0.6,2.4-0.4,3.2
					l0,0c-0.8,0.6-1,1.8-0.3,2.6l0,0c0.6,0.8,1.8,1,2.6,0.3l0,0c1-0.8,2.4-0.6,3.2,0.4l0,0c0.6,0.8,1.8,1,2.6,0.3l0,0
					c0.8-0.6,1-1.8,0.3-2.6l0,0c-0.8-1-0.6-2.4,0.4-3.2l0,0c0.8-0.6,1-1.8,0.3-2.6l0,0c-0.6-0.8-1.8-1-2.6-0.3l0,0
					C835.6-238.5,834.1-238.7,833.4-239.7z"/>
				<path class="st2" d="M1057.1-263.3L1057.1-263.3c0.4-1-0.1-2-1.1-2.4l0,0c-1-0.4-2,0.1-2.4,1.1l0,0c-0.4,1.2-1.8,1.7-2.9,1.3
					l0,0c-1-0.4-2,0.1-2.4,1.1l0,0c-0.4,1,0.1,2,1.1,2.4l0,0c1.2,0.4,1.7,1.8,1.3,2.9l0,0c-0.4,1,0.1,2,1.1,2.4l0,0
					c1,0.4,2-0.1,2.4-1.1l0,0c0.4-1.2,1.8-1.7,2.9-1.3l0,0c1,0.4,2-0.1,2.4-1.1l0,0c0.4-1-0.1-2-1.1-2.4l0,0
					C1057.2-260.8,1056.7-262.1,1057.1-263.3z"/>
				<path class="st2" d="M1306.5-314.5L1306.5-314.5c0.4-1-0.1-2-1.1-2.4l0,0c-1-0.4-2,0.1-2.4,1.1l0,0c-0.4,1.2-1.8,1.7-2.9,1.3
					l0,0c-1-0.4-2,0.1-2.4,1.1l0,0c-0.4,1,0.1,2,1.1,2.4l0,0c1.2,0.4,1.7,1.8,1.3,2.9l0,0c-0.4,1,0.1,2,1.1,2.4l0,0
					c1,0.4,2-0.1,2.4-1.1l0,0c0.4-1.2,1.8-1.7,2.9-1.3l0,0c1,0.4,2-0.1,2.4-1.1l0,0c0.4-1-0.1-2-1.1-2.4l0,0
					C1306.6-312,1306.1-313.3,1306.5-314.5z"/>
				<path class="st2" d="M237.6-317.6L237.6-317.6c-0.2-0.9-1.1-1.5-2-1.2l0,0c-0.9,0.2-1.5,1.1-1.2,2l0,0c0.2,1.1-0.4,2.2-1.5,2.4
					l0,0c-0.9,0.2-1.5,1.1-1.2,2l0,0c0.2,0.9,1.1,1.5,2,1.2l0,0c1.1-0.2,2.2,0.4,2.4,1.5l0,0c0.2,0.9,1.1,1.5,2,1.2l0,0
					c0.9-0.2,1.5-1.1,1.2-2l0,0c-0.2-1.1,0.4-2.2,1.5-2.4l0,0c0.9-0.2,1.5-1.1,1.2-2l0,0c-0.2-0.9-1.1-1.5-2-1.2l0,0
					C238.9-315.8,237.8-316.5,237.6-317.6z"/>
				<path class="st2" d="M500.9-239.9L500.9-239.9c0.5-0.8,0.3-1.8-0.5-2.3l0,0c-0.8-0.5-1.8-0.3-2.3,0.5l0,0
					c-0.6,0.9-1.8,1.2-2.8,0.6l0,0c-0.8-0.5-1.8-0.3-2.3,0.5l0,0c-0.5,0.8-0.3,1.8,0.5,2.3l0,0c0.9,0.6,1.2,1.8,0.6,2.8l0,0
					c-0.5,0.8-0.3,1.8,0.5,2.3l0,0c0.8,0.5,1.8,0.3,2.3-0.5l0,0c0.6-0.9,1.8-1.2,2.8-0.6l0,0c0.8,0.5,1.8,0.3,2.3-0.5l0,0
					c0.5-0.8,0.3-1.8-0.5-2.3l0,0C500.5-237.7,500.2-239,500.9-239.9z"/>
				<g>
					<path class="st2" d="M481.1-301.1c3.7,14.1,17.8,22.9,32.1,19.8c14.3-3.1,23.6-17,21-31.3L481.1-301.1z"/>
					<path class="st2" d="M501.6-334.6c-14.3,3.1-23.6,17-21,31.3l53.2-11.5C530.1-328.9,516-337.7,501.6-334.6z M523.6-318.3
						c-2,2.6-6.6,2.5-10.2-0.2c-3.6-2.8-4.8-7.1-2.8-9.8c2-2.6,6.6-2.5,10.2,0.2C524.4-325.3,525.6-320.9,523.6-318.3z"/>
				</g>
				<path class="st2" d="M431.2-250.6l1.9-0.4c0.8-0.2,1.5,0.7,1.1,1.4l-0.8,1.8l1,1.7c0.4,0.7-0.2,1.6-1,1.5l-2-0.2l-1.3,1.5
					c-0.6,0.6-1.6,0.3-1.8-0.5l-0.4-1.9l-1.8-0.8c-0.8-0.3-0.8-1.4-0.1-1.8l1.7-1l0.2-2c0.1-0.8,1.1-1.2,1.7-0.6L431.2-250.6z"/>
				<path class="st2" d="M720.2-351.9l2.7-1.4c1.2-0.6,2.6,0.4,2.3,1.7l-0.5,3.1l2.2,2.2c1,0.9,0.4,2.6-0.9,2.7l-3.1,0.4l-1.4,2.8
					c-0.6,1.2-2.3,1.2-2.9,0l-1.4-2.8l-3.1-0.4c-1.3-0.2-1.8-1.8-0.9-2.7l2.2-2.2l-0.5-3.1c-0.2-1.3,1.2-2.3,2.3-1.7L720.2-351.9z"
					/>
				<path class="st2" d="M1014.1-316l3.5,1.6c1.5,0.7,1.5,2.8,0.1,3.6l-3.4,1.8l-0.5,3.8c-0.2,1.7-2.2,2.4-3.4,1.2l-2.8-2.7
					l-3.8,0.7c-1.6,0.3-2.9-1.4-2.2-2.9l1.7-3.5l-1.9-3.4c-0.8-1.5,0.4-3.2,2.1-3l3.8,0.6l2.6-2.8c1.1-1.2,3.2-0.6,3.5,1.1
					L1014.1-316z"/>
				<path class="st2" d="M777.8-69.3L777.8-69.3c-0.6-0.8-1.8-1-2.6-0.3l0,0c-0.8,0.6-1,1.8-0.3,2.6l0,0c0.8,1,0.6,2.4-0.4,3.2l0,0
					c-0.8,0.6-1,1.8-0.3,2.6l0,0c0.6,0.8,1.8,1,2.6,0.3l0,0c1-0.8,2.4-0.6,3.2,0.4l0,0c0.6,0.8,1.8,1,2.6,0.3l0,0
					c0.8-0.6,1-1.8,0.3-2.6l0,0c-0.8-1-0.6-2.4,0.4-3.2l0,0c0.8-0.6,1-1.8,0.3-2.6l0,0c-0.6-0.8-1.8-1-2.6-0.3l0,0
					C780-68.1,778.6-68.3,777.8-69.3z"/>
				<path class="st2" d="M-47.2-137.3L-47.2-137.3c-0.6-0.8-1.8-1-2.6-0.3l0,0c-0.8,0.6-1,1.8-0.3,2.6l0,0c0.8,1,0.6,2.4-0.4,3.2
					l0,0c-0.8,0.6-1,1.8-0.3,2.6l0,0c0.6,0.8,1.8,1,2.6,0.3l0,0c1-0.8,2.4-0.6,3.2,0.4l0,0c0.6,0.8,1.8,1,2.6,0.3l0,0
					c0.8-0.6,1-1.8,0.3-2.6l0,0c-0.8-1-0.6-2.4,0.4-3.2l0,0c0.8-0.6,1-1.8,0.3-2.6l0,0c-0.6-0.8-1.8-1-2.6-0.3l0,0
					C-45-136.1-46.4-136.3-47.2-137.3z"/>
				<path class="st2" d="M714.8-144l2.7-1.4c1.2-0.6,2.6,0.4,2.3,1.7l-0.5,3.1l2.2,2.2c1,0.9,0.4,2.6-0.9,2.7l-3.1,0.4l-1.4,2.8
					c-0.6,1.2-2.3,1.2-2.9,0l-1.4-2.8l-3.1-0.4c-1.3-0.2-1.8-1.8-0.9-2.7l2.2-2.2l-0.5-3.1c-0.2-1.3,1.2-2.3,2.3-1.7L714.8-144z"/>
				<path class="st2" d="M149.5-239l2.1-1.1c0.9-0.5,1.9,0.3,1.8,1.3l-0.4,2.3l1.7,1.6c0.7,0.7,0.3,1.9-0.7,2.1l-2.3,0.3l-1,2.1
					c-0.4,0.9-1.7,0.9-2.2,0l-1-2.1l-2.3-0.3c-1-0.1-1.4-1.4-0.7-2.1l1.7-1.6l-0.4-2.3c-0.2-1,0.9-1.7,1.8-1.3L149.5-239z"/>
				<path class="st2" d="M-173.4-317l0.6-2.2c0.3-1,1.5-1.2,2.1-0.4l1.4,1.9l2.3-0.1c1,0,1.6,1.1,1,1.9l-1.3,1.9l0.8,2.2
					c0.4,0.9-0.5,1.9-1.5,1.6l-2.2-0.7l-1.8,1.4c-0.8,0.6-1.9,0.1-2-0.9v-2.3l-1.9-1.3c-0.8-0.6-0.7-1.8,0.3-2.2L-173.4-317z"/>
				<path class="st2" d="M215.9-127.5L215.9-127.5c0.9-0.7,1-2,0.3-2.9l0,0c-0.7-0.9-2-1-2.9-0.3l0,0c-1,0.9-2.6,0.7-3.4-0.3l0,0
					c-0.7-0.9-2-1-2.9-0.3l0,0c-0.9,0.7-1,2-0.3,2.9l0,0c0.9,1,0.7,2.6-0.3,3.4l0,0c-0.9,0.7-1,2-0.3,2.9l0,0c0.7,0.9,2,1,2.9,0.3
					l0,0c1-0.9,2.6-0.7,3.4,0.3l0,0c0.7,0.9,2,1,2.9,0.3l0,0c0.9-0.7,1-2,0.3-2.9l0,0C214.7-125.1,214.9-126.7,215.9-127.5z"/>
				<path class="st2" d="M1022.3-103.8L1022.3-103.8c0.9-0.7,1-2,0.3-2.9l0,0c-0.7-0.9-2-1-2.9-0.3l0,0c-1,0.9-2.6,0.7-3.4-0.3l0,0
					c-0.7-0.9-2-1-2.9-0.3l0,0c-0.9,0.7-1,2-0.3,2.9l0,0c0.9,1,0.7,2.6-0.3,3.4l0,0c-0.9,0.7-1,2-0.3,2.9l0,0c0.7,0.9,2,1,2.9,0.3
					l0,0c1-0.9,2.6-0.7,3.4,0.3l0,0c0.7,0.9,2,1,2.9,0.3l0,0c0.9-0.7,1-2,0.3-2.9l0,0C1021.1-101.4,1021.2-102.9,1022.3-103.8z"/>
				<path class="st2" d="M-123.8-111.8L-123.8-111.8c0.9-0.7,1-2,0.3-2.9l0,0c-0.7-0.9-2-1-2.9-0.3l0,0c-1,0.9-2.6,0.7-3.4-0.3l0,0
					c-0.7-0.9-2-1-2.9-0.3l0,0c-0.9,0.7-1,2-0.3,2.9l0,0c0.9,1,0.7,2.6-0.3,3.4l0,0c-0.9,0.7-1,2-0.3,2.9l0,0c0.7,0.9,2,1,2.9,0.3
					l0,0c1-0.9,2.6-0.7,3.4,0.3l0,0c0.7,0.9,2,1,2.9,0.3l0,0c0.9-0.7,1-2,0.3-2.9l0,0C-124.9-109.4-124.8-110.9-123.8-111.8z"/>
				<path class="st2" d="M834.1-109.4L834.1-109.4c0.9-0.7,1-2,0.3-2.9l0,0c-0.7-0.9-2-1-2.9-0.3l0,0c-1,0.9-2.6,0.7-3.4-0.3l0,0
					c-0.7-0.9-2-1-2.9-0.3l0,0c-0.9,0.7-1,2-0.3,2.9l0,0c0.9,1,0.7,2.6-0.3,3.4l0,0c-0.9,0.7-1,2-0.3,2.9l0,0c0.7,0.9,2,1,2.9,0.3
					l0,0c1-0.9,2.6-0.7,3.4,0.3l0,0c0.7,0.9,2,1,2.9,0.3l0,0c0.9-0.7,1-2,0.3-2.9l0,0C832.9-107,833-108.5,834.1-109.4z"/>
				<path class="st2" d="M126.3-123.3l4.5,0.5c1.9,0.2,2.8,2.6,1.4,3.9l-3.1,3.2l0.9,4.4c0.4,1.9-1.6,3.4-3.3,2.6l-4-2l-3.9,2.2
					c-1.7,0.9-3.7-0.4-3.5-2.4l0.6-4.4l-3.3-3c-1.4-1.3-0.7-3.7,1.2-4l4.4-0.8l1.9-4.1c0.8-1.8,3.3-1.8,4.2-0.1L126.3-123.3z"/>
				<path class="st2" d="M1106.3-133.5l4-2c1.7-0.9,3.7,0.7,3.3,2.6l-0.9,4.4l3.1,3.2c1.3,1.4,0.5,3.7-1.4,3.9l-4.5,0.5l-2.1,4
					c-0.9,1.7-3.4,1.6-4.2-0.1l-1.9-4.1l-4.4-0.8c-1.9-0.3-2.6-2.7-1.2-4l3.3-3l-0.6-4.4c-0.3-1.9,1.8-3.3,3.5-2.4L1106.3-133.5z"/>
				
					<ellipse transform="matrix(0.9675 -0.253 0.253 0.9675 84.9869 93.1022)" class="st2" cx="404.5" cy="-283.9" rx="2.6" ry="2.6"/>
				
					<ellipse transform="matrix(0.9675 -0.253 0.253 0.9675 86.4673 96.8219)" class="st2" cx="419.7" cy="-287.8" rx="3.5" ry="3.5"/>
				
					<ellipse transform="matrix(0.9675 -0.253 0.253 0.9675 78.0693 104.5102)" class="st2" cx="445.4" cy="-251.3" rx="2.6" ry="2.6"/>
				
					<ellipse transform="matrix(0.9675 -0.253 0.253 0.9675 114.9521 265.1373)" class="st2" cx="1088.4" cy="-314.4" rx="2.6" ry="2.6"/>
				
					<ellipse transform="matrix(0.9675 -0.253 0.253 0.9675 59.7321 291.3206)" class="st2" cx="1162.6" cy="-86.6" rx="2.6" ry="2.6"/>
				
					<ellipse transform="matrix(0.9675 -0.253 0.253 0.9675 75.0586 97.1054)" class="st2" cx="415.1" cy="-243.3" rx="2.6" ry="2.6"/>
				
					<ellipse transform="matrix(0.9675 -0.253 0.253 0.9675 73.5873 93.4629)" class="st2" cx="400.2" cy="-239.4" rx="2.2" ry="2.2"/>
				
					<ellipse transform="matrix(0.9675 -0.253 0.253 0.9675 81.7904 -31.555)" class="st2" cx="-81.8" cy="-333.8" rx="2.2" ry="2.2"/>
				
					<ellipse transform="matrix(0.9675 -0.253 0.253 0.9675 24.6441 -52.754)" class="st2" cx="-192.8" cy="-122.2" rx="2.2" ry="2.2"/>
				<g>
					<line class="st3" x1="400.8" y1="-246.1" x2="403.9" y2="-277.2"/>
					<path class="st2" d="M401-245.4c-0.1,0-0.2,0-0.2,0c-0.4,0-0.6-0.4-0.6-0.7l3-31.1c0-0.4,0.4-0.6,0.7-0.6
						c0.4,0,0.6,0.4,0.6,0.7l-3,31.1C401.5-245.7,401.3-245.5,401-245.4z"/>
				</g>
				<g>
					<line class="st3" x1="415.8" y1="-250" x2="417.3" y2="-265.6"/>
					<path class="st2" d="M415.9-249.3c-0.1,0-0.2,0-0.2,0c-0.4,0-0.6-0.4-0.6-0.7l1.5-15.5c0-0.4,0.4-0.6,0.7-0.6
						c0.4,0,0.6,0.4,0.6,0.7l-1.5,15.5C416.4-249.6,416.2-249.4,415.9-249.3z"/>
				</g>
				<g>
					<line class="st3" x1="441.6" y1="-256.8" x2="423.7" y2="-282.4"/>
					<path class="st2" d="M441.7-256.1c-0.3,0.1-0.6,0-0.7-0.3L423.2-282c-0.2-0.3-0.1-0.7,0.2-0.9c0.3-0.2,0.7-0.1,0.9,0.2
						l17.9,25.6c0.2,0.3,0.1,0.7-0.2,0.9C441.9-256.2,441.8-256.1,441.7-256.1z"/>
				</g>
				<g>
					<line class="st3" x1="426" y1="-253.8" x2="408.8" y2="-278.5"/>
					<path class="st2" d="M426.1-253.1c-0.3,0.1-0.6,0-0.7-0.3l-17.2-24.7c-0.2-0.3-0.1-0.7,0.2-0.9c0.3-0.2,0.7-0.1,0.9,0.2
						l17.2,24.7c0.2,0.3,0.1,0.7-0.2,0.9C426.3-253.2,426.2-253.1,426.1-253.1z"/>
				</g>
				<g>
					<line class="st3" x1="405" y1="-239.8" x2="410.8" y2="-241.3"/>
					<path class="st2" d="M411-241.4l-6.1,1.6c-0.4,0.1-0.7,0-0.8-0.4c-0.1-0.4,0.1-0.7,0.5-0.7l6.1-1.6c0.4-0.1,0.7,0,0.8,0.4
						S411.3-241.5,411-241.4z"/>
				</g>
				<g>
					<line class="st3" x1="409.2" y1="-285.1" x2="413.8" y2="-286.3"/>
					<path class="st2" d="M414.3-286.4L409-285c-0.4,0.1-0.7,0-0.8-0.4c-0.1-0.4,0.1-0.7,0.5-0.7l5.3-1.4c0.4-0.1,0.7,0,0.8,0.4
						C414.9-286.8,414.7-286.5,414.3-286.4z"/>
				</g>
				<g>
					<line class="st3" x1="436.1" y1="-247.9" x2="440.6" y2="-249.1"/>
					<path class="st2" d="M440.9-249.2l-4.4,1.1c-0.4,0.1-0.7,0-0.8-0.4c-0.1-0.4,0.1-0.7,0.5-0.7l4.4-1.1c0.4-0.1,0.7,0,0.8,0.4
						S441.3-249.3,440.9-249.2z"/>
				</g>
				<g>
					<path class="st2" d="M789.2,88L741,136.2c-1.8,1.8-1.6,4.8,0.4,6.4c15.1,11.8,37.1,10.8,51-3.2c13.9-13.9,15-35.9,3.2-51
						C794,86.4,791,86.2,789.2,88z"/>
					<circle class="st2" cx="753.5" cy="100.5" r="4.6"/>
					<circle class="st2" cx="782.2" cy="129.2" r="6.2"/>
					<circle class="st2" cx="792.5" cy="139.5" r="6.2"/>
					<path class="st2" d="M804,176h-23.1c-1.3,0-2.3-1.3-1.9-2.6l6.6-23.5c0.2-0.9,1-1.5,1.9-1.5h9.8c0.9,0,1.7,0.6,1.9,1.5
						l6.6,23.5C806.3,174.7,805.3,176,804,176z"/>
				</g>
				<g>
					<circle class="st2" cx="472.2" cy="169.9" r="6.1"/>
					<circle class="st2" cx="457.2" cy="169.9" r="6.1"/>
					<circle class="st2" cx="515.7" cy="169.9" r="6.1"/>
					<circle class="st2" cx="500.8" cy="169.9" r="6.1"/>
					<circle class="st2" cx="427.2" cy="169.9" r="6.1"/>
					<path class="st2" d="M437.7,142.7h-19.2c-1.7,0-3.2,1.4-3.2,3.2v20.9c0,1.7,1.4,3.2,3.2,3.2h19.2c1.7,0,3.2-1.4,3.2-3.2v-20.9
						C440.9,144.1,439.5,142.7,437.7,142.7z"/>
					<path class="st2" d="M526.8,130.2h-77.7c-1.7,0-3.2,1.4-3.2,3.2v33.4c0,1.7,1.4,3.2,3.2,3.2h77.7c1.7,0,3.2-1.4,3.2-3.2v-33.4
						C530,131.6,528.6,130.2,526.8,130.2z"/>
					<rect x="435.1" y="163.8" class="st2" width="25.3" height="6.1"/>
				</g>
				<g>
					
						<linearGradient id="SVGID_3_" gradientUnits="userSpaceOnUse" x1="244.9137" y1="384.4175" x2="714.9136" y2="74.4174" gradientTransform="matrix(1 0 0 1 0 -318)">
						<stop  offset="0" style="stop-color:#007ADC;stop-opacity:0"/>
						<stop  offset="1" style="stop-color:#007ADC"/>
					</linearGradient>
					<path class="st4" d="M708.6-226.4l-27.6-5.3l5.6-28.7C296.3-16.5-99.5,47.2-208.9-114.9L240,550.3
						C130.6,388.3,336.8,44.2,708.6-226.4z"/>
				</g>
				<g>
					<path class="st5" d="M695-242.8l3.1-16c1.7-8.8,10.2-14.6,19.1-12.9l0,0c8.8,1.7,14.6,10.2,12.9,19.1l0,0
						c-1.7,8.8-10.2,14.6-19.1,12.9L695-242.8z"/>
					<path class="st5" d="M742.9-274.8c8.7,13,10.5,28.6,6.1,42.4c-1.4,4.6,3.2,8.8,7.6,6.9c3.4-1.5,6.7-3.4,9.8-5.8
						c20.1-15.3,25.3-44.3,11.7-65.6c-15-23.4-46.2-29.8-69-14.3c-2.4,1.6-4.6,3.4-6.6,5.3c-3.5,3.3-1.3,9.3,3.5,9.6
						C720.3-295.1,734.2-287.7,742.9-274.8z"/>
					<path class="st6" d="M728.1-259.5c2,3,5.5,4.6,9,4.1c26.3-3.1,55-6.4,72-17.9c23-15.6,36.9-39.6,40.2-65.2
						c0.7-5.3-2.7-10.4-7.9-11.7c-24.9-6.5-52.4-2.6-75.5,12.9c-17,11.5-30.8,36.8-43.5,60.1c-1.7,3.1-1.5,7,0.5,9.9L728.1-259.5z"
						/>
					
						<ellipse transform="matrix(0.8288 -0.5595 0.5595 0.8288 309.3371 391.3807)" class="st5" cx="794.3" cy="-309.9" rx="20.7" ry="20.7"/>
				</g>
				<polygon class="st2" points="1370.1,39 1566.1,179 1174,179 				"/>
				<polygon class="st2" points="-430.1,39 -234,179 -626.1,179 				"/>
				<polygon class="st2" points="-292.6,93 -172.1,179 -413,179 				"/>
				<polygon class="st2" points="1139.8,111 1235,179 1044.5,179 				"/>
				<polygon class="st2" points="-125.3,129.2 -55.5,179 -195,179 				"/>
				<circle class="st7" cx="794.4" cy="-309.9" r="15.6"/>
				<g>
					<path class="st2" d="M-49.7,127.8l5.7,12.6c0.4,0.9-0.3,2-1.3,2h-11.4c-1,0-1.7-1.1-1.3-2l5.7-12.6
						C-51.8,126.7-50.2,126.7-49.7,127.8z"/>
					<path class="st2" d="M-49.7,134.2l9.2,20.2c0.4,0.9-0.3,2-1.3,2h-18.3c-1,0-1.7-1.1-1.3-2l9.2-20.2
						C-51.8,133.1-50.2,133.1-49.7,134.2z"/>
					<path class="st2" d="M-49.7,142.2l12.6,27.8c0.4,0.9-0.3,2-1.3,2h-25.2c-1,0-1.7-1.1-1.3-2l12.6-27.8
						C-51.8,141.1-50.2,141.1-49.7,142.2z"/>
					<path class="st2" d="M-49.9,161.8h-2.2c-0.8,0-1.4,0.6-1.4,1.4V176h5v-12.8C-48.5,162.4-49.1,161.8-49.9,161.8z"/>
				</g>
				<g>
					<g>
						<path class="st2" d="M1042.3,127.3l5.7,12.6c0.4,0.9-0.3,2-1.3,2h-11.4c-1,0-1.7-1.1-1.3-2l5.7-12.6
							C1040.2,126.2,1041.8,126.2,1042.3,127.3z"/>
						<path class="st2" d="M1042.3,133.7l9.2,20.2c0.4,0.9-0.3,2-1.3,2h-18.3c-1,0-1.7-1.1-1.3-2l9.2-20.2
							C1040.2,132.6,1041.8,132.6,1042.3,133.7z"/>
						<path class="st2" d="M1042.3,141.7l12.6,27.8c0.4,0.9-0.3,2-1.3,2h-25.2c-1,0-1.7-1.1-1.3-2l12.6-27.8
							C1040.2,140.6,1041.8,140.6,1042.3,141.7z"/>
						<path class="st2" d="M1042.1,161.3h-2.2c-0.8,0-1.4,0.6-1.4,1.4V176h5v-13.3C1043.5,161.9,1042.9,161.3,1042.1,161.3z"/>
					</g>
					<g>
						<path class="st2" d="M984.5,137.6l4.3,9.5c0.3,0.7-0.2,1.5-1,1.5h-8.6c-0.8,0-1.3-0.8-1-1.5l4.3-9.5
							C982.9,136.8,984.1,136.8,984.5,137.6z"/>
						<path class="st2" d="M984.5,142.4l6.9,15.2c0.3,0.7-0.2,1.5-1,1.5h-13.7c-0.8,0-1.3-0.8-1-1.5l6.9-15.2
							C982.9,141.6,984.1,141.6,984.5,142.4z"/>
						<path class="st2" d="M984.5,148.4l9.4,20.9c0.3,0.7-0.2,1.5-1,1.5H974c-0.8,0-1.3-0.8-1-1.5l9.4-20.9
							C982.9,147.6,984.1,147.6,984.5,148.4z"/>
						<path class="st2" d="M984.2,163.1h-1.3c-0.7,0-1.2,0.5-1.2,1.2V176h3.7v-11.7C985.4,163.7,984.8,163.1,984.2,163.1z"/>
					</g>
					<g>
						<path class="st2" d="M1021.8,117.5l7,15.5c0.5,1.1-0.3,2.4-1.6,2.4h-14.1c-1.3,0-2.1-1.3-1.6-2.4l7-15.5
							C1019.3,116.1,1021.2,116.1,1021.8,117.5z"/>
						<path class="st2" d="M1021.8,125.3l11.3,24.9c0.5,1.1-0.3,2.4-1.6,2.4H1009c-1.3,0-2.1-1.3-1.6-2.4l11.3-24.9
							C1019.3,124,1021.2,124,1021.8,125.3z"/>
						<path class="st2" d="M1021.8,133.3l15.5,34.3c0.5,1.1-0.3,2.4-1.6,2.4h-31.1c-1.3,0-2.1-1.3-1.6-2.4l15.5-34.3
							C1019.3,131.9,1021.2,131.9,1021.8,133.3z"/>
						<path class="st2" d="M1021.6,159.4h-2.7c-1,0-1.7,0.8-1.7,1.7V176h6.2v-14.9C1023.3,160.1,1022.6,159.4,1021.6,159.4z"/>
					</g>
				</g>
				<g>
					<path class="st2" d="M-195.7,129.3l5.7,12.6c0.4,0.9-0.3,2-1.3,2h-11.4c-1,0-1.7-1.1-1.3-2l5.7-12.6
						C-197.8,128.2-196.2,128.2-195.7,129.3z"/>
					<path class="st2" d="M-195.7,135.7l9.2,20.2c0.4,0.9-0.3,2-1.3,2h-18.3c-1,0-1.7-1.1-1.3-2l9.2-20.2
						C-197.8,134.6-196.2,134.6-195.7,135.7z"/>
					<path class="st2" d="M-195.7,143.7l12.6,27.8c0.4,0.9-0.3,2-1.3,2h-25.2c-1,0-1.7-1.1-1.3-2l12.6-27.8
						C-197.8,142.6-196.2,142.6-195.7,143.7z"/>
					<path class="st2" d="M-195.9,163.3h-2.2c-0.8,0-1.4,0.6-1.4,1.4V180h5v-15.3C-194.5,163.9-195.1,163.3-195.9,163.3z"/>
				</g>
				<g>
					<path class="st2" d="M-33.2,146.5l3.7,8.1c0.3,0.6-0.2,1.3-0.8,1.3h-7.3c-0.7,0-1.1-0.7-0.8-1.3l3.7-8.1
						C-34.5,145.8-33.5,145.8-33.2,146.5z"/>
					<path class="st2" d="M-33.2,150.6l5.9,13c0.3,0.6-0.2,1.3-0.8,1.3h-11.8c-0.7,0-1.1-0.7-0.8-1.3l5.9-13
						C-34.5,149.9-33.5,149.9-33.2,150.6z"/>
					<path class="st2" d="M-33.2,155.7l8.1,17.9c0.3,0.6-0.2,1.3-0.8,1.3h-16.2c-0.7,0-1.1-0.7-0.8-1.3l8.1-17.9
						C-34.5,155-33.5,155-33.2,155.7z"/>
					<path class="st2" d="M-33.3,168.3h-1.4c-0.5,0-0.9,0.4-0.9,0.9v6.8h3.2v-6.8C-32.4,168.7-32.8,168.3-33.3,168.3z"/>
				</g>
				<g>
					<path class="st2" d="M105,93H92h-2.5C87,93,85,95,85,97.5v2.5v79h7v-79h13v79h7v-79v-2.5c0-2.5-2-4.5-4.5-4.5H105z"/>
					<rect x="89" y="111.2" class="st2" width="17" height="2"/>
					
						<rect x="98" y="91.5" transform="matrix(0.7071 -0.7071 0.7071 0.7071 -45.9511 101.0362)" class="st2" width="2" height="29"/>
					
						<rect x="98" y="104.5" transform="matrix(0.7071 -0.7071 0.7071 0.7071 -55.1435 104.8439)" class="st2" width="2" height="29"/>
					
						<rect x="98" y="117.5" transform="matrix(0.7071 -0.7071 0.7071 0.7071 -64.355 108.6594)" class="st2" width="2" height="29"/>
					
						<rect x="98" y="131.5" transform="matrix(0.7071 -0.7071 0.7071 0.7071 -74.2353 112.752)" class="st2" width="2" height="29"/>
					
						<rect x="98" y="144.5" transform="matrix(0.7071 -0.7071 0.7071 0.7071 -83.4276 116.5596)" class="st2" width="2" height="29"/>
					
						<rect x="98" y="157.5" transform="matrix(0.7071 -0.7071 0.7071 0.7071 -92.6391 120.3751)" class="st2" width="2" height="29"/>
					<rect x="89" y="98" class="st2" width="17" height="2"/>
					<rect x="89" y="124.3" class="st2" width="17" height="2"/>
					<rect x="89" y="137.5" class="st2" width="17" height="2"/>
					<rect x="89" y="163.8" class="st2" width="17" height="2"/>
					<rect x="89" y="150.7" class="st2" width="17" height="2"/>
					<rect x="89" y="177" class="st2" width="17" height="2"/>
				</g>
				<rect x="117" y="173" class="st2" width="75" height="3"/>
			</g>
		</g>
	</g>
</g>
<path class="st8" d="M298.3,190.6c-4.8,0-8.7,3.9-8.7,8.7s3.9,8.7,8.7,8.7s8.7-3.9,8.7-8.7S303.1,190.6,298.3,190.6z M298.3,194.3
	c0.9,0,1.6,0.7,1.6,1.6c0,0.9-0.7,1.6-1.6,1.6c-0.9,0-1.6-0.7-1.6-1.6C296.7,195,297.4,194.3,298.3,194.3z M300.4,204h-4.2
	c-0.3,0-0.5-0.2-0.5-0.5c0-0.3,0.2-0.5,0.5-0.5h0.5v-3.6v0h-0.5c-0.3,0-0.5-0.2-0.5-0.5c0-0.3,0.2-0.5,0.5-0.5h3.3
	c0.2,0,0.4,0.2,0.4,0.4v4.2h0.5c0.3,0,0.5,0.2,0.5,0.5C300.9,203.7,300.7,204,300.4,204z"/>
</svg>
