<?xml version="1.0" encoding="utf-8"?>
<!-- Generator: Adobe Illustrator 19.2.1, SVG Export Plug-In . SVG Version: 6.00 Build 0)  -->
<svg version="1.1" id="puzzle" xmlns="http://www.w3.org/2000/svg" xmlns:xlink="http://www.w3.org/1999/xlink" x="0px" y="0px"
	 width="340px" height="240px" viewBox="0 0 340 240" style="enable-background:new 0 0 340 240;" xml:space="preserve">
<style type="text/css">
	.st0{fill:#074B89;}
	.st1{clip-path:url(#SVGID_2_);}
	.st2{fill:#006DBA;}
	.st3{fill:none;}
	.st4{fill:url(#SVGID_3_);}
	.st5{fill:#E3EAF4;}
	.st6{fill:#CEDAE3;}
	.st7{fill:#005F99;}
	.st8{fill:#035CA1;}
</style>
<path class="st0" d="M319,99V26c0-3.3-2.7-6-6-6H27c-3.3,0-6,2.7-6,6v73c-11.6,0-21,9.4-21,21s9.4,21,21,21v73c0,3.3,2.7,6,6,6
	h120.1c1-11.7,10.9-20,22.9-20s21.9,8.3,22.9,20H313c3.3,0,6-2.7,6-6v-73c11.6,0,21-9.4,21-21S330.6,99,319,99z"/>
<g>
	<g>
		<g>
			<defs>
				<path id="SVGID_1_" d="M319,99V26c0-3.3-2.7-6-6-6H27c-3.3,0-6,2.7-6,6v73c-11.6,0-21,9.4-21,21s9.4,21,21,21v73
					c0,3.3,2.7,6,6,6h120.1c1-11.7,10.9-20,22.9-20s21.9,8.3,22.9,20H313c3.3,0,6-2.7,6-6v-73c11.6,0,21-9.4,21-21S330.6,99,319,99z
					"/>
			</defs>
			<clipPath id="SVGID_2_">
				<use xlink:href="#SVGID_1_"  style="overflow:visible;"/>
			</clipPath>
			<g class="st1">
				<rect x="-1265" y="582" class="st2" width="2266" height="45"/>
				<path class="st2" d="M-808.2,288.7L-808.2,288.7L-808.2,288.7z"/>
				<g>
					
						<ellipse transform="matrix(0.9776 -0.2104 0.2104 0.9776 -29.6676 -96.2547)" class="st2" cx="-467.2" cy="91.3" rx="20.5" ry="20.5"/>
					
						<ellipse transform="matrix(0.9776 -0.2104 0.2104 0.9776 -28.094 -91.4639)" class="st2" cx="-443.9" cy="86.3" rx="1.5" ry="1.5"/>
					<path class="st2" d="M-491.5,98.3l-24.6,5.3c-0.9,0.2-1.9-0.4-2.1-1.3l0,0c-0.2-0.9,0.4-1.9,1.3-2.1l24.6-5.3
						c0.9-0.2,1.9,0.4,2.1,1.3l0,0C-490,97.2-490.6,98.1-491.5,98.3z"/>
					<g>
						<path class="st2" d="M-482.7,112.4l-22.6,11.1c-0.9,0.4-1.9,0.1-2.3-0.8l0,0c-0.4-0.9-0.1-1.9,0.8-2.3l22.6-11.1
							c0.9-0.4,1.9-0.1,2.3,0.8l0,0C-481.5,111-481.9,112-482.7,112.4z"/>
						<path class="st2" d="M-490.1,78.4l-25.2-0.9c-1,0-1.8,0.7-1.8,1.7l0,0c0,1,0.7,1.8,1.7,1.8l25.2,0.9c1,0,1.8-0.7,1.8-1.7l0,0
							C-488.4,79.3-489.1,78.5-490.1,78.4z"/>
					</g>
				</g>
				<path class="st2" d="M-389,135.7L-389,135.7c0.5-1.7-0.5-3.4-2.2-3.9l0,0c-1.7-0.5-3.4,0.5-3.9,2.2l0,0c-0.6,2-2.7,3.2-4.7,2.6
					l0,0c-1.7-0.5-3.4,0.5-3.9,2.2l0,0c-0.5,1.7,0.5,3.4,2.2,3.9l0,0c2,0.6,3.2,2.7,2.6,4.7l0,0c-0.5,1.7,0.5,3.4,2.2,3.9l0,0
					c1.7,0.5,3.4-0.5,3.9-2.2l0,0c0.6-2,2.7-3.2,4.7-2.6l0,0c1.7,0.5,3.4-0.5,3.9-2.2l0,0c0.5-1.7-0.5-3.4-2.2-3.9l0,0
					C-388.4,139.8-389.6,137.7-389,135.7z"/>
				<path class="st2" d="M-169.4,67.9L-169.4,67.9c-1.1-1.4-3.1-1.6-4.4-0.5l0,0c-1.4,1.1-1.6,3.1-0.5,4.4l0,0c1.3,1.6,1,4-0.6,5.3
					l0,0c-1.4,1.1-1.6,3.1-0.5,4.4l0,0c1.1,1.4,3.1,1.6,4.4,0.5l0,0c1.6-1.3,4-1,5.3,0.6l0,0c1.1,1.4,3.1,1.6,4.4,0.5l0,0
					c1.4-1.1,1.6-3.1,0.5-4.4l0,0c-1.3-1.6-1-4,0.6-5.3l0,0c1.4-1.1,1.6-3.1,0.5-4.4l0,0c-1.1-1.4-3.1-1.6-4.4-0.5l0,0
					C-165.7,69.8-168.1,69.5-169.4,67.9z"/>
				<path class="st2" d="M-683.4,132.2L-683.4,132.2c1.2-1.3,1-3.3-0.3-4.5l0,0c-1.3-1.2-3.3-1-4.5,0.3l0,0
					c-1.4,1.6-3.8,1.7-5.4,0.4l0,0c-1.3-1.2-3.3-1-4.5,0.3l0,0c-1.2,1.3-1,3.3,0.3,4.5l0,0c1.6,1.4,1.7,3.8,0.4,5.4l0,0
					c-1.2,1.3-1,3.3,0.3,4.5l0,0c1.3,1.2,3.3,1,4.5-0.3l0,0c1.4-1.6,3.8-1.7,5.4-0.4l0,0c1.3,1.2,3.3,1,4.5-0.3l0,0
					c1.2-1.3,1-3.3-0.3-4.5l0,0C-684.7,136.2-684.8,133.8-683.4,132.2z"/>
				<path class="st2" d="M-954.6,143L-954.6,143c1,0.6,2.4,0.3,3.1-0.7l0,0c0.6-1,0.3-2.4-0.7-3.1l0,0c-1.3-0.8-1.7-2.4-0.9-3.7l0,0
					c0.6-1,0.3-2.4-0.7-3.1l0,0c-1-0.6-2.4-0.3-3.1,0.7l0,0c-0.8,1.3-2.4,1.7-3.7,0.9l0,0c-1-0.6-2.4-0.3-3.1,0.7l0,0
					c-0.6,1-0.3,2.4,0.7,3.1l0,0c1.3,0.8,1.7,2.4,0.9,3.7l0,0c-0.6,1-0.3,2.4,0.7,3.1l0,0c1,0.6,2.4,0.3,3.1-0.7l0,0
					C-957.5,142.7-955.8,142.3-954.6,143z"/>
				<path class="st2" d="M233.4,164.3L233.4,164.3c-0.6-0.8-1.8-1-2.6-0.3l0,0c-0.8,0.6-1,1.8-0.3,2.6l0,0c0.8,1,0.6,2.4-0.4,3.2
					l0,0c-0.8,0.6-1,1.8-0.3,2.6l0,0c0.6,0.8,1.8,1,2.6,0.3l0,0c1-0.8,2.4-0.6,3.2,0.4l0,0c0.6,0.8,1.8,1,2.6,0.3l0,0
					c0.8-0.6,1-1.8,0.3-2.6l0,0c-0.8-1-0.6-2.4,0.4-3.2l0,0c0.8-0.6,1-1.8,0.3-2.6l0,0c-0.6-0.8-1.8-1-2.6-0.3l0,0
					C235.6,165.5,234.1,165.3,233.4,164.3z"/>
				<path class="st2" d="M457.1,140.7L457.1,140.7c0.4-1-0.1-2-1.1-2.4l0,0c-1-0.4-2,0.1-2.4,1.1l0,0c-0.4,1.2-1.8,1.7-2.9,1.3l0,0
					c-1-0.4-2,0.1-2.4,1.1l0,0c-0.4,1,0.1,2,1.1,2.4l0,0c1.2,0.4,1.7,1.8,1.3,2.9l0,0c-0.4,1,0.1,2,1.1,2.4l0,0c1,0.4,2-0.1,2.4-1.1
					l0,0c0.4-1.2,1.8-1.7,2.9-1.3l0,0c1,0.4,2-0.1,2.4-1.1l0,0c0.4-1-0.1-2-1.1-2.4l0,0C457.2,143.2,456.7,141.9,457.1,140.7z"/>
				<path class="st2" d="M706.5,89.5L706.5,89.5c0.4-1-0.1-2-1.1-2.4l0,0c-1-0.4-2,0.1-2.4,1.1l0,0c-0.4,1.2-1.8,1.7-2.9,1.3l0,0
					c-1-0.4-2,0.1-2.4,1.1l0,0c-0.4,1,0.1,2,1.1,2.4l0,0c1.2,0.4,1.7,1.8,1.3,2.9l0,0c-0.4,1,0.1,2,1.1,2.4l0,0c1,0.4,2-0.1,2.4-1.1
					l0,0c0.4-1.2,1.8-1.7,2.9-1.3l0,0c1,0.4,2-0.1,2.4-1.1l0,0c0.4-1-0.1-2-1.1-2.4l0,0C706.6,92,706.1,90.7,706.5,89.5z"/>
				<path class="st2" d="M-362.4,86.4L-362.4,86.4c-0.2-0.9-1.1-1.5-2-1.2l0,0c-0.9,0.2-1.5,1.1-1.2,2l0,0c0.2,1.1-0.4,2.2-1.5,2.4
					l0,0c-0.9,0.2-1.5,1.1-1.2,2l0,0c0.2,0.9,1.1,1.5,2,1.2l0,0c1.1-0.2,2.2,0.4,2.4,1.5l0,0c0.2,0.9,1.1,1.5,2,1.2l0,0
					c0.9-0.2,1.5-1.1,1.2-2l0,0c-0.2-1.1,0.4-2.2,1.5-2.4l0,0c0.9-0.2,1.5-1.1,1.2-2l0,0c-0.2-0.9-1.1-1.5-2-1.2l0,0
					C-361.1,88.2-362.2,87.5-362.4,86.4z"/>
				<path class="st2" d="M-99.1,164.1L-99.1,164.1c0.5-0.8,0.3-1.8-0.5-2.3l0,0c-0.8-0.5-1.8-0.3-2.3,0.5l0,0
					c-0.6,0.9-1.8,1.2-2.8,0.6l0,0c-0.8-0.5-1.8-0.3-2.3,0.5l0,0c-0.5,0.8-0.3,1.8,0.5,2.3l0,0c0.9,0.6,1.2,1.8,0.6,2.8l0,0
					c-0.5,0.8-0.3,1.8,0.5,2.3l0,0c0.8,0.5,1.8,0.3,2.3-0.5l0,0c0.6-0.9,1.8-1.2,2.8-0.6l0,0c0.8,0.5,1.8,0.3,2.3-0.5l0,0
					c0.5-0.8,0.3-1.8-0.5-2.3l0,0C-99.5,166.3-99.8,165-99.1,164.1z"/>
				<g>
					<path class="st2" d="M-118.9,102.9c3.7,14.1,17.8,22.9,32.1,19.8c14.3-3.1,23.6-17,21-31.3L-118.9,102.9z"/>
					<path class="st2" d="M-98.4,69.4c-14.3,3.1-23.6,17-21,31.3l53.2-11.5C-69.9,75.1-84,66.3-98.4,69.4z M-76.4,85.7
						c-2,2.6-6.6,2.5-10.2-0.2c-3.6-2.8-4.8-7.1-2.8-9.8c2-2.6,6.6-2.5,10.2,0.2C-75.6,78.7-74.4,83.1-76.4,85.7z"/>
				</g>
				<path class="st2" d="M-168.8,153.4l1.9-0.4c0.8-0.2,1.5,0.7,1.1,1.4l-0.8,1.8l1,1.7c0.4,0.7-0.2,1.6-1,1.5l-2-0.2l-1.3,1.5
					c-0.6,0.6-1.6,0.3-1.8-0.5l-0.4-1.9l-1.8-0.8c-0.8-0.3-0.8-1.4-0.1-1.8l1.7-1l0.2-2c0.1-0.8,1.1-1.2,1.7-0.6L-168.8,153.4z"/>
				<path class="st2" d="M120.2,52.1l2.7-1.4c1.2-0.6,2.6,0.4,2.3,1.7l-0.5,3.1l2.2,2.2c1,0.9,0.4,2.6-0.9,2.7l-3.1,0.4l-1.4,2.8
					c-0.6,1.2-2.3,1.2-2.9,0l-1.4-2.8l-3.1-0.4c-1.3-0.2-1.8-1.8-0.9-2.7l2.2-2.2l-0.5-3.1c-0.2-1.3,1.2-2.3,2.3-1.7L120.2,52.1z"/>
				<path class="st2" d="M414.1,88l3.5,1.6c1.5,0.7,1.5,2.8,0.1,3.6l-3.4,1.8l-0.5,3.8c-0.2,1.7-2.2,2.4-3.4,1.2l-2.8-2.7l-3.8,0.7
					c-1.6,0.3-2.9-1.4-2.2-2.9l1.7-3.5l-1.9-3.4c-0.8-1.5,0.4-3.2,2.1-3l3.8,0.6l2.6-2.8c1.1-1.2,3.2-0.6,3.5,1.1L414.1,88z"/>
				<path class="st2" d="M177.8,334.7L177.8,334.7c-0.6-0.8-1.8-1-2.6-0.3l0,0c-0.8,0.6-1,1.8-0.3,2.6l0,0c0.8,1,0.6,2.4-0.4,3.2
					l0,0c-0.8,0.6-1,1.8-0.3,2.6l0,0c0.6,0.8,1.8,1,2.6,0.3l0,0c1-0.8,2.4-0.6,3.2,0.4l0,0c0.6,0.8,1.8,1,2.6,0.3l0,0
					c0.8-0.6,1-1.8,0.3-2.6l0,0c-0.8-1-0.6-2.4,0.4-3.2l0,0c0.8-0.6,1-1.8,0.3-2.6l0,0c-0.6-0.8-1.8-1-2.6-0.3l0,0
					C180,335.9,178.6,335.7,177.8,334.7z"/>
				<path class="st2" d="M-647.2,266.7L-647.2,266.7c-0.6-0.8-1.8-1-2.6-0.3l0,0c-0.8,0.6-1,1.8-0.3,2.6l0,0c0.8,1,0.6,2.4-0.4,3.2
					l0,0c-0.8,0.6-1,1.8-0.3,2.6l0,0c0.6,0.8,1.8,1,2.6,0.3l0,0c1-0.8,2.4-0.6,3.2,0.4l0,0c0.6,0.8,1.8,1,2.6,0.3l0,0
					c0.8-0.6,1-1.8,0.3-2.6l0,0c-0.8-1-0.6-2.4,0.4-3.2l0,0c0.8-0.6,1-1.8,0.3-2.6l0,0c-0.6-0.8-1.8-1-2.6-0.3l0,0
					C-645,267.9-646.4,267.7-647.2,266.7z"/>
				<path class="st2" d="M114.8,260l2.7-1.4c1.2-0.6,2.6,0.4,2.3,1.7l-0.5,3.1l2.2,2.2c1,0.9,0.4,2.6-0.9,2.7l-3.1,0.4l-1.4,2.8
					c-0.6,1.2-2.3,1.2-2.9,0l-1.4-2.8l-3.1-0.4c-1.3-0.2-1.8-1.8-0.9-2.7l2.2-2.2l-0.5-3.1c-0.2-1.3,1.2-2.3,2.3-1.7L114.8,260z"/>
				<path class="st2" d="M-450.5,165l2.1-1.1c0.9-0.5,1.9,0.3,1.8,1.3l-0.4,2.3l1.7,1.6c0.7,0.7,0.3,1.9-0.7,2.1l-2.3,0.3l-1,2.1
					c-0.4,0.9-1.7,0.9-2.2,0l-1-2.1l-2.3-0.3c-1-0.1-1.4-1.4-0.7-2.1l1.7-1.6l-0.4-2.3c-0.2-1,0.9-1.7,1.8-1.3L-450.5,165z"/>
				<path class="st2" d="M-773.4,87l0.6-2.2c0.3-1,1.5-1.2,2.1-0.4l1.4,1.9l2.3-0.1c1,0,1.6,1.1,1,1.9l-1.3,1.9l0.8,2.2
					c0.4,0.9-0.5,1.9-1.5,1.6l-2.2-0.7l-1.8,1.4c-0.8,0.6-1.9,0.1-2-0.9v-2.3l-1.9-1.3c-0.8-0.6-0.7-1.8,0.3-2.2L-773.4,87z"/>
				<path class="st2" d="M-384.1,276.5L-384.1,276.5c0.9-0.7,1-2,0.3-2.9l0,0c-0.7-0.9-2-1-2.9-0.3l0,0c-1,0.9-2.6,0.7-3.4-0.3l0,0
					c-0.7-0.9-2-1-2.9-0.3l0,0c-0.9,0.7-1,2-0.3,2.9l0,0c0.9,1,0.7,2.6-0.3,3.4l0,0c-0.9,0.7-1,2-0.3,2.9l0,0c0.7,0.9,2,1,2.9,0.3
					l0,0c1-0.9,2.6-0.7,3.4,0.3l0,0c0.7,0.9,2,1,2.9,0.3l0,0c0.9-0.7,1-2,0.3-2.9l0,0C-385.3,278.9-385.1,277.3-384.1,276.5z"/>
				<path class="st2" d="M422.3,300.2L422.3,300.2c0.9-0.7,1-2,0.3-2.9l0,0c-0.7-0.9-2-1-2.9-0.3l0,0c-1,0.9-2.6,0.7-3.4-0.3l0,0
					c-0.7-0.9-2-1-2.9-0.3l0,0c-0.9,0.7-1,2-0.3,2.9l0,0c0.9,1,0.7,2.6-0.3,3.4l0,0c-0.9,0.7-1,2-0.3,2.9l0,0c0.7,0.9,2,1,2.9,0.3
					l0,0c1-0.9,2.6-0.7,3.4,0.3l0,0c0.7,0.9,2,1,2.9,0.3l0,0c0.9-0.7,1-2,0.3-2.9l0,0C421.1,302.6,421.2,301.1,422.3,300.2z"/>
				<path class="st2" d="M-723.8,292.2L-723.8,292.2c0.9-0.7,1-2,0.3-2.9l0,0c-0.7-0.9-2-1-2.9-0.3l0,0c-1,0.9-2.6,0.7-3.4-0.3l0,0
					c-0.7-0.9-2-1-2.9-0.3l0,0c-0.9,0.7-1,2-0.3,2.9l0,0c0.9,1,0.7,2.6-0.3,3.4l0,0c-0.9,0.7-1,2-0.3,2.9l0,0c0.7,0.9,2,1,2.9,0.3
					l0,0c1-0.9,2.6-0.7,3.4,0.3l0,0c0.7,0.9,2,1,2.9,0.3l0,0c0.9-0.7,1-2,0.3-2.9l0,0C-724.9,294.6-724.8,293.1-723.8,292.2z"/>
				<path class="st2" d="M234.1,294.6L234.1,294.6c0.9-0.7,1-2,0.3-2.9l0,0c-0.7-0.9-2-1-2.9-0.3l0,0c-1,0.9-2.6,0.7-3.4-0.3l0,0
					c-0.7-0.9-2-1-2.9-0.3l0,0c-0.9,0.7-1,2-0.3,2.9l0,0c0.9,1,0.7,2.6-0.3,3.4l0,0c-0.9,0.7-1,2-0.3,2.9l0,0c0.7,0.9,2,1,2.9,0.3
					l0,0c1-0.9,2.6-0.7,3.4,0.3l0,0c0.7,0.9,2,1,2.9,0.3l0,0c0.9-0.7,1-2,0.3-2.9l0,0C232.9,297,233,295.5,234.1,294.6z"/>
				<path class="st2" d="M-473.7,280.7l4.5,0.5c1.9,0.2,2.8,2.6,1.4,3.9l-3.1,3.2l0.9,4.4c0.4,1.9-1.6,3.4-3.3,2.6l-4-2l-3.9,2.2
					c-1.7,0.9-3.7-0.4-3.5-2.4l0.6-4.4l-3.3-3c-1.4-1.3-0.7-3.7,1.2-4l4.4-0.8l1.9-4.1c0.8-1.8,3.3-1.8,4.2-0.1L-473.7,280.7z"/>
				<path class="st2" d="M506.3,270.5l4-2c1.7-0.9,3.7,0.7,3.3,2.6l-0.9,4.4l3.1,3.2c1.3,1.4,0.5,3.7-1.4,3.9l-4.5,0.5l-2.1,4
					c-0.9,1.7-3.4,1.6-4.2-0.1l-1.9-4.1l-4.4-0.8c-1.9-0.3-2.6-2.7-1.2-4l3.3-3l-0.6-4.4c-0.3-1.9,1.8-3.3,3.5-2.4L506.3,270.5z"/>
				
					<ellipse transform="matrix(0.9675 -0.253 0.253 0.9675 -36.7448 -45.5547)" class="st2" cx="-195.5" cy="120.1" rx="2.6" ry="2.6"/>
				
					<ellipse transform="matrix(0.9675 -0.253 0.253 0.9675 -35.2644 -41.8351)" class="st2" cx="-180.3" cy="116.2" rx="3.5" ry="3.5"/>
				
					<ellipse transform="matrix(0.9675 -0.253 0.253 0.9675 -43.6625 -34.1467)" class="st2" cx="-154.6" cy="152.7" rx="2.6" ry="2.6"/>
				
					<ellipse transform="matrix(0.9675 -0.253 0.253 0.9675 -6.7796 126.4803)" class="st2" cx="488.4" cy="89.6" rx="2.6" ry="2.6"/>
				
					<ellipse transform="matrix(0.9675 -0.253 0.253 0.9675 -61.9996 152.6637)" class="st2" cx="562.6" cy="317.4" rx="2.6" ry="2.6"/>
				
					<ellipse transform="matrix(0.9675 -0.253 0.253 0.9675 -46.6731 -41.5515)" class="st2" cx="-184.9" cy="160.7" rx="2.6" ry="2.6"/>
				
					<ellipse transform="matrix(0.9675 -0.253 0.253 0.9675 -48.1444 -45.194)" class="st2" cx="-199.8" cy="164.6" rx="2.2" ry="2.2"/>
				
					<ellipse transform="matrix(0.9675 -0.253 0.253 0.9675 -39.9413 -170.212)" class="st2" cx="-681.8" cy="70.2" rx="2.2" ry="2.2"/>
				
					<ellipse transform="matrix(0.9675 -0.253 0.253 0.9675 -97.0876 -191.4109)" class="st2" cx="-792.8" cy="281.8" rx="2.2" ry="2.2"/>
				<g>
					<line class="st3" x1="-199.2" y1="157.9" x2="-196.1" y2="126.8"/>
					<path class="st2" d="M-199,158.6c-0.1,0-0.2,0-0.2,0c-0.4,0-0.6-0.4-0.6-0.7l3-31.1c0-0.4,0.4-0.6,0.7-0.6
						c0.4,0,0.6,0.4,0.6,0.7l-3,31.1C-198.5,158.3-198.7,158.5-199,158.6z"/>
				</g>
				<g>
					<line class="st3" x1="-184.2" y1="154" x2="-182.7" y2="138.4"/>
					<path class="st2" d="M-184.1,154.7c-0.1,0-0.2,0-0.2,0c-0.4,0-0.6-0.4-0.6-0.7l1.5-15.5c0-0.4,0.4-0.6,0.7-0.6
						c0.4,0,0.6,0.4,0.6,0.7l-1.5,15.5C-183.6,154.4-183.8,154.6-184.1,154.7z"/>
				</g>
				<g>
					<line class="st3" x1="-158.4" y1="147.2" x2="-176.3" y2="121.6"/>
					<path class="st2" d="M-158.3,147.9c-0.3,0.1-0.6,0-0.7-0.3l-17.9-25.6c-0.2-0.3-0.1-0.7,0.2-0.9c0.3-0.2,0.7-0.1,0.9,0.2
						l17.9,25.6c0.2,0.3,0.1,0.7-0.2,0.9C-158.1,147.8-158.2,147.9-158.3,147.9z"/>
				</g>
				<g>
					<line class="st3" x1="-174" y1="150.2" x2="-191.2" y2="125.5"/>
					<path class="st2" d="M-173.9,150.9c-0.3,0.1-0.6,0-0.7-0.3l-17.2-24.7c-0.2-0.3-0.1-0.7,0.2-0.9c0.3-0.2,0.7-0.1,0.9,0.2
						l17.2,24.7c0.2,0.3,0.1,0.7-0.2,0.9C-173.7,150.8-173.8,150.9-173.9,150.9z"/>
				</g>
				<g>
					<line class="st3" x1="-195" y1="164.2" x2="-189.2" y2="162.7"/>
					<path class="st2" d="M-189,162.6l-6.1,1.6c-0.4,0.1-0.7,0-0.8-0.4s0.1-0.7,0.5-0.7l6.1-1.6c0.4-0.1,0.7,0,0.8,0.4
						S-188.7,162.5-189,162.6z"/>
				</g>
				<g>
					<line class="st3" x1="-190.8" y1="118.9" x2="-186.2" y2="117.7"/>
					<path class="st2" d="M-185.7,117.6l-5.3,1.4c-0.4,0.1-0.7,0-0.8-0.4s0.1-0.7,0.5-0.7l5.3-1.4c0.4-0.1,0.7,0,0.8,0.4
						C-185.1,117.2-185.3,117.5-185.7,117.6z"/>
				</g>
				<g>
					<line class="st3" x1="-163.9" y1="156.1" x2="-159.4" y2="154.9"/>
					<path class="st2" d="M-159.1,154.8l-4.4,1.1c-0.4,0.1-0.7,0-0.8-0.4s0.1-0.7,0.5-0.7l4.4-1.1c0.4-0.1,0.7,0,0.8,0.4
						S-158.7,154.7-159.1,154.8z"/>
				</g>
				<g>
					<path class="st2" d="M189.2,492L141,540.2c-1.8,1.8-1.6,4.8,0.4,6.4c15.1,11.8,37.1,10.8,51-3.2c13.9-13.9,15-35.9,3.2-51
						C194,490.4,191,490.2,189.2,492z"/>
					<circle class="st2" cx="153.5" cy="504.5" r="4.6"/>
					<circle class="st2" cx="182.2" cy="533.2" r="6.2"/>
					<circle class="st2" cx="192.5" cy="543.5" r="6.2"/>
					<path class="st2" d="M204,580h-23.1c-1.3,0-2.3-1.3-1.9-2.6l6.6-23.5c0.2-0.9,1-1.5,1.9-1.5h9.8c0.9,0,1.7,0.6,1.9,1.5
						l6.6,23.5C206.3,578.7,205.3,580,204,580z"/>
				</g>
				<g>
					<circle class="st2" cx="-127.8" cy="573.9" r="6.1"/>
					<circle class="st2" cx="-142.8" cy="573.9" r="6.1"/>
					<circle class="st2" cx="-84.3" cy="573.9" r="6.1"/>
					<circle class="st2" cx="-99.2" cy="573.9" r="6.1"/>
					<circle class="st2" cx="-172.8" cy="573.9" r="6.1"/>
					<path class="st2" d="M-162.3,546.7h-19.2c-1.7,0-3.2,1.4-3.2,3.2v20.9c0,1.7,1.4,3.2,3.2,3.2h19.2c1.7,0,3.2-1.4,3.2-3.2v-20.9
						C-159.1,548.1-160.5,546.7-162.3,546.7z"/>
					<path class="st2" d="M-73.2,534.2h-77.7c-1.7,0-3.2,1.4-3.2,3.2v33.4c0,1.7,1.4,3.2,3.2,3.2h77.7c1.7,0,3.2-1.4,3.2-3.2v-33.4
						C-70,535.6-71.4,534.2-73.2,534.2z"/>
					<rect x="-164.9" y="567.8" class="st2" width="25.3" height="6.1"/>
				</g>
				<g>
					
						<linearGradient id="SVGID_3_" gradientUnits="userSpaceOnUse" x1="-355.0633" y1="788.4524" x2="114.9367" y2="478.4524" gradientTransform="matrix(1 0 0 1 0 -318)">
						<stop  offset="0" style="stop-color:#007ADC;stop-opacity:0"/>
						<stop  offset="1" style="stop-color:#007ADC"/>
					</linearGradient>
					<path class="st4" d="M108.6,177.6L81,172.3l5.6-28.7c-390.3,244-786.1,307.7-895.5,145.6L-360,954.3
						C-469.4,792.3-263.2,448.2,108.6,177.6z"/>
				</g>
				<g>
					<path class="st5" d="M95,161.2l3.1-16c1.7-8.8,10.2-14.6,19.1-12.9l0,0c8.8,1.7,14.6,10.2,12.9,19.1l0,0
						c-1.7,8.8-10.2,14.6-19.1,12.9L95,161.2z"/>
					<path class="st5" d="M142.9,129.2c8.7,13,10.5,28.6,6.1,42.4c-1.4,4.6,3.2,8.8,7.6,6.9c3.4-1.5,6.7-3.4,9.8-5.8
						c20.1-15.3,25.3-44.3,11.7-65.6c-15-23.4-46.2-29.8-69-14.3c-2.4,1.6-4.6,3.4-6.6,5.3c-3.5,3.3-1.3,9.3,3.5,9.6
						C120.3,108.9,134.2,116.3,142.9,129.2z"/>
					<path class="st6" d="M128.1,144.5c2,3,5.5,4.6,9,4.1c26.3-3.1,55-6.4,72-17.9c23-15.6,36.9-39.6,40.2-65.2
						c0.7-5.3-2.7-10.4-7.9-11.7c-24.9-6.5-52.4-2.6-75.5,12.9c-17,11.5-30.8,36.8-43.5,60.1c-1.7,3.1-1.5,7,0.5,9.9L128.1,144.5z"
						/>
					
						<ellipse transform="matrix(0.8288 -0.5595 0.5595 0.8288 -19.3613 124.8734)" class="st5" cx="194.4" cy="94.1" rx="20.7" ry="20.7"/>
				</g>
				<polygon class="st2" points="770.1,443 966.1,583 574,583 				"/>
				<polygon class="st2" points="-1030.1,443 -834,583 -1226.1,583 				"/>
				<polygon class="st2" points="-892.6,497 -772.1,583 -1013,583 				"/>
				<polygon class="st2" points="539.8,515 635,583 444.5,583 				"/>
				<polygon class="st2" points="-725.3,533.2 -655.5,583 -795,583 				"/>
				<circle class="st7" cx="194.4" cy="94.1" r="15.6"/>
				<g>
					<path class="st2" d="M-649.7,531.8l5.7,12.6c0.4,0.9-0.3,2-1.3,2h-11.4c-1,0-1.7-1.1-1.3-2l5.7-12.6
						C-651.8,530.7-650.2,530.7-649.7,531.8z"/>
					<path class="st2" d="M-649.7,538.2l9.2,20.2c0.4,0.9-0.3,2-1.3,2h-18.3c-1,0-1.7-1.1-1.3-2l9.2-20.2
						C-651.8,537.1-650.2,537.1-649.7,538.2z"/>
					<path class="st2" d="M-649.7,546.2l12.6,27.8c0.4,0.9-0.3,2-1.3,2h-25.2c-1,0-1.7-1.1-1.3-2l12.6-27.8
						C-651.8,545.1-650.2,545.1-649.7,546.2z"/>
					<path class="st2" d="M-649.9,565.8h-2.2c-0.8,0-1.4,0.6-1.4,1.4V580h5v-12.8C-648.5,566.4-649.1,565.8-649.9,565.8z"/>
				</g>
				<g>
					<g>
						<path class="st2" d="M442.3,531.3l5.7,12.6c0.4,0.9-0.3,2-1.3,2h-11.4c-1,0-1.7-1.1-1.3-2l5.7-12.6
							C440.2,530.2,441.8,530.2,442.3,531.3z"/>
						<path class="st2" d="M442.3,537.7l9.2,20.2c0.4,0.9-0.3,2-1.3,2h-18.3c-1,0-1.7-1.1-1.3-2l9.2-20.2
							C440.2,536.6,441.8,536.6,442.3,537.7z"/>
						<path class="st2" d="M442.3,545.7l12.6,27.8c0.4,0.9-0.3,2-1.3,2h-25.2c-1,0-1.7-1.1-1.3-2l12.6-27.8
							C440.2,544.6,441.8,544.6,442.3,545.7z"/>
						<path class="st2" d="M442.1,565.3h-2.2c-0.8,0-1.4,0.6-1.4,1.4V580h5v-13.3C443.5,565.9,442.9,565.3,442.1,565.3z"/>
					</g>
					<g>
						<path class="st2" d="M384.5,541.6l4.3,9.5c0.3,0.7-0.2,1.5-1,1.5h-8.6c-0.8,0-1.3-0.8-1-1.5l4.3-9.5
							C382.9,540.8,384.1,540.8,384.5,541.6z"/>
						<path class="st2" d="M384.5,546.4l6.9,15.2c0.3,0.7-0.2,1.5-1,1.5h-13.7c-0.8,0-1.3-0.8-1-1.5l6.9-15.2
							C382.9,545.6,384.1,545.6,384.5,546.4z"/>
						<path class="st2" d="M384.5,552.4l9.4,20.9c0.3,0.7-0.2,1.5-1,1.5H374c-0.8,0-1.3-0.8-1-1.5l9.4-20.9
							C382.9,551.6,384.1,551.6,384.5,552.4z"/>
						<path class="st2" d="M384.2,567.1h-1.3c-0.7,0-1.2,0.5-1.2,1.2V580h3.7v-11.7C385.4,567.7,384.8,567.1,384.2,567.1z"/>
					</g>
					<g>
						<path class="st2" d="M421.8,521.5l7,15.5c0.5,1.1-0.3,2.4-1.6,2.4h-14.1c-1.3,0-2.1-1.3-1.6-2.4l7-15.5
							C419.3,520.1,421.2,520.1,421.8,521.5z"/>
						<path class="st2" d="M421.8,529.3l11.3,24.9c0.5,1.1-0.3,2.4-1.6,2.4H409c-1.3,0-2.1-1.3-1.6-2.4l11.3-24.9
							C419.3,528,421.2,528,421.8,529.3z"/>
						<path class="st2" d="M421.8,537.3l15.5,34.3c0.5,1.1-0.3,2.4-1.6,2.4h-31.1c-1.3,0-2.1-1.3-1.6-2.4l15.5-34.3
							C419.3,535.9,421.2,535.9,421.8,537.3z"/>
						<path class="st2" d="M421.6,563.4h-2.7c-1,0-1.7,0.8-1.7,1.7V580h6.2v-14.9C423.3,564.1,422.6,563.4,421.6,563.4z"/>
					</g>
				</g>
				<g>
					<path class="st2" d="M-795.7,533.3l5.7,12.6c0.4,0.9-0.3,2-1.3,2h-11.4c-1,0-1.7-1.1-1.3-2l5.7-12.6
						C-797.8,532.2-796.2,532.2-795.7,533.3z"/>
					<path class="st2" d="M-795.7,539.7l9.2,20.2c0.4,0.9-0.3,2-1.3,2h-18.3c-1,0-1.7-1.1-1.3-2l9.2-20.2
						C-797.8,538.6-796.2,538.6-795.7,539.7z"/>
					<path class="st2" d="M-795.7,547.7l12.6,27.8c0.4,0.9-0.3,2-1.3,2h-25.2c-1,0-1.7-1.1-1.3-2l12.6-27.8
						C-797.8,546.6-796.2,546.6-795.7,547.7z"/>
					<path class="st2" d="M-795.9,567.3h-2.2c-0.8,0-1.4,0.6-1.4,1.4V584h5v-15.3C-794.5,567.9-795.1,567.3-795.9,567.3z"/>
				</g>
				<g>
					<path class="st2" d="M-633.2,550.5l3.7,8.1c0.3,0.6-0.2,1.3-0.8,1.3h-7.3c-0.7,0-1.1-0.7-0.8-1.3l3.7-8.1
						C-634.5,549.8-633.5,549.8-633.2,550.5z"/>
					<path class="st2" d="M-633.2,554.6l5.9,13c0.3,0.6-0.2,1.3-0.8,1.3h-11.8c-0.7,0-1.1-0.7-0.8-1.3l5.9-13
						C-634.5,553.9-633.5,553.9-633.2,554.6z"/>
					<path class="st2" d="M-633.2,559.7l8.1,17.9c0.3,0.6-0.2,1.3-0.8,1.3h-16.2c-0.7,0-1.1-0.7-0.8-1.3l8.1-17.9
						C-634.5,559-633.5,559-633.2,559.7z"/>
					<path class="st2" d="M-633.3,572.3h-1.4c-0.5,0-0.9,0.4-0.9,0.9v6.8h3.2v-6.8C-632.4,572.7-632.8,572.3-633.3,572.3z"/>
				</g>
				<g>
					<path class="st2" d="M-495,497h-13h-2.5c-2.5,0-4.5,2-4.5,4.5v2.5v79h7v-79h13v79h7v-79v-2.5c0-2.5-2-4.5-4.5-4.5H-495z"/>
					<rect x="-511" y="515.2" class="st2" width="17" height="2"/>
					
						<rect x="-502" y="495.5" transform="matrix(0.7071 -0.7071 0.7071 0.7071 -507.3563 -204.8977)" class="st2" width="2" height="29"/>
					
						<rect x="-502" y="508.5" transform="matrix(0.7071 -0.7071 0.7071 0.7071 -516.5486 -201.09)" class="st2" width="2" height="29"/>
					
						<rect x="-502" y="521.5" transform="matrix(0.7071 -0.7071 0.7071 0.7071 -525.7602 -197.2746)" class="st2" width="2" height="29"/>
					
						<rect x="-502" y="535.5" transform="matrix(0.7071 -0.7071 0.7071 0.7071 -535.6405 -193.182)" class="st2" width="2" height="29"/>
					
						<rect x="-502" y="548.5" transform="matrix(0.7071 -0.7071 0.7071 0.7071 -544.8328 -189.3744)" class="st2" width="2" height="29"/>
					
						<rect x="-502" y="561.5" transform="matrix(0.7071 -0.7071 0.7071 0.7071 -554.0444 -185.5589)" class="st2" width="2" height="29"/>
					<rect x="-511" y="502" class="st2" width="17" height="2"/>
					<rect x="-511" y="528.3" class="st2" width="17" height="2"/>
					<rect x="-511" y="541.5" class="st2" width="17" height="2"/>
					<rect x="-511" y="567.8" class="st2" width="17" height="2"/>
					<rect x="-511" y="554.7" class="st2" width="17" height="2"/>
					<rect x="-511" y="581" class="st2" width="17" height="2"/>
				</g>
				<rect x="-483" y="577" class="st2" width="75" height="3"/>
			</g>
		</g>
	</g>
</g>
<path class="st8" d="M298.4,190.6c-4.8,0-8.7,3.9-8.7,8.7s3.9,8.7,8.7,8.7s8.7-3.9,8.7-8.7S303.2,190.6,298.4,190.6z M298.4,194.3
	c0.9,0,1.6,0.7,1.6,1.6c0,0.9-0.7,1.6-1.6,1.6c-0.9,0-1.6-0.7-1.6-1.6C296.8,195,297.5,194.3,298.4,194.3z M300.5,204h-4.2
	c-0.3,0-0.5-0.2-0.5-0.5c0-0.3,0.2-0.5,0.5-0.5h0.5v-3.6v0h-0.5c-0.3,0-0.5-0.2-0.5-0.5c0-0.3,0.2-0.5,0.5-0.5h3.3
	c0.2,0,0.4,0.2,0.4,0.4v4.2h0.5c0.3,0,0.5,0.2,0.5,0.5C301,203.7,300.8,204,300.5,204z"/>
</svg>
