<?xml version="1.0" encoding="utf-8"?>
<!-- Generator: Adobe Illustrator 19.2.0, SVG Export Plug-In . SVG Version: 6.00 Build 0)  -->
<svg version="1.1" id="svg" xmlns="http://www.w3.org/2000/svg" xmlns:xlink="http://www.w3.org/1999/xlink" x="0px" y="0px"
	 width="91px" height="100px" viewBox="0 0 91 100" style="enable-background:new 0 0 91 100;" xml:space="preserve">
<style type="text/css">
	.st0{fill:#E9EEF5;}
	.st1{fill:#0E57A6;}
</style>
<title>svg-sources</title>
<circle class="st0" cx="45.5" cy="45.5" r="45.5"/>
<path class="st1" d="M57.4,19.7c1.6,0,2.9,1.3,2.9,2.9l0,0v2H64c1.5,0.1,2.5,1.4,2.4,2.9v36.9c0.1,1.5-0.9,2.7-2.4,2.9H27
	c-1.5-0.1-2.5-1.4-2.4-2.9V27.5c-0.1-1.5,0.9-2.7,2.4-2.9h3v-2c0-1.6,1.3-2.9,2.9-2.9c1.6,0,2.9,1.3,2.9,2.9v2h6.5v-2
	c0-1.6,1.3-2.9,2.9-2.9S48,21,48,22.6v2h6.5v-2C54.5,21,55.8,19.7,57.4,19.7L57.4,19.7 M57.4,17.7c-2.7,0-4.8,2.2-4.9,4.9H50
	c0-2.7-2.2-4.9-4.9-4.9c-2.7,0-4.9,2.2-4.9,4.9l0,0h-2.5c0-2.7-2.2-4.9-4.9-4.9c-2.7,0-4.9,2.2-4.9,4.9l0,0h-1
	c-2.6,0.1-4.5,2.3-4.4,4.9v36.9c-0.1,2.6,1.8,4.8,4.4,4.9h37c2.6-0.1,4.5-2.3,4.4-4.9V27.5c0.1-2.6-1.8-4.8-4.4-4.9h-1.7
	C62.3,19.9,60.1,17.7,57.4,17.7L57.4,17.7L57.4,17.7z"/>
<path class="st1" d="M64.5,64.5h-38c-1.7,0-3-1.3-3-3v-2.8c0-0.3,0.2-0.5,0.5-0.5s0.5,0.2,0.5,0.5v2.8c0,1.1,0.9,2,2,2h38
	c1.1,0,2-0.9,2-2v-2.8c0-0.3,0.2-0.5,0.5-0.5s0.5,0.2,0.5,0.5v2.8C67.5,63.2,66.1,64.5,64.5,64.5z"/>
<path class="st1" d="M64.5,61h-38c-1.7,0-3-1.3-3-3l0,0v-2.8c0-0.3,0.2-0.5,0.5-0.5s0.5,0.2,0.5,0.5V58c0,1.1,0.9,2,2,2h38
	c1.1,0,2-0.9,2-2v-2.8c0-0.3,0.2-0.5,0.5-0.5s0.5,0.2,0.5,0.5V58C67.5,59.7,66.1,61,64.5,61L64.5,61z"/>
<path class="st1" d="M32.9,19.7c1.6,0,2.9,1.3,2.9,2.9l0,0v4c0,1.6-1.3,2.9-2.9,2.9c-1.6,0-2.9-1.3-2.9-2.9c0,0,0,0,0,0v-4
	C30,21,31.3,19.7,32.9,19.7 M32.9,18.7c-2.1,0-3.9,1.7-3.9,3.9v4c0,2.1,1.7,3.9,3.9,3.9s3.9-1.7,3.9-3.9l0,0v-4
	C36.7,20.5,35,18.7,32.9,18.7L32.9,18.7L32.9,18.7z"/>
<path class="st1" d="M45.1,19.7c1.6,0,2.9,1.3,2.9,2.8c0,0,0,0,0,0v4c0,1.6-1.3,2.9-2.9,2.9s-2.9-1.3-2.9-2.9v-4
	C42.3,21,43.6,19.7,45.1,19.7L45.1,19.7 M45.1,18.7c-2.1,0-3.9,1.7-3.9,3.9v4c0,2.1,1.7,3.9,3.9,3.9s3.9-1.7,3.9-3.9l0,0v-4
	C49,20.5,47.3,18.7,45.1,18.7L45.1,18.7z"/>
<path class="st1" d="M57.4,19.7c1.6,0,2.9,1.3,2.9,2.9l0,0v4c0,1.6-1.3,2.9-2.9,2.9s-2.9-1.3-2.9-2.9v-4
	C54.5,21,55.8,19.7,57.4,19.7L57.4,19.7 M57.4,18.7c-2.1,0-3.9,1.7-3.9,3.9v4c0,2.1,1.7,3.9,3.9,3.9s3.9-1.7,3.9-3.9v-4
	C61.3,20.5,59.5,18.7,57.4,18.7L57.4,18.7z"/>
</svg>
