<?xml version="1.0" encoding="utf-8"?>
<!-- Generator: Adobe Illustrator 19.2.0, SVG Export Plug-In . SVG Version: 6.00 Build 0)  -->
<svg version="1.1" id="svg" xmlns="http://www.w3.org/2000/svg" xmlns:xlink="http://www.w3.org/1999/xlink" x="0px" y="0px"
	 width="91px" height="100px" viewBox="0 0 91 100" style="enable-background:new 0 0 91 100;" xml:space="preserve">
<style type="text/css">
	.st0{fill:#E9EEF5;}
	.st1{fill:#0E57A6;}
</style>
<title>svg-sources</title>
<circle class="st0" cx="45.5" cy="45.5" r="45.5"/>
<path class="st1" d="M66.8,26.7L66.8,26.7 M66.8,26.7L54.7,60.5l-10-4.3l-11.2,8.2l-3-14.3l-12.3-5.2L66.8,26.7 M66.8,24.7h-0.1
	c-0.2,0-0.4,0.1-0.6,0.1L17.5,42.9c-1,0.4-1.6,1.5-1.2,2.6c0.2,0.5,0.6,0.9,1.1,1.2l11.3,4.8l2.8,13.3c0.2,1.1,1.2,1.8,2.3,1.6
	c0.3-0.1,0.6-0.2,0.8-0.3L45,58.5l8.9,3.8c1,0.4,2.2,0,2.6-1c0,0,0-0.1,0-0.1l12.1-33.7c0.4-1-0.1-2.2-1.1-2.6
	C67.3,24.7,67.1,24.7,66.8,24.7L66.8,24.7L66.8,24.7z M66.8,28.7L66.8,28.7z"/>
<path class="st1" d="M66.8,26.7L66.8,26.7 M66.8,26.7L38.7,53.6l-5.2,10.7l-3-14.3L66.8,26.7 M66.8,25.7h-0.2
	c-0.1,0-0.3,0.1-0.4,0.1L29.9,49.2c-0.3,0.2-0.5,0.6-0.4,1l3,14.3c0.1,0.4,0.4,0.7,0.9,0.8h0.1c0.4,0,0.7-0.2,0.9-0.6l5.2-10.6
	l27.9-26.7c0.4-0.4,0.5-1,0.1-1.4C67.4,25.8,67.1,25.7,66.8,25.7L66.8,25.7L66.8,25.7z M66.8,27.7L66.8,27.7z"/>
<path class="st1" d="M39.2,54.9l4.9,2.1l-9.2,6.8L39.2,54.9 M38.8,53.6l-5.5,11.4c-0.1,0.3,0,0.6,0.3,0.8c0.1,0,0.2,0.1,0.2,0.1
	c0.1,0,0.2,0,0.3-0.1l12.1-8.9L38.8,53.6L38.8,53.6L38.8,53.6z"/>
</svg>
