<?xml version="1.0" encoding="utf-8"?>
<!-- Generator: Adobe Illustrator 19.2.0, SVG Export Plug-In . SVG Version: 6.00 Build 0)  -->
<svg version="1.1" id="svg" xmlns="http://www.w3.org/2000/svg" xmlns:xlink="http://www.w3.org/1999/xlink" x="0px" y="0px"
	 width="91px" height="100px" viewBox="0 0 91 100" style="enable-background:new 0 0 91 100;" xml:space="preserve">
<style type="text/css">
	.st0{fill:#E9EEF5;}
	.st1{fill:#0E57A6;}
</style>
<title>svg-sources</title>
<circle class="st0" cx="45.5" cy="45.5" r="45.5"/>
<path class="st1" d="M45.5,51.8c-7.9,0-14.4-6.4-14.4-14.4S37.6,23,45.5,23s14.4,6.4,14.4,14.4c0,0,0,0,0,0
	C59.9,45.3,53.4,51.8,45.5,51.8z M45.5,24c-7.4,0-13.4,6-13.4,13.4s6,13.4,13.4,13.4s13.4-6,13.4-13.4c0,0,0,0,0,0
	C58.9,30,52.9,24,45.5,24z"/>
<path class="st1" d="M45.5,58c-2,0-3.9-0.9-5.2-2.4c-1-1.2-2.5-1.8-4.1-1.7c-3.7,0.3-6.9-2.4-7.3-6c0-0.4,0-0.8,0-1.2
	c0.2-1.6-0.5-3.1-1.7-4.1c-2.8-2.3-3.3-6.6-0.9-9.4c0.3-0.3,0.6-0.6,0.9-0.9c1.2-1,1.8-2.5,1.7-4c-0.4-3.7,2.3-6.9,6-7.3
	c0.4,0,0.9,0,1.3,0c1.6,0.2,3.1-0.5,4.1-1.7c2.3-2.8,6.6-3.3,9.4-0.9c0.3,0.3,0.6,0.6,0.9,0.9l0,0c1,1.2,2.5,1.8,4.1,1.7
	c3.7-0.4,6.9,2.3,7.3,6c0,0.4,0,0.9,0,1.3c-0.2,1.6,0.5,3.1,1.7,4.1c2.8,2.3,3.3,6.6,0.9,9.4c-0.3,0.3-0.6,0.6-0.9,0.9
	c-1.2,1-1.9,2.5-1.7,4c0.4,3.7-2.3,6.9-6,7.3c-0.4,0-0.9,0-1.3,0c-1.6-0.2-3.1,0.5-4.1,1.7C49.4,57.1,47.5,58,45.5,58z M36.7,51.9
	c2,0,3.9,0.9,5.2,2.4c1.6,2,4.6,2.3,6.6,0.6c0.2-0.2,0.4-0.4,0.6-0.6c1.4-1.7,3.6-2.6,5.8-2.4c2.6,0.2,4.9-1.7,5.1-4.2
	c0-0.3,0-0.6,0-0.9c-0.2-2.2,0.7-4.4,2.4-5.8c2-1.6,2.3-4.6,0.6-6.6c-0.2-0.2-0.4-0.4-0.6-0.6c-1.7-1.4-2.6-3.6-2.4-5.8
	c0.2-2.6-1.6-4.9-4.2-5.1c-0.3,0-0.6,0-0.9,0c-2.2,0.2-4.4-0.7-5.8-2.4c-1.6-2-4.6-2.3-6.6-0.6c-0.2,0.2-0.4,0.4-0.6,0.6
	c-1.4,1.7-3.6,2.6-5.8,2.4c-2.6-0.2-4.8,1.7-5.1,4.3c0,0.3,0,0.6,0,0.8c0.2,2.2-0.7,4.4-2.4,5.8c-2,1.6-2.3,4.6-0.6,6.6
	c0.2,0.2,0.4,0.4,0.6,0.6c1.7,1.4,2.6,3.6,2.4,5.8c-0.2,2.6,1.6,4.9,4.2,5.1c0.3,0,0.6,0,0.9,0C36.3,51.9,36.5,51.9,36.7,51.9
	L36.7,51.9z"/>
<path class="st1" d="M50,75.3h-0.1c-0.5-0.1-1-0.4-1.1-0.9l-4.2-15.5c-0.1-0.5,0.2-1.1,0.7-1.2s1.1,0.2,1.2,0.7l3.8,13.9l2.4-4.2
	c0.4-0.6,1.1-0.8,1.8-0.5l4.2,2.4l-3.7-13.5c-0.1-0.5,0.2-1.1,0.7-1.2s1.1,0.2,1.2,0.7L61,71c0.2,0.7-0.2,1.4-0.9,1.6
	c-0.3,0.1-0.7,0-1-0.1L54,69.6l-2.9,5C50.9,75,50.5,75.3,50,75.3z"/>
<path class="st1" d="M41,75.3c-0.5,0-0.9-0.2-1.1-0.7L37,69.5l-5.1,2.9c-0.6,0.4-1.4,0.2-1.8-0.5c-0.2-0.3-0.2-0.6-0.1-1l4.2-15.2
	c0.1-0.5,0.7-0.8,1.2-0.7s0.8,0.7,0.7,1.2l0,0l-3.7,13.5l4.2-2.4c0.6-0.4,1.4-0.1,1.8,0.5l2.4,4.2l3.8-13.9c0.1-0.5,0.7-0.8,1.2-0.7
	s0.8,0.7,0.7,1.2l0,0l-4.3,15.5c-0.1,0.5-0.6,0.9-1.1,0.9L41,75.3L41,75.3z"/>
</svg>
