<?xml version="1.0" encoding="utf-8"?>
<!-- Generator: Adobe Illustrator 19.2.0, SVG Export Plug-In . SVG Version: 6.00 Build 0)  -->
<svg version="1.1" id="svg" xmlns="http://www.w3.org/2000/svg" xmlns:xlink="http://www.w3.org/1999/xlink" x="0px" y="0px"
	 width="91px" height="100px" viewBox="0 0 91 100" style="enable-background:new 0 0 91 100;" xml:space="preserve">
<style type="text/css">
	.st0{fill:#E9EEF5;}
	.st1{fill:#0E57A6;}
</style>
<title>svg-sources</title>
<circle class="st0" cx="45.2" cy="45.4" r="45.5"/>
<path class="st1" d="M44.7,48c-0.3,0-0.5-0.2-0.5-0.5s0.2-0.5,0.5-0.5c0.9,0,3-2,3-4.5s-2.1-4.5-3-4.5c-0.3,0-0.5-0.2-0.5-0.5
	s0.2-0.5,0.5-0.5c1.5,0,4,2.5,4,5.5S46.2,48,44.7,48z"/>
<path class="st1" d="M18.1,45.7c-1,0-2.4-1.4-2.4-3.2s1.5-3.2,2.4-3.2c0.3,0,0.5,0.2,0.5,0.5s-0.2,0.5-0.5,0.5
	c-1.2,0.6-1.7,2-1.2,3.2c0.2,0.5,0.7,0.9,1.2,1.2c0.3,0,0.5,0.2,0.5,0.5S18.4,45.7,18.1,45.7z"/>
<path class="st1" d="M50.6,26.2c3.5,0,6.3,7.3,6.3,16.3s-2.8,16.3-6.3,16.3s-6.3-7.3-6.3-16.3S47.1,26.2,50.6,26.2 M50.6,25.2
	c-3.5,0-7.3,6.1-7.3,17.4s3.8,17.3,7.3,17.3s7.3-6.1,7.3-17.4S54.1,25.2,50.6,25.2L50.6,25.2L50.6,25.2z"/>
<path class="st1" d="M50.6,26.2c3.5,0,6.3,7.3,6.3,16.3s-2.8,16.3-6.3,16.3c-5.4,0-15.2-9.7-27.2-9.7c-0.6,0-1.2,0-1.8,0
	c-1.4,0-2.6-3-2.6-6.7s1.2-6.7,2.6-6.7c0.6,0,1.1,0,1.7,0C35.4,35.9,43.6,26.1,50.6,26.2 M50.6,24.1c-3.6,0-7,1.9-11,4.1
	c-4.7,2.6-10,5.6-16.4,5.6h-1.6h0c-3.2,0-4.6,4.4-4.6,8.7s1.4,8.7,4.6,8.7h0.1c0.6,0,1.1,0,1.7,0c6.7,0,12.9,3.3,17.8,6
	c3.8,2,6.7,3.7,9.4,3.7c5.5,0,8.3-9.2,8.3-18.4S56,24.2,50.6,24.1L50.6,24.1L50.6,24.1z"/>
<path class="st1" d="M26.4,66.8h-0.1c-2.4,0-4.4-2-4.4-4.4c0-0.2,0-0.4,0-0.6l1.7-11.5c0.1-0.6,0.6-0.9,1.1-0.9s0.9,0.6,0.9,1.1
	l-1.7,11.5c-0.2,1.3,0.7,2.5,2.1,2.7c0.1,0,0.2,0,0.3,0h0.1c1.2,0,2.2-0.9,2.4-2.1l1.2-8c0.1-0.6,0.6-0.9,1.1-0.9s0.9,0.6,0.9,1.1
	l-1.2,8C30.5,65.2,28.6,66.8,26.4,66.8z"/>
<path class="st1" d="M62.1,47.8c-0.6,0-1-0.5-1-1c0-0.2,0.1-0.4,0.2-0.6c1.5-2,1.5-4.7,0-6.7c-0.4-0.4-0.3-1.1,0.1-1.4
	s1.1-0.3,1.4,0.1c2.1,2.7,2.1,6.5,0,9.2C62.7,47.7,62.4,47.9,62.1,47.8z"/>
<path class="st1" d="M70.3,57.8c-0.6,0-1-0.5-1-1c0-0.2,0.1-0.4,0.2-0.6c6-7.3,6-19.3,0-26.6c-0.3-0.5-0.1-1.1,0.4-1.4
	c0.4-0.2,0.8-0.2,1.1,0.1c6.6,8,6.6,21.1,0,29.1C70.8,57.7,70.6,57.8,70.3,57.8z"/>
<path class="st1" d="M66.2,51.8c-0.6,0-1-0.5-1-1c0-0.2,0.1-0.4,0.2-0.6c3.3-4.3,3.3-10.3,0-14.6c-0.4-0.4-0.3-1.1,0.2-1.4
	s1.1-0.3,1.4,0.2l0,0c3.9,5,3.9,12.1,0,17.1C66.8,51.7,66.5,51.8,66.2,51.8z"/>
</svg>
