<?xml version="1.0" encoding="utf-8"?>
<!-- Generator: Adobe Illustrator 19.2.0, SVG Export Plug-In . SVG Version: 6.00 Build 0)  -->
<svg version="1.1" id="svg" xmlns="http://www.w3.org/2000/svg" xmlns:xlink="http://www.w3.org/1999/xlink" x="0px" y="0px"
	 width="91px" height="100px" viewBox="0 0 91 100" style="enable-background:new 0 0 91 100;" xml:space="preserve">
<style type="text/css">
	.st0{fill:#E9EEF5;}
	.st1{fill:#0E57A6;}
</style>
<title>svg-sources</title>
<circle class="st0" cx="45.5" cy="45.5" r="45.5"/>
<path class="st1" d="M49,25.9c2.2,0,4,1.8,4,4v2h11.4c1.9,0,3.4,1.5,3.4,3.4l0,0v22.4c0,1.9-1.5,3.4-3.4,3.4l0,0H26.6
	c-1.9,0-3.4-1.5-3.4-3.4l0,0V35.3c0-1.9,1.5-3.4,3.4-3.4H38v-2c0-2.2,1.8-4,4-4L49,25.9 M49,23.9h-7c-3.3,0-6,2.7-6,6h-9.4
	c-3,0-5.4,2.4-5.4,5.4l0,0v22.4c0,3,2.4,5.4,5.4,5.4h37.8c3,0,5.4-2.4,5.4-5.4v0V35.3c0-3-2.4-5.4-5.4-5.4l0,0H55
	C55,26.6,52.3,23.9,49,23.9L49,23.9L49,23.9z"/>
<path class="st1" d="M47.9,29.3c0.3,0,0.6,0.3,0.6,0.6v1h-6.1v-1c0-0.3,0.3-0.6,0.6-0.6H47.9 M47.9,28.3h-4.8
	c-0.9,0-1.6,0.7-1.6,1.6v2h8.1v-2C49.5,29,48.8,28.3,47.9,28.3L47.9,28.3L47.9,28.3z"/>
<path class="st1" d="M45.5,52.8c-7.7,0.1-15.3-1.3-22.5-4c-0.3-0.1-0.4-0.4-0.3-0.7c0.1-0.3,0.4-0.4,0.7-0.3
	c7.1,2.7,14.6,4,22.1,3.9c7.6,0.1,15.1-1.2,22.1-3.9c0.3-0.1,0.5,0,0.7,0.3s0,0.5-0.3,0.7C60.8,51.6,53.2,52.9,45.5,52.8z"/>
<path class="st1" d="M48,56.1h-5c-1.1,0-2-1-2-2.1v-3.5c0-1.1,0.9-2,2-2.1h5c1.1,0,2,1,2,2.1V54C50,55.1,49.1,56.1,48,56.1z
	 M43,49.5c-0.6,0-1,0.5-1,1.1V54c0,0.6,0.4,1.1,1,1.1h5c0.6,0,1-0.5,1-1.1v-3.5c0-0.6-0.4-1-1-1.1H43z"/>
<path class="st1" d="M54,31.9H36.7c-0.3,0-0.5-0.2-0.5-0.5s0.2-0.5,0.5-0.5H54c0.3,0,0.5,0.2,0.5,0.5S54.3,31.9,54,31.9z"/>
</svg>
