<?xml version="1.0" encoding="utf-8"?>
<!-- Generator: Adobe Illustrator 19.2.0, SVG Export Plug-In . SVG Version: 6.00 Build 0)  -->
<svg version="1.1" id="svg" xmlns="http://www.w3.org/2000/svg" xmlns:xlink="http://www.w3.org/1999/xlink" x="0px" y="0px"
	 width="106px" height="116px" viewBox="0 0 106 116" style="enable-background:new 0 0 106 116;" xml:space="preserve">
<style type="text/css">
	.st0{fill:#0E57A6;}
	.st1{fill:#FFFFFF;}
</style>
<title>svg-sources</title>
<path class="st0" d="M16.3,0h73.5c9,0,16.3,7.3,16.3,16.3v73.5c0,9-7.3,16.3-16.3,16.3H16.3C7.3,106,0,98.7,0,89.7V16.3
	C0,7.3,7.3,0,16.3,0z"/>
<path class="st1" d="M63.2,25.9L84,80H63.8L53.3,52.2L42.8,80H22.6l20.6-54H63 M63.4,24H43.2c-1.2,0-2.2,0-2.7,1.1L19.9,78.9
	c-0.3,0.7-0.2,1.6,0.3,2.2c0.6,0.7,1.5,1,2.4,0.8h20.2c1.1,0.1,2.2-0.6,2.7-1.6l7.9-20.7l7.9,20.7c0.4,1.1,1.5,1.8,2.7,1.7H84
	c0.9,0.1,1.8-0.3,2.3-1c0.5-0.7,0.7-1.7,0.3-2.5L66.1,25.1C65.7,24,64.6,24,63.4,24L63.4,24z"/>
<path class="st1" d="M55.5,60.1c-0.3,0-0.6-0.2-0.7-0.5L42.6,25.3c-0.1-0.4,0.1-0.8,0.4-0.9s0.8,0.1,0.9,0.4l0,0l12.2,34.3
	c0.1,0.4-0.1,0.8-0.4,0.9c0,0,0,0,0,0C55.7,60.1,55.6,60.1,55.5,60.1z"/>
</svg>
