<svg id="svg" xmlns="http://www.w3.org/2000/svg" width="109" height="666" viewBox="0 0 109 666"><defs><style>.cls-1{fill:#b2bfce;}</style></defs><title>svg-sources</title><path class="cls-1" d="M27.39,635.58l-11,6.33a2.85,2.85,0,0,0,0,4.94l11,6.33a2.85,2.85,0,0,0,4.27-2.47V638.05A2.85,2.85,0,0,0,27.39,635.58Z"/><path class="cls-1" d="M57.61,629.32V35.07c0-10-7-18.07-15.66-18.07H18a3,3,0,1,0,0,6H42c5.32,0,9.66,5.41,9.66,12.07V629.32c0,6.65-4.33,12.07-9.66,12.07H18a3,3,0,0,0,0,6H42C50.59,647.38,57.61,639.28,57.61,629.32Z"/></svg>