<svg id="svg" xmlns="http://www.w3.org/2000/svg" width="820" height="63" viewBox="0 0 820 63"><defs><style>.cls-1{fill:#b2bfce;}</style></defs><title>svg-sources</title><path class="cls-1" d="M768,22.78l6.33-11a2.85,2.85,0,0,1,4.94,0l6.33,11a2.85,2.85,0,0,1-2.47,4.27H770.48A2.85,2.85,0,0,1,768,22.78Z"/><path class="cls-1" d="M761.75,63H58.23c-10,0-18.07-7-18.07-15.66v-34a3,3,0,0,1,6,0v34c0,5.32,5.41,9.66,12.07,9.66H761.75c6.65,0,12.07-4.33,12.07-9.66v-34a3,3,0,0,1,6,0v34C779.81,56,771.71,63,761.75,63Z"/></svg>