<?xml version="1.0" encoding="utf-8"?>
<!-- Generator: Adobe Illustrator 19.2.0, SVG Export Plug-In . SVG Version: 6.00 Build 0)  -->
<svg version="1.1" id="svg" xmlns="http://www.w3.org/2000/svg" xmlns:xlink="http://www.w3.org/1999/xlink" x="0px" y="0px"
	 viewBox="0 0 803 43" style="enable-background:new 0 0 803 43;" xml:space="preserve">
<style type="text/css">
	.st0{fill:#B2BFCE;}
</style>
<title>svg-sources</title>
<path class="st0" d="M3.2,0C5,0,6.4,1.4,6.4,3.2c0,0,0,0,0,0v2.6c0,6.3,5.1,11.3,11.3,11.3h362c14.2,0,25.8,8.5,25.8,22.7
	c0,1.8-1.4,3.2-3.2,3.2s-3.2-1.4-3.2-3.2c0-10.6-8.7-16.3-19.3-16.3h-362C8,23.5,0,15.6,0,5.8l0-2.6C0,1.4,1.4,0,3.2,0
	C3.2,0,3.2,0,3.2,0z"/>
<path class="st0" d="M799.8,0c1.8,0,3.2,1.4,3.2,3.2c0,0,0,0,0,0v2.6c0,9.8-8,17.7-17.8,17.7H424.8c-10.6,0-19.3,5.7-19.3,16.3
	c0,1.8-1.4,3.2-3.2,3.2s-3.2-1.4-3.2-3.2c0-14.2,11.5-22.7,25.8-22.7h360.4c6.2,0,11.3-5.1,11.3-11.3V3.2C796.6,1.4,798,0,799.8,0
	C799.8,0,799.8,0,799.8,0z"/>
</svg>
