<?xml version="1.0" encoding="utf-8"?>
<!-- Generator: Adobe Illustrator 19.2.0, SVG Export Plug-In . SVG Version: 6.00 Build 0)  -->
<svg version="1.1" id="svg" xmlns="http://www.w3.org/2000/svg" xmlns:xlink="http://www.w3.org/1999/xlink" x="0px" y="0px"
	 width="32px" height="32px" viewBox="0 0 32 32" style="enable-background:new 0 0 32 32;" xml:space="preserve">
<style type="text/css">
	.st0{fill:#0073D9;}
	.st1{fill:#232F3A;}
</style>
<title>svg-sources</title>
<path class="st0" d="M2,0h28c1.1,0,2,0.9,2,2v28c0,1.1-0.9,2-2,2H2c-1.1,0-2-0.9-2-2V2C0,0.9,0.9,0,2,0z"/>
<path class="st1" d="M10,27H5V12h5V27z M7.6,10.3C6.1,10.3,5,9.1,5,7.7S6.1,5,7.6,5s2.7,1.2,2.7,2.7l0,0C10.3,9.1,9.1,10.3,7.6,10.3
	z M27,27h-4.6v-7.1c0-1.7,0-3.9-2.4-3.9s-2.7,1.9-2.7,3.8V27h-4.6V12.3h4.4v2h0.1c0.9-1.5,2.6-2.4,4.3-2.4c4.6,0,5.5,3,5.5,7V27z"/>
</svg>
