<?xml version="1.0" encoding="utf-8"?>
<!-- Generator: Adobe Illustrator 19.2.0, SVG Export Plug-In . SVG Version: 6.00 Build 0)  -->
<svg version="1.1" id="svg" xmlns="http://www.w3.org/2000/svg" xmlns:xlink="http://www.w3.org/1999/xlink" x="0px" y="0px"
	 width="32px" height="32px" viewBox="0 0 32 32" style="enable-background:new 0 0 32 32;" xml:space="preserve">
<style type="text/css">
	.st0{fill:#0073D9;}
</style>
<title>svg-sources</title>
<path class="st0" d="M22,16.1c0,3.3-2.7,6-6,6s-6-2.7-6-6c0-0.8,0.2-2.2,0.4-2.2H7v8.8C7,24,8,24.9,9.2,25h13.5
	c1.2-0.1,2.2-1,2.2-2.2l0,0V14h-3.4C21.9,14,22,15.3,22,16.1z"/>
<path class="st0" d="M16,19.9c2.1,0,3.9-1.7,3.9-3.9s-1.7-3.9-3.9-3.9s-3.9,1.7-3.9,3.9C12.1,18.1,13.9,19.9,16,19.9z"/>
<polygon class="st0" points="24,11.3 24,8 24,7.5 23.7,7.5 20.6,7.6 20.5,11.3 "/>
<path class="st0" d="M30,0H2C0.9,0,0,0.9,0,2v28c0,1.1,0.9,2,2,2h28c1.1,0,2-0.9,2-2V2C32,0.9,31.1,0,30,0z M27,13.7v9
	c0,2.3-1.9,4.3-4.2,4.3H9.2C6.9,27,5,25.1,5,22.8V9.2C5,6.9,6.9,5,9.2,5h13.5C25.1,5,27,6.9,27,9.2V13.7z"/>
</svg>
