<svg id="svg" xmlns="http://www.w3.org/2000/svg" width="32" height="32" viewBox="0 0 32 32"><defs><style>.cls-1{fill:#8893a2;}</style></defs><title>svg-sources</title><path class="cls-1" d="M22,16.13a6,6,0,0,1-12,0c0-.8.16-2.16,0.44-2.16H7v8.75A2.36,2.36,0,0,0,9.25,25h13.5A2.36,2.36,0,0,0,25,22.75h0V14H21.57C21.85,14,22,15.33,22,16.13Z"/><path class="cls-1" d="M16,19.87A3.87,3.87,0,1,0,12.13,16,3.88,3.88,0,0,0,16,19.87Z"/><polygon class="cls-1" points="24 11.26 24 8.02 24 7.53 23.74 7.54 20.61 7.55 20.45 11.27 24 11.26"/><path class="cls-1" d="M30,0H2A2,2,0,0,0,0,2V30a2,2,0,0,0,2,2H30a2,2,0,0,0,2-2V2A2,2,0,0,0,30,0ZM27,13.74v9A4.26,4.26,0,0,1,22.75,27H9.25A4.26,4.26,0,0,1,5,22.75V9.25A4.26,4.26,0,0,1,9.25,5h13.5A4.26,4.26,0,0,1,27,9.25v4.49Z"/></svg>