<?xml version="1.0" encoding="utf-8"?>
<!-- Generator: Adobe Illustrator 20.0.0, SVG Export Plug-In . SVG Version: 6.00 Build 0)  -->
<svg version="1.1" id="Layer_1" xmlns="http://www.w3.org/2000/svg" xmlns:xlink="http://www.w3.org/1999/xlink" x="0px" y="0px"
	 viewBox="0 0 32 32" style="enable-background:new 0 0 32 32;" xml:space="preserve">
<style type="text/css">
	.st0{fill:#0073D9;}
</style>
<title>Asset 1</title>
<g id="_x38_41cc76f-fa5b-4169-a620-25d4b0ce802c">
	<g id="d1aad3b4-f64a-41c5-bd37-255766b15f7c">
		<g>
			<path class="st0" d="M24.2,9.8c-0.4-0.9-1.1-1.6-2-2c-0.6-0.2-1.3-0.4-2-0.4c-1.1-0.1-1.4-0.1-4.2-0.1s-3.1,0-4.2,0.1
				c-0.7,0-1.3,0.1-1.9,0.4c-0.9,0.4-1.6,1.1-2,2c-0.2,0.6-0.4,1.3-0.4,1.9c-0.1,1.1-0.1,1.4-0.1,4.2s0,3.1,0.1,4.2
				c0,0.7,0.1,1.3,0.4,2c0.4,0.9,1.1,1.6,2,2c0.6,0.2,1.3,0.4,1.9,0.4c1.1,0,1.4,0.1,4.2,0.1s3.1,0,4.2-0.1c0.7,0,1.3-0.1,2-0.4
				c0.9-0.4,1.6-1.1,2-2c0.2-0.6,0.4-1.3,0.4-2c0-1.1,0.1-1.4,0.1-4.2s0-3.1-0.1-4.2C24.5,11.1,24.4,10.4,24.2,9.8z M16,21.4
				c-3,0-5.4-2.4-5.4-5.4s2.4-5.4,5.4-5.4s5.4,2.4,5.4,5.4l0,0C21.4,19,19,21.4,16,21.4z M21.6,11.6c-0.7,0-1.3-0.6-1.3-1.3
				S20.9,9,21.6,9c0.7,0,1.3,0.6,1.3,1.3C22.9,11.1,22.3,11.6,21.6,11.6L21.6,11.6z"/>
			<path class="st0" d="M30,0H2C0.9,0,0,0.9,0,2v28c0,1.1,0.9,2,2,2h28c1.1,0,2-0.9,2-2V2C32,0.9,31.1,0,30,0z M26.4,20.3
				c0,0.9-0.2,1.7-0.4,2.5c-0.5,1.4-1.7,2.5-3.1,3.1c-0.8,0.3-1.7,0.5-2.5,0.5c-1.1,0-1.5,0.1-4.3,0.1s-3.2,0-4.3-0.1
				c-0.9,0-1.7-0.2-2.5-0.5c-1.4-0.5-2.6-1.6-3.1-3.1c-0.3-0.8-0.5-1.7-0.5-2.5c-0.1-1.1-0.1-1.5-0.1-4.3s0-3.2,0.1-4.3
				c0-0.9,0.2-1.7,0.5-2.6c0.4-1.4,1.5-2.5,3-3.1c0.8-0.3,1.7-0.5,2.5-0.5c1.1-0.1,1.5-0.1,4.3-0.1s3.2,0,4.3,0.1
				c0.9,0,1.7,0.2,2.5,0.5c1.4,0.5,2.6,1.7,3.1,3.1c0.3,0.8,0.5,1.7,0.5,2.5c0,1.1,0.1,1.5,0.1,4.3S26.5,19.2,26.4,20.3z"/>
			<circle class="st0" cx="16" cy="16" r="3.5"/>
		</g>
	</g>
</g>
</svg>
