<svg id="svg" xmlns="http://www.w3.org/2000/svg" width="32" height="32" viewBox="0 0 32 32"><defs><style>.cls-1{fill:#8893a2;}</style></defs><title>svg-sources</title><path class="cls-1" d="M30,0H2A2,2,0,0,0,0,2V30a2,2,0,0,0,2,2H30a2,2,0,0,0,2-2V2A2,2,0,0,0,30,0ZM24.74,11.58c0,0.19,0,.38,0,0.57A12.65,12.65,0,0,1,11.92,24.8,12.92,12.92,0,0,1,5,22.8,9.23,9.23,0,0,0,11.68,21a4.51,4.51,0,0,1-4.21-3.09,4.48,4.48,0,0,0,.85.08A4.68,4.68,0,0,0,9.5,17.8a4.47,4.47,0,0,1-3.62-4.36s0,0,0-.06a4.55,4.55,0,0,0,2,.56,4.43,4.43,0,0,1-2-3.7A4.38,4.38,0,0,1,6.53,8a12.9,12.9,0,0,0,9.3,4.64,4.55,4.55,0,0,1-.11-1A4.47,4.47,0,0,1,20.22,7.2a4.54,4.54,0,0,1,3.29,1.4,9.15,9.15,0,0,0,2.87-1.08,4.45,4.45,0,0,1-2,2.45A9.11,9.11,0,0,0,27,9.28,9.15,9.15,0,0,1,24.74,11.58Z"/></svg>