<?xml version="1.0" encoding="utf-8"?>
<!-- Generator: Adobe Illustrator 19.2.0, SVG Export Plug-In . SVG Version: 6.00 Build 0)  -->
<svg version="1.1" id="svg" xmlns="http://www.w3.org/2000/svg" xmlns:xlink="http://www.w3.org/1999/xlink" x="0px" y="0px"
	 width="395px" height="207px" viewBox="0 0 395 207" style="enable-background:new 0 0 395 207;" xml:space="preserve">
<style type="text/css">
	.st0{fill:#E9EEF5;}
	.st1{fill:#ADBCC9;}
	.st2{fill:#0C6BC1;}
	.st3{fill:#0E57A6;}
	.st4{fill:#084882;}
</style>
<title>svg-sources</title>
<circle class="st0" cx="115.1" cy="79.8" r="55.4"/>
<path class="st1" d="M100.3,80h-8.6c-0.6,0-1.1,0.5-1.1,1.1v11.8c0,0.6,0.5,1.1,1.1,1.1h8.6c0.6,0,1.1-0.5,1.1-1.1V81.1
	C101.5,80.5,101,80,100.3,80C100.4,80,100.3,80,100.3,80z M100.4,92.9C100.4,92.9,100.4,93,100.4,92.9L91.8,93c0,0-0.1,0-0.1-0.1
	V81.1c0,0,0-0.1,0.1-0.1h8.6c0,0,0.1,0,0.1,0.1L100.4,92.9L100.4,92.9z"/>
<path class="st1" d="M97.3,95.1h-2.5c-0.3,0.1-0.5,0.3-0.4,0.6c0,0.2,0.2,0.4,0.4,0.4h2.5c0.3-0.1,0.5-0.3,0.4-0.6
	C97.7,95.3,97.5,95.2,97.3,95.1z"/>
<path class="st1" d="M94.8,78.8h2.5c0.3,0.1,0.5-0.1,0.6-0.4s-0.1-0.5-0.4-0.6c-0.1,0-0.1,0-0.2,0h-2.5c-0.3,0.1-0.5,0.3-0.4,0.6
	C94.4,78.7,94.6,78.8,94.8,78.8z"/>
<path class="st1" d="M139.4,72.2h-5.5V61.9c0-1.7-1.3-3.1-3-3.2l0,0H94.4c-1.7,0-3,1.4-3,3.1l0,0v12.7h-1c-1.5,0-2.8,1.2-2.8,2.8
	l0,0v19.1c0,1.5,1.2,2.8,2.8,2.8h11.2c1.5,0,2.8-1.2,2.8-2.8v-1.2c0.4,0.9,1.3,1.5,2.2,1.5H118v0.8c0,1.7,1.4,3.1,3.1,3.1h18.2
	c1.7,0,3.1-1.4,3.1-3.1V75.3C142.4,73.6,141.1,72.2,139.4,72.2z M93.5,61.9c0-0.6,0.4-1.1,0.9-1.1h36.4c0.6,0.1,1,0.6,0.9,1.1v10.3
	h-2.1v-9c0-0.3-0.2-0.5-0.5-0.5l0,0H96c-0.3,0-0.5,0.2-0.5,0.5l0,0v11.4h-2.1L93.5,61.9L93.5,61.9z M104.4,83.7H118v3.7h-13.7
	L104.4,83.7L104.4,83.7z M118.1,75.3v7.4h-13.7v-5.3c0-1.5-1.2-2.8-2.8-2.8l0,0h-5.1V63.7h32.1v8.5H121
	C119.4,72.2,118,73.6,118.1,75.3C118,75.3,118,75.3,118.1,75.3L118.1,75.3z M101.6,97.3H90.5c-0.4,0-0.8-0.3-0.8-0.8V77.4
	c0-0.4,0.3-0.8,0.8-0.8h11.1c0.4,0,0.8,0.3,0.8,0.8v11.1l0,0v8C102.4,96.9,102,97.3,101.6,97.3z M104.4,93.6v-4.1h2.8v2
	c0,0.3-0.3,0.6-0.6,0.6C105.6,92,104.8,92.6,104.4,93.6L104.4,93.6z M106.6,94.8c-0.2,0-0.4-0.2-0.4-0.4s0.2-0.4,0.4-0.4
	c1.4,0,2.6-1.2,2.6-2.6v-1.7h6.8v1.8c0,1.2,0.8,2.2,2,2.5c0,0.5,0,0.9,0,0.9L106.6,94.8z M140.4,97.7c0,0.6-0.5,1.1-1.1,1.1H121
	c-0.6,0-1.1-0.5-1.1-1.1v-0.8l0,0V75.3c0-0.6,0.5-1.1,1.1-1.1h18.2c0.6,0,1.1,0.5,1.1,1.1L140.4,97.7L140.4,97.7z"/>
<path class="st1" d="M138.2,76.1h-15.9c-0.3,0-0.5,0.2-0.5,0.5l0,0V95c0,0.3,0.2,0.5,0.5,0.5l0,0h15.9c0.3,0,0.5-0.2,0.5-0.5V76.6
	C138.6,76.4,138.4,76.2,138.2,76.1z M137.6,94.5h-14.9V77.1h14.9V94.5z"/>
<path class="st1" d="M131.1,96.6h-1.8c-0.3,0.1-0.5,0.3-0.4,0.6c0,0.2,0.2,0.4,0.4,0.4h1.8c0.3-0.1,0.5-0.3,0.4-0.6
	C131.5,96.8,131.3,96.6,131.1,96.6z"/>
<path class="st1" d="M114.9,84.9h-4.4c-0.3,0.1-0.5,0.3-0.4,0.6c0,0.2,0.2,0.4,0.4,0.4h4.4c0.3-0.1,0.5-0.3,0.4-0.6
	C115.2,85.1,115.1,84.9,114.9,84.9z"/>
<path class="st2" d="M163.3,148.4h0.4c9.6,0,17.3,7.8,17.3,17.3l0,0v0.3c0,2.4-1.9,4.3-4.3,4.3l0,0h-26.4c-2.4,0-4.3-1.9-4.3-4.3
	l0,0v-0.3C145.9,156.2,153.7,148.4,163.3,148.4z"/>
<path class="st2" d="M163.4,125.5h0.2c5.2,0,9.4,4.2,9.4,9.4v2.2c0,5.2-4.2,9.4-9.4,9.4h-0.2c-5.2,0-9.4-4.2-9.4-9.4v-2.2
	C154,129.7,158.2,125.5,163.4,125.5z"/>
<path class="st2" d="M114.4,148.4h0.4c9.6,0,17.3,7.8,17.3,17.3v0.3c0,2.4-1.9,4.3-4.3,4.3l0,0h-26.4c-2.4,0-4.3-1.9-4.3-4.3l0,0
	v-0.3C97.1,156.2,104.9,148.4,114.4,148.4z"/>
<path class="st2" d="M114.5,125.5h0.2c5.2,0,9.4,4.2,9.4,9.4v2.2c0,5.2-4.2,9.4-9.4,9.4h-0.2c-5.2,0-9.4-4.2-9.4-9.4v-2.2
	C105.2,129.7,109.4,125.5,114.5,125.5z"/>
<path class="st2" d="M65.6,148.4H66c9.6,0,17.3,7.8,17.3,17.3v0.3c0,2.4-1.9,4.3-4.3,4.3l0,0H52.6c-2.4,0-4.3-1.9-4.3-4.3l0,0v-0.3
	C48.3,156.2,56.1,148.4,65.6,148.4z"/>
<path class="st2" d="M65.7,125.5h0.2c5.2,0,9.4,4.2,9.4,9.4v2.2c0,5.2-4.2,9.4-9.4,9.4h-0.2c-5.2,0-9.4-4.2-9.4-9.4v-2.2
	C56.3,129.7,60.5,125.5,65.7,125.5z"/>
<path class="st3" d="M138.8,158.9h0.4c9.6,0,17.3,7.8,17.3,17.3v0.3c0,2.4-1.9,4.3-4.3,4.3l0,0h-26.4c-2.4,0-4.3-1.9-4.3-4.3l0,0
	v-0.3C121.5,166.6,129.3,158.9,138.8,158.9L138.8,158.9z"/>
<path class="st3" d="M138.9,136h0.2c5.2,0,9.4,4.2,9.4,9.4v2.2c0,5.2-4.2,9.4-9.4,9.4h-0.2c-5.2,0-9.4-4.2-9.4-9.4v-2.2
	C129.6,140.2,133.8,136,138.9,136z"/>
<path class="st3" d="M90,158.9h0.4c9.6,0,17.3,7.8,17.3,17.3v0.3c0,2.4-1.9,4.3-4.3,4.3l0,0H77c-2.4,0-4.3-1.9-4.3-4.3l0,0v-0.3
	C72.7,166.6,80.5,158.9,90,158.9L90,158.9L90,158.9z"/>
<path class="st3" d="M90.1,136h0.2c5.2,0,9.4,4.2,9.4,9.4v2.2c0,5.2-4.2,9.4-9.4,9.4h-0.2c-5.2,0-9.4-4.2-9.4-9.4v-2.2
	C80.7,140.2,84.9,136,90.1,136z"/>
<path class="st4" d="M93.4,150.9c-0.1,0-0.3-0.1-0.4-0.2c-1.5-1.5-4-1.5-5.6,0c-0.2,0.2-0.6,0.2-0.8,0c-0.2-0.2-0.2-0.6,0-0.8
	c2-2,5.2-2,7.2,0l0,0c0.2,0.2,0.2,0.6,0,0.8C93.7,150.8,93.6,150.9,93.4,150.9z"/>
<path class="st4" d="M87.3,146.2c-1.2,0-2.3-1-2.3-2.3l0,0c0-0.3,0.3-0.6,0.6-0.6c0.3,0,0.6,0.3,0.6,0.6c0,0.6,0.5,1.1,1.1,1.1
	s1.1-0.5,1.1-1.1c0-0.3,0.3-0.6,0.6-0.6c0.3,0,0.6,0.3,0.6,0.6C89.6,145.2,88.6,146.2,87.3,146.2L87.3,146.2z"/>
<path class="st4" d="M93.2,146.2c-1.2,0-2.3-1-2.3-2.3l0,0c0-0.3,0.3-0.6,0.6-0.6s0.6,0.3,0.6,0.6c0,0.6,0.5,1.1,1.1,1.1
	s1.1-0.5,1.1-1.1c0-0.3,0.3-0.6,0.6-0.6c0.3,0,0.6,0.3,0.6,0.6C95.4,145.2,94.4,146.2,93.2,146.2L93.2,146.2z"/>
<path class="st4" d="M142.2,150.9c-0.1,0-0.3-0.1-0.4-0.2c-1.5-1.5-4-1.5-5.6,0c-0.2,0.2-0.6,0.2-0.8,0s-0.2-0.6,0-0.8l0,0
	c2-2,5.2-2,7.2,0l0,0c0.2,0.2,0.2,0.6,0,0.8C142.6,150.8,142.4,150.9,142.2,150.9z"/>
<path class="st4" d="M136.1,146.2c-1.2,0-2.3-1-2.3-2.3l0,0c0-0.3,0.3-0.6,0.6-0.6s0.6,0.3,0.6,0.6c0,0.6,0.5,1.1,1.1,1.1
	s1.1-0.5,1.1-1.1c0-0.3,0.3-0.6,0.6-0.6s0.6,0.3,0.6,0.6C138.4,145.2,137.4,146.2,136.1,146.2L136.1,146.2z"/>
<path class="st4" d="M142,146.2c-1.2,0-2.3-1-2.3-2.3l0,0c0-0.3,0.3-0.6,0.6-0.6s0.6,0.3,0.6,0.6c0,0.6,0.5,1.1,1.1,1.1
	s1.1-0.5,1.1-1.1c0-0.3,0.3-0.6,0.6-0.6s0.6,0.3,0.6,0.6C144.3,145.2,143.2,146.2,142,146.2L142,146.2z"/>
<path class="st3" d="M117.8,140.2c-0.1,0-0.3-0.1-0.4-0.2c-1.5-1.5-4-1.5-5.6,0c-0.2,0.2-0.6,0.2-0.8,0c-0.2-0.2-0.2-0.6,0-0.8l0,0
	c2-2,5.2-2,7.2,0l0,0c0.2,0.2,0.2,0.6,0,0.8C118.1,140.1,118,140.2,117.8,140.2z"/>
<path class="st3" d="M111.7,135.6c-1.2,0-2.3-1-2.3-2.3c0-0.3,0.3-0.6,0.6-0.6c0.3,0,0.6,0.3,0.6,0.6l0,0c0,0.6,0.5,1.1,1.1,1.1
	s1.1-0.5,1.1-1.1l0,0c0-0.3,0.3-0.6,0.6-0.6s0.6,0.3,0.6,0.6l0,0C114,134.5,113,135.6,111.7,135.6L111.7,135.6z"/>
<path class="st3" d="M117.6,135.6c-1.2,0-2.3-1-2.3-2.3c0-0.3,0.3-0.6,0.6-0.6c0.3,0,0.6,0.3,0.6,0.6l0,0c0,0.6,0.5,1.1,1.1,1.1
	s1.1-0.5,1.1-1.1l0,0c0-0.3,0.3-0.6,0.6-0.6c0.3,0,0.6,0.3,0.6,0.6l0,0C119.8,134.5,118.8,135.6,117.6,135.6L117.6,135.6z"/>
<path class="st3" d="M166.7,140.2c-0.1,0-0.3-0.1-0.4-0.2c-1.5-1.5-4-1.5-5.6,0c-0.2,0.2-0.6,0.2-0.8,0s-0.2-0.6,0-0.8
	c2-2,5.2-2,7.2,0l0,0c0.2,0.2,0.2,0.6,0,0.8C167,140.1,166.8,140.2,166.7,140.2z"/>
<path class="st3" d="M160.6,135.6c-1.2,0-2.3-1-2.3-2.3l0,0c0-0.3,0.3-0.6,0.6-0.6s0.6,0.3,0.6,0.6l0,0c0,0.6,0.5,1.1,1.1,1.1
	s1.1-0.5,1.1-1.1l0,0c0-0.3,0.3-0.6,0.6-0.6s0.6,0.3,0.6,0.6l0,0C162.8,134.5,161.8,135.6,160.6,135.6z"/>
<path class="st3" d="M166.4,135.6c-1.2,0-2.3-1-2.3-2.3l0,0c0-0.3,0.3-0.6,0.6-0.6s0.6,0.3,0.6,0.6l0,0c0,0.6,0.5,1.1,1.1,1.1
	s1.1-0.5,1.1-1.1l0,0c0-0.3,0.3-0.6,0.6-0.6s0.6,0.3,0.6,0.6l0,0C168.6,134.5,167.6,135.6,166.4,135.6z"/>
<path class="st3" d="M69,140.2c-0.1,0-0.3-0.1-0.4-0.2c-1.5-1.5-4-1.5-5.6,0c-0.2,0.2-0.6,0.2-0.8,0s-0.2-0.6,0-0.8c2-2,5.2-2,7.2,0
	l0,0c0.2,0.2,0.2,0.6,0,0.8C69.3,140.1,69.2,140.2,69,140.2z"/>
<path class="st3" d="M62.9,135.6c-1.2,0-2.3-1-2.3-2.3c0-0.3,0.3-0.6,0.6-0.6s0.6,0.3,0.6,0.6l0,0c0,0.6,0.5,1.1,1.1,1.1
	s1.1-0.5,1.1-1.1l0,0c0-0.3,0.3-0.6,0.6-0.6s0.6,0.3,0.6,0.6l0,0C65.2,134.5,64.2,135.6,62.9,135.6z"/>
<path class="st3" d="M68.8,135.6c-1.2,0-2.3-1-2.3-2.3c0-0.3,0.3-0.6,0.6-0.6s0.6,0.3,0.6,0.6l0,0c0,0.6,0.5,1.1,1.1,1.1
	s1.1-0.5,1.1-1.1l0,0c0-0.3,0.3-0.6,0.6-0.6s0.6,0.3,0.6,0.6l0,0C71,134.5,70,135.6,68.8,135.6z"/>
</svg>
