<?xml version="1.0" encoding="utf-8"?>
<!-- Generator: Adobe Illustrator 19.2.0, SVG Export Plug-In . SVG Version: 6.00 Build 0)  -->
<svg version="1.1" id="svg" xmlns="http://www.w3.org/2000/svg" xmlns:xlink="http://www.w3.org/1999/xlink" x="0px" y="0px"
	 width="108px" height="135px" viewBox="0 0 108 135" style="enable-background:new 0 0 108 135;" xml:space="preserve">
<style type="text/css">
	.st0{fill:#BAC2CF;}
	.st1{fill:#8893A3;}
	.st2{fill:#F3F7FB;}
	.st3{fill:#D6DCE4;}
	.st4{clip-path:url(#SVGID_2_);}
	.st5{fill:#0E57A6;}
</style>
<title>svg-sources</title>
<path class="st0" d="M89,135H18.9c-0.4,0-0.8-0.3-0.9-0.7c0-0.1,0-0.2,0-0.3c0-0.5,0.3-1,0.8-1c0.1,0,0.1,0,0.2,0h70
	c0.6,0,1,0.4,1,1S89.6,135,89,135z"/>
<path class="st0" d="M1,103.3c-0.6,0-1.1-0.5-1.2-1.1c0-0.2,0.1-0.4,0.2-0.6L34.5,42c0.3-0.6,1-0.7,1.6-0.4c0.6,0.3,0.7,1,0.4,1.6
	L2,102.7C1.8,103.1,1.4,103.3,1,103.3z"/>
<path class="st0" d="M107,103c-0.4,0-0.8-0.2-1-0.6L71.5,42.8c-0.3-0.6-0.1-1.3,0.4-1.6s1.3-0.1,1.6,0.4l0,0l34.5,59.6
	c0.3,0.5,0.1,1.2-0.4,1.6C107.4,102.9,107.2,103,107,103z"/>
<path class="st1" d="M55.2,99.9l12.5-12.5c0.3-0.3,0.3-0.8,0-1.2s-0.8-0.3-1.2,0L54,98.7L41.5,86.3c-0.3-0.3-0.8-0.3-1.2,0
	s-0.3,0.8,0,1.2l0,0l12.5,12.5l-12.5,12.5c-0.3,0.3-0.3,0.8,0,1.2s0.8,0.3,1.2,0L54,101.1l12.5,12.5c0.3,0.3,0.8,0.3,1.2,0
	s0.3-0.8,0-1.2L55.2,99.9z"/>
<rect x="35.3" y="79.7" class="st2" width="37.4" height="25.3"/>
<path class="st1" d="M34.7,77.5h38.6c0.8,0,1.4,0.6,1.4,1.4V79c0,0.8-0.6,1.4-1.4,1.4H34.7c-0.8,0-1.4-0.6-1.4-1.4v-0.1
	C33.3,78.1,33.9,77.5,34.7,77.5z"/>
<path class="st3" d="M35.5,105h37c0.4,0,0.8,0.3,0.8,0.8v0.1c0,0.4-0.3,0.8-0.8,0.8h-37c-0.4,0-0.8-0.3-0.8-0.8v-0.1
	C34.7,105.3,35.1,105,35.5,105z"/>
<g>
	<defs>
		<rect id="SVGID_1_" x="35.3" y="74.7" width="42" height="30.2"/>
	</defs>
	<clipPath id="SVGID_2_">
		<use xlink:href="#SVGID_1_"  style="overflow:visible;"/>
	</clipPath>
	<g class="st4">
		<path class="st5" d="M74.8,82.8c0,0,0-0.1,0-0.1c0,0,0-0.1,0-0.1l-0.1-0.1l-0.1-0.1c-0.1-0.2-0.3-0.3-0.4-0.4h-0.1l-0.1-0.1H74
			h-0.1h-0.2H68c-0.7,0-1.3,0.6-1.3,1.3s0.6,1.3,1.3,1.3c0,0,0,0,0,0h2.6l-6.4,6.4L61.4,88c-0.5-0.5-1.3-0.5-1.8,0l-9.9,9.8
			l-5.1-5.1c-0.5-0.5-1.3-0.5-1.8,0l-10.1,10.1c-0.5,0.5-0.6,1.3-0.1,1.8s1.3,0.6,1.8,0.1c0,0,0.1-0.1,0.1-0.1l9.2-9.2l5.1,5.1
			c0.5,0.5,1.3,0.5,1.8,0l9.8-9.8l2.8,2.8c0.5,0.5,1.3,0.5,1.8,0l7.3-7.3v2.6c0,0.7,0.6,1.3,1.3,1.3c0.7,0,1.3-0.6,1.3-1.3v-5.6
			C74.9,83,74.9,82.9,74.8,82.8z"/>
	</g>
</g>
</svg>
