<?xml version="1.0" encoding="utf-8"?>
<!-- Generator: Adobe Illustrator 19.2.0, SVG Export Plug-In . SVG Version: 6.00 Build 0)  -->
<svg version="1.1" id="svg" xmlns="http://www.w3.org/2000/svg" xmlns:xlink="http://www.w3.org/1999/xlink" x="0px" y="0px"
	 width="46px" height="66px" viewBox="0 0 46 66" style="enable-background:new 0 0 46 66;" xml:space="preserve">
<style type="text/css">
	.st0{fill:#0E57A6;}
</style>
<title>svg-sources</title>
<path class="st0" d="M29.4,33.2H17.6c-0.2,0-0.4,0.2-0.4,0.4v11.8c0,0.2,0.2,0.4,0.4,0.4h11.8c0.2,0,0.4-0.2,0.4-0.4V33.6
	C29.8,33.3,29.6,33.1,29.4,33.2z M28.9,45H18V34h11L28.9,45L28.9,45z"/>
<path class="st0" d="M40.2,34.9c0.5,0.1,0.9-0.3,0.9-0.7c0.1-0.5-0.3-0.9-0.7-0.9c-0.1,0-0.1,0-0.2,0h-2.9v-1.9h2.9
	c0.5,0.1,0.9-0.3,0.9-0.7c0.1-0.5-0.3-0.9-0.7-0.9c-0.1,0-0.1,0-0.2,0h-3c-0.5-1.9-2-3.4-3.9-3.9v-3.1c0.1-0.5-0.3-0.9-0.7-0.9
	c-0.5-0.1-0.9,0.3-0.9,0.7c0,0.1,0,0.1,0,0.2v2.9h-1.9v-2.9c0.1-0.5-0.3-0.9-0.7-0.9c-0.5-0.1-0.9,0.3-0.9,0.7c0,0.1,0,0.1,0,0.2
	v2.9h-1.9v-2.9c0.1-0.5-0.3-0.9-0.7-0.9c-0.5-0.1-0.9,0.3-0.9,0.7c0,0.1,0,0.1,0,0.2v2.9h-1.9v-2.9c0.1-0.5-0.3-0.9-0.7-0.9
	c-0.5-0.1-0.9,0.3-0.9,0.7c0,0.1,0,0.1,0,0.2v2.9H19v-2.9C18.9,22.3,18.5,22,18,22c-0.4,0-0.7,0.4-0.7,0.7v2.9h-1.9v-2.9
	c0.1-0.5-0.3-0.9-0.7-0.9c-0.5-0.1-0.9,0.3-0.9,0.7c0,0.1,0,0.1,0,0.2v3.1c-1.9,0.5-3.4,2-3.9,3.9H6.8c-0.5-0.1-0.9,0.3-0.9,0.7
	c-0.1,0.5,0.3,0.9,0.7,0.9c0.1,0,0.1,0,0.2,0h2.9v1.9H6.8c-0.5-0.1-0.9,0.3-0.9,0.7c-0.1,0.5,0.3,0.9,0.7,0.9c0.1,0,0.1,0,0.2,0h2.9
	v1.9H6.8C6.3,36.9,6,37.3,6,37.8c0,0.4,0.4,0.7,0.7,0.7h2.9v1.9H6.8C6.3,40.5,6,40.9,6,41.3c0,0.4,0.4,0.7,0.7,0.7h2.9V44H6.8
	c-0.5-0.1-0.9,0.3-0.9,0.7c-0.1,0.5,0.3,0.9,0.7,0.9c0.1,0,0.1,0,0.2,0h2.9v1.9H6.8c-0.5-0.1-0.9,0.3-0.9,0.7
	c-0.1,0.5,0.3,0.9,0.7,0.9c0.1,0,0.1,0,0.2,0h3.1c0.5,1.9,2,3.4,3.9,3.9v3.1c-0.1,0.5,0.3,0.9,0.7,0.9c0.5,0.1,0.9-0.3,0.9-0.7
	c0-0.1,0-0.1,0-0.2v-2.9h1.9v2.9c-0.1,0.5,0.3,0.9,0.7,0.9c0.5,0.1,0.9-0.3,0.9-0.7c0-0.1,0-0.1,0-0.2v-2.9h1.9v2.9
	c-0.1,0.5,0.3,0.9,0.7,0.9c0.5,0.1,0.9-0.3,0.9-0.7c0-0.1,0-0.1,0-0.2v-2.9h1.9v2.9c0.1,0.5,0.5,0.8,0.9,0.7c0.4,0,0.7-0.4,0.7-0.7
	v-2.9H28v2.9c-0.1,0.5,0.3,0.9,0.7,0.9c0.5,0.1,0.9-0.3,0.9-0.7c0-0.1,0-0.1,0-0.2v-2.9h1.9v2.9c-0.1,0.5,0.3,0.9,0.7,0.9
	c0.5,0.1,0.9-0.3,0.9-0.7c0-0.1,0-0.1,0-0.2v-3c1.9-0.5,3.4-2,3.9-3.9h3.1c0.5,0.1,0.9-0.3,0.9-0.7c0.1-0.5-0.3-0.9-0.7-0.9
	c-0.1,0-0.1,0-0.2,0h-2.9v-1.9h2.9c0.5,0.1,0.9-0.3,0.9-0.7c0.1-0.5-0.3-0.9-0.7-0.9c-0.1,0-0.1,0-0.2,0h-2.9v-1.9h2.9
	c0.5-0.1,0.8-0.5,0.7-0.9c0-0.4-0.4-0.7-0.7-0.7h-2.9v-1.9h2.9c0.5-0.1,0.8-0.5,0.7-0.9c0-0.4-0.4-0.7-0.7-0.7h-2.9V35L40.2,34.9
	L40.2,34.9z M31.8,51.6H15.1c-2.1,0-3.8-1.7-3.8-3.8V31.1c0-2.1,1.7-3.8,3.8-3.8h16.7c2.1,0,3.8,1.7,3.8,3.8v16.7
	C35.6,49.9,33.9,51.6,31.8,51.6z"/>
<path class="st0" d="M14.5,29c-1,0-1.9,0.8-1.9,1.9c0,1,0.8,1.9,1.9,1.9s1.9-0.8,1.9-1.9S15.6,29,14.5,29L14.5,29z M14.5,31.9
	c-0.6,0-1-0.4-1-1s0.4-1,1-1s1,0.4,1,1C15.6,31.4,15.1,31.9,14.5,31.9C14.6,31.9,14.5,31.9,14.5,31.9L14.5,31.9z"/>
</svg>
