<?xml version="1.0" encoding="utf-8"?>
<!-- Generator: Adobe Illustrator 19.2.0, SVG Export Plug-In . SVG Version: 6.00 Build 0)  -->
<svg version="1.1" id="svg" xmlns="http://www.w3.org/2000/svg" xmlns:xlink="http://www.w3.org/1999/xlink" x="0px" y="0px"
	 width="46px" height="66px" viewBox="0 0 46 66" style="enable-background:new 0 0 46 66;" xml:space="preserve">
<style type="text/css">
	.st0{fill:#0E57A6;}
</style>
<title>svg-sources</title>
<path class="st0" d="M25.7,19.9c1.7,0,3.1,1.4,3.1,3.1v1.6h8.9c1.5,0,2.7,1.2,2.7,2.7v17.6c0,1.5-1.2,2.7-2.7,2.7H8.2
	c-1.5,0-2.7-1.2-2.7-2.7V27.3c0-1.5,1.2-2.7,2.7-2.7h8.9V23c0-1.7,1.4-3.1,3.1-3.1L25.7,19.9 M25.7,18.3h-5.4
	c-2.6,0-4.7,2.1-4.7,4.7H8.2C5.9,23,4,24.9,4,27.2c0,0,0,0,0,0v17.5C4,47.1,5.9,49,8.2,49h29.6c2.3,0,4.2-1.9,4.2-4.2V27.3
	c0-2.3-1.9-4.2-4.2-4.3c0,0,0,0,0,0h-7.4C30.4,20.4,28.3,18.3,25.7,18.3L25.7,18.3L25.7,18.3z"/>
<path class="st0" d="M24.9,22.6c0.3,0,0.5,0.2,0.5,0.5v0.7h-4.7v-0.7c0-0.3,0.2-0.5,0.5-0.5H24.9 M24.9,21.8h-3.8
	c-0.7,0-1.3,0.6-1.3,1.3l0,0v1.5h6.3v-1.5C26.2,22.4,25.6,21.8,24.9,21.8L24.9,21.8C24.9,21.8,24.9,21.8,24.9,21.8z"/>
<path class="st0" d="M23,41c-6,0.1-12-1-17.6-3.2c-0.2-0.1-0.3-0.3-0.2-0.5c0.1-0.2,0.3-0.2,0.5-0.2c5.5,2.1,11.4,3.1,17.3,3.1
	c5.9,0.1,11.8-1,17.3-3.1c0.2-0.1,0.4,0,0.5,0.2c0.1,0.2,0,0.4-0.2,0.5c0,0,0,0-0.1,0C35,40,29,41.1,23,41z"/>
<path class="st0" d="M24.9,43.5h-3.8c-0.9,0-1.6-0.7-1.6-1.6v-2.7c0-0.9,0.7-1.6,1.6-1.6h3.8c0.9,0,1.6,0.7,1.6,1.6v2.7
	C26.5,42.8,25.8,43.5,24.9,43.5z M21.1,38.3c-0.5,0-0.8,0.4-0.8,0.8l0,0v2.7c0,0.5,0.4,0.8,0.8,0.8l0,0h3.8c0.5,0,0.8-0.4,0.8-0.8
	l0,0v-2.7c0-0.5-0.4-0.8-0.8-0.8l0,0C24.9,38.3,21.1,38.3,21.1,38.3z"/>
<path class="st0" d="M29.6,24.6H16.2c-0.2,0-0.4-0.2-0.4-0.4c0-0.2,0.2-0.4,0.4-0.4h13.5c0.2,0,0.4,0.2,0.4,0.4
	C30,24.4,29.8,24.6,29.6,24.6z"/>
</svg>
