<?xml version="1.0" encoding="utf-8"?>
<!-- Generator: Adobe Illustrator 19.2.0, SVG Export Plug-In . SVG Version: 6.00 Build 0)  -->
<svg version="1.1" id="svg" xmlns="http://www.w3.org/2000/svg" xmlns:xlink="http://www.w3.org/1999/xlink" x="0px" y="0px"
	 width="46px" height="66px" viewBox="0 0 46 66" style="enable-background:new 0 0 46 66;" xml:space="preserve">
<style type="text/css">
	.st0{fill:#0E57A6;}
</style>
<title>svg-sources</title>
<path class="st0" d="M30,51.4H16.2c-0.5,0-0.8-0.4-0.8-0.8l0,0V50c-0.1-4.1-1.4-8-3.7-11.3C9.8,36.1,9,33,9.2,29.9
	c0.5-7,6.2-12.6,13.2-13c7.7-0.4,14.2,5.5,14.6,13.2c0.2,3.2-0.8,6.4-2.7,9c-2.3,3.2-3.5,7-3.5,10.9v0.5C30.8,51,30.4,51.3,30,51.4z
	 M17,49.7h12.1c0-4.2,1.3-8.2,3.8-11.6c4-5.4,2.9-13.1-2.5-17.1c-2.3-1.7-5-2.5-7.9-2.4c-6.2,0.4-11.2,5.3-11.6,11.4
	c-0.2,2.7,0.6,5.5,2.1,7.7C15.5,41.2,16.9,45.4,17,49.7z"/>
<path class="st0" d="M30,54.6H16.2c-0.5,0-0.8-0.4-0.8-0.8c0-0.5,0.4-0.8,0.8-0.8H30c0.5,0,0.8,0.4,0.8,0.8
	C30.8,54.2,30.5,54.6,30,54.6z"/>
<path class="st0" d="M30,57.8H16.2c-0.5,0-0.8-0.4-0.8-0.8c0-0.5,0.4-0.8,0.8-0.8H30c0.5,0,0.8,0.4,0.8,0.8
	C30.8,57.4,30.5,57.8,30,57.8z"/>
<path class="st0" d="M26.4,61h-6.7c-0.5,0-0.8-0.4-0.8-0.8c0-0.5,0.4-0.8,0.8-0.8h6.7c0.5,0,0.8,0.4,0.8,0.8
	C27.3,60.6,26.9,61,26.4,61z"/>
<path class="st0" d="M24.6,50.9h-3c-0.2,0-0.4-0.1-0.4-0.3l-3.7-17.2c-0.1-0.2,0.1-0.5,0.3-0.5c0.1,0,0.2,0,0.3,0.1l1.7,1.2l1-4.7
	c0-0.2,0.2-0.3,0.4-0.3c0.2,0,0.4,0.1,0.4,0.3l1.3,4.8l1.7-4.8c0.1-0.2,0.2-0.3,0.4-0.3c0.2,0,0.3,0.1,0.4,0.3l1.2,5L28,33
	c0.2-0.2,0.4-0.2,0.6,0c0.1,0.1,0.2,0.3,0.1,0.4L25,50.6C25,50.8,24.8,50.9,24.6,50.9z M21.9,50.1h2.3l3.4-15.4l-0.9,0.9
	c-0.1,0.2-0.4,0.2-0.6,0.1c-0.1-0.1-0.1-0.2-0.1-0.3L24.9,31l-1.7,4.8c-0.1,0.2-0.3,0.3-0.5,0.3c-0.1,0-0.2-0.1-0.3-0.3l-1.2-4.4
	L20.5,35c0,0.2-0.3,0.4-0.5,0.3c-0.1,0-0.1,0-0.2-0.1l-1.3-0.9L21.9,50.1z"/>
</svg>
