<svg id="svg" xmlns="http://www.w3.org/2000/svg" width="40" height="48" viewBox="0 0 40 48"><defs><style>.cls-1{fill:#ccd0d6;}</style></defs><title>svg-sources</title><path class="cls-1" d="M37,39a1,1,0,0,1,1,1v5a1,1,0,0,1-1,1H31a1,1,0,0,1-1-1V40a1,1,0,0,1,1-1h6m0-2H31a3,3,0,0,0-3,3v5a3,3,0,0,0,3,3h6a3,3,0,0,0,3-3V40a3,3,0,0,0-3-3h0Z"/><path class="cls-1" d="M23,39a1,1,0,0,1,1,1v5a1,1,0,0,1-1,1H17a1,1,0,0,1-1-1V40a1,1,0,0,1,1-1h6m0-2H17a3,3,0,0,0-3,3v5a3,3,0,0,0,3,3h6a3,3,0,0,0,3-3V40a3,3,0,0,0-3-3h0Z"/><path class="cls-1" d="M23,22a1,1,0,0,1,1,1v5a1,1,0,0,1-1,1H17a1,1,0,0,1-1-1V23a1,1,0,0,1,1-1h6m0-2H17a3,3,0,0,0-3,3v5a3,3,0,0,0,3,3h6a3,3,0,0,0,3-3V23a3,3,0,0,0-3-3h0Z"/><path class="cls-1" d="M9,39a1,1,0,0,1,1,1v5a1,1,0,0,1-1,1H3a1,1,0,0,1-1-1V40a1,1,0,0,1,1-1H9m0-2H3a3,3,0,0,0-3,3v5a3,3,0,0,0,3,3H9a3,3,0,0,0,3-3V40a3,3,0,0,0-3-3H9Z"/><rect class="cls-1" x="19.5" y="32" width="1" height="4"/><path class="cls-1" d="M7,33a1,1,0,0,0-1,1v2H7V34H33v2h1V34a1,1,0,0,0-1-1H7Z"/></svg>