<?xml version="1.0" encoding="utf-8"?>
<!-- Generator: Adobe Illustrator 19.2.0, SVG Export Plug-In . SVG Version: 6.00 Build 0)  -->
<svg version="1.1" id="svg" xmlns="http://www.w3.org/2000/svg" xmlns:xlink="http://www.w3.org/1999/xlink" x="0px" y="0px"
	 width="40px" height="48px" viewBox="0 0 40 48" style="enable-background:new 0 0 40 48;" xml:space="preserve">
<style type="text/css">
	.st0{fill:#0E57A6;}
</style>
<title>svg-sources</title>
<path class="st0" d="M34,22c2.2,0,4,1.8,4,4v16c0,2.2-1.8,4-4,4H6c-2.2,0-4-1.8-4-4V26c0-2.2,1.8-4,4-4H34 M34,20H6
	c-3.3,0-6,2.7-6,6v16c0,3.3,2.7,6,6,6h28c3.3,0,6-2.7,6-6V26C40,22.7,37.3,20,34,20L34,20z"/>
<path class="st0" d="M30,30.5c-0.3,0-0.5-0.2-0.5-0.5c0-0.1,0.1-0.3,0.1-0.3l5-5c0.2-0.2,0.5-0.2,0.7,0s0.2,0.5,0,0.7l-5,5
	C30.3,30.4,30.1,30.5,30,30.5z"/>
<path class="st0" d="M35,30.5c-0.1,0-0.3-0.1-0.3-0.1l-5-5c-0.2-0.2-0.2-0.5,0-0.7s0.5-0.2,0.7,0l5,5c0.2,0.2,0.2,0.5,0,0.7
	C35.3,30.4,35.1,30.5,35,30.5z"/>
<path class="st0" d="M29.3,36c0.4,0,0.7,0.3,0.7,0.7v3.6c0,0.4-0.3,0.7-0.7,0.7H10.7c-0.4,0-0.7-0.3-0.7-0.7c0,0,0,0,0,0v-3.6
	c0-0.4,0.3-0.7,0.7-0.7H29.3 M29.3,35H10.7C9.8,35,9,35.8,9,36.7v3.6c0,0.9,0.8,1.7,1.7,1.7h18.6c0.9,0,1.7-0.8,1.7-1.7v-3.6
	C31,35.8,30.2,35,29.3,35L29.3,35z"/>
</svg>
