<svg id="svg" xmlns="http://www.w3.org/2000/svg" width="40" height="48" viewBox="0 0 40 48"><defs><style>.cls-1{fill:#ccd0d6;}</style></defs><title>svg-sources</title><path class="cls-1" d="M14.16,20H11.33A11.33,11.33,0,0,0,0,31.33v5.34A11.33,11.33,0,0,0,11.33,48h2.83A0.84,0.84,0,0,0,15,47.16V20.84A0.84,0.84,0,0,0,14.16,20ZM2,36.67V31.33a9.33,9.33,0,0,1,8-9.22V45.89A9.33,9.33,0,0,1,2,36.67ZM13,46H11.33L11,46V22l0.33,0H13V46Z"/><path class="cls-1" d="M28.67,20H25.84a0.84,0.84,0,0,0-.84.84V26H18.5a2.5,2.5,0,0,0,0,5H25v6H18.5a2.5,2.5,0,0,0,0,5H25v5.16a0.84,0.84,0,0,0,.84.84h2.83A11.33,11.33,0,0,0,40,36.67V31.33A11.33,11.33,0,0,0,28.67,20ZM18.5,29a0.5,0.5,0,0,1,0-1H26v1H18.5Zm0,11a0.5,0.5,0,0,1,0-1H26v1H18.5ZM27,46V22h1.67L29,22V46l-0.33,0H27Zm11-9.33a9.33,9.33,0,0,1-8,9.22V22.11a9.33,9.33,0,0,1,8,9.22v5.34Z"/></svg>