<svg id="svg" xmlns="http://www.w3.org/2000/svg" width="40" height="48" viewBox="0 0 40 48"><defs><style>.cls-1{fill:#ccd0d6;}</style></defs><title>svg-sources</title><path class="cls-1" d="M34,22a4,4,0,0,1,4,4V42a4,4,0,0,1-4,4H6a4,4,0,0,1-4-4V26a4,4,0,0,1,4-4H34m0-2H6a6,6,0,0,0-6,6V42a6,6,0,0,0,6,6H34a6,6,0,0,0,6-6V26a6,6,0,0,0-6-6h0Z"/><path class="cls-1" d="M30,30.45a0.5,0.5,0,0,1-.35-0.85l5-5a0.5,0.5,0,0,1,.71.71l-5,5A0.5,0.5,0,0,1,30,30.45Z"/><path class="cls-1" d="M35,30.45a0.5,0.5,0,0,1-.35-0.15l-5-5a0.5,0.5,0,0,1,.71-0.71l5,5A0.5,0.5,0,0,1,35,30.45Z"/><path class="cls-1" d="M29.31,36a0.69,0.69,0,0,1,.69.69v3.63a0.69,0.69,0,0,1-.69.69H10.69A0.69,0.69,0,0,1,10,40.31V36.69A0.69,0.69,0,0,1,10.69,36H29.31m0-1H10.69A1.69,1.69,0,0,0,9,36.69v3.63A1.69,1.69,0,0,0,10.69,42H29.31A1.69,1.69,0,0,0,31,40.31V36.69A1.69,1.69,0,0,0,29.31,35h0Z"/></svg>