<svg id="svg" xmlns="http://www.w3.org/2000/svg" width="40" height="48" viewBox="0 0 40 48"><defs><style>.cls-1{fill:#ccd0d6;}</style></defs><title>svg-sources</title><path class="cls-1" d="M34,22a4,4,0,0,1,4,4V42a4,4,0,0,1-4,4H6a4,4,0,0,1-4-4V26a4,4,0,0,1,4-4H34m0-2H6a6,6,0,0,0-6,6V42a6,6,0,0,0,6,6H34a6,6,0,0,0,6-6V26a6,6,0,0,0-6-6h0Z"/><path class="cls-1" d="M23,42.59H22.73a6.92,6.92,0,0,1-3.11-.93,15.78,15.78,0,0,1-4.25-3.55,14.61,14.61,0,0,1-3-4.83,6.38,6.38,0,0,1,1-6.31,5.8,5.8,0,0,1,.66-0.6l0.37-.31a2.24,2.24,0,0,1,1.08-.63h0c1.23-.24,2,1,2.5,1.74L18,27.29a3.71,3.71,0,0,1,.87,2.9A2.29,2.29,0,0,1,18,31.42l-0.19.16-0.32.25a1.48,1.48,0,0,0-.55.57A2.22,2.22,0,0,0,17.38,34a11.11,11.11,0,0,0,2.37,2.68,2.22,2.22,0,0,0,1.45.7,1.77,1.77,0,0,0,.87-0.64,2.66,2.66,0,0,1,1.57-1,3.12,3.12,0,0,1,2.59,1.07l0.42,0.36A2.85,2.85,0,0,1,28,39.4a2.05,2.05,0,0,1-.88,1.37l-0.39.36a5.29,5.29,0,0,1-.73.61A5.52,5.52,0,0,1,23,42.59ZM15.75,26.41H15.64a1.38,1.38,0,0,0-.6.39l-0.4.34a4.74,4.74,0,0,0-.55.49A5.46,5.46,0,0,0,13.32,33a13.62,13.62,0,0,0,2.79,4.49,14.63,14.63,0,0,0,4,3.33,5.89,5.89,0,0,0,2.67.81,4.66,4.66,0,0,0,2.73-.69,4.37,4.37,0,0,0,.59-0.5l0.35-.33a1.32,1.32,0,0,0,.6-0.75A2.17,2.17,0,0,0,26,38l-0.45-.39a2.27,2.27,0,0,0-1.78-.83,1.77,1.77,0,0,0-1,.69,2.61,2.61,0,0,1-1.4.95,2.91,2.91,0,0,1-2.28-.91,12.07,12.07,0,0,1-2.58-2.91,3.18,3.18,0,0,1-.6-2.43,2.18,2.18,0,0,1,.92-1.1l0.26-.21,0.22-.18A1.44,1.44,0,0,0,17.92,30a2.81,2.81,0,0,0-.7-2.05l-0.12-.19A2.24,2.24,0,0,0,15.75,26.41Z"/></svg>