<?xml version="1.0" encoding="utf-8"?>
<!-- Generator: Adobe Illustrator 19.2.0, SVG Export Plug-In . SVG Version: 6.00 Build 0)  -->
<svg version="1.1" id="svg" xmlns="http://www.w3.org/2000/svg" xmlns:xlink="http://www.w3.org/1999/xlink" x="0px" y="0px"
	 width="40px" height="48px" viewBox="0 0 40 48" style="enable-background:new 0 0 40 48;" xml:space="preserve">
<style type="text/css">
	.st0{fill:#0E57A6;}
</style>
<title>svg-sources</title>
<path class="st0" d="M34,22c2.2,0,4,1.8,4,4v16c0,2.2-1.8,4-4,4H6c-2.2,0-4-1.8-4-4V26c0-2.2,1.8-4,4-4H34 M34,20H6
	c-3.3,0-6,2.7-6,6v16c0,3.3,2.7,6,6,6h28c3.3,0,6-2.7,6-6V26C40,22.7,37.3,20,34,20L34,20z"/>
<path class="st0" d="M29,24v-3h-2v3c0,0.6-0.4,1-1,1l0,0c-0.6,0-1,0.4-1,1l0,0c0,0.6,0.4,1,1,1h4c0.6,0,1-0.4,1-1l0,0
	c0-0.6-0.4-1-1-1l0,0C29.4,25,29,24.6,29,24z"/>
<path class="st0" d="M13,24v-3h-2v3c0,0.6-0.4,1-1,1l0,0c-0.6,0-1,0.4-1,1l0,0c0,0.6,0.4,1,1,1h4c0.6,0,1-0.4,1-1l0,0
	c0-0.6-0.4-1-1-1l0,0C13.4,25,13,24.6,13,24z"/>
<path class="st0" d="M12.6,37c1.9,0,3.4,1.5,3.4,3.4l0,0v0.8c0,0.5-0.4,0.8-0.9,0.8H8.9C8.4,42,8,41.6,8,41.2v-0.8
	c0-1.9,1.5-3.4,3.4-3.4h0H12.6 M12.6,36h-1.2C9,36,7,38,7,40.4v0.8c0,1,0.8,1.8,1.9,1.8h6.3c1,0,1.8-0.8,1.8-1.8v-0.8
	C17,38,15,36,12.6,36L12.6,36z"/>
<path class="st0" d="M12,31c1.1,0,2,0.9,2,2v1c0,1.1-0.9,2-2,2s-2-0.9-2-2v-1C10,31.9,10.9,31,12,31 M12,30c-1.7,0-3,1.3-3,3v1
	c0,1.7,1.3,3,3,3s3-1.3,3-3v-1C15,31.3,13.7,30,12,30L12,30z"/>
<path class="st0" d="M20.5,31h12c0.3,0,0.5,0.2,0.5,0.5l0,0c0,0.3-0.2,0.5-0.5,0.5h-12c-0.3,0-0.5-0.2-0.5-0.5l0,0
	C20,31.2,20.2,31,20.5,31z"/>
<path class="st0" d="M20.5,34h10.1c0.3,0,0.5,0.2,0.5,0.5v0.1c0,0.3-0.2,0.5-0.5,0.5H20.5c-0.3,0-0.5-0.2-0.5-0.5v-0.1
	C20,34.2,20.2,34,20.5,34z"/>
<path class="st0" d="M20.5,37h4c0.3,0,0.5,0.2,0.5,0.5l0,0c0,0.3-0.2,0.5-0.5,0.5h-4c-0.3,0-0.5-0.2-0.5-0.5l0,0
	C20,37.2,20.2,37,20.5,37z"/>
</svg>
