<?xml version="1.0" encoding="utf-8"?>
<!-- Generator: Adobe Illustrator 19.2.0, SVG Export Plug-In . SVG Version: 6.00 Build 0)  -->
<svg version="1.1" id="svg" xmlns="http://www.w3.org/2000/svg" xmlns:xlink="http://www.w3.org/1999/xlink" x="0px" y="0px"
	 width="40px" height="48px" viewBox="0 0 40 48" style="enable-background:new 0 0 40 48;" xml:space="preserve">
<style type="text/css">
	.st0{fill:#0E57A6;}
</style>
<title>svg-sources</title>
<path class="st0" d="M34,22c2.2,0,4,1.8,4,4v16c0,2.2-1.8,4-4,4H6c-2.2,0-4-1.8-4-4V26c0-2.2,1.8-4,4-4H34 M34,20H6
	c-3.3,0-6,2.7-6,6v16c0,3.3,2.7,6,6,6h28c3.3,0,6-2.7,6-6V26C40,22.7,37.3,20,34,20L34,20z"/>
<path class="st0" d="M23,42.6h-0.3c-1.1-0.1-2.2-0.4-3.1-0.9c-1.6-0.9-3.1-2.1-4.2-3.5c-1.3-1.4-2.3-3-3-4.8c-0.8-2.1-0.4-4.5,1-6.3
	c0.2-0.2,0.4-0.4,0.7-0.6l0.4-0.3c0.3-0.3,0.7-0.5,1.1-0.6l0,0c1.2-0.2,2,1,2.5,1.7l0,0.1c0.7,0.8,1,1.9,0.9,2.9
	c-0.1,0.5-0.4,0.9-0.9,1.2l-0.2,0.2l-0.3,0.2c-0.2,0.1-0.4,0.3-0.5,0.6C16.9,33,17,33.5,17.4,34c0.6,1,1.4,1.9,2.4,2.7
	c0.4,0.4,0.9,0.7,1.5,0.7c0.3-0.1,0.7-0.3,0.9-0.6c0.4-0.5,0.9-0.9,1.6-1c1-0.1,1.9,0.3,2.6,1.1l0.4,0.4c0.8,0.5,1.3,1.3,1.3,2.2
	c-0.1,0.6-0.4,1.1-0.9,1.4l-0.4,0.4c-0.2,0.2-0.5,0.4-0.7,0.6C25.1,42.3,24.1,42.6,23,42.6z M15.8,26.4h-0.1
	c-0.2,0.1-0.4,0.2-0.6,0.4l-0.4,0.3c-0.2,0.1-0.4,0.3-0.6,0.5c-1.2,1.5-1.5,3.6-0.8,5.4c0.6,1.7,1.6,3.2,2.8,4.5
	c1.1,1.3,2.5,2.5,4,3.3c0.8,0.5,1.7,0.8,2.7,0.8c1,0.1,1.9-0.2,2.7-0.7c0.2-0.1,0.4-0.3,0.6-0.5l0.4-0.3c0.3-0.2,0.5-0.4,0.6-0.8
	c-0.1-0.6-0.5-1.1-1.1-1.4l-0.5-0.4c-0.4-0.5-1.1-0.8-1.8-0.8c-0.4,0.1-0.8,0.3-1,0.7c-0.3,0.5-0.8,0.8-1.4,1
	c-0.9,0-1.7-0.3-2.3-0.9c-1-0.8-1.9-1.8-2.6-2.9c-0.5-0.7-0.7-1.6-0.6-2.4c0.2-0.5,0.5-0.8,0.9-1.1l0.3-0.2l0.2-0.2
	c0.3-0.2,0.5-0.4,0.6-0.7c0.1-0.7-0.2-1.5-0.7-2l-0.1-0.2C16.9,27.1,16.4,26.6,15.8,26.4z"/>
</svg>
