<?xml version="1.0" encoding="utf-8"?>
<!-- Generator: Adobe Illustrator 19.2.0, SVG Export Plug-In . SVG Version: 6.00 Build 0)  -->
<svg version="1.1" id="svg" xmlns="http://www.w3.org/2000/svg" xmlns:xlink="http://www.w3.org/1999/xlink" x="0px" y="0px"
	 width="40px" height="51px" viewBox="0 0 40 51" style="enable-background:new 0 0 40 51;" xml:space="preserve">
<style type="text/css">
	.st0{fill:#0E57A6;}
</style>
<title>svg-sources</title>
<path class="st0" d="M27.3,22.3C33.2,22.3,38,27.1,38,33c0,0,0,0,0,0c0,5.7-4.9,10.3-11,10.3H16.2l-0.6,0.5L10,49v-6.1l-1.4-0.5
	C4.3,41,2,37.7,2,33c0-5.9,4.8-10.7,10.7-10.7c0,0,0,0,0,0H27.3 M27.3,20.3H12.7C5.7,20.3,0,26,0,33c0,0,0,0,0,0
	c0,5.7,2.9,9.6,8,11.3v5c0.1,1,1,1.8,2.1,1.7c0.4,0,0.8-0.1,1.1-0.4l5.8-5.3h10c7,0,13-5.3,13-12.3C40,26,34.3,20.3,27.3,20.3
	C27.3,20.3,27.3,20.3,27.3,20.3L27.3,20.3z"/>
<rect x="10" y="29.3" class="st0" width="19" height="1"/>
<rect x="10" y="32.3" class="st0" width="13" height="1"/>
<rect x="10" y="35.3" class="st0" width="16" height="1"/>
</svg>
