<?xml version="1.0" encoding="utf-8"?>
<!-- Generator: Adobe Illustrator 19.2.0, SVG Export Plug-In . SVG Version: 6.00 Build 0)  -->
<svg version="1.1" id="svg" xmlns="http://www.w3.org/2000/svg" xmlns:xlink="http://www.w3.org/1999/xlink" x="0px" y="0px"
	 width="40px" height="48px" viewBox="0 0 40 48" style="enable-background:new 0 0 40 48;" xml:space="preserve">
<style type="text/css">
	.st0{fill:#0E57A6;}
</style>
<title>svg-sources</title>
<path class="st0" d="M14.2,20h-2.8C5.1,20,0,25.1,0,31.3c0,0,0,0,0,0v5.3C0,42.9,5.1,48,11.3,48c0,0,0,0,0,0h2.8
	c0.5,0,0.8-0.4,0.8-0.8l0,0V20.8C15,20.4,14.6,20,14.2,20L14.2,20z M2,36.7v-5.3c0-4.6,3.4-8.6,8-9.2v23.8C5.4,45.2,2,41.3,2,36.7z
	 M13,46h-1.7H11V22h0.3H13V46z"/>
<path class="st0" d="M28.7,20h-2.8c-0.5,0-0.8,0.4-0.8,0.8l0,0V26h-6.5c-1.4,0-2.5,1.1-2.5,2.5s1.1,2.5,2.5,2.5H25v6h-6.5
	c-1.4,0-2.5,1.1-2.5,2.5s1.1,2.5,2.5,2.5H25v5.2c0,0.5,0.4,0.8,0.8,0.8l0,0h2.8C34.9,48,40,42.9,40,36.7c0,0,0,0,0,0v-5.3
	C40,25.1,34.9,20,28.7,20L28.7,20z M18.5,29c-0.3,0-0.5-0.2-0.5-0.5s0.2-0.5,0.5-0.5H26v1H18.5z M18.5,40c-0.3,0-0.5-0.2-0.5-0.5
	s0.2-0.5,0.5-0.5H26v1H18.5z M27,46V22h1.7H29v24h-0.3H27z M38,36.7c0,4.6-3.4,8.6-8,9.2V22.1c4.6,0.7,8,4.6,8,9.2
	C38,31.3,38,36.7,38,36.7z"/>
</svg>
