<svg id="svg" xmlns="http://www.w3.org/2000/svg" width="40" height="48" viewBox="0 0 40 48"><defs><style>.cls-1{fill:#ccd0d6;}</style></defs><title>svg-sources</title><rect class="cls-1" x="10" y="33" width="18" height="1"/><rect class="cls-1" x="10" y="36" width="16" height="1"/><rect class="cls-1" x="10" y="39" width="10" height="1"/><path class="cls-1" d="M20,22a2,2,0,0,1,2,2h6v2h7a3,3,0,0,1,3,3V43a3,3,0,0,1-3,3H5a3,3,0,0,1-3-3V29a3,3,0,0,1,3-3h7V24h6a2,2,0,0,1,2-2m0-2a4,4,0,0,0-3.46,2H10v2H5a5,5,0,0,0-5,5V43a5,5,0,0,0,5,5H35a5,5,0,0,0,5-5V29a5,5,0,0,0-5-5H30V22H23.46A4,4,0,0,0,20,20h0Z"/><path class="cls-1" d="M20,22a2,2,0,0,1,2,2h6v4H12V24h6a2,2,0,0,1,2-2m0-1a3,3,0,0,0-2.83,2H11v6H29V23H22.83A3,3,0,0,0,20,21h0Z"/></svg>