<?xml version="1.0" encoding="utf-8"?>
<!-- Generator: Adobe Illustrator 19.2.0, SVG Export Plug-In . SVG Version: 6.00 Build 0)  -->
<svg version="1.1" id="svg" xmlns="http://www.w3.org/2000/svg" xmlns:xlink="http://www.w3.org/1999/xlink" x="0px" y="0px"
	 width="40px" height="48px" viewBox="0 0 40 48" style="enable-background:new 0 0 40 48;" xml:space="preserve">
<style type="text/css">
	.st0{fill:#0E57A6;}
</style>
<title>svg-sources</title>
<path class="st0" d="M37,39c0.6,0,1,0.4,1,1v5c0,0.6-0.4,1-1,1h-6c-0.6,0-1-0.4-1-1v-5c0-0.6,0.4-1,1-1H37 M37,37h-6
	c-1.7,0-3,1.3-3,3v5c0,1.7,1.3,3,3,3h6c1.7,0,3-1.3,3-3v-5C40,38.3,38.7,37,37,37L37,37z"/>
<path class="st0" d="M23,39c0.6,0,1,0.4,1,1v5c0,0.6-0.4,1-1,1h-6c-0.6,0-1-0.4-1-1v-5c0-0.6,0.4-1,1-1H23 M23,37h-6
	c-1.7,0-3,1.3-3,3v5c0,1.7,1.3,3,3,3h6c1.7,0,3-1.3,3-3v-5C26,38.3,24.7,37,23,37L23,37z"/>
<path class="st0" d="M23,22c0.6,0,1,0.4,1,1v5c0,0.6-0.4,1-1,1h-6c-0.6,0-1-0.4-1-1v-5c0-0.6,0.4-1,1-1H23 M23,20h-6
	c-1.7,0-3,1.3-3,3v5c0,1.7,1.3,3,3,3h6c1.7,0,3-1.3,3-3v-5C26,21.3,24.7,20,23,20L23,20z"/>
<path class="st0" d="M9,39c0.6,0,1,0.4,1,1v5c0,0.6-0.4,1-1,1H3c-0.6,0-1-0.4-1-1v-5c0-0.6,0.4-1,1-1H9 M9,37H3c-1.7,0-3,1.3-3,3v5
	c0,1.7,1.3,3,3,3h6c1.7,0,3-1.3,3-3v-5C12,38.3,10.7,37,9,37L9,37z"/>
<rect x="19.5" y="32" class="st0" width="1" height="4"/>
<path class="st0" d="M7,33c-0.6,0-1,0.4-1,1v2h1v-2h26v2h1v-2c0-0.6-0.4-1-1-1H7z"/>
</svg>
