<svg id="svg" xmlns="http://www.w3.org/2000/svg" width="40" height="51" viewBox="0 0 40 51"><defs><style>.cls-1{fill:#ccd0d6;}</style></defs><title>svg-sources</title><path class="cls-1" d="M27.29,22.26A10.72,10.72,0,0,1,38,33c0,5.68-4.93,10.29-11,10.29H16.22l-0.57.52L10,48.95V42.81l-1.38-.45C4.29,41,2,37.71,2,33A10.72,10.72,0,0,1,12.71,22.26H27.29m0-2H12.71A12.71,12.71,0,0,0,0,33c0,5.65,2.9,9.64,8,11.29v5A2,2,0,0,0,10.06,51a1.58,1.58,0,0,0,1.14-.44l5.8-5.3H27C34,45.26,40,40,40,33A12.71,12.71,0,0,0,27.29,20.26h0Z"/><rect class="cls-1" x="10" y="29.26" width="19" height="1"/><rect class="cls-1" x="10" y="32.26" width="13" height="1"/><rect class="cls-1" x="10" y="35.26" width="16" height="1"/></svg>