<?xml version="1.0" encoding="utf-8"?>
<!-- Generator: Adobe Illustrator 19.2.0, SVG Export Plug-In . SVG Version: 6.00 Build 0)  -->
<svg version="1.1" id="svg" xmlns="http://www.w3.org/2000/svg" xmlns:xlink="http://www.w3.org/1999/xlink" x="0px" y="0px"
	 width="40px" height="48px" viewBox="0 0 40 48" style="enable-background:new 0 0 40 48;" xml:space="preserve">
<style type="text/css">
	.st0{fill:#0E57A6;}
</style>
<title>svg-sources</title>
<rect x="10" y="33" class="st0" width="18" height="1"/>
<rect x="10" y="36" class="st0" width="16" height="1"/>
<rect x="10" y="39" class="st0" width="10" height="1"/>
<path class="st0" d="M20,22c1.1,0,2,0.9,2,2h6v2h7c1.7,0,3,1.3,3,3v14c0,1.7-1.3,3-3,3H5c-1.7,0-3-1.3-3-3V29c0-1.7,1.3-3,3-3h7v-2
	h6C18,22.9,18.9,22,20,22 M20,20c-1.4,0-2.7,0.8-3.5,2H10v2H5c-2.8,0-5,2.2-5,5v14c0,2.8,2.2,5,5,5h30c2.8,0,5-2.2,5-5V29
	c0-2.8-2.2-5-5-5h-5v-2h-6.5C22.7,20.8,21.4,20,20,20L20,20z"/>
<path class="st0" d="M20,22c1.1,0,2,0.9,2,2h6v4H12v-4h6C18,22.9,18.9,22,20,22 M20,21c-1.3,0-2.4,0.8-2.8,2H11v6h18v-6h-6.2
	C22.4,21.8,21.3,21,20,21L20,21z"/>
</svg>
