<svg id="svg" xmlns="http://www.w3.org/2000/svg" width="40" height="48" viewBox="0 0 40 48"><defs><style>.cls-1{fill:#a8b0bb;}</style></defs><title>svg-sources</title><polygon class="cls-1" points="17.44 30.84 18.97 20 11.97 20 9.05 40.77 17.44 30.84"/><polygon class="cls-1" points="24.89 33.9 20.48 39.1 24.91 48 31.91 48 24.89 33.9"/><polygon class="cls-1" points="28.09 20 26.41 22 28.97 22 30 22 30 23 30 26.11 32 23.72 32 20 28.09 20"/><polygon class="cls-1" points="26 26 23.06 26 8.72 43.08 8.03 48 11.59 48 26 30.87 26 26"/><polygon class="cls-1" points="25.58 23 23.9 25 27 25 27 29.68 29 27.3 29 23 25.58 23"/></svg>