<svg id="svg" xmlns="http://www.w3.org/2000/svg" width="40" height="48" viewBox="0 0 40 48"><defs><style>.cls-1{fill:#8d98a7;}</style></defs><title>svg-sources</title><rect class="cls-1" x="31.05" y="20.05" width="5.91" height="6" rx="1" ry="1" transform="translate(57.05 -10.95) rotate(90)"/><path class="cls-1" d="M29,23h0a3,3,0,0,0-3-3H13.19A10.19,10.19,0,0,0,3,30.19V47a1,1,0,0,0,1,1H8a1,1,0,0,0,1-1V38H20a3,3,0,0,0,3-3h0a3,3,0,0,0-3-3H9V29.33A3.33,3.33,0,0,1,12.33,26H26A3,3,0,0,0,29,23Z"/></svg>