<?xml version="1.0" encoding="utf-8"?>
<!-- Generator: Adobe Illustrator 19.2.1, SVG Export Plug-In . SVG Version: 6.00 Build 0)  -->
<svg version="1.1" id="Layer_3" xmlns="http://www.w3.org/2000/svg" xmlns:xlink="http://www.w3.org/1999/xlink" x="0px" y="0px"
	 width="1800px" height="806px" viewBox="0 0 1800 806" style="enable-background:new 0 0 1800 806;" xml:space="preserve">
<style type="text/css">
	.st0{fill:#004870;}
	.st1{fill:#0079B5;}
	.st2{fill:#005E99;}
	.st3{fill:#003851;}
	.st4{enable-background:new    ;}
	.st5{fill:#FFFFFF;}
	.st6{fill:none;stroke:#FFFFFF;stroke-width:2;stroke-linecap:round;stroke-linejoin:round;}
	.st7{fill:none;stroke:#FFFFFF;stroke-width:2;stroke-linecap:round;stroke-linejoin:round;stroke-dasharray:12.7,12.7;}
	.st8{fill:none;stroke:#FFFFFF;stroke-width:2;stroke-linecap:round;stroke-linejoin:round;stroke-dasharray:10.99,10.99;}
	.st9{fill:none;stroke:#FFFFFF;stroke-width:2;stroke-linecap:round;stroke-linejoin:round;stroke-dasharray:10.79,10.79;}
</style>
<title>puzzle</title>
<rect x="-123" y="-42" class="st0" width="2166" height="874"/>
<g>
	<path class="st1" d="M825.2,370.9L825.2,370.9c-3,15.4-17.9,25.5-33.3,22.5L764,388l0,0l5.4-27.9c3-15.4,17.9-25.5,33.3-22.5l0,0
		C818.1,340.6,828.2,355.5,825.2,370.9z"/>
	<path class="st1" d="M847.8,332.1c14.7,21.8,18.6,49.1,10.6,74.1c-2.5,8,5.6,15.4,13.2,12c6.1-2.7,11.8-6.1,17.1-10.1
		c35.1-26.8,44.2-77.5,20.4-114.8c-25.6-40.1-78.8-51.8-118.9-26.3c-0.6,0.4-1.2,0.8-1.9,1.2c-4.1,2.8-8,5.9-11.5,9.4
		c-3.9,3.8-4,10-0.2,13.9c1.7,1.7,3.9,2.7,6.3,2.9C809.2,296.4,833.1,310.3,847.8,332.1z"/>
	<path class="st2" d="M821.9,358.8c3.5,5.2,9.6,8,15.8,7.2c46-5.4,96.1-11.2,125.8-31.3c38.8-26.1,64.4-67.7,70.3-114
		c1.1-9.3-4.8-18-13.8-20.4c-45.2-11.8-93.3-3.6-132,22.6c-29.7,20.1-53.9,64.4-76.1,105c-3,5.5-2.7,12.2,0.8,17.4L821.9,358.8z"/>
	
		<ellipse transform="matrix(0.8288 -0.5595 0.5595 0.8288 9.0906 571.0131)" class="st1" cx="937.7" cy="270.6" rx="36.1" ry="36.1"/>
</g>
<circle class="st0" cx="937.8" cy="270.7" r="27.3"/>
<path class="st3" d="M1649,281v-73c0-3.3-2.7-6-6-6h-120.1c-1,11.8-10.9,20-22.9,20s-21.9-8.2-22.9-20H1357c-3.3,0-6,2.7-6,6v73
	c-11.6,0-21,9.4-21,21s9.4,21,21,21v73c0,3.3,2.7,6,6,6h120.1c1-11.8,10.9-20,22.9-20s21.9,8.2,22.9,20H1643c3.3,0,6-2.7,6-6v-73
	c11.6,0,21-9.4,21-21S1660.6,281,1649,281z"/>
<path class="st3" d="M749,279.1V208c0-3.3-2.7-6-6-6H622.9c-1,11.8-10.9,20-22.9,20s-21.9-8.2-22.9-20H457c-3.3,0-6,2.7-6,6v71.1
	c12.7,1.1,22,12.3,20.9,24.9c-1,11.1-9.8,19.9-20.9,20.9V396c0,3.3,2.7,6,6,6h122c0.8,11.6,10.8,20.3,22.4,19.5
	c10.5-0.7,18.8-9,19.5-19.5h122c3.3,0,6-2.7,6-6v-71.1c-12.7-1.1-22-12.3-20.9-24.9C729.1,288.9,737.9,280.1,749,279.1z"/>
<path class="st3" d="M449,281v-73c0-3.3-2.7-6-6-6H321c-0.8-11.6-10.8-20.3-22.4-19.5c-10.5,0.7-18.8,9-19.5,19.5H157
	c-3.3,0-6,2.7-6,6v71.1c12.7,1.1,22,12.3,20.9,24.9c-1,11.1-9.8,19.9-20.9,20.9V396c0,3.3,2.7,6,6,6h120.1c1-11.8,10.9-20,22.9-20
	s21.9,8,22.9,20H443c3.3,0,6-2.7,6-6v-73c11.6,0,21-9.4,21-21S460.6,281,449,281z"/>
<path class="st3" d="M1349,279.1V208c0-3.3-2.7-6-6-6h-122.1c-0.8-11.6-10.8-20.3-22.4-19.5c-10.5,0.7-18.8,9-19.5,19.5h-122
	c-3.3,0-6,2.7-6,6v71.1c12.7,1.1,22,12.3,20.9,24.9c-1,11.1-9.8,19.9-20.9,20.9V396c0,3.3,2.7,6,6,6h118.3c1,0,1.8-0.7,2-1.7
	c1.8-10.9,11.3-18.3,22.7-18.3s20.9,7.4,22.7,18.3c0.2,1,1,1.7,2,1.7H1343c3.3,0,6-2.7,6-6v-71.1c-12.7-1.1-22-12.3-20.9-24.9
	C1329.1,288.9,1337.9,280.1,1349,279.1z"/>
<path class="st3" d="M1349,481.1V410c0-3.3-2.7-6-6-6h-122.1c-0.8-11.6-10.8-20.3-22.4-19.5c-10.5,0.7-18.8,9-19.5,19.5h-122
	c-3.3,0-6,2.7-6,6v71.1c12.7,1.1,22,12.3,20.9,24.9c-1,11.1-9.8,19.9-20.9,20.9V598c0,3.3,2.7,6,6,6h118.3c1,0,1.8-0.7,2-1.7
	c1.8-10.9,11.3-18.3,22.7-18.3s20.9,7.4,22.7,18.3c0.2,1,1,1.7,2,1.7H1343c3.3,0,6-2.7,6-6v-71.1c-12.7-1.1-22-12.3-20.9-24.9
	C1329.1,490.9,1337.9,482.1,1349,481.1z"/>
<path class="st3" d="M451,526.9V598c0,3.3,2.7,6,6,6h122c0.8,11.6,10.8,20.3,22.4,19.5c10.5-0.7,18.8-9,19.5-19.5h122
	c3.3,0,6-2.7,6-6v-71.1c-12.7-1.1-22-12.3-20.9-24.9c1-11.1,9.8-19.9,20.9-20.9V410c0-3.3-2.7-6-6-6H624.7c-1,0-1.8,0.7-2,1.7
	C621,416.6,611.5,424,600,424s-20.9-7.4-22.7-18.3c-0.2-1-1-1.7-2-1.7H457c-3.3,0-6,2.7-6,6v71.1c12.7,1.1,22,12.3,20.9,24.9
	C470.9,517.1,462.1,525.9,451,526.9z"/>
<path class="st3" d="M1949,481.1V410c0-3.3-2.7-6-6-6h-122.1c-0.8-11.6-10.8-20.3-22.4-19.5c-10.5,0.7-18.8,9-19.5,19.5h-122
	c-3.3,0-6,2.7-6,6v71.1c12.7,1.1,22,12.3,20.9,24.9c-1,11.1-9.8,19.9-20.9,20.9V598c0,3.3,2.7,6,6,6h118.3c1,0,1.8-0.7,2-1.7
	c1.8-10.9,11.3-18.3,22.7-18.3s20.9,7.4,22.7,18.3c0.2,1,1,1.7,2,1.7H1943c3.3,0,6-2.7,6-6v-71.1c-12.7-1.1-22-12.3-20.9-24.9
	C1929.1,490.9,1937.9,482.1,1949,481.1z"/>
<path class="st3" d="M149,481.1V410c0-3.3-2.7-6-6-6H21c-0.5-11.2-9.8-20-21-20s-20.4,8.8-21,20h-122c-3.3,0-6,2.7-6,6v71.1
	c11.9,1,21,11,21,22.9c0,11.9-9.1,21.9-21,22.9V598c0,3.3,2.7,6,6,6h118.3c1,0,1.8-0.7,2-1.7C-20.9,591.4-11.4,584,0,584
	s20.9,7.4,22.7,18.3c0.2,1,1,1.7,2,1.7H143c3.3,0,6-2.7,6-6v-71.1c-12.7-1.1-22-12.3-20.9-24.9C129.1,490.9,137.9,482.1,149,481.1z"
	/>
<path class="st3" d="M1651,121v73c0,3.3,2.7,6,6,6h122.1c0.8,11.6,10.8,20.3,22.4,19.5c10.5-0.7,18.8-9,19.5-19.5h122
	c3.3,0,6-2.7,6-6v-71.1c-12.7-1.1-22-12.3-20.9-24.9c1-11.1,9.8-19.9,20.9-20.9V6c0-3.3-2.7-6-6-6h-286c-3.3,0-6,2.7-6,6v73
	c-11.6,0-21,9.4-21,21l0,0c-0.1,11.5,9,20.9,20.5,21C1650.7,121,1650.8,121,1651,121z"/>
<path class="st3" d="M749,79V6c0-3.3-2.7-6-6-6H457c-3.3,0-6,2.7-6,6v71.1c12.7,1.1,22,12.3,20.9,24.9c-1,11.1-9.8,19.9-20.9,20.9
	V194c0,3.3,2.7,6,6,6h122c0.8,11.6,10.8,20.3,22.4,19.5c10.5-0.7,18.8-9,19.5-19.5h122c3.3,0,6-2.7,6-6v-73c11.6,0,21-9.4,21-21
	S760.6,79,749,79z"/>
<path class="st3" d="M1049,77.1V6c0-3.3-2.7-6-6-6H757c-3.3,0-6,2.7-6,6v71.1c12.7,1.1,22,12.3,20.9,24.9
	c-1,11.1-9.8,19.9-20.9,20.9V194c0,3.3,2.7,6,6,6h122c0.8,11.6,10.8,20.3,22.4,19.5c10.5-0.7,18.8-9,19.5-19.5h122c3.3,0,6-2.7,6-6
	v-71.1c-12.7-1.1-22-12.3-20.9-24.9C1029.1,86.9,1037.9,78.1,1049,77.1z"/>
<path class="st3" d="M1049,685v-73c0-3.3-2.7-6-6-6H921c-0.8-11.6-10.8-20.3-22.4-19.5c-10.5,0.7-18.8,9-19.5,19.5H757
	c-3.3,0-6,2.7-6,6v71.1c12.7,1.1,22,12.3,20.9,24.9c-1,11.1-9.8,19.9-20.9,20.9V800c0,3.3,2.7,6,6,6h286c3.3,0,6-2.7,6-6v-73
	c11.6,0,21-9.4,21-21S1060.6,685,1049,685z"/>
<path class="st3" d="M1649,685v-73c0-3.3-2.7-6-6-6h-122.1c-0.8-11.6-10.8-20.3-22.4-19.5c-10.5,0.7-18.8,9-19.5,19.5h-122
	c-3.3,0-6,2.7-6,6v71.1c12.7,1.1,22,12.3,20.9,24.9c-1,11.1-9.8,19.9-20.9,20.9V800c0,3.3,2.7,6,6,6h286c3.3,0,6-2.7,6-6v-73
	c11.6,0,21-9.4,21-21S1660.6,685,1649,685z"/>
<path class="st3" d="M749,685v-73c0-3.3-2.7-6-6-6H622.9c-1,11.8-10.9,20-22.9,20s-21.9-8.2-22.9-20H457c-3.3,0-6,2.7-6,6v73
	c-11.6,0-21,9.4-21,21s9.4,21,21,21v73c0,3.3,2.7,6,6,6h286c3.3,0,6-2.7,6-6v-73c11.6,0,21-9.4,21-21S760.6,685,749,685z"/>
<path class="st3" d="M1349,685v-73c0-3.3-2.7-6-6-6h-121.1c-0.5,0-1-0.4-1-0.9c-1.2-11.5-11.5-19.9-23.1-18.7
	c-9.9,1-17.7,8.8-18.7,18.7c0,0.5-0.5,0.9-1,0.9H1057c-3.3,0-6,2.7-6,6v71.1c12.7,1.1,22,12.3,20.9,24.9c-1,11.1-9.8,19.9-20.9,20.9
	V800c0,3.3,2.7,6,6,6h286c3.3,0,6-2.7,6-6v-73c11.6,0,21-9.4,21-21S1360.6,685,1349,685z"/>
<path class="st3" d="M151,727v73c0,3.3,2.7,6,6,6h286c3.3,0,6-2.7,6-6v-71.1c-12.7-1.1-22-12.3-20.9-24.9c1-11.1,9.8-19.9,20.9-20.9
	V612c0-3.3-2.7-6-6-6H321c-0.8-11.6-10.8-20.3-22.4-19.5c-10.5,0.7-18.8,9-19.5,19.5H157c-3.3,0-6,2.7-6,6v73c-11.6,0-21,9.4-21,21
	l0,0c-0.1,11.5,9,20.9,20.5,21C150.7,727,150.8,727,151,727z"/>
<path class="st3" d="M-149,728.9V800c0,3.3,2.7,6,6,6h286c3.3,0,6-2.7,6-6v-71.1c-12.7-1.1-22-12.3-20.9-24.9
	c1-11.1,9.8-19.9,20.9-20.9V612c0-3.3-2.7-6-6-6H21c-0.5-11-9.7-21-21-21s-20.4,9.9-21,21h-122c-3.3,0-6,2.7-6,6v71.1
	c11.9,1,21,11,21,22.9C-127.9,718-137.1,728-149,728.9z"/>
<path class="st3" d="M1651,728.9V800c0,3.3,2.7,6,6,6h286c3.3,0,6-2.7,6-6v-71.1c-12.7-1.1-22-12.3-20.9-24.9
	c1-11.1,9.8-19.9,20.9-20.9V612c0-3.3-2.7-6-6-6h-122.1c-0.5-11-9.7-21-20.9-21s-20.4,9.9-20.9,21H1657c-3.3,0-6,2.7-6,6v71.1
	c12.7,1.1,22,12.3,20.9,24.9C1670.9,719.1,1662.1,727.9,1651,728.9z"/>
<path class="st3" d="M1649,77.1V6c0-3.3-2.7-6-6-6h-286c-3.3,0-6,2.7-6,6v71.1c12.7,1.1,22,12.3,20.9,24.9
	c-1,11.1-9.8,19.9-20.9,20.9V194c0,3.3,2.7,6,6,6h122.1c0.8,11.6,10.8,20.3,22.4,19.5c10.5-0.7,18.8-9,19.5-19.5h122
	c3.3,0,6-2.7,6-6v-71.1c-12.7-1.1-22-12.3-20.9-24.9C1629.1,86.9,1637.9,78.1,1649,77.1z"/>
<path class="st3" d="M149,77.1V6c0-3.3-2.7-6-6-6h-286c-3.3,0-6,2.7-6,6v71.1c11.9,1,21,11,21,22.9s-9.1,21.9-21,22.9V194
	c0,3.3,2.7,6,6,6h122c0.5,11.2,9.8,20,21,20s20.4-8.8,21-20h122c3.3,0,6-2.7,6-6v-71.1c-12.7-1.1-22-12.3-20.9-24.9
	C129.1,86.9,137.9,78.1,149,77.1z"/>
<path class="st3" d="M1349,79V6c0-3.3-2.7-6-6-6h-286c-3.3,0-6,2.7-6,6v73c-11.6,0-21,9.4-21,21s9.4,21,21,21v73c0,3.3,2.7,6,6,6
	h120.1c1-11.8,10.9-20,22.9-20s21.9,8.2,22.9,20H1343c3.3,0,6-2.7,6-6v-73c11.6,0,21-9.4,21-21S1360.6,79,1349,79z"/>
<path class="st3" d="M449,79V6c0-3.3-2.7-6-6-6H157c-3.3,0-6,2.7-6,6v73c-11.6,0-21,9.4-21,21s9.4,21,21,21v73c0,3.3,2.7,6,6,6
	h120.1c1-11.8,10.9-20,22.9-20s21.9,8.2,22.9,20H443c3.3,0,6-2.7,6-6v-73c11.6,0,21-9.4,21-21S460.6,79,449,79z"/>
<path class="st3" d="M149,281v-73c0-3.3-2.7-6-6-6H22.9c-1,11.8-10.9,20-22.9,20s-21.9-8.2-22.9-20H-143c-3.3,0-6,2.7-6,6v71.1
	c11.9,1,21,11,21,22.9c0.1,12-9.1,22-21,22.9V396c0,3.3,2.7,6,6,6h120.1c1-11.9,11-21,22.9-21s21.9,9.1,22.9,21H143c3.3,0,6-2.7,6-6
	v-73c11.6,0,21-9.4,21-21S160.6,281,149,281z"/>
<path class="st3" d="M1949,281v-73c0-3.3-2.7-6-6-6h-120.1c-1,11.8-10.9,20-22.9,20s-21.9-8.2-22.9-20H1657c-3.3,0-6,2.7-6,6v71.1
	c12.7,1.1,22,12.3,20.9,24.9c-1,11.1-9.8,19.9-20.9,20.9V396c0,3.3,2.7,6,6,6h120.1c1.1-12.7,12.3-22,24.9-20.9
	c11.1,1,19.9,9.8,20.9,20.9H1943c3.3,0,6-2.7,6-6v-73c11.6,0,21-9.4,21-21S1960.6,281,1949,281z"/>
<path class="st3" d="M1649,483v-73c0-3.3-2.7-6-6-6h-122.1c-0.8-11.6-10.8-20.3-22.4-19.5c-10.5,0.7-18.8,9-19.5,19.5h-122
	c-3.3,0-6,2.7-6,6v73c-11.6,0-21,9.4-21,21c0,11.6,9.4,21,21,21v73c0,3.3,2.7,6,6,6h120.1c1-11.8,10.9-20,22.9-20s21.9,8.2,22.9,20
	H1643c3.3,0,6-2.7,6-6v-73c11.6,0,21-9.4,21-21S1660.6,483,1649,483z"/>
<path class="st3" d="M1049,483v-73c0-3.3-2.7-6-6-6H921c-0.8-11.6-10.8-20.3-22.4-19.5c-10.5,0.7-18.8,9-19.5,19.5H757
	c-3.3,0-6,2.7-6,6v73c-11.6,0-21,9.4-21,21c0,11.6,9.4,21,21,21v73c0,3.3,2.7,6,6,6h120.1c1-11.8,10.9-20,22.9-20s21.9,8.2,22.9,20
	H1043c3.3,0,6-2.7,6-6v-73c11.6,0,21-9.4,21-21S1060.6,483,1049,483z"/>
<path class="st3" d="M449,483v-73c0-3.3-2.7-6-6-6H321c-0.8-11.6-10.8-20.3-22.4-19.5c-10.5,0.7-18.8,9-19.5,19.5H157
	c-3.3,0-6,2.7-6,6v73c-11.6,0-21,9.4-21,21c0,11.6,9.4,21,21,21v73c0,3.3,2.7,6,6,6h120.1c1-11.8,10.9-20,22.9-20s21.9,8.2,22.9,20
	H443c3.3,0,6-2.7,6-6v-73c11.6,0,21-9.4,21-21S460.6,483,449,483z"/>
<g class="st4">
	<path class="st5" d="M792.3,322.2l41-63H849V309h12.2v13.4H849v17.2h-17.6v-17.2h-39L792.3,322.2z M831.8,309v-11.7
		c0-4,0.1-8.3,0.2-12.1l-0.2-0.1c-2.1,3.6-4.8,7.8-7.2,11.6l-7.9,12.1l0.1,0.2H831.8z"/>
	<path class="st5" d="M877.8,330c-5-6.9-7.3-16.4-7.3-30.6s2.3-23.7,7.3-30.6c5.2-7.1,13.3-10.9,22.2-10.9c9,0,17,3.8,22.2,10.9
		c5,6.9,7.3,16.4,7.3,30.6s-2.3,23.7-7.3,30.6c-5.2,7.1-13.2,10.9-22.2,10.9C891.1,340.9,883,337.1,877.8,330z M908.1,320.8
		c2.7-3.8,3.8-10.1,3.8-21.4c0-10.1-0.9-17.1-3.8-21.2c-1.8-2.6-4.4-4.3-8.1-4.3c-3.6,0-6.3,1.8-8.1,4.3c-2.8,4-3.8,11.1-3.8,21.4
		c0,11,1.1,17.4,3.8,21.2c1.8,2.4,4.6,4.3,8.1,4.3C903.7,325.1,906.3,323.2,908.1,320.8z"/>
	<path class="st5" d="M934.9,322.2l41-63h15.7V309h12.2v13.4h-12.2v17.2H974v-17.2h-39L934.9,322.2z M974.3,309v-11.7
		c0-4,0.1-8.3,0.2-12.1l-0.2-0.1c-2.1,3.6-4.8,7.8-7.2,11.6l-7.9,12.1l0.1,0.2H974.3z"/>
</g>
<path class="st2" d="M1030.6,307.1L1030.6,307.1c0.6-1.4-0.1-3-1.5-3.6l0,0c-1.4-0.6-3,0.1-3.6,1.5l0,0c-0.7,1.7-2.7,2.5-4.3,1.8
	l0,0l0,0c-1.4-0.6-3,0.1-3.6,1.5l0,0c-0.6,1.4,0.1,3,1.5,3.6l0,0c1.7,0.7,2.5,2.7,1.8,4.3l0,0l0,0c-0.6,1.4,0.1,3,1.5,3.6l0,0
	c1.4,0.6,3-0.1,3.6-1.5l0,0c0.7-1.7,2.7-2.5,4.3-1.8l0,0l0,0c1.4,0.6,3-0.1,3.6-1.5l0,0c0.6-1.4-0.1-3-1.5-3.6l0,0
	C1030.6,310.7,1029.8,308.8,1030.6,307.1C1030.5,307.1,1030.5,307.1,1030.6,307.1z"/>
<path class="st2" d="M776.5,316.8L776.5,316.8c0-1-0.8-1.8-1.8-1.8l0,0l0,0c-1,0-1.8,0.8-1.8,1.8l0,0l0,0c0,1.2-0.9,2.2-2.1,2.2l0,0
	l0,0c-1,0-1.8,0.8-1.8,1.8l0,0l0,0c0,1,0.8,1.8,1.8,1.8l0,0l0,0c1.2,0,2.2,0.9,2.2,2.1l0,0l0,0c0,1,0.8,1.8,1.8,1.8l0,0l0,0
	c1,0,1.8-0.8,1.8-1.8l0,0l0,0c0-1.2,0.9-2.2,2.1-2.2l0,0l0,0c1,0,1.8-0.8,1.8-1.8l0,0l0,0c0-1-0.8-1.8-1.8-1.8l0,0l0,0
	C777.5,318.9,776.5,318,776.5,316.8L776.5,316.8z"/>
<path class="st2" d="M813.1,219.9c-3.9,0-7.1,3.2-7.1,7.1s3.2,7.1,7.1,7.1s7.1-3.2,7.1-7.1S817,219.9,813.1,219.9L813.1,219.9z
	 M813.1,231.4c-2.4,0-4.4-2-4.4-4.4s2-4.4,4.4-4.4s4.4,2,4.4,4.4l0,0C817.5,229.4,815.5,231.3,813.1,231.4L813.1,231.4z"/>
<path class="st2" d="M1000.4,359.9c-4.7,0-8.6,3.8-8.6,8.6s3.8,8.6,8.6,8.6c4.7,0,8.6-3.8,8.6-8.6
	C1009,363.7,1005.2,359.9,1000.4,359.9L1000.4,359.9z M1000.4,373.8c-3,0-5.4-2.4-5.4-5.4s2.4-5.4,5.4-5.4s5.4,2.4,5.4,5.4l0,0
	C1005.8,371.4,1003.4,373.8,1000.4,373.8L1000.4,373.8z"/>
<path class="st6" d="M1054.9,281.8c-1.9-0.6-3.9-0.9-5.9-0.9v-6"/>
<path class="st7" d="M1049,262.3V208c0-3.3-2.7-6-6-6H935.3"/>
<path class="st6" d="M928.9,202h-6c-0.2,2-0.6,4-1.3,5.8"/>
<path class="st8" d="M915.2,216.7c-4.3,3.5-9.7,5.4-15.2,5.3c-7.5,0.1-14.5-3.3-19-9.3"/>
<path class="st6" d="M878.4,207.8c-0.7-1.9-1.2-3.8-1.3-5.8h-6"/>
<path class="st7" d="M858.4,202H757c-3.3,0-6,2.7-6,6v60.6"/>
<path class="st6" d="M751,275v6c-2,0-4,0.3-5.9,0.9"/>
<path class="st9" d="M735.9,287.4c-8.1,8.3-7.9,21.6,0.4,29.7c1.2,1.1,2.4,2.1,3.8,2.9"/>
<path class="st6" d="M745.1,322.1c1.9,0.6,3.9,0.9,5.9,0.9v6"/>
<path class="st7" d="M751,341.7V396c0,3.3,2.7,6,6,6h107.7"/>
<path class="st6" d="M871.1,402h6c0.2-2,0.6-4,1.3-5.8"/>
<path class="st8" d="M884.8,387.3c4.3-3.5,9.7-5.4,15.2-5.3c7.5-0.1,14.5,3.3,19,9.3"/>
<path class="st6" d="M921.6,396.2c0.7,1.9,1.2,3.8,1.3,5.8h6"/>
<path class="st7" d="M941.6,402H1043c3.3,0,6-2.7,6-6v-60.6"/>
<path class="st6" d="M1049,329v-6c2,0,4-0.3,5.9-0.9"/>
<path class="st9" d="M1064.1,316.6c8.1-8.3,7.9-21.6-0.4-29.7c-1.1-1.1-2.4-2.1-3.8-2.9"/>
</svg>
