<?xml version="1.0" encoding="utf-8"?>
<!-- Generator: Adobe Illustrator 19.2.0, SVG Export Plug-In . SVG Version: 6.00 Build 0)  -->
<svg version="1.1" id="svg" xmlns="http://www.w3.org/2000/svg" xmlns:xlink="http://www.w3.org/1999/xlink" x="0px" y="0px"
	 width="94px" height="94px" viewBox="0 0 94 94" style="enable-background:new 0 0 94 94;" xml:space="preserve">
<style type="text/css">
	.st0{fill:#0E57A6;}
</style>
<title>svg-sources</title>
<path class="st0" d="M47,85C24.9,85,7,67.1,7,45S24.9,5,47,5s40,17.9,40,40S69.1,85,47,85z M47,8.3C26.7,8.3,10.3,24.7,10.3,45
	S26.7,81.7,47,81.7S83.7,65.3,83.7,45C83.7,24.7,67.3,8.3,47,8.3z"/>
<path class="st0" d="M38.5,75.7h-0.2c-1.6-0.5-3.2-1.1-4.6-1.9c-0.6-0.3-1.2-0.7-1.9-1l-0.5-0.2V72c0-0.2-0.1-0.8-0.2-1.3
	s-0.1-1.1-0.2-1.4c-0.2-0.5-0.3-1.1-0.5-1.7s-0.3-1.2-0.5-1.7s-0.5-0.9-0.7-1.3c-0.9-1.4-1.4-3-1.5-4.6c0-0.3,0-0.7,0-1
	c0.2-1.1,0-2.3-0.5-3.3c-0.9-0.8-2-1.4-3.2-1.7c-0.8-0.2-1.6-0.5-2.4-1c-1.9-1.3-4.4-3.5-5.6-6c-1.1-1.8-0.8-3.6-0.4-5.3
	c0.4-2.6,1-5.1,1.8-7.6c2.1-4.9,4.3-8.4,6.6-10.6c2.9-2.7,8.9-4.1,12.7-3c1.2,0.5,2.3,1.2,3.2,2.1c1.3,1.3,1.9,2.5,1.9,3.5
	c0,0.5-0.2,1-0.6,1.3c-0.4,0.4-1,0.6-1.6,0.6c-1.1,0.1-2.2-0.1-3.2-0.4l-0.2-0.1L35,25.9c-0.3,0-0.6,0.1-0.8,0.2
	c-1.6,1.1-2.9,2.7-3.6,4.5l-0.1,0.2c-0.3,0.7-0.3,1.4,0,2.1c0.1,0.3,0.4,0.5,0.7,0.6c0.8-0.5,1.6-1.1,2.3-1.7c0.5-0.4,1-0.8,1.3-1
	c0.3-0.1,0.6-0.3,0.8-0.5c0.3-0.2,0.7-0.4,1-0.6l0.3-0.1c3.3-0.4,5.8,2.3,6.6,5.1c0.2,0.8,0.1,1.6-0.2,2.3c-1.3,2.6-5.8,4.1-6.8,4.4
	c-0.5,0.2-1,0.2-1.5,0l-0.2-0.1l0,0c-1.5,0.6-3.4,2.3-3.4,4.1c-0.2,1-0.3,1.9-0.3,2.8S30.9,50,30.7,51l-0.1,0.7h-0.7
	c-1.3,0-1.5-0.7-1.5-1.2v-0.7c0-0.9-0.2-1.9-0.8-2.1l-0.2-0.1l-0.1-0.1l-0.1-0.1c-0.5,0-1-0.1-1.4-0.3c-0.4-0.2-0.9-0.3-1.3-0.2
	c-0.6,0.6-0.9,1.4-1,2.2c0,0.1,0,0.2,0,0.3c0.2,0,0.3,0,0.5-0.1c0.5-0.1,0.9-0.1,1.4,0c0.8,0.1,1.4,0.8,1.3,1.6l0.2,0.3
	c0.4,0.8,1,1.5,1.7,2h7.2c0.2,0.1,0.5,0.2,0.9,0.3c1.1,0.2,2.1,0.6,3,1.3l0.2,0.3c0.1,0.4,0.3,0.8,0.3,1.3c0.1,0.3,0.1,0.5,0.2,0.8
	c1.1,1,2.5,1.6,3.9,1.8c0.5,0.1,1.1,0.3,1.7,0.4c0.9,0.3,1.5,1.1,1.6,2c0.2,1,0.2,2,0,3l-0.1,0.4l-0.2,0.8c-0.2,1.1-0.7,2-1.3,2.9
	c-0.7,0.6-1.5,1.1-2.4,1.5c-0.5,0.5-1,1-1.4,1.6c-0.4,0.5-0.7,0.9-1.1,1.3C40.5,73.8,39.3,75.7,38.5,75.7z M38.1,74.2L38.1,74.2z
	 M32.8,71.5c0.5,0.3,1,0.5,1.5,0.8c1.2,0.7,2.5,1.3,3.9,1.7c0.4-0.5,0.8-1.1,1.1-1.8v-0.4l0.2-0.1c0.4-0.4,0.8-0.9,1.1-1.3
	c0.5-0.8,1.2-1.4,1.9-2c0.8-0.4,1.5-0.8,2.1-1.3c0.4-0.7,0.7-1.4,0.9-2.1c0.1-0.2,0.1-0.5,0.2-0.7V64c0.2-0.8,0.2-1.5,0.1-2.3v-0.2
	c0-0.2,0-0.3-0.6-0.6c-0.4-0.1-0.9-0.2-1.4-0.4c-1.8-0.3-3.5-1.1-4.8-2.3L38.8,58c-0.2-0.4-0.3-0.8-0.4-1.3
	c-0.1-0.3-0.1-0.5-0.2-0.8c-0.7-0.3-1.4-0.6-2.1-0.8l-0.8-0.2h-6.5c0.6,1.3,0.9,2.7,0.7,4.1c0,0.3,0,0.7,0,1
	c0.1,1.4,0.6,2.7,1.3,3.8c0.3,0.5,0.5,1,0.8,1.5s0.4,1.2,0.5,1.9c0.2,0.6,0.3,1.2,0.5,1.7v0.3c0,0.2,0.1,0.8,0.2,1.3
	C32.8,70.8,32.8,71.2,32.8,71.5L32.8,71.5z M47.5,61.5L47.5,61.5z M33.8,21.6c-3,0-6.8,1.2-8.7,3c-2.1,2-4.2,5.4-6.2,10
	c-0.7,2.3-1.3,4.7-1.6,7.2c-0.4,1.7-0.6,3,0.2,4.3c1.2,2.2,3,4.1,5.1,5.5c0.6,0.4,1.2,0.6,1.9,0.8c0.4,0.1,0.9,0.3,1.3,0.5l-0.4-0.7
	L25,51.4v-0.2c0,0,0-0.1,0-0.2l0,0l-0.2-0.1c-0.2,0-0.3,0-0.5,0.1c-0.5,0.2-1.1,0.2-1.7,0l-0.3-0.2c-0.4-0.4-0.6-1-0.6-1.6
	c0.1-1.3,0.7-2.5,1.6-3.5c0.9-0.5,2-0.6,2.9-0.1c0.3,0.1,0.6,0.2,0.9,0.2c0.4,0,0.9,0.1,1.1,0.5c0.5,0.2,0.9,0.6,1.2,1.1
	c0.1-0.7,0.1-1.3,0.3-2c0-2.5,2.5-4.8,4.4-5.5c0.4-0.2,1-0.2,1.4,0c0.1,0.1,0.3,0.1,0.5,0c2.3-0.7,5.1-2.1,5.8-3.5
	c0.2-0.3,0.2-0.7,0.1-1.1c-0.6-2.2-2.4-4.2-4.7-4c-0.2,0.1-0.4,0.3-0.6,0.4c-0.3,0.2-0.6,0.4-0.9,0.5c-0.2,0.2-0.6,0.5-1.1,0.8
	c-1.5,1.3-2.6,2.1-3.5,2.1c-0.9-0.1-1.7-0.7-2.1-1.5c-0.5-1.1-0.5-2.4-0.1-3.5c0.9-2.2,2.4-4.1,4.4-5.4c0.7-0.4,1.6-0.5,2.3-0.2
	l0.3,0.2l1.2,1.2c0.8,0.2,1.6,0.2,2.4,0.2c0.2,0,0.3,0,0.4-0.1l0.1-0.1c-0.2-0.9-0.7-1.7-1.4-2.3c-0.8-0.7-1.7-1.3-2.6-1.7
	C35.3,21.7,34.6,21.6,33.8,21.6z M63.8,71.7l-0.3-1.2c-0.1-0.5-0.3-1.1-0.5-1.8c-0.3-1-0.6-2-0.8-3c-0.6-1.2-1-2.5-1.3-3.9l-0.1-0.4
	c-0.1-0.4-0.2-0.7-0.3-1.1c-0.1-0.8-0.4-1.7-0.9-2.3c-0.2-0.3-0.5-0.5-0.9-0.6c-0.3-0.1-0.5-0.2-0.7-0.4c-0.9-0.3-1.9-0.5-2.9-0.5
	c-1.7-0.1-3.6-0.1-4.9-2c-0.5-0.9-0.7-2-0.5-3c0-0.3,0-0.6,0-1v-0.2l0.1-0.2c0.3-0.5,0.5-1,0.8-1.5c0.3-0.6,0.6-1.2,0.9-1.8
	c0.2-0.4,0.4-0.8,0.7-1.2c0.6-1,1.1-2.1,1.4-3.3l0.1-0.2c0.1-0.3,0.1-0.6,0.1-0.9c0-0.6,0-1.1,0.3-1.6l0.1-0.2l0.2-0.1
	c0.6-0.4,1.2-0.7,1.8-1l0.1-0.1c-0.1-0.2-0.1-0.4-0.1-0.6c0.1-0.7,0.4-1.4,0.9-1.9c0.7-0.7,1.5-1.4,2.2-2c1-0.9,2-1.8,2.9-2.7
	l-0.4-0.1c-0.3-0.1-0.5-0.2-0.8-0.3c-0.6,0.1-1.1-0.3-1.3-0.8c-0.2-0.4-0.2-0.8-0.1-1.3c0.1-0.4,0.3-0.7,0.6-1
	c0.5-0.7,1-1.4,1.5-2.2l0.6-0.9c0.3-0.3,0.6-0.7,0.8-1c0.5-0.8,1.2-1.4,2.1-1.8c3.1-1.5,5.1,1.9,6.5,4.2c0.3,0.5,0.5,0.9,0.8,1.3
	c1.5,1.4,2.7,3.1,3.4,5.1l0.1,0.4c0.3,0.9,0.6,1.8,1.1,2.6l0.1,0.2c1,3.4,1.5,6.9,1.4,10.5c0.1,1.8-0.1,3.6-0.3,5.4l-0.1,0.2
	c-0.1,0.3-0.2,0.7-0.3,1c-0.1,0.5-0.2,1-0.4,1.4c-0.9,2.7-2,5.8-4.7,8.1c-2.2,3.4-4.9,6.4-8.2,8.8L63.8,71.7z M51.5,50.8
	c0,0.3,0,0.6,0,0.8c-0.1,0.7-0.1,1.4,0.2,2c0.7,1.1,1.8,1.2,3.5,1.3c1.2,0,2.4,0.2,3.5,0.6c0.2,0.1,0.4,0.2,0.5,0.2
	c0.6,0.2,1.2,0.5,1.6,1c0.7,0.9,1.1,2,1.2,3.1c0.1,0.3,0.1,0.7,0.2,1l0.1,0.5c0.2,1.2,0.6,2.4,1.1,3.6l0.1,0.2c0.2,1,0.5,2,0.8,3
	l0.2,0.6c2.8-2.1,5.1-4.7,6.9-7.7l0.2-0.2c2.4-2.1,3.4-4.9,4.3-7.6v-0.1c0.1-0.3,0.2-0.7,0.3-1c0.1-0.5,0.2-0.9,0.4-1.4
	c0.3-1.7,0.4-3.3,0.3-5c0.1-3.3-0.4-6.7-1.3-9.9C75.2,35,74.8,34,74.5,33l-0.1-0.4c-0.6-1.7-1.6-3.3-3-4.5L71.3,28
	c-0.3-0.4-0.6-0.9-0.9-1.5c-1.5-2.5-2.7-4.3-4.4-3.5c-0.6,0.3-1.1,0.8-1.4,1.3c-0.3,0.4-0.6,0.7-0.9,1c-0.1,0.1-0.3,0.5-0.5,0.8
	c-0.5,0.8-1.1,1.6-1.7,2.4c-0.1,0.1-0.2,0.2-0.2,0.3h0.1l0.2,0.1c0.2,0.1,0.5,0.2,0.7,0.3c0.3,0.1,0.5,0.2,0.8,0.3
	c0.4,0.1,0.8,0.4,1,0.8c0.2,0.7-0.1,1.4-0.8,1.8c-0.9,1-1.9,1.9-2.9,2.8c-0.7,0.6-1.4,1.3-2.1,1.9c-0.2,0.2-0.3,0.4-0.4,0.6
	c0.2,0.2,0.3,0.5,0.3,0.8c0,0.5-0.3,0.9-0.7,1.1c-0.1,0-0.2,0.1-0.2,0.2L57,39.7c-0.5,0.3-1.1,0.5-1.5,0.8c0,0.2,0,0.5,0,0.7
	c0,0.5,0,1-0.2,1.5c-0.3,1.3-0.8,2.6-1.5,3.7c-0.2,0.4-0.5,0.8-0.7,1.3c-0.3,0.5-0.6,1.1-0.8,1.6C52,49.9,51.7,50.4,51.5,50.8z
	 M47.3,29.7l-0.7-0.1l-0.2-0.2c-0.8-0.8-0.9-2.5-0.9-4.1c0-0.8,0.2-1.5,0.4-2.2c0.3-0.7,0.4-1.4,0.3-2.1c0-0.3-0.2-1.5-0.3-2.7
	l-0.5-0.1c-0.7,0-1.3-0.3-1.8-0.8c-0.3-0.5-0.4-1.1-0.2-1.7c0.5-1.5,2.3-2,3.7-2c2.8,0,5.6,0.3,8.3,1l0.2,0.1
	c0.3,0.1,0.5,0.2,0.8,0.3c1,0.3,2.1,0.7,2.4,1.4c0.4,1.3-0.3,2.7-0.8,3.6l-0.2,0.4c-0.5,1.4-1.3,2.6-2.5,3.5
	c-0.9,0.9-1.8,1.8-2.9,2.5c-0.5,0.4-1,0.8-1.5,1.2c-0.5,0.5-1.1,0.9-1.7,1.3c-0.3,0.2-0.5,0.3-0.7,0.4
	C48.1,29.5,47.7,29.7,47.3,29.7z M47,15.2c-0.9,0-1.9,0.3-2.1,0.8c0,0.1,0,0.3,0,0.4c0.2,0.1,0.5,0.1,0.7,0.1
	c0.4,0.1,0.9,0.2,1.3,0.3l0.5,0.2l0.1,0.5c0.1,0.9,0.3,3,0.3,3.3c0.1,0.9,0,1.9-0.3,2.8c-0.2,0.6-0.3,1.2-0.3,1.8
	c0,0.9,0.1,1.8,0.3,2.6l0.2-0.1c0.2-0.1,0.4-0.3,0.7-0.4s0.9-0.7,1.4-1.1c0.5-0.5,1.1-0.9,1.7-1.3c1-0.7,1.9-1.5,2.7-2.4l0.1-0.1
	c0.9-0.7,1.5-1.7,1.9-2.8c0.1-0.2,0.2-0.4,0.3-0.5c0.3-0.5,0.9-1.6,0.7-2.1c-0.1-0.1-1-0.4-1.4-0.5s-0.7-0.2-0.9-0.3
	C52.2,15.5,49.6,15.2,47,15.2z"/>
</svg>
