<?xml version="1.0" encoding="utf-8"?>
<!-- Generator: Adobe Illustrator 19.2.1, SVG Export Plug-In . SVG Version: 6.00 Build 0)  -->
<svg version="1.1" id="svg" xmlns="http://www.w3.org/2000/svg" xmlns:xlink="http://www.w3.org/1999/xlink" x="0px" y="0px"
	 width="160px" height="80px" viewBox="0 0 160 80" style="enable-background:new 0 0 160 80;" xml:space="preserve">
<style type="text/css">
	.st0{fill:#25A266;}
	.st1{fill:#008850;}
	.st2{fill:#007D49;}
	.st3{fill:#4DBA7B;}
	.st4{fill:#009B64;}
	.st5{fill:#69C081;}
	.st6{fill:#29B473;}
	.st7{fill:#29324C;}
</style>
<title>svg-sources</title>
<g>
	<g>
		<g>
			<path class="st0" d="M17.9,25.7c-1.1,0-1.8,1.4-1.8,1.4s-1.4,2.5-2.8,5.1c0.7,1.3,1.4,2.6,1.9,3.5c0.1,0.1,0.6,1,1.7,1
				c1.1,0,1.8-1.4,1.8-1.4s1.4-2.6,2.8-5.1c-0.7-1.3-1.4-2.6-1.9-3.5C19.5,26.6,19,25.7,17.9,25.7z"/>
			<path class="st0" d="M16.9,36.8c-1.1,0-1.6-0.9-1.7-1c-0.5-0.9-1.2-2.2-1.9-3.5c0,0,0,0,0-0.1c1.5-2.7,2.8-5.1,2.8-5.1
				c0-0.1,0.7-1.5,1.8-1.5c1.1,0,1.6,0.9,1.7,1c0.4,0.7,0.9,1.7,1.5,2.7l0.5,0.8c0,0,0,0,0,0.1l-2.8,5.1
				C18.7,35.4,18.1,36.8,16.9,36.8z M13.4,32.3c0.7,1.3,1.4,2.6,1.9,3.5c0.1,0.1,0.6,0.9,1.6,0.9c1,0,1.7-1.4,1.7-1.4l2.8-5.1
				L21,29.4c-0.6-1-1.1-2-1.5-2.7c-0.1-0.1-0.6-0.9-1.6-0.9c-1,0-1.7,1.4-1.7,1.4C16.2,27.2,14.9,29.6,13.4,32.3z"/>
		</g>
		<g>
			<path class="st1" d="M26.1,36.7c1,0,1.6-0.9,1.7-1c0.5-0.9,1.2-2.2,1.9-3.5c-1.5-2.7-2.8-5.1-2.8-5.1s-0.7-1.4-1.8-1.4
				c-1,0-1.6,0.9-1.7,1c-0.5,0.9-1.2,2.2-1.9,3.5c1.4,2.5,2.8,5.1,2.8,5.1S25,36.7,26.1,36.7z"/>
			<path class="st1" d="M26.1,36.8c-1.1,0-1.8-1.4-1.8-1.5l-2.8-5.1c0,0,0,0,0-0.1l1.9-3.5c0.1-0.1,0.6-1,1.7-1
				c1.1,0,1.8,1.4,1.8,1.5l2.8,5.1c0,0,0,0,0,0.1l-1.9,3.5C27.7,36,27.1,36.8,26.1,36.8z M21.6,30.2l2.8,5.1c0,0,0.7,1.4,1.7,1.4
				c1,0,1.6-0.9,1.6-0.9l1.9-3.5l-2.8-5.1c0,0-0.7-1.4-1.7-1.4c-1,0-1.6,0.9-1.6,1L21.6,30.2z"/>
		</g>
		<g>
			<path class="st2" d="M16.9,36.7c-1,0-1.6-0.9-1.7-1c0.4,0.7,0.7,1.2,0.7,1.3c0.6,1.1,1.8,1.1,1.8,1.1c0,0,0,0,0,0h0h7.5h0h0
				c0.1,0,1.2,0,1.8-1.1c0-0.1,0.3-0.5,0.7-1.3c-0.1,0.1-0.6,1-1.7,1c-1.1,0-1.8-1.4-1.8-1.4s-1.4-2.6-2.8-5.1
				c-1.4,2.5-2.8,5.1-2.8,5.1S18,36.7,16.9,36.7z"/>
			<path class="st2" d="M25.3,38.2h-7.5c-0.1,0-1.2,0-1.9-1.2l0,0c-0.1-0.1-0.3-0.6-0.7-1.2c0,0,0-0.1,0-0.1c0,0,0.1,0,0.1,0
				c0.1,0.1,0.6,0.9,1.6,0.9c1,0,1.7-1.4,1.7-1.4l2.8-5.1c0,0,0.1,0,0.1,0l2.8,5.1c0,0,0.7,1.4,1.7,1.4c1,0,1.6-0.9,1.6-0.9
				c0,0,0,0,0.1,0c0,0,0,0,0,0.1c-0.4,0.7-0.7,1.2-0.7,1.3C26.5,38.2,25.3,38.2,25.3,38.2z M15.6,36.2c0.2,0.4,0.3,0.6,0.4,0.7l0,0
				c0.6,1.1,1.7,1.1,1.8,1.1h7.5c0,0,1.2,0,1.8-1.1c0,0,0.2-0.3,0.4-0.8c-0.3,0.3-0.7,0.6-1.3,0.6c-1.1,0-1.8-1.4-1.8-1.5l-2.8-5.1
				l-2.8,5.1c0,0.1-0.7,1.5-1.8,1.5C16.3,36.8,15.9,36.5,15.6,36.2z"/>
		</g>
		<g>
			<path class="st3" d="M34.3,25.7c-1.1,0-1.8,1.4-1.8,1.4s-1.4,2.6-2.8,5.1c1.8,3.2,3.7,6.7,3.7,6.7c0.2,0.4,0.3,0.7,0.3,1H43
				c0-0.3-0.1-0.6-0.3-1c0,0-4.9-9-6.8-12.3C35.9,26.5,35.3,25.7,34.3,25.7z"/>
			<path class="st3" d="M43,40.1h-9.3c0,0-0.1,0-0.1-0.1c0-0.3-0.1-0.7-0.3-1c0,0-2-3.6-3.7-6.7c0,0,0,0,0-0.1l2.8-5.1
				c0-0.1,0.7-1.5,1.8-1.5c1,0,1.6,0.8,1.7,1c2,3.6,6.8,12.3,6.8,12.4C42.9,39.3,43,39.6,43,40.1C43.1,40,43,40,43,40.1
				C43,40,43,40.1,43,40.1z M33.7,39.9h9.2c0-0.3-0.1-0.6-0.3-0.9c0,0-4.8-8.8-6.8-12.3c-0.1-0.2-0.6-0.9-1.6-0.9
				c-1,0-1.7,1.4-1.7,1.4l-2.8,5.1c1.7,3.1,3.7,6.7,3.7,6.7C33.6,39.3,33.7,39.6,33.7,39.9z"/>
		</g>
		<g>
			<path class="st4" d="M25.1,25.7c1.1,0,1.8,1.4,1.8,1.4s1.4,2.5,2.8,5.1c1.4-2.5,2.8-5.1,2.8-5.1s0.7-1.4,1.8-1.4
				c1,0,1.6,0.8,1.7,1c-0.2-0.3-0.3-0.6-0.4-0.8c-0.1-0.2-0.2-0.3-0.3-0.5c-0.6-1.1-1.8-1.1-1.8-1.1l0,0h0H26h0h0
				c-0.1,0-1.2,0-1.8,1.1c-0.1,0.2-0.2,0.4-0.4,0.7c-0.1,0.2-0.2,0.3-0.3,0.5C23.5,26.6,24.1,25.7,25.1,25.7z"/>
			<path class="st4" d="M29.7,32.3L29.7,32.3C29.7,32.3,29.7,32.3,29.7,32.3l-2.9-5.2c0,0-0.7-1.4-1.7-1.4c-1,0-1.6,0.9-1.6,1
				c0,0,0,0-0.1,0c0,0,0,0,0-0.1l0.3-0.5c0.2-0.3,0.3-0.5,0.4-0.7c0.6-1.1,1.8-1.2,1.9-1.2h7.5c0.1,0,1.2,0,1.9,1.2l0.3,0.5
				c0.1,0.2,0.3,0.5,0.4,0.8c0,0,0,0,0,0c0,0,0,0.1-0.1,0.1c0,0,0,0,0,0c0,0,0,0,0,0c-0.1-0.2-0.6-0.9-1.6-0.9c-1,0-1.7,1.4-1.7,1.4
				L29.7,32.3C29.7,32.3,29.7,32.3,29.7,32.3z M25.1,25.6c1.1,0,1.8,1.4,1.8,1.5l2.8,5.1l2.8-5.1c0-0.1,0.7-1.5,1.8-1.5
				c0.6,0,1,0.3,1.3,0.6c-0.1-0.1-0.1-0.2-0.2-0.3l-0.3-0.5c-0.6-1.1-1.7-1.1-1.8-1.1H26c0,0-1.2,0-1.8,1.1
				c-0.1,0.2-0.2,0.4-0.4,0.7l0,0C24.1,25.9,24.5,25.6,25.1,25.6z"/>
		</g>
		<g>
			<path class="st5" d="M9.7,39c0,0,1.9-3.5,3.7-6.7c-1.4-2.5-2.8-5.1-2.8-5.1s-0.7-1.4-1.8-1.4c-1,0-1.6,0.8-1.7,1
				C5.3,30,0.4,39,0.3,39c-0.2,0.4-0.3,0.7-0.3,1h9.3C9.4,39.7,9.5,39.4,9.7,39z"/>
			<path class="st5" d="M9.4,40.1H0.1c0,0,0,0,0,0c0,0,0,0,0,0c0-0.4,0.1-0.7,0.3-1l0.1-0.2c0.8-1.4,5-9.1,6.6-12.1
				c0.1-0.2,0.7-1,1.7-1c1.1,0,1.8,1.4,1.8,1.5l2.8,5.1c0,0,0,0,0,0.1C11.6,35.5,9.7,39,9.7,39C9.5,39.3,9.4,39.7,9.4,40.1
				C9.4,40,9.4,40.1,9.4,40.1z M0.1,39.9h9.2c0-0.3,0.1-0.7,0.3-1c0,0,1.9-3.5,3.7-6.7l-2.8-5.1c0,0-0.7-1.4-1.7-1.4
				c-1,0-1.5,0.8-1.6,0.9c-1.7,3-5.9,10.7-6.6,12.1L0.4,39C0.2,39.3,0.1,39.6,0.1,39.9z"/>
		</g>
		<g>
			<path class="st6" d="M8.7,25.7c1.1,0,1.8,1.4,1.8,1.4s1.4,2.6,2.8,5.1c1.5-2.7,2.8-5.1,2.8-5.1s0.7-1.4,1.8-1.4
				c1,0,1.6,0.9,1.7,1c-0.1-0.2-0.2-0.5-0.3-0.6c-0.1-0.2-0.3-0.5-0.3-0.6c-0.6-1.1-1.8-1.1-1.8-1.1l0,0h0H9.6h0c0,0,0,0,0,0
				c-0.1,0-1.2,0-1.8,1.1c-0.1,0.1-0.1,0.3-0.2,0.4c-0.1,0.2-0.3,0.5-0.5,0.8C7.2,26.5,7.8,25.7,8.7,25.7z"/>
			<path class="st6" d="M13.4,32.3C13.3,32.3,13.3,32.3,13.4,32.3l-2.9-5.2c0,0-0.7-1.4-1.7-1.4c-1,0-1.5,0.8-1.6,0.9c0,0,0,0-0.1,0
				c0,0,0,0,0-0.1l0.7-1.3c0.6-1.1,1.8-1.2,1.9-1.2h7.5c0.1,0,1.2,0,1.9,1.2c0.1,0.1,0.2,0.3,0.3,0.5l0.4,0.8c0,0,0,0,0,0
				c0,0,0,0.1-0.1,0.1c0,0,0,0,0,0c0,0,0,0,0,0c-0.1-0.1-0.6-0.9-1.6-0.9c-1,0-1.7,1.4-1.7,1.4C16.2,27.2,14.9,29.6,13.4,32.3
				C13.4,32.3,13.4,32.3,13.4,32.3L13.4,32.3z M8.7,25.6c1.1,0,1.8,1.4,1.8,1.5l2.8,5.1c1.5-2.6,2.8-5.1,2.8-5.1
				c0-0.1,0.7-1.5,1.8-1.5c0.6,0,1.1,0.3,1.3,0.6l-0.2-0.3c-0.1-0.2-0.2-0.3-0.3-0.5c-0.6-1.1-1.7-1.1-1.8-1.1H9.6
				c0,0-1.2,0-1.8,1.1l-0.4,0.8C7.7,25.9,8.1,25.6,8.7,25.6z"/>
		</g>
		<g>
			<path class="st0" d="M25.1,54.3c1.1,0,1.8-1.4,1.8-1.4s1.4-2.5,2.8-5.1c-0.7-1.3-1.4-2.6-1.9-3.5c-0.1-0.1-0.6-1-1.7-1
				c-1.1,0-1.8,1.4-1.8,1.4s-1.4,2.6-2.8,5.1c0.7,1.3,1.4,2.6,1.9,3.5C23.5,53.4,24.1,54.3,25.1,54.3z"/>
			<path class="st0" d="M25.1,54.4c-1.1,0-1.6-0.9-1.7-1c-0.5-0.9-1.2-2.2-1.9-3.5c0,0,0,0,0-0.1l2.8-5.1c0-0.1,0.7-1.5,1.8-1.5
				c1.1,0,1.6,0.9,1.7,1c0.3,0.6,0.7,1.3,1.2,2.2l0.7,1.3c0,0,0,0,0,0.1c-1.5,2.7-2.8,5.1-2.8,5.1C26.9,53,26.2,54.4,25.1,54.4z
				 M21.6,49.8c0.7,1.3,1.4,2.6,1.9,3.5c0.1,0.1,0.6,0.9,1.6,0.9c1,0,1.7-1.4,1.7-1.4c0,0,1.3-2.5,2.8-5.1l-0.7-1.3
				c-0.4-0.8-0.9-1.6-1.2-2.2c-0.1-0.1-0.6-0.9-1.6-0.9c-1,0-1.7,1.4-1.7,1.4L21.6,49.8z"/>
		</g>
		<g>
			<path class="st1" d="M16.9,43.3c-1,0-1.6,0.9-1.7,1c-0.5,0.9-1.2,2.2-1.9,3.5c1.5,2.7,2.8,5.1,2.8,5.1s0.7,1.4,1.8,1.4
				c1,0,1.6-0.9,1.7-1c0.5-0.9,1.2-2.2,1.9-3.5c-1.4-2.5-2.8-5.1-2.8-5.1S18,43.3,16.9,43.3z"/>
			<path class="st1" d="M17.9,54.4c-1.1,0-1.8-1.4-1.8-1.5l0,0c0,0-1.4-2.5-2.8-5.1c0,0,0,0,0-0.1c0.7-1.3,1.4-2.6,1.9-3.5
				c0.1-0.2,0.7-1,1.7-1c1.1,0,1.8,1.4,1.8,1.5l2.8,5.1c0,0,0,0,0,0.1l-1.9,3.5C19.6,53.5,19,54.4,17.9,54.4z M13.4,47.7
				c1.5,2.7,2.8,5.1,2.8,5.1c0,0,0.7,1.4,1.7,1.4c1,0,1.6-0.9,1.6-1l1.9-3.5l-2.8-5.1c0,0-0.7-1.4-1.7-1.4c-1,0-1.5,0.8-1.6,0.9
				C14.8,45.2,14.1,46.4,13.4,47.7z"/>
		</g>
		<g>
			<path class="st2" d="M26.1,43.3c1,0,1.6,0.9,1.7,1c-0.4-0.7-0.7-1.2-0.7-1.3c-0.6-1.1-1.8-1.1-1.8-1.1l0,0h0h-7.5h0h0
				c-0.1,0-1.2,0-1.8,1.1c0,0.1-0.3,0.5-0.7,1.3c0.1-0.1,0.6-1,1.7-1c1.1,0,1.8,1.4,1.8,1.4s1.4,2.6,2.8,5.1
				c1.4-2.5,2.8-5.1,2.8-5.1S25,43.3,26.1,43.3z"/>
			<path class="st2" d="M21.5,49.9C21.5,49.9,21.5,49.9,21.5,49.9l-2.9-5.2c0,0-0.7-1.4-1.7-1.4c-1,0-1.5,0.8-1.6,0.9c0,0,0,0-0.1,0
				c0,0,0,0,0-0.1l0.7-1.3c0.6-1.1,1.8-1.2,1.9-1.2h7.5c0.1,0,1.2,0,1.9,1.2l0.7,1.3c0,0,0,0,0,0c0,0,0,0.1-0.1,0.1c0,0,0,0,0,0
				c0,0,0,0,0,0c-0.1-0.1-0.6-0.9-1.6-0.9c-1,0-1.7,1.4-1.7,1.4L21.5,49.9C21.6,49.9,21.5,49.9,21.5,49.9z M16.9,43.2
				c1.1,0,1.8,1.4,1.8,1.5l2.8,5.1l2.8-5.1c0-0.1,0.7-1.5,1.8-1.5c0.6,0,1,0.3,1.3,0.6L27,43c-0.6-1.1-1.7-1.1-1.8-1.1h-7.5
				c0,0-1.2,0-1.8,1.1l-0.4,0.8C15.9,43.5,16.3,43.2,16.9,43.2z"/>
		</g>
		<g>
			<path class="st3" d="M8.7,54.3c1.1,0,1.8-1.4,1.8-1.4s1.4-2.6,2.8-5.1C11.6,44.5,9.7,41,9.7,41c-0.2-0.4-0.3-0.7-0.3-1H0.1
				c0,0.3,0.1,0.6,0.3,1c0,0,4.9,9,6.8,12.3C7.2,53.5,7.7,54.3,8.7,54.3z"/>
			<path class="st3" d="M8.7,54.4c-1,0-1.6-0.8-1.7-1c-1.7-3-5.8-10.6-6.6-12.1L0.3,41C0.1,40.7,0,40.4,0,40c0,0,0,0,0,0
				c0,0,0,0,0,0h9.3c0,0,0.1,0,0.1,0.1c0,0.3,0.1,0.7,0.3,1c0,0,0.6,1,1.3,2.4l2.4,4.3c0,0,0,0,0,0.1l-2.8,5.1
				C10.5,53,9.9,54.4,8.7,54.4z M0.1,40.1c0,0.3,0.1,0.6,0.3,0.9l0.1,0.3c0.8,1.5,5,9.1,6.6,12.1c0.1,0.2,0.6,0.9,1.6,0.9
				c1,0,1.7-1.4,1.7-1.4l2.8-5.1l-2.3-4.3C10.1,42,9.6,41,9.6,41c-0.2-0.3-0.3-0.6-0.3-1H0.1z"/>
		</g>
		<g>
			<path class="st4" d="M17.9,54.3c-1.1,0-1.8-1.4-1.8-1.4s-1.4-2.5-2.8-5.1c-1.4,2.5-2.8,5.1-2.8,5.1s-0.7,1.4-1.8,1.4
				c-1,0-1.6-0.8-1.7-1c0.2,0.3,0.3,0.6,0.4,0.8c0.1,0.2,0.2,0.3,0.3,0.5c0.6,1.1,1.8,1.1,1.8,1.1c0,0,0,0,0,0h0h7.5h0c0,0,0,0,0,0
				c0.1,0,1.2,0,1.8-1.1c0.1-0.2,0.2-0.4,0.4-0.7c0.1-0.2,0.2-0.3,0.3-0.5C19.5,53.4,19,54.3,17.9,54.3z"/>
			<path class="st4" d="M17.1,55.8H9.6c-0.1,0-1.2,0-1.9-1.2l-0.1-0.1c-0.1-0.1-0.1-0.2-0.2-0.4L7,53.4c0,0,0-0.1,0-0.1
				c0,0,0.1,0,0.1,0c0.1,0.2,0.6,0.9,1.6,0.9c1,0,1.7-1.4,1.7-1.4l2.8-5.2c0,0,0,0,0,0l0,0c0,0,0,0,0,0c1.5,2.7,2.8,5.1,2.8,5.1
				c0,0,0.7,1.4,1.7,1.4c1,0,1.6-0.9,1.6-1c0,0,0,0,0.1,0c0,0,0,0,0,0.1l-0.3,0.5c-0.2,0.3-0.3,0.5-0.4,0.7
				C18.3,55.8,17.1,55.8,17.1,55.8z M7.4,53.8l0.2,0.3c0.1,0.1,0.1,0.3,0.2,0.4l0.1,0.1c0.6,1.1,1.7,1.1,1.8,1.1h7.5
				c0,0,1.2,0,1.8-1.1c0.1-0.2,0.2-0.4,0.4-0.7l0,0c-0.3,0.3-0.7,0.6-1.3,0.6c-1.1,0-1.8-1.4-1.8-1.5l0,0c0,0-1.3-2.4-2.8-5.1
				l-2.8,5.1c0,0.1-0.7,1.5-1.8,1.5C8.1,54.4,7.7,54.1,7.4,53.8z"/>
		</g>
		<g>
			<path class="st5" d="M43,40h-9.3c0,0.3-0.1,0.6-0.3,1c0,0-1.9,3.5-3.7,6.7c1.4,2.5,2.8,5.1,2.8,5.1s0.7,1.4,1.8,1.4
				c1,0,1.6-0.8,1.6-1C37.8,50,42.7,41,42.7,41C42.9,40.6,43,40.3,43,40z"/>
			<path class="st5" d="M34.3,54.4c-1.1,0-1.8-1.4-1.8-1.5l0,0c0,0-1.4-2.6-2.8-5.1c0,0,0,0,0-0.1c1.8-3.3,3.7-6.7,3.7-6.7
				c0.2-0.3,0.3-0.6,0.3-1c0,0,0-0.1,0.1-0.1H43c0,0,0,0,0,0c0,0,0,0,0,0c0,0.4-0.1,0.7-0.3,1c0,0-4.9,8.9-6.8,12.4
				C35.9,53.5,35.3,54.4,34.3,54.4z M29.8,47.7c1.4,2.5,2.8,5.1,2.8,5.1c0,0,0.7,1.4,1.7,1.4c1,0,1.5-0.8,1.6-0.9
				c1.9-3.5,6.7-12.3,6.8-12.3c0.2-0.3,0.2-0.6,0.3-0.9h-9.2c0,0.3-0.1,0.7-0.3,1C33.4,41.1,31.5,44.5,29.8,47.7z"/>
		</g>
		<g>
			<path class="st6" d="M34.3,54.3c-1.1,0-1.8-1.4-1.8-1.4s-1.4-2.6-2.8-5.1c-1.5,2.7-2.8,5.1-2.8,5.1s-0.7,1.4-1.8,1.4
				c-1,0-1.6-0.9-1.7-1c0.1,0.2,0.2,0.4,0.3,0.6c0.1,0.2,0.3,0.5,0.4,0.6c0.6,1.1,1.8,1.1,1.8,1.1h0h0h7.5h0l0,0
				c0.1,0,1.2,0,1.8-1.1c0.1-0.1,0.1-0.3,0.2-0.4c0.1-0.2,0.3-0.5,0.5-0.8C35.9,53.5,35.3,54.3,34.3,54.3z"/>
			<path class="st6" d="M33.5,55.8H26c-0.1,0-1.2,0-1.9-1.2c-0.1-0.2-0.2-0.4-0.4-0.6l-0.3-0.6c0,0,0-0.1,0-0.1c0,0,0.1,0,0.1,0
				c0.1,0.1,0.6,0.9,1.6,0.9c1,0,1.7-1.4,1.7-1.4c0,0,1.4-2.5,2.8-5.2c0,0,0,0,0,0l0,0c0,0,0,0,0,0c1.4,2.5,2.8,5.1,2.8,5.1
				c0,0,0.7,1.4,1.7,1.4c1,0,1.5-0.8,1.6-0.9c0,0,0,0,0.1,0c0,0,0,0,0,0.1l-0.7,1.3C34.7,55.8,33.5,55.8,33.5,55.8z M23.8,53.8
				l0.1,0.1c0.1,0.2,0.3,0.5,0.4,0.6c0.6,1.1,1.7,1.1,1.8,1.1h7.5c0,0,1.2,0,1.8-1.1l0.4-0.8c-0.3,0.3-0.7,0.6-1.3,0.6
				c-1.1,0-1.8-1.4-1.8-1.5l0,0c0,0-1.4-2.5-2.8-5.1c-1.5,2.6-2.8,5.1-2.8,5.1c0,0.1-0.7,1.5-1.8,1.5C24.5,54.4,24.1,54.1,23.8,53.8
				z"/>
		</g>
	</g>
	<g>
		<path class="st7" d="M54.9,38.9c0-1.7-0.9-2.6-2.2-2.6c-1.3,0-2.3,0.9-2.3,2.6V39L54.9,38.9L54.9,38.9z M57.3,41h-6.9V41
			c0,1.2,0.5,2.7,2.6,2.7c1.6,0,3-0.1,3.9-0.2h0.1c0.2,0,0.4,0.1,0.4,0.3v1.4c0,0.3-0.1,0.5-0.4,0.6c-1.4,0.3-2.2,0.4-4.1,0.4
			c-2.1,0-5.2-1.1-5.2-5.3v-1.6c0-3.3,1.9-5.4,5.1-5.4c3.3,0,5.1,2.2,5.1,5.4v1.2C57.8,40.8,57.6,41,57.3,41"/>
		<path class="st7" d="M73.7,46h-2c-0.2,0-0.4-0.2-0.4-0.4v-7.2c0-1.6-0.3-2.1-1.5-2.1c-0.4,0-1.2,0.1-2,0.5c0.1,0.5,0.1,1,0.1,1.5
			v7.2c0,0.2-0.2,0.4-0.4,0.4h-2c-0.2,0-0.4-0.2-0.4-0.4v-7.2c0-1.6-0.3-2.1-1.5-2.1c-0.4,0-1.1,0.2-2,0.7v8.6
			c0,0.2-0.2,0.4-0.4,0.4h-2c-0.2,0-0.4-0.2-0.4-0.4V34.4c0-0.2,0.2-0.4,0.4-0.4h1.9c0.2,0,0.4,0.2,0.4,0.4v0.4c0.9-0.6,1.8-1,3-1
			c1.2,0,2,0.4,2.5,1c1.1-0.6,2-1,3.5-1c2.9,0,3.5,2,3.5,4.5v7.2C74.1,45.8,73.9,46,73.7,46"/>
		<path class="st7" d="M81.4,40.7H80c-1.9,0-2.4,0.6-2.4,1.8v0.1c0,1,0.5,1.3,1.5,1.3c0.8,0,1.6-0.3,2.2-0.6V40.7z M83.7,46h-1.8
			c-0.2,0-0.4-0.2-0.4-0.4v-0.3c-1,0.6-2,0.9-3,0.9c-1.8,0-3.7-0.7-3.7-3.6v-0.1c0-2.4,1.5-3.7,5.2-3.7h1.3v-0.9
			c0-1.4-0.6-1.7-1.9-1.7c-1.4,0-2.8,0.1-3.5,0.2h-0.1c-0.2,0-0.4-0.1-0.4-0.4v-1.4c0-0.2,0.1-0.4,0.4-0.4c0.9-0.2,2.1-0.3,3.6-0.3
			c3,0,4.7,1.3,4.7,4.1v7.7C84.2,45.8,84,46,83.7,46"/>
		<path class="st7" d="M88.4,32.5h-2.1c-0.2,0-0.4-0.2-0.4-0.4v-1.9c0-0.2,0.2-0.4,0.4-0.4h2.1c0.2,0,0.4,0.2,0.4,0.4v1.9
			C88.8,32.3,88.6,32.5,88.4,32.5"/>
		<path class="st7" d="M88.3,46h-2c-0.2,0-0.4-0.2-0.4-0.4V34.4c0-0.2,0.2-0.4,0.4-0.4h2c0.2,0,0.4,0.2,0.4,0.4v11.1
			C88.8,45.8,88.6,46,88.3,46"/>
		<path class="st7" d="M92.9,46h-2c-0.2,0-0.4-0.2-0.4-0.4V30.2c0-0.2,0.2-0.4,0.4-0.4h2c0.2,0,0.4,0.2,0.4,0.4v15.3
			C93.3,45.8,93.2,46,92.9,46"/>
		<path class="st7" d="M102.2,39.2c0-1.7-0.4-3-2.3-3c-0.5,0-1.4,0.1-2,0.1v7.4c0.4,0.1,1.3,0.1,2,0.1c1.8,0,2.3-1.3,2.3-3V39.2z
			 M99.9,46.2c-1.4,0-3-0.2-4.3-0.6c-0.5-0.1-0.6-0.3-0.6-0.6V30.2c0-0.2,0.2-0.4,0.4-0.4h2c0.2,0,0.4,0.2,0.4,0.4V34
			c0.8-0.1,1.5-0.1,2-0.1c3.4,0,5.1,2,5.1,5.3v1.6C105,44.1,103.4,46.2,99.9,46.2"/>
		<path class="st7" d="M108.8,32.5h-2.1c-0.2,0-0.4-0.2-0.4-0.4v-1.9c0-0.2,0.2-0.4,0.4-0.4h2.1c0.2,0,0.4,0.2,0.4,0.4v1.9
			C109.2,32.3,109.1,32.5,108.8,32.5"/>
		<path class="st7" d="M108.8,46h-2c-0.2,0-0.4-0.2-0.4-0.4V34.4c0-0.2,0.2-0.4,0.4-0.4h2c0.2,0,0.4,0.2,0.4,0.4v11.1
			C109.2,45.8,109,46,108.8,46"/>
		<path class="st7" d="M117.6,36.3c-0.6-0.1-1.5-0.1-2-0.1c-1.8,0-2.3,1.3-2.3,3v1.6c0,1.7,0.4,3,2.3,3c0.8,0,1.6-0.1,2-0.1V36.3z
			 M119.9,45.6c-1.3,0.3-2.9,0.6-4.3,0.6c-3.4,0-5.1-2-5.1-5.3v-1.6c0-3.3,1.7-5.3,5.1-5.3c0.5,0,1.3,0,2,0.1v-3.8
			c0-0.2,0.2-0.4,0.4-0.4h2c0.2,0,0.4,0.2,0.4,0.4V45C120.5,45.3,120.4,45.5,119.9,45.6"/>
		<path class="st7" d="M128.9,36.3c-0.6-0.1-1.5-0.1-2-0.1c-1.8,0-2.3,1.3-2.3,3v1.6c0,1.7,0.4,3,2.3,3c0.8,0,1.6-0.1,2-0.1V36.3z
			 M131.1,45.6c-1.3,0.3-2.9,0.6-4.3,0.6c-3.4,0-5.1-2-5.1-5.3v-1.6c0-3.3,1.7-5.3,5.1-5.3c0.5,0,1.3,0,2,0.1v-3.8
			c0-0.2,0.2-0.4,0.4-0.4h2c0.2,0,0.4,0.2,0.4,0.4V45C131.7,45.3,131.6,45.5,131.1,45.6"/>
		<path class="st7" d="M135.9,32.5h-2.1c-0.2,0-0.4-0.2-0.4-0.4v-1.9c0-0.2,0.2-0.4,0.4-0.4h2.1c0.2,0,0.4,0.2,0.4,0.4v1.9
			C136.3,32.3,136.1,32.5,135.9,32.5"/>
		<path class="st7" d="M135.8,46h-2c-0.2,0-0.4-0.2-0.4-0.4V34.4c0-0.2,0.2-0.4,0.4-0.4h2c0.2,0,0.4,0.2,0.4,0.4v11.1
			C136.3,45.8,136.1,46,135.8,46"/>
		<path class="st7" d="M147.4,46h-2c-0.2,0-0.4-0.2-0.4-0.4v-6.9c0-1.9-0.2-2.4-1.8-2.4c-0.7,0-1.5,0.3-2.4,0.8v8.6
			c0,0.2-0.2,0.4-0.4,0.4h-2c-0.2,0-0.4-0.2-0.4-0.4V34.4c0-0.2,0.2-0.4,0.4-0.4h1.9c0.2,0,0.4,0.2,0.4,0.4v0.4c1.2-0.8,2-1,3.4-1
			c3.1,0,3.7,2.1,3.7,4.8v6.9C147.8,45.8,147.7,46,147.4,46"/>
		<path class="st7" d="M156.7,37.9c0-1-0.4-1.8-2.3-1.8c-1.8,0-2.3,0.8-2.3,1.8v0.2c0,0.8,0.3,1.7,2.3,1.7c1.8,0,2.3-0.6,2.3-1.7
			V37.9z M157,46.8c0-0.5-0.3-0.7-2.5-1.3l-1.9-0.4c-0.3,0.4-0.5,0.7-0.5,1.5v0.2c0,0.9,0.5,1.4,2.5,1.4c2,0,2.4-0.4,2.4-1.2V46.8z
			 M159.7,35.9l-0.7,0.3c0.3,0.5,0.5,1,0.5,1.7V38c0,2.7-1.8,3.9-5,3.9c-1.1,0-1.9-0.2-2.3-0.4c-0.3,0.2-0.4,0.4-0.4,0.6
			c0,0.4,0.2,0.6,0.7,0.7l2.5,0.6c2.9,0.7,4.8,1.1,4.8,3.4V47c0,2.2-1.6,3.3-5.2,3.3c-3.4,0-5.3-1.3-5.3-3.5v-0.2
			c0-0.9,0.4-1.7,1.1-2.3c-0.6-0.4-1-1.2-1-2v0c0-0.7,0.3-1.3,0.8-1.7c-0.6-0.7-0.9-1.4-0.9-2.5v-0.1c0-2.1,1.4-3.9,5.1-3.9h5
			c0.3,0,0.6,0.3,0.6,0.6v0.9C160,35.8,159.9,35.8,159.7,35.9"/>
	</g>
</g>
</svg>
