<?xml version="1.0" encoding="utf-8"?>
<!-- Generator: Adobe Illustrator 19.2.0, SVG Export Plug-In . SVG Version: 6.00 Build 0)  -->
<svg version="1.1" id="svg" xmlns="http://www.w3.org/2000/svg" xmlns:xlink="http://www.w3.org/1999/xlink" x="0px" y="0px"
	 width="94px" height="94px" viewBox="0 0 94 94" style="enable-background:new 0 0 94 94;" xml:space="preserve">
<style type="text/css">
	.st0{fill:#0E57A6;}
</style>
<title>svg-sources</title>
<path class="st0" d="M46.3,89.1c-28.5,0-35.9-14.2-36-14.4L10,73.2l1.4-0.6c1.3-0.5,2.8-1.2,4.4-2c5.2-2.5,10.5-4.6,16-6.3
	c0.1,0,0.2-0.1,0.3-0.1c0.2-0.7,0.2-1.5,0.2-2.3c0.1-2-0.2-4-1-5.9c-1.2-2.6-2.1-5.3-2.5-8.1c-1.1-1.3-2.7-3.8-3.7-8.5
	c-0.9-4.3-0.5-5.8,0.1-7.4c0.1-0.1,0.1-0.3,0.2-0.5c0.1-3.3-0.2-6.5-0.9-9.7c-0.5-2.8,0.1-8.7,4.1-13.5C31.2,5.2,36,1.5,44.5,1h4.7
	C58,1.5,62.7,5.2,65.2,8.3c4,4.8,4.6,10.7,4.1,13.5c-0.8,4-1,8.9-0.8,9.9l0,0c0,0.1,0.1,0.2,0.1,0.3c0.6,1.5,1,3,0.1,7.3
	c-1,4.7-2.5,7.2-3.7,8.5c-0.4,2.8-1.3,5.6-2.5,8.1c-1,1.8-1.6,3.8-1.7,5.8c-0.1,0.7,0,1.5,0.1,2.2c0.1,0.1,0.2,0.1,0.4,0.2
	c5.2,1.6,10.2,3.5,15.1,5.8c2,0.9,3.8,1.7,5.3,2.3l2.1,0.8L82.7,75C82.3,75.6,73.4,89.1,46.3,89.1z M15.1,75.1
	c3,3.2,11.7,10.3,31.2,10.3c19,0,28.3-7.1,31.7-10.5l-3.1-1.3c-4.7-2.2-9.6-4.1-14.6-5.7c-3.3-1-3.3-3.7-3.3-6
	c0.1-2.6,0.9-5.2,2.1-7.5c1.1-2.2,1.8-4.6,2.2-7.1c0.1-0.7,0.4-1.3,0.8-1.8c0.7-0.8,2-2.7,2.9-6.9c0.7-3.5,0.4-4.3,0.1-5.1
	C65,33,65,32.8,64.9,32.7c-0.5-2.2,0.1-8.2,0.7-11.6c0.3-3.8-0.9-7.5-3.3-10.4c-2-2.5-6-5.5-13.3-5.9h-4.5c-7,0.4-10.9,3.5-12.9,5.9
	c-2.4,2.9-3.6,6.6-3.3,10.4c0.6,3.2,1.2,9.4,0.8,11.3c-0.1,0.3-0.2,0.7-0.3,1c-0.3,0.8-0.7,1.7,0.1,5.1c0.9,4.2,2.2,6.1,2.9,6.9
	c0.5,0.5,0.8,1.1,0.8,1.8c0.4,2.4,1.1,4.8,2.2,7.1c1,2.4,1.5,5,1.4,7.5c0,2.4,0,5-3.2,6c-5.3,1.7-10.5,3.7-15.4,6.2L15.1,75.1z
	 M28.9,47.7L28.9,47.7z M65.1,47.7L65.1,47.7z"/>
<path class="st0" d="M38.6,76.8h-0.2c-0.3-0.1-0.6-0.3-0.7-0.6l-4.5-11.6c-0.2-0.5,0.1-1,0.6-1.2c0.2-0.1,0.4-0.1,0.6,0l12.6,3.9
	c0.5,0.2,0.8,0.7,0.6,1.2c0,0.1-0.1,0.3-0.2,0.4l-8,7.7C39.1,76.7,38.9,76.8,38.6,76.8z M35.7,65.7l3.3,8.5l5.9-5.7L35.7,65.7z"/>
<path class="st0" d="M54.7,76.8c-0.2,0-0.5-0.1-0.7-0.3L46,68.8c-0.4-0.4-0.4-1,0-1.3c0.1-0.1,0.2-0.2,0.4-0.2L59,63.3
	c0.5-0.1,1,0.1,1.2,0.6c0.1,0.2,0.1,0.4,0,0.6l-4.6,11.6c-0.1,0.3-0.4,0.5-0.7,0.6L54.7,76.8z M48.5,68.6l5.9,5.7l3.3-8.5L48.5,68.6
	z"/>
<path class="st0" d="M48.8,78.8h-4.4c-0.3,0-0.7-0.2-0.8-0.5l-2.7-5c-0.2-0.5,0-1,0.5-1.2c0.4-0.2,0.9,0,1.1,0.3l2.4,4.6h3.3
	l2.6-4.5c0.2-0.5,0.8-0.7,1.3-0.5c0.5,0.2,0.7,0.8,0.5,1.3c0,0-0.1,0.1-0.1,0.1l-2.9,5C49.4,78.7,49.1,78.9,48.8,78.8z"/>
<path class="st0" d="M53,88.1H40.4c-0.5,0-0.9-0.4-0.9-0.9c0-0.1,0-0.3,0.1-0.4l4-9.3c0.2-0.5,0.8-0.6,1.3-0.4
	c0.4,0.2,0.6,0.7,0.4,1.1l-3.4,8h9.7l-3.6-8c-0.2-0.5,0.1-1,0.6-1.2c0.4-0.1,0.9,0,1.1,0.4l4.2,9.3c0.2,0.5,0,1-0.5,1.2
	C53.2,88.1,53.1,88.1,53,88.1z"/>
</svg>
