<svg id="svg" xmlns="http://www.w3.org/2000/svg" width="160" height="80" viewBox="0 0 160 80"><defs><style>.cls-1{fill:#232f3a;}.cls-2{fill:#0071a3;}.cls-3{fill:#09f;}</style></defs><title>svg-sources</title><path class="cls-1" d="M9.61,49.19V44.27A26,26,0,0,0,17.31,46c0.94,0,2.93-.16,2.93-1.67,0-.78-1.13-1.21-2.07-1.48s-2.37-.62-3.68-1.07c-2.58-.91-5-2.39-5-5.64,0-4.62,4.35-6.55,9.78-6.55a35.12,35.12,0,0,1,8,1V35.4l-4.11-.93a16.59,16.59,0,0,0-3.43-.41c-1.08,0-3.22.13-3.22,1.75,0,0.86,1.18,1.26,2.07,1.53s2.34,0.62,3.68,1.08c2.61,0.91,5,2.34,5,5.53,0,4.54-4.62,6.42-9.91,6.42A22.44,22.44,0,0,1,9.61,49.19Z"/><path class="cls-1" d="M127.59,40c0-6.74,3.14-10.39,11.47-10.39S150.5,33.3,150.5,40s-3,10.31-11.44,10.31C130.79,50.35,127.59,46.7,127.59,40ZM139,34.56c-2,0-3,.86-3.41,2a6.17,6.17,0,0,0-.3,1.72v3.47a6.52,6.52,0,0,0,.3,1.77c0.4,1.18,1.45,2.07,3.49,2.07s3-.91,3.41-2.09a7.71,7.71,0,0,0,.3-1.77c0-.59,0-1.18,0-1.72s0-1.18,0-1.75a7.25,7.25,0,0,0-.3-1.75C142.09,35.37,141.07,34.56,139,34.56Z"/><path class="cls-1" d="M124.76,30.57a0.65,0.65,0,0,0-.65-0.64h-7a0.64,0.64,0,0,0-.64.64h0V49.43a0.64,0.64,0,0,0,.64.64h7a0.64,0.64,0,0,0,.64-0.62h0V30.57h0Z"/><path class="cls-1" d="M113.69,49.75a0.32,0.32,0,0,0,0-.15h0L107.7,39l5.58-8.58h0a0.33,0.33,0,0,0,.06-0.18,0.32,0.32,0,0,0-.32-0.32h-7.24a0.64,0.64,0,0,0-.55.31h0L100,38.87v-8.3h0a0.64,0.64,0,0,0-.64-0.64H92.69a0.64,0.64,0,0,0-.64.59h0V50.07h7.31a0.64,0.64,0,0,0,.64-0.64h0V41.5l5,8.26h0a0.64,0.64,0,0,0,.51.31h7.81A0.32,0.32,0,0,0,113.69,49.75Z"/><path class="cls-1" d="M57.55,30.54a0.64,0.64,0,0,0-.62-0.61H49.85a0.64,0.64,0,0,0-.56.34h0v0l0,0c-1.67,3.54-2.5,5.05-4.19,9.06h-2.5c-1.68-3.95-2.48-5.53-4.12-9.07h0a0.64,0.64,0,0,0-.59-0.39H30.78a0.64,0.64,0,0,0-.64.64h0V49.43a0.64,0.64,0,0,0,.64.64h5a0.64,0.64,0,0,0,.64-0.64h0V40.53h1c1.31,3.44,2.57,6.3,3.85,9.15h0a0.64,0.64,0,0,0,.59.38h3.75a0.64,0.64,0,0,0,.58-0.38h0c1.26-2.9,2.58-5.78,3.94-9.15H51c0,3,0,5.82,0,8.46v0a0.32,0.32,0,0,0,.61.11h0l5.9-15.58v-3h0Z"/><polygon class="cls-2" points="53.85 50.07 61.32 50.07 68.94 29.93 61.48 29.93 53.85 50.07"/><polygon class="cls-3" points="76.56 50.07 69.1 50.07 61.48 29.93 68.94 29.93 76.56 50.07"/><path class="cls-1" d="M89.22,36.55c0-5.21-4.59-6.63-10.5-6.63H72.9a0.64,0.64,0,0,0-.6.88h0l1.33,3.52H78.8c2.31,0,2.79.78,2.79,2.5s-0.38,2.58-2.79,2.58H75.54l0.9,2.39,0.29,0.76,2.77,7.29h0a0.64,0.64,0,0,0,.51.26h7.16a0.32,0.32,0,0,0,.32-0.32,0.32,0.32,0,0,0-.07-0.19h0l-2.76-7C88.18,41.09,89.22,39.28,89.22,36.55Z"/></svg>