<svg id="svg" xmlns="http://www.w3.org/2000/svg" width="160" height="80" viewBox="0 0 160 80"><defs><style>.cls-1{fill:#f48020;}</style></defs><title>svg-sources</title><path class="cls-1" d="M27.64,21.79A18.21,18.21,0,1,0,45.85,40,18.21,18.21,0,0,0,27.64,21.79Zm9.11,27.77a1.82,1.82,0,1,1-3.64,0v-0.1A11,11,0,0,0,36.74,46v3.52Zm0-9.56a9.1,9.1,0,1,1-3.64-7.29V28.3a1.82,1.82,0,0,1,3.64,0V40Z"/><circle class="cls-1" cx="27.64" cy="40" r="5.69"/><path class="cls-1" d="M65.86,33.65a9.61,9.61,0,0,0-2.88-2,8.35,8.35,0,0,0-3.44-.73,9.18,9.18,0,0,0-3.63.71,9,9,0,0,0-2.89,2,9.21,9.21,0,0,0-2.61,6.47,9,9,0,0,0,.72,3.61,8.7,8.7,0,0,0,2,2.86,9,9,0,0,0,2.87,1.88,9.14,9.14,0,0,0,3.52.68,7.5,7.5,0,0,0,3.78-1,11.71,11.71,0,0,0,3-2.38V48a1.17,1.17,0,1,0,2.33,0V40.08a8.58,8.58,0,0,0-.73-3.53A9.5,9.5,0,0,0,65.86,33.65Zm-0.25,9.12a6.92,6.92,0,0,1-1.47,2.12A6.82,6.82,0,0,1,62,46.3a6.74,6.74,0,0,1-5.17,0,6.79,6.79,0,0,1-2.14-1.45,6.71,6.71,0,0,1-1.45-2.14,6.52,6.52,0,0,1-.53-2.61,6.78,6.78,0,0,1,2-4.79,6.87,6.87,0,0,1,2.14-1.45,6.57,6.57,0,0,1,2.61-.53,6.69,6.69,0,0,1,2.63.53,6.71,6.71,0,0,1,3.61,3.61,6.72,6.72,0,0,1,.52,2.63A7.54,7.54,0,0,1,65.61,42.77Z"/><path class="cls-1" d="M106.08,47.47A8.22,8.22,0,0,0,107,46.7a1.35,1.35,0,0,0,.43-0.92,1.1,1.1,0,0,0-.32-0.85,1.14,1.14,0,0,0-.83-0.34,1.13,1.13,0,0,0-.83.34,7,7,0,0,1-2.14,1.41,6.83,6.83,0,0,1-5.21,0A7,7,0,0,1,96,44.87a6.78,6.78,0,0,1-1.45-2.15A6.54,6.54,0,0,1,94,40.12a6.78,6.78,0,0,1,2-4.79,6.85,6.85,0,0,1,2.14-1.45,6.83,6.83,0,0,1,5.21,0,7.79,7.79,0,0,1,2.14,1.33,1.11,1.11,0,0,0,.83.34,1.13,1.13,0,0,0,.83-0.34,0.85,0.85,0,0,0,.24-0.92,1.52,1.52,0,0,0-.4-0.69c-0.25-.22-0.58-0.49-1-0.79a9.26,9.26,0,0,0-1.37-.85,9.88,9.88,0,0,0-1.73-.68A7.38,7.38,0,0,0,100.8,31a9.9,9.9,0,0,0-3.63.81,9.35,9.35,0,0,0-2.89,2,9.21,9.21,0,0,0-1.9,10,8.78,8.78,0,0,0,2,2.86,9.39,9.39,0,0,0,8.55,2.31,9.9,9.9,0,0,0,1.81-.62A7.9,7.9,0,0,0,106.08,47.47Z"/><path class="cls-1" d="M136,45.78a1.07,1.07,0,0,0-.32-0.85,1.13,1.13,0,0,0-.82-0.34,1.14,1.14,0,0,0-.83.34,7,7,0,0,1-2.14,1.41,6.82,6.82,0,0,1-5.21,0,6.89,6.89,0,0,1-2.14-1.45,6.78,6.78,0,0,1-1.45-2.15,6.51,6.51,0,0,1-.53-2.61,6.66,6.66,0,0,1,.53-2.63,6.74,6.74,0,0,1,3.59-3.61,6.53,6.53,0,0,1,2.61-.53,6.6,6.6,0,0,1,2.6.51A7.77,7.77,0,0,1,134,35.19a1.12,1.12,0,0,0,.83.34,1.11,1.11,0,0,0,.82-0.34,0.84,0.84,0,0,0,.24-0.92,1.55,1.55,0,0,0-.39-0.69c-0.25-.22-0.58-0.49-1-0.79a9.15,9.15,0,0,0-1.37-.85,10,10,0,0,0-1.73-.68,7.4,7.4,0,0,0-2.09-.28,9.89,9.89,0,0,0-3.63.81,9.37,9.37,0,0,0-2.89,2,9.21,9.21,0,0,0-1.9,10,8.68,8.68,0,0,0,2,2.86,9,9,0,0,0,2.87,1.88,9.61,9.61,0,0,0,5.68.43,9.82,9.82,0,0,0,1.8-.62,8.14,8.14,0,0,0,1.39-.81,8.57,8.57,0,0,0,.92-0.77A1.35,1.35,0,0,0,136,45.78Z"/><path class="cls-1" d="M88,26.34a1.15,1.15,0,0,0-1.16,1.16v6.86a12.46,12.46,0,0,0-3-2.35,8.12,8.12,0,0,0-3.83-1.07,8.36,8.36,0,0,0-3.44.73,9.64,9.64,0,0,0-2.88,2,9.46,9.46,0,0,0-2,2.89,8.83,8.83,0,0,0,0,7,9.41,9.41,0,0,0,1.94,2.88,9,9,0,0,0,6.45,2.67,9.17,9.17,0,0,0,3.49-.68,9,9,0,0,0,2.9-1.88l0.34-.34V48a1.16,1.16,0,1,0,2.33,0V27.5A1.15,1.15,0,0,0,88,26.34ZM86.33,42.69a6.79,6.79,0,0,1-3.59,3.59,6.56,6.56,0,0,1-2.61.53,6.78,6.78,0,0,1-4.79-2,6.81,6.81,0,0,1-1.45-2.14,6.56,6.56,0,0,1-.53-2.61,6.72,6.72,0,0,1,.53-2.63,6.73,6.73,0,0,1,3.61-3.61,6.69,6.69,0,0,1,2.63-.53,6.55,6.55,0,0,1,4.66,1.92,6.92,6.92,0,0,1,1.45,2.14,7.73,7.73,0,0,1,.62,2.71A6.56,6.56,0,0,1,86.33,42.69Z"/><path class="cls-1" d="M111.89,48.8a1.13,1.13,0,0,0,.34-0.83V27.5a1.17,1.17,0,1,0-2.33,0V48A1.17,1.17,0,0,0,111.89,48.8Z"/><path class="cls-1" d="M117.4,48V32a1.17,1.17,0,1,0-2.33,0V48A1.17,1.17,0,1,0,117.4,48Z"/><path class="cls-1" d="M116.23,29.42a1.54,1.54,0,1,0-1.54-1.54A1.53,1.53,0,0,0,116.23,29.42Z"/><path class="cls-1" d="M140.47,48.8a1.13,1.13,0,0,0,.34-0.83V42L143,39.85l5.45,8.72a1.23,1.23,0,0,0,.71.54A1,1,0,0,0,150,49a1.24,1.24,0,0,0,.54-0.71,1,1,0,0,0-.13-0.87l-5.75-9.25,5.41-5.27a1.17,1.17,0,0,0-1.66-1.65l-7.59,7.56V27.54a1.16,1.16,0,0,0-1.16-1.17,1.11,1.11,0,0,0-.83.34,1.13,1.13,0,0,0-.34.83V48A1.17,1.17,0,0,0,140.47,48.8Z"/></svg>