<?xml version="1.0" encoding="utf-8"?>
<!-- Generator: Adobe Illustrator 19.2.0, SVG Export Plug-In . SVG Version: 6.00 Build 0)  -->
<svg version="1.1" id="svg" xmlns="http://www.w3.org/2000/svg" xmlns:xlink="http://www.w3.org/1999/xlink" x="0px" y="0px"
	 width="94px" height="94px" viewBox="0 0 94 94" style="enable-background:new 0 0 94 94;" xml:space="preserve">
<style type="text/css">
	.st0{fill:#0E57A6;}
</style>
<title>svg-sources</title>
<path class="st0" d="M62.6,13.2c1,0,1.8,0.8,1.8,1.8v6.8h16.9v35.6H45c-0.8,0-1.5-0.7-1.5-1.5v0v-7.2H26.6V13.2H62.6 M62.6,9.3H26.6
	c-2.1,0-3.9,1.7-3.9,3.9v35.5c0,2.1,1.7,3.9,3.9,3.9h0h13v3.3c0,3,2.4,5.4,5.4,5.4c0,0,0,0,0.1,0h36.4c2.1,0,3.9-1.7,3.9-3.9V21.9
	c0-2.1-1.7-3.9-3.9-3.9h-13v-3C68.4,11.8,65.8,9.3,62.6,9.3C62.6,9.3,62.6,9.3,62.6,9.3L62.6,9.3z"/>
<path class="st0" d="M65,19.4c-0.3,0-0.6,0.3-0.6,0.6l-0.1,29.2c-0.5-0.3-1-0.5-1.6-0.5l-22.2,0c-0.3,0-0.6,0.3-0.6,0.6
	c0,0.3,0.3,0.6,0.6,0.6l0,0l22.2,0c0.8,0,1.5,0.6,1.6,1.5l0,0l0,0c-0.1,0.9-0.9,1.6-1.8,1.5c0,0,0,0,0,0h-17c-1.4,0-2.7,1-3,2.4
	L42,55.3c-0.3,0.1-0.5,0.4-0.4,0.7c0.1,0.3,0.4,0.5,0.7,0.4c0,0,0,0,0.1,0l1.1-0.3v-0.4c0.1-1,0.9-1.7,1.9-1.7h17
	c1.5,0.1,2.9-1,3-2.5c0,0,0,0,0-0.1l0,0L65.6,20C65.6,19.7,65.4,19.4,65,19.4C65,19.4,65,19.4,65,19.4z"/>
<path class="st0" d="M19.8,85.9c-0.6,0-1.1-0.5-1.1-1.1V11.4h-4v73.3c0.1,0.6-0.4,1.2-1,1.2c-0.6,0.1-1.2-0.4-1.2-1
	c0-0.1,0-0.1,0-0.2V10.3c0-0.6,0.5-1.1,1.1-1.1c0,0,0,0,0,0h6.3c0.6,0,1.1,0.5,1.1,1.1v74.4C20.9,85.4,20.4,85.9,19.8,85.9z"/>
<path class="st0" d="M22.2,6.4H11.1c-0.6-0.1-1.1-0.6-1-1.2c0.1-0.5,0.5-1,1-1h11.1c0.6,0.1,1.1,0.6,1,1.2
	C23.2,5.9,22.7,6.4,22.2,6.4z"/>
</svg>
