<svg id="svg" xmlns="http://www.w3.org/2000/svg" xmlns:xlink="http://www.w3.org/1999/xlink" width="160" height="80" viewBox="0 0 160 80"><defs><style>.cls-1,.cls-2,.cls-3,.cls-4,.cls-5,.cls-6,.cls-7,.cls-8{fill-rule:evenodd;}.cls-1{fill:url(#GradientFill_2);}.cls-2{fill:url(#GradientFill_3);}.cls-3{fill:url(#GradientFill_2-2);}.cls-4{fill:url(#GradientFill_3-2);}.cls-5,.cls-8{fill:#fdfdfd;}.cls-5{opacity:0.4;}.cls-6,.cls-8{opacity:0.2;}.cls-6{fill:url(#GradientFill_2-3);}.cls-7{opacity:0.6;fill:url(#GradientFill_3-3);}.cls-9{fill:#9ba5b4;}</style><radialGradient id="GradientFill_2" cx="121.38" cy="6.55" r="26.54" gradientUnits="userSpaceOnUse"><stop offset="0" stop-color="#ffd419"/><stop offset="1" stop-color="#f8aa00"/></radialGradient><radialGradient id="GradientFill_3" cx="120.76" cy="7.41" r="25.15" gradientUnits="userSpaceOnUse"><stop offset="0" stop-color="#efbb00"/><stop offset="1" stop-color="#e58305"/></radialGradient><radialGradient id="GradientFill_2-2" cx="121.34" cy="7.51" r="24.16" xlink:href="#GradientFill_2"/><radialGradient id="GradientFill_3-2" cx="119.57" cy="12.86" r="17.57" xlink:href="#GradientFill_3"/><radialGradient id="GradientFill_2-3" cx="121.22" cy="13.59" r="13.41" xlink:href="#GradientFill_2"/><radialGradient id="GradientFill_3-3" cx="123.6" cy="12.21" r="7.88" xlink:href="#GradientFill_3"/></defs><title>svg-sources</title><path class="cls-1" d="M129,7c9.35,5.4,7.93,2.94,7.93,13.74s1.42,8.34-7.93,13.74-6.51,5.4-15.87,0-7.93-2.94-7.93-13.74c0-9.61-1.14-8.71,5.24-12.2,2-1.11,3.89-2.2,5.86-3.39C121.91,1.75,120.88,2.38,129,7Z"/><path class="cls-2" d="M128.51,7.84C137.3,12.91,136,10.6,136,20.75s1.33,7.84-7.46,12.92-6.12,5.07-14.91,0-7.46-2.77-7.46-12.92c0-9-1.07-8.19,4.92-11.47,1.9-1,3.66-2.07,5.5-3.18C121.86,2.89,120.89,3.49,128.51,7.84Z"/><path class="cls-3" d="M128,7.91c8.16,4.71,6.93,2.57,6.93,12s1.24,7.28-6.93,12-5.69,4.71-13.85,0-6.93-2.57-6.93-12c0-8.39-1-7.61,4.57-10.66,1.76-1,3.4-1.92,5.11-3C121.8,3.32,120.9,3.87,128,7.91Z"/><path class="cls-4" d="M125,13.16c6.14,3.54,5.21,1.93,5.21,9s0.93,5.48-5.21,9-4.28,3.54-10.42,0-5.21-1.93-5.21-9c0-6.31-.75-5.72,3.44-8,1.33-.73,2.55-1.44,3.84-2.22C120.34,9.71,119.66,10.12,125,13.16Z"/><path class="cls-5" d="M127.66,8.36c7.86,4.54,6.66,2.47,6.66,11.54,0,7.24.76,7.39-2.93,9.46,4.32-13.08-2.24-21.95-15.06-22.17C121.8,3.91,120.55,4.3,127.66,8.36Z"/><path class="cls-6" d="M125.07,13.82c4.72,2.73,4,1.49,4,6.94s0.72,4.21-4,6.94-3.29,2.73-8,0-4-1.49-4-6.94c0-4.86-.57-4.4,2.65-6.17,1-.56,2-1.11,3-1.71C121.49,11.16,121,11.48,125.07,13.82Z"/><path class="cls-7" d="M126,12.34c2.76,1.59,2.34.87,2.34,4s0.42,2.46-2.34,4-1.92,1.59-4.67,0-2.34-.87-2.34-4c0-2.83-.33-2.57,1.54-3.6,0.6-.33,1.15-0.65,1.73-1C123.95,10.79,123.65,11,126,12.34Z"/><path class="cls-5" d="M125.84,12.55c2.65,1.53,2.25.83,2.25,3.89,0,2.44.26,2.49-1,3.19,1.46-4.41-1.93-7.86-5.08-7.48C123.86,11.05,123.44,11.19,125.84,12.55Z"/><path class="cls-8" d="M114.65,30.8c-5.82-3.36-4.94-1.83-4.94-8.55,0-5.37-.56-5.47,2.17-7-3.2,9.69,4.25,17.26,11.16,16.42C119,34.1,119.92,33.8,114.65,30.8Z"/><path class="cls-9" d="M117.22,48.8h4.1a12.75,12.75,0,0,1-4.9,7.47,14.84,14.84,0,0,1-9.1,2.69q-6.65,0-10.38-4.32t-3.73-12q0-7.47,3.61-11.67t10.38-4.32q7,0,10.85,4.2a15.64,15.64,0,0,1,3.48,8.24c1,5.69-3,5.79-5.59,5.88h-13.9c-1.39,0-2-.18-1.78,1.16,0.38,3.62,2.86,6.51,6.66,6.51,3.62,0,4.67-1.55,6.84-3.23a9,9,0,0,1,3.46-.59h0Zm-76-30.68h-3.1c-2.76,0-4.4,2.83-4.4,6.13V44.84C33.76,54.49,39.21,59,48.49,59c10.14,0,14-6.6,14-16q0-7.36-3.38-11.79A11.38,11.38,0,0,0,45,27.81a11.2,11.2,0,0,0-3.73,3.61V18.12h0Zm13.3,24.5c0,4.52-1.34,9.57-6.77,9.57a5.67,5.67,0,0,1-4.9-2.45q-1.63-2.45-1.63-7.12A11.26,11.26,0,0,1,43,36a6.1,6.1,0,0,1,5-2.33c4.93,0,6.53,4.82,6.53,9h0ZM87.74,48.8h4.1a12.75,12.75,0,0,1-4.9,7.47A14.84,14.84,0,0,1,77.84,59q-6.65,0-10.38-4.32t-3.73-12q0-7.47,3.61-11.67t10.38-4.32q7,0,10.85,4.2a15.64,15.64,0,0,1,3.48,8.24c1,5.69-3,5.79-5.59,5.88H72.57c-1.39,0-2-.18-1.78,1.16,0.38,3.62,2.86,6.51,6.66,6.51,3.62,0,4.67-1.55,6.84-3.23a9,9,0,0,1,3.46-.59h0Zm-16.6-9.06H83c1.42,0.07,1.77-.48,1.59-1.56-0.7-3.49-2.68-5.22-6.78-5.2s-6.48,2.53-6.64,6.76h0Zm29.48,0h11.84c1.42,0.07,1.77-.48,1.59-1.56-0.7-3.49-2.68-5.22-6.78-5.2S100.79,35.52,100.62,39.74Z"/></svg>