<svg id="svg" xmlns="http://www.w3.org/2000/svg" width="339" height="79" viewBox="0 0 339 79"><defs><style>.cls-1{fill:#4b4b51;}.cls-2{fill:#e54b57;}</style></defs><title>svg-sources</title><path class="cls-1" d="M0,42V0.6H11.06V42H0Z"/><path class="cls-1" d="M245.57,0.57V25.94H234.52V0.57h11.06Z"/><path class="cls-2" d="M245.57,31.42V42H234.52V31.42h11.06Z"/><path class="cls-1" d="M56.38,20.14v-1.9L46.68,42H40L30.4,18.24v1.63L29.85,42H18.73L20.36,0.6H32.7l9.63,22.52a31.91,31.91,0,0,1,1,3.12,31.82,31.82,0,0,1,1-3.12L54,0.6H66.35L68,42H56.85Z"/><path class="cls-1" d="M92.21,0.6c11.67,0,18.18,5.77,18.18,16.08,0,10.11-6.38,15.81-17.71,15.81h-6V42H75.65V0.6H92.21Zm0.41,22.52c4.55,0,7.06-2.31,7.06-6.44S97,10.1,92.14,10.1H86.71v13h5.9Z"/><path class="cls-1" d="M119.62,42H107.75L123.22,0.6h15.06L153.68,42h-11.8l-2.31-6.58H121.93ZM131.9,13.49c-0.48-1.49-.88-2.71-1.15-3.8-0.34,1.09-.75,2.31-1.22,3.8l-4.14,11.87H136Z"/><path class="cls-1" d="M191.94,37.85a34.16,34.16,0,0,1-17.64,4.75c-12.55,0-20.42-7.6-20.42-21.23S161.76-.08,175-0.08a33.75,33.75,0,0,1,15.47,3.73l-3.32,8.28c-5-1.42-8.34-2.1-11.6-2.1-6.85,0-10.45,3.87-10.45,11.53,0,6.78,3.87,11.33,9.77,11.33,4.61,0,7.94-.81,13.5-3.05Z"/><path class="cls-1" d="M216.78,10.64V42H205.72V10.64H193V0.6H229.6v10H216.78Z"/><path class="cls-2" d="M282.29,42l-17.5-23.34V42H253.73V0.6h10l17.5,23.61V0.6h11.06V42h-10Z"/><path class="cls-2" d="M337.59,37.44c-7.39,3.66-13.3,5.16-20.08,5.16-12.41,0-20.28-7.6-20.28-21.23,0-12.82,8.21-21.44,20.62-21.44a47.12,47.12,0,0,1,17.91,3.73L333,11.86c-5.22-1.42-9.29-2.31-14.11-2.31-6.31,0-10.45,4.75-10.45,11.8,0,7.46,3.6,11.47,9.57,11.47a26.91,26.91,0,0,0,10-1.56V27.13h-7.89V18.45h17.45v19Z"/><path class="cls-2" d="M2.61,75.68H0.75l1.37-9.79H4ZM3.59,62a0.87,0.87,0,0,1,1,1,1.23,1.23,0,0,1-1.27,1,0.88,0.88,0,0,1-1-1A1.21,1.21,0,0,1,3.59,62Z"/><path class="cls-2" d="M8.52,67a5.74,5.74,0,0,1,3.59-1.29c1.95,0,3.28,1.39,2.92,3.84l-0.87,6.12H12.3l0.87-5.87c0.27-1.85-.19-2.55-1.6-2.55A5.73,5.73,0,0,0,8.3,68.69l-1,7H5.46l1.37-9.79H8.69Z"/><path class="cls-2" d="M20,67a5.74,5.74,0,0,1,3.59-1.29c1.95,0,3.28,1.39,2.92,3.84L25.6,75.68H23.73l0.87-5.87c0.27-1.85-.19-2.55-1.6-2.55a5.73,5.73,0,0,0-3.28,1.43l-1,7H16.89l1.37-9.79h1.87Z"/><path class="cls-2" d="M38.12,70.85a5.53,5.53,0,0,1-5.62,5c-2.94,0-4.6-2-4.19-5a5.63,5.63,0,0,1,5.62-5.14C36.9,65.71,38.58,67.76,38.12,70.85Zm-1.8,0c0.33-2.41-.5-3.55-2.59-3.55a3.73,3.73,0,0,0-3.59,3.55c-0.33,2.32.5,3.42,2.59,3.42A3.66,3.66,0,0,0,36.32,70.85Z"/><path class="cls-2" d="M41.88,75.68l-2.59-9.79H41.2l1.68,6.28a14.38,14.38,0,0,1,.31,1.53c0.23-.5.48-1,0.75-1.53l3.44-6.28H49.3L44,75.68H41.88Z"/><path class="cls-2" d="M58.27,75.68H56.4l0.17-1.12a5.17,5.17,0,0,1-3.4,1.31c-2.12,0-4.11-1.43-3.59-5.12s2.28-5,4.58-5a6,6,0,0,1,3.46,1.22l0.15-1h1.87Zm-0.85-7.24a5.18,5.18,0,0,0-2.9-1.16c-1.56,0-2.74.89-3.09,3.46s0.81,3.57,2.28,3.57c1.22,0,1.87-.48,3.07-1.26Z"/><path class="cls-2" d="M63.37,72.43A1.28,1.28,0,0,0,64.78,74c0.39,0,.93,0,1.68-0.1l0.21,1.39a6.28,6.28,0,0,1-2.55.44c-1.89,0-2.94-1.31-2.65-3.28l0.71-5H60.69l0.21-1.58h1.47l0.35-2.45h1.87l-0.33,2.45h2.88l-0.21,1.58H64.05Z"/><path class="cls-2" d="M69.76,75.68H67.89l1.37-9.79h1.87Zm1-13.67a0.87,0.87,0,0,1,1,1,1.23,1.23,0,0,1-1.27,1,0.88,0.88,0,0,1-1-1A1.21,1.21,0,0,1,70.73,62Z"/><path class="cls-2" d="M75.32,75.68l-2.59-9.79h1.91l1.68,6.28a14.38,14.38,0,0,1,.31,1.53c0.23-.5.48-1,0.75-1.53l3.44-6.28h1.93l-5.35,9.79H75.32Z"/><path class="cls-2" d="M91.12,74.38a6.48,6.48,0,0,1-4.31,1.49c-2.86,0-4.48-2.07-4-5.21s2.36-5,5.33-5c2.74,0,4.06,1.7,3.71,4.75a7.68,7.68,0,0,1-.17.85h-7.2c-0.14,2.2,1,3.07,2.63,3.07a6.17,6.17,0,0,0,3.61-1.12Zm-0.89-4.52c0.1-1.7-.73-2.67-2.32-2.67a3.17,3.17,0,0,0-3.24,2.67h5.56Z"/><path class="cls-2" d="M106.78,75.68h-1.87l0.17-1.12a5.17,5.17,0,0,1-3.4,1.31c-2.12,0-4.11-1.43-3.59-5.12s2.49-5,4.79-5A4.9,4.9,0,0,1,106.14,67l0.68-4.85h1.87Zm-0.85-7.26a5.31,5.31,0,0,0-2.9-1.14c-1.56,0-2.74.89-3.09,3.46s0.81,3.46,2.28,3.46a5.26,5.26,0,0,0,3.09-1.39Z"/><path class="cls-2" d="M111.62,75.68h-1.87l1.37-9.79H113Zm1-13.67a0.87,0.87,0,0,1,1,1,1.23,1.23,0,0,1-1.27,1,0.88,0.88,0,0,1-1-1A1.21,1.21,0,0,1,112.59,62Z"/><path class="cls-2" d="M123.38,74.19C122.9,77.59,121,79,118.23,79A8.18,8.18,0,0,1,114,78l0.54-1.49a8.53,8.53,0,0,0,3.65.87c1.78,0,2.94-.79,3.28-3.15l0-.27a5.66,5.66,0,0,1-3.67,1.33c-2.24,0-3.86-1.35-3.4-4.56,0.5-3.59,2.2-5,4.58-5A5.91,5.91,0,0,1,122.53,67l0.15-1.1h1.87Zm-1.06-5.74a5.5,5.5,0,0,0-2.9-1.16c-1.58,0-2.74.85-3.09,3.4-0.33,2.32.89,3.09,2.36,3.09a5.79,5.79,0,0,0,3.07-1.31Z"/><path class="cls-2" d="M127.69,75.68h-1.87l1.37-9.79h1.87Zm1-13.67a0.87,0.87,0,0,1,1,1,1.23,1.23,0,0,1-1.27,1,0.88,0.88,0,0,1-1-1A1.21,1.21,0,0,1,128.67,62Z"/><path class="cls-2" d="M133.4,72.43A1.28,1.28,0,0,0,134.81,74c0.39,0,.93,0,1.68-0.1l0.21,1.39a6.28,6.28,0,0,1-2.55.44c-1.89,0-2.94-1.31-2.65-3.28l0.71-5h-1.47l0.21-1.58h1.47l0.35-2.45h1.87l-0.33,2.45h2.88L137,67.47h-2.88Z"/><path class="cls-2" d="M146.73,75.68h-1.87L145,74.56a5.16,5.16,0,0,1-3.4,1.31c-2.12,0-4.11-1.43-3.59-5.12s2.28-5,4.58-5a6,6,0,0,1,3.46,1.22l0.15-1h1.87Zm-0.85-7.24a5.18,5.18,0,0,0-2.9-1.16c-1.56,0-2.74.89-3.09,3.46s0.81,3.57,2.28,3.57c1.22,0,1.87-.48,3.07-1.26Z"/><path class="cls-2" d="M151.34,75.68h-1.87l1.89-13.54h1.87Z"/><path class="cls-2" d="M161.67,67.08a7.06,7.06,0,0,1,3.84-1.35c2.36,0,3.67,1.37,3.17,5s-2.72,5.12-4.83,5.12a4.31,4.31,0,0,1-3.21-1.33l-0.17,1.14H158.6l1.91-13.54h1.87Zm-0.81,5.74a4,4,0,0,0,2.65,1.49c1.47,0,2.94-1,3.32-3.57s-0.58-3.46-2.14-3.46a6.1,6.1,0,0,0-3.28,1.58Z"/><path class="cls-2" d="M178.88,75.68H177l0.17-1.14a5.74,5.74,0,0,1-3.61,1.31c-1.95,0-3.28-1.39-2.92-3.84l0.87-6.12h1.87l-0.81,5.66c-0.27,1.85.19,2.55,1.6,2.55a5.45,5.45,0,0,0,3.23-1.24l1-7h1.87Z"/><path class="cls-2" d="M189.07,67.95a10.6,10.6,0,0,0-3.34-.79c-1.1,0-1.78.44-1.87,1-0.17,1,.68,1.26,2.63,2s2.86,1.49,2.63,3.21c-0.21,1.45-1.51,2.49-3.94,2.49a7.38,7.38,0,0,1-4.29-1.45l0.75-1.27a6,6,0,0,0,3.63,1.27c1.24,0,2-.52,2.07-1.24s-0.48-1.18-2-1.68c-2.68-.87-3.4-1.68-3.19-3.32s1.66-2.47,3.61-2.47a9.92,9.92,0,0,1,3.94.87Z"/><path class="cls-2" d="M192.78,75.68h-1.87l1.37-9.79h1.87Zm1-13.67a0.87,0.87,0,0,1,1,1,1.23,1.23,0,0,1-1.26,1,0.88,0.88,0,0,1-1-1A1.21,1.21,0,0,1,193.76,62Z"/><path class="cls-2" d="M198.69,67a5.74,5.74,0,0,1,3.59-1.29c1.95,0,3.28,1.39,2.92,3.84l-0.87,6.12h-1.87l0.87-5.87c0.27-1.85-.19-2.55-1.6-2.55a5.72,5.72,0,0,0-3.28,1.43l-1,7h-1.87L197,65.89h1.87Z"/><path class="cls-2" d="M215.33,74.38A6.48,6.48,0,0,1,211,75.87c-2.86,0-4.48-2.07-4-5.21s2.36-5,5.33-5c2.74,0,4.06,1.7,3.71,4.75a7.68,7.68,0,0,1-.17.85h-7.2c-0.14,2.2,1,3.07,2.63,3.07a6.17,6.17,0,0,0,3.61-1.12Zm-0.89-4.52c0.1-1.7-.73-2.67-2.32-2.67a3.17,3.17,0,0,0-3.24,2.67h5.56Z"/><path class="cls-2" d="M224.87,67.95a10.59,10.59,0,0,0-3.34-.79c-1.1,0-1.78.44-1.87,1-0.17,1,.68,1.26,2.63,2s2.86,1.49,2.63,3.21c-0.21,1.45-1.51,2.49-3.94,2.49a7.38,7.38,0,0,1-4.29-1.45l0.75-1.27a6,6,0,0,0,3.63,1.27c1.24,0,2-.52,2.07-1.24s-0.48-1.18-2-1.68c-2.67-.87-3.4-1.68-3.19-3.32s1.66-2.47,3.61-2.47a9.91,9.91,0,0,1,3.94.87Z"/><path class="cls-2" d="M234.06,67.95a10.6,10.6,0,0,0-3.34-.79c-1.1,0-1.78.44-1.87,1-0.17,1,.68,1.26,2.63,2s2.86,1.49,2.63,3.21c-0.21,1.45-1.51,2.49-3.94,2.49a7.38,7.38,0,0,1-4.29-1.45l0.75-1.27a6,6,0,0,0,3.63,1.27c1.24,0,2-.52,2.07-1.24s-0.48-1.18-2-1.68c-2.68-.87-3.4-1.68-3.19-3.32s1.66-2.47,3.61-2.47a9.92,9.92,0,0,1,3.94.87Z"/></svg>