<svg id="svg" xmlns="http://www.w3.org/2000/svg" width="1000" height="61" viewBox="0 0 1000 61"><defs><style>.cls-1{fill:#e9eef5;}</style></defs><title>svg-sources</title><path class="cls-1" d="M995,61a4,4,0,0,1-4-4V50.09A14.11,14.11,0,0,0,976.91,36H527A32,32,0,0,1,495,4a4,4,0,0,1,8,0,24,24,0,0,0,24,24H976.91A22.12,22.12,0,0,1,999,50.09V57A4,4,0,0,1,995,61Z"/><path class="cls-1" d="M4.91,61a4,4,0,0,1-4-4V50.09A22.12,22.12,0,0,1,23,28H471A24,24,0,0,0,495,4a4,4,0,0,1,8,0,32,32,0,0,1-32,32H23A14.11,14.11,0,0,0,8.91,50.09V57A4,4,0,0,1,4.91,61Z"/></svg>