<svg id="svg" xmlns="http://www.w3.org/2000/svg" width="95" height="16" viewBox="0 0 95 16"><defs><style>.cls-1{fill:#fff;}.cls-2{fill:#e3eaf3;}</style></defs><title>svg-sources</title><path class="cls-1" d="M0.07,14.17V10.86a17.53,17.53,0,0,0,5.19,1.2c0.63,0,2-.11,2-1.12,0-.53-0.76-0.81-1.39-1S4.25,9.52,3.37,9.21C1.63,8.6,0,7.6,0,5.42,0,2.3,2.93,1,6.59,1A23.66,23.66,0,0,1,12,1.7V4.89L9.23,4.26A11.18,11.18,0,0,0,6.91,4c-0.72,0-2.17.09-2.17,1.18,0,0.58.8,0.85,1.39,1s1.57,0.42,2.48.72C10.37,7.53,12,8.49,12,10.64,12,13.7,8.88,15,5.32,15A15.12,15.12,0,0,1,.07,14.17Z"/><path class="cls-1" d="M79.56,8c0-4.54,2.12-7,7.73-7S95,3.47,95,8,93,15,87.29,15,79.56,12.5,79.56,8Zm7.71-3.69A2.16,2.16,0,0,0,85,5.68a4.16,4.16,0,0,0-.2,1.16V9.17a4.39,4.39,0,0,0,.2,1.19,2.19,2.19,0,0,0,2.35,1.39,2.15,2.15,0,0,0,2.3-1.41,5.2,5.2,0,0,0,.2-1.19c0-.4,0-0.8,0-1.16s0-.8,0-1.18a4.88,4.88,0,0,0-.2-1.18A2.19,2.19,0,0,0,87.27,4.32Z"/><path class="cls-1" d="M77.66,1.63a0.44,0.44,0,0,0-.44-0.43H72.54a0.43,0.43,0,0,0-.43.43h0V14.34a0.43,0.43,0,0,0,.43.43h4.69a0.43,0.43,0,0,0,.43-0.42h0V1.63h0Z"/><path class="cls-1" d="M70.2,14.56a0.22,0.22,0,0,0,0-.1h0l-4-7.14,3.76-5.78h0a0.22,0.22,0,0,0,0-.12,0.21,0.21,0,0,0-.21-0.21H64.88a0.43,0.43,0,0,0-.37.21h0L61,7.22V1.63h0a0.43,0.43,0,0,0-.43-0.43H56.05a0.43,0.43,0,0,0-.43.4h0V14.77h4.92A0.43,0.43,0,0,0,61,14.34h0V9l3.4,5.57h0a0.43,0.43,0,0,0,.35.21H70A0.21,0.21,0,0,0,70.2,14.56Z"/><path class="cls-1" d="M32.38,1.61A0.43,0.43,0,0,0,32,1.2H27.19a0.43,0.43,0,0,0-.38.23h0v0C25.66,3.85,25.1,4.87,24,7.57H22.28c-1.13-2.66-1.67-3.72-2.77-6.11h0a0.43,0.43,0,0,0-.4-0.26H14.34a0.43,0.43,0,0,0-.43.43h0v12.7a0.43,0.43,0,0,0,.43.43h3.35a0.43,0.43,0,0,0,.43-0.43h0v-6h0.65c0.88,2.32,1.73,4.24,2.6,6.16h0a0.43,0.43,0,0,0,.39.26h2.52a0.43,0.43,0,0,0,.39-0.25h0c0.85-2,1.74-3.89,2.65-6.16H28c0,2.05,0,3.92,0,5.7h0a0.21,0.21,0,0,0,.41.07h0l4-10.5v-2h0Z"/><polygon class="cls-2" points="29.89 14.77 34.91 14.77 40.05 1.2 35.02 1.2 29.89 14.77"/><polygon class="cls-1" points="45.18 14.77 40.16 14.77 35.02 1.2 40.05 1.2 45.18 14.77"/><path class="cls-1" d="M53.71,5.66c0-3.51-3.09-4.47-7.08-4.47H42.72a0.43,0.43,0,0,0-.4.59h0l0.89,2.37h3.48c1.55,0,1.88.52,1.88,1.68s-0.25,1.74-1.88,1.74h-2.2L45.1,9.18,45.3,9.7l1.87,4.91h0a0.43,0.43,0,0,0,.35.18h4.82a0.21,0.21,0,0,0,.21-0.21,0.22,0.22,0,0,0,0-.13h0L50.64,9.7C53,8.72,53.71,7.5,53.71,5.66Z"/></svg>